<svg version="1.1" id="Layer_1" xmlns="http://www.w3.org/2000/svg" xmlns:xlink="http://www.w3.org/1999/xlink" x="0px" y="0px"
	 width="100%" viewBox="0 0 265 487" enable-background="new 0 0 265 487" xml:space="preserve">
<path fill="#2D1A13" opacity="1.000000" stroke="none" 
	d="
M257.074524,488.000000 
	C171.398224,488.000000 86.232765,488.000000 1.033650,488.000000 
	C1.033650,325.691406 1.033650,163.382782 1.033650,1.037090 
	C89.307350,1.037090 177.614716,1.037090 265.961060,1.037090 
	C265.961060,163.305054 265.961060,325.610138 265.961060,488.000000 
	C263.195374,488.000000 260.390350,488.000000 257.074524,488.000000 
M124.362892,306.173279 
	C111.321510,309.036224 99.587273,313.972595 90.163208,324.148529 
	C66.857857,349.313263 72.004158,396.576630 105.420456,413.163147 
	C115.085640,417.960571 125.456390,421.401550 136.099655,420.531982 
	C146.780304,419.659393 157.024170,416.108032 166.531113,410.356201 
	C185.769135,398.716949 195.677505,370.804535 190.525391,351.185211 
	C188.534775,343.604950 185.084457,336.140411 180.962753,329.445953 
	C173.542465,317.393890 162.111862,310.588837 147.828995,307.309296 
	C145.893494,298.987396 143.957993,290.665527 141.918823,281.897888 
	C133.477386,287.955780 127.729912,295.844208 124.362892,306.173279 
z"/>
<path fill="#2D2624" opacity="1.000000" stroke="none" 
	d="
M148.210236,307.980988 
	C162.111862,310.588837 173.542465,317.393890 180.962753,329.445953 
	C185.084457,336.140411 188.534775,343.604950 190.525391,351.185211 
	C195.677505,370.804535 185.769135,398.716949 166.531113,410.356201 
	C157.024170,416.108032 146.780304,419.659393 136.099655,420.531982 
	C125.456390,421.401550 115.085640,417.960571 105.420456,413.163147 
	C72.004158,396.576630 66.857857,349.313263 90.163208,324.148529 
	C99.587273,313.972595 111.321510,309.036224 124.813431,306.490631 
	C125.309967,307.864777 125.355965,308.921600 125.336426,310.315552 
	C125.215874,311.104706 125.160858,311.556641 124.680092,312.006500 
	C120.262207,313.032959 116.123314,313.680511 112.301971,315.152496 
	C88.978371,324.136566 80.519989,344.436493 80.708084,363.801605 
	C80.853760,378.799988 86.395920,392.930542 99.208916,402.655426 
	C110.725555,411.396454 123.614159,416.217163 138.244095,414.375122 
	C150.652573,412.812805 161.943344,408.749084 171.290848,399.651917 
	C182.502762,388.740234 186.708649,375.042236 186.166458,360.393402 
	C185.853043,351.925995 182.697327,342.908539 178.544601,335.397064 
	C172.783386,324.976105 164.278152,316.561432 151.099823,314.690430 
	C149.945679,312.583618 148.987534,310.766449 148.071960,308.706696 
	C148.114548,308.464142 148.210236,307.980988 148.210236,307.980988 
z"/>
<path fill="#01B6F7" opacity="1.000000" stroke="none" 
	d="
M125.401970,309.978394 
	C125.355965,308.921600 125.309967,307.864777 125.204300,306.412170 
	C127.729912,295.844208 133.477386,287.955780 141.918823,281.897888 
	C143.957993,290.665527 145.893494,298.987396 148.019623,307.645142 
	C148.210236,307.980988 148.114548,308.464142 147.614685,308.709106 
	C144.354889,308.982117 141.594955,309.010223 138.621994,308.783508 
	C137.724258,306.872681 137.039551,305.216614 135.860916,302.365906 
	C134.477753,305.817749 133.647446,307.889862 132.403412,309.956299 
	C129.793777,309.959869 127.597878,309.969116 125.401970,309.978394 
z"/>
<path fill="#2D3133" opacity="1.000000" stroke="none" 
	d="
M151.295807,314.980072 
	C164.278152,316.561432 172.783386,324.976105 178.544601,335.397064 
	C182.697327,342.908539 185.853043,351.925995 186.166458,360.393402 
	C186.708649,375.042236 182.502762,388.740234 171.290848,399.651917 
	C161.943344,408.749084 150.652573,412.812805 138.244095,414.375122 
	C123.614159,416.217163 110.725555,411.396454 99.208916,402.655426 
	C86.395920,392.930542 80.853760,378.799988 80.708084,363.801605 
	C80.519989,344.436493 88.978371,324.136566 112.301971,315.152496 
	C116.123314,313.680511 120.262207,313.032959 124.843826,312.187256 
	C125.589104,312.677063 125.615181,312.994629 125.251862,313.638916 
	C123.133087,314.983307 121.382774,316.353302 119.397514,316.985413 
	C104.644814,321.682709 93.590805,330.138733 88.250793,345.354767 
	C81.904640,363.437714 84.471176,380.030029 96.803749,394.389374 
	C108.478493,407.982758 124.482735,411.948029 141.588257,409.529480 
	C152.688919,407.959930 163.156631,403.273773 170.796738,394.487610 
	C185.205460,377.917664 186.009140,350.569458 172.347321,333.353119 
	C167.844742,327.679047 163.290375,321.049957 154.306213,320.942627 
	C153.167786,318.791687 152.231796,316.885895 151.295807,314.980072 
z"/>
<path fill="#02D6F5" opacity="1.000000" stroke="none" 
	d="
M151.099823,314.690430 
	C152.231796,316.885895 153.167786,318.791687 154.416046,321.267700 
	C155.170898,322.880249 155.613480,323.922607 155.669312,325.048218 
	C153.172379,325.418732 151.062210,325.706024 148.687256,325.795135 
	C144.128860,320.713013 140.270081,315.577332 138.835037,309.038300 
	C141.594955,309.010223 144.354889,308.982117 147.572098,308.951660 
	C148.987534,310.766449 149.945679,312.583618 151.099823,314.690430 
z"/>
<path fill="#02D6F5" opacity="1.000000" stroke="none" 
	d="
M125.511528,313.322815 
	C125.615181,312.994629 125.589104,312.677063 125.269577,312.189392 
	C125.160858,311.556641 125.215874,311.104706 125.336426,310.315552 
	C127.597878,309.969116 129.793777,309.959869 132.443634,310.391235 
	C134.399780,316.502716 135.901993,322.173553 137.021988,327.885010 
	C135.428635,328.273560 134.217499,328.621521 132.839767,328.945374 
	C132.673157,328.921234 132.336777,328.907135 132.241791,328.584686 
	C131.459320,327.132935 130.771820,326.003632 130.026901,324.555420 
	C129.328720,323.132996 128.687958,322.029480 127.987915,320.649445 
	C127.599915,319.914673 127.271210,319.456360 126.975494,318.629639 
	C126.509499,316.615082 126.010513,314.968933 125.511528,313.322815 
z"/>
<path fill="#98FFFD" opacity="1.000000" stroke="none" 
	d="
M137.404205,327.844391 
	C135.901993,322.173553 134.399780,316.502716 132.857361,310.396912 
	C133.647446,307.889862 134.477753,305.817749 135.860916,302.365906 
	C137.039551,305.216614 137.724258,306.872681 138.621994,308.783508 
	C140.270081,315.577332 144.128860,320.713013 148.787720,326.097534 
	C149.801895,327.685394 150.450836,328.772644 150.842316,330.159424 
	C146.924408,331.025421 143.263977,331.591888 139.430817,331.907104 
	C138.640137,330.385345 138.022171,329.114868 137.404205,327.844391 
z"/>
<path fill="#2D3A41" opacity="1.000000" stroke="none" 
	d="
M125.251862,313.638916 
	C126.010513,314.968933 126.509499,316.615082 126.600784,318.715302 
	C117.686333,321.438171 109.225838,323.575653 102.454918,329.931915 
	C89.771324,341.838806 87.052002,356.690460 89.881035,372.843719 
	C91.505402,382.118469 95.510315,390.598328 103.595520,396.419586 
	C115.110298,404.710114 127.948853,407.555664 141.866013,405.489441 
	C152.526596,403.906769 162.281891,399.985199 168.834229,391.065369 
	C180.201370,375.591003 181.001312,358.817291 173.219574,341.552856 
	C169.848740,334.074371 164.580368,328.233704 156.565002,325.082153 
	C156.392227,325.058167 156.056061,324.964966 156.056061,324.964966 
	C155.613480,323.922607 155.170898,322.880249 154.618484,321.512817 
	C163.290375,321.049957 167.844742,327.679047 172.347321,333.353119 
	C186.009140,350.569458 185.205460,377.917664 170.796738,394.487610 
	C163.156631,403.273773 152.688919,407.959930 141.588257,409.529480 
	C124.482735,411.948029 108.478493,407.982758 96.803749,394.389374 
	C84.471176,380.030029 81.904640,363.437714 88.250793,345.354767 
	C93.590805,330.138733 104.644814,321.682709 119.397514,316.985413 
	C121.382774,316.353302 123.133087,314.983307 125.251862,313.638916 
z"/>
<path fill="#04F4EF" opacity="1.000000" stroke="none" 
	d="
M155.669296,325.048218 
	C156.056061,324.964966 156.392227,325.058167 156.633804,325.420013 
	C157.977814,327.994507 159.080231,330.207153 160.344910,332.719604 
	C161.367966,334.343201 162.228745,335.666992 163.124573,337.342804 
	C164.163834,340.322021 165.168045,342.949249 165.863708,345.820679 
	C164.293457,346.427887 163.031754,346.790863 161.574310,346.873932 
	C157.952286,341.015991 154.526031,335.437958 151.099762,329.859894 
	C150.450836,328.772644 149.801895,327.685394 149.052521,326.295715 
	C151.062210,325.706024 153.172379,325.418732 155.669296,325.048218 
z"/>
<path fill="#2D424C" opacity="1.000000" stroke="none" 
	d="
M160.182648,332.419800 
	C159.080231,330.207153 157.977814,327.994507 156.806580,325.444031 
	C164.580368,328.233704 169.848740,334.074371 173.219574,341.552856 
	C181.001312,358.817291 180.201370,375.591003 168.834229,391.065369 
	C162.281891,399.985199 152.526596,403.906769 141.866013,405.489441 
	C127.948853,407.555664 115.110298,404.710114 103.595520,396.419586 
	C95.510315,390.598328 91.505402,382.118469 89.881035,372.843719 
	C87.052002,356.690460 89.771324,341.838806 102.454918,329.931915 
	C109.225838,323.575653 117.686333,321.438171 126.567795,319.083740 
	C127.271210,319.456360 127.599915,319.914673 127.689133,320.864624 
	C124.594513,323.012909 121.739365,324.669556 118.546066,326.201294 
	C116.522545,325.315521 114.653656,323.670105 113.446045,327.001068 
	C110.721054,328.348145 108.364441,329.681976 105.735718,331.197083 
	C103.647949,333.254974 101.832298,335.131592 99.743622,337.207703 
	C98.322128,339.612762 97.173653,341.818359 96.023285,344.395660 
	C96.012962,345.510773 96.004524,346.254150 95.676094,347.139191 
	C94.246536,350.195496 93.136955,353.110138 92.028839,356.421021 
	C92.032043,357.873779 92.033783,358.930359 91.837769,360.330414 
	C90.410027,370.489655 93.772034,379.125244 98.962090,387.081268 
	C100.326981,389.173553 103.177025,390.296997 105.560333,391.890625 
	C106.065422,392.078552 106.184814,392.324097 106.192749,393.007568 
	C107.176567,394.457794 107.898689,396.161743 109.059509,396.548340 
	C115.992378,398.857086 123.026405,400.862061 130.451096,402.969025 
	C132.574661,402.968719 134.273636,402.968384 136.404648,402.975525 
	C142.129013,401.852936 147.476120,400.920380 152.681396,399.476501 
	C154.316223,399.023071 155.569946,397.195618 157.245087,395.994141 
	C157.492081,395.991241 157.986084,395.988556 158.262299,395.879333 
	C159.024887,395.178864 159.511276,394.587616 160.267700,393.916321 
	C161.021225,393.554382 161.504684,393.272522 162.263885,392.880249 
	C163.024170,392.176910 163.508743,391.583984 164.249023,390.823212 
	C165.331543,389.767944 166.158356,388.880524 167.259369,387.790466 
	C169.679398,382.716461 171.825226,377.845123 173.969727,372.645325 
	C173.971237,371.878937 173.974075,371.441010 174.160583,370.735291 
	C174.552597,369.635712 174.760956,368.803894 174.968018,367.603882 
	C174.969177,366.499359 174.971619,365.763031 174.904755,364.750000 
	C174.555618,363.982056 174.275742,363.490814 174.025467,362.637695 
	C174.360153,360.859528 174.665222,359.443237 174.963867,357.615326 
	C173.824234,351.801727 174.071899,345.858185 168.907623,341.677368 
	C168.206650,339.911011 167.594025,338.469696 166.797729,336.735229 
	C164.470261,335.101349 162.326462,333.760559 160.182648,332.419800 
z"/>
<path fill="#2E5F70" opacity="1.000000" stroke="none" 
	d="
M132.336777,328.907135 
	C132.336777,328.907135 132.673157,328.921234 132.850372,329.332336 
	C133.687851,334.156830 134.348129,338.570221 134.884460,343.310608 
	C131.443970,348.535706 129.187317,348.809692 123.888733,344.548096 
	C123.138275,339.458740 122.467583,334.769135 122.240906,330.060913 
	C125.902206,329.663879 129.119492,329.285492 132.336777,328.907135 
z"/>
<path fill="#04F4EF" opacity="1.000000" stroke="none" 
	d="
M135.008408,342.983643 
	C134.348129,338.570221 133.687851,334.156830 133.016968,329.356445 
	C134.217499,328.621521 135.428635,328.273560 137.021973,327.885010 
	C138.022171,329.114868 138.640137,330.385345 139.507095,332.287048 
	C140.488373,335.933868 141.220657,338.949463 141.579163,342.066223 
	C139.139740,342.439453 137.074081,342.711548 135.008408,342.983643 
z"/>
<path fill="#2D4855" opacity="1.000000" stroke="none" 
	d="
M118.884216,326.326172 
	C121.739365,324.669556 124.594513,323.012909 127.748428,321.141113 
	C128.687958,322.029480 129.328720,323.132996 129.687790,324.759338 
	C126.184715,325.892792 122.963333,326.503448 119.538101,327.059448 
	C119.059891,326.861084 118.909874,326.634857 118.884216,326.326172 
z"/>
<path fill="#2E5261" opacity="1.000000" stroke="none" 
	d="
M119.741951,327.114075 
	C122.963333,326.503448 126.184715,325.892792 129.745209,325.078247 
	C130.771820,326.003632 131.459320,327.132935 132.241791,328.584686 
	C129.119492,329.285492 125.902206,329.663879 121.982483,329.896484 
	C120.767342,328.871796 120.254646,327.992950 119.741951,327.114075 
z"/>
<path fill="#8BFFFC" opacity="1.000000" stroke="none" 
	d="
M141.952927,341.965088 
	C141.220657,338.949463 140.488373,335.933868 139.679810,332.538300 
	C143.263977,331.591888 146.924408,331.025421 150.842300,330.159424 
	C154.526031,335.437958 157.952286,341.015991 161.621918,347.260986 
	C162.938950,352.927124 164.012634,357.926392 165.030975,363.329956 
	C164.336594,366.488617 163.697586,369.242981 162.636353,371.955627 
	C158.914948,371.608948 155.617249,371.059692 152.316391,371.040070 
	C135.857315,370.942108 119.397423,370.983337 102.928040,370.554077 
	C102.832420,369.002136 102.746590,367.871735 102.725159,366.371216 
	C105.947922,359.730621 109.106285,353.460083 112.487656,346.949646 
	C113.920715,344.733154 115.130768,342.756622 116.871712,339.912903 
	C117.928154,342.620331 118.565262,344.253113 119.175789,346.282593 
	C120.904991,357.131317 125.215027,360.818390 133.227188,358.722443 
	C139.873688,356.983795 142.912949,351.147003 141.952927,341.965088 
z"/>
<path fill="#2E5261" opacity="1.000000" stroke="none" 
	d="
M157.986084,395.988556 
	C157.986084,395.988556 157.492081,395.991241 156.878616,396.073730 
	C150.402191,397.792786 144.524475,399.379791 138.690399,401.113586 
	C137.689178,401.411102 136.873825,402.334045 135.972595,402.968079 
	C134.273636,402.968384 132.574661,402.968719 130.266113,402.662872 
	C128.018646,401.786224 126.296219,401.382751 124.762657,400.606323 
	C122.437134,399.428925 120.242882,397.992218 118.419998,396.541748 
	C121.204887,396.190918 123.562637,395.964081 126.200851,396.014954 
	C131.366516,398.482086 136.226318,399.476288 141.436829,395.959351 
	C151.301880,398.152191 162.655945,389.066833 166.417572,380.043274 
	C167.702118,374.176147 168.714951,368.593842 169.799561,362.593140 
	C168.638306,356.642029 167.405273,351.109222 166.172241,345.576447 
	C165.168045,342.949249 164.163834,340.322021 163.514038,337.344269 
	C164.906097,337.005249 165.943741,337.016785 166.981400,337.028320 
	C167.594025,338.469696 168.206650,339.911011 168.987793,342.044861 
	C170.158020,346.567902 171.010223,350.447266 172.238052,354.203888 
	C172.702286,355.624176 174.034012,356.760956 174.970306,358.026947 
	C174.665222,359.443237 174.360153,360.859528 173.922363,362.841797 
	C174.184464,363.947418 174.579254,364.487061 174.974060,365.026672 
	C174.971619,365.763031 174.969177,366.499359 174.711182,367.720276 
	C174.296082,369.137543 174.136505,370.070312 173.976929,371.003052 
	C173.974075,371.441010 173.971237,371.878937 173.665939,372.802612 
	C171.237366,378.189941 169.111267,383.091522 166.985168,387.993103 
	C166.158356,388.880524 165.331543,389.767944 163.975021,390.936005 
	C162.959579,391.807983 162.473862,392.399323 161.988159,392.990692 
	C161.504684,393.272522 161.021225,393.554382 159.993149,394.027740 
	C158.961060,394.809021 158.473572,395.398804 157.986084,395.988556 
z"/>
<path fill="#2EFFF6" opacity="1.000000" stroke="none" 
	d="
M165.863708,345.820679 
	C167.405273,351.109222 168.638306,356.642029 169.411682,362.591492 
	C167.663452,362.980652 166.374893,362.953156 165.086319,362.925659 
	C164.012634,357.926392 162.938950,352.927124 161.817657,347.540833 
	C163.031754,346.790863 164.293457,346.427887 165.863708,345.820679 
z"/>
<path fill="#2D4855" opacity="1.000000" stroke="none" 
	d="
M166.797729,336.735229 
	C165.943741,337.016785 164.906097,337.005249 163.478973,336.992249 
	C162.228745,335.666992 161.367966,334.343201 160.344910,332.719604 
	C162.326462,333.760559 164.470261,335.101349 166.797729,336.735229 
z"/>
<path fill="#8BFFFC" opacity="1.000000" stroke="none" 
	d="
M125.920387,395.737244 
	C123.562637,395.964081 121.204887,396.190918 118.019653,396.380188 
	C113.506042,395.112549 109.819916,393.882507 106.133781,392.652496 
	C106.184814,392.324097 106.065422,392.078552 105.458214,391.553162 
	C103.418625,388.134827 101.696426,385.079285 100.317017,381.990387 
	C101.751251,381.636414 102.842705,381.315765 104.170021,381.240051 
	C108.961319,388.151123 113.400131,389.726044 120.979935,386.331360 
	C128.086288,383.148682 135.121002,381.936646 142.690384,384.132660 
	C150.130844,386.291260 156.490601,384.917206 161.232910,378.179810 
	C163.076736,379.022522 164.611298,379.675293 166.145859,380.328094 
	C162.655945,389.066833 151.301880,398.152191 141.112503,395.768951 
	C135.534882,395.648163 130.727631,395.692688 125.920387,395.737244 
z"/>
<path fill="#04F4EF" opacity="1.000000" stroke="none" 
	d="
M119.202370,345.885864 
	C118.565262,344.253113 117.928154,342.620331 116.871712,339.912903 
	C115.130768,342.756622 113.920715,344.733154 112.052200,346.898010 
	C109.540604,346.572327 107.687469,346.058319 105.904984,345.221344 
	C108.004677,340.941711 110.033722,336.985046 112.284393,332.758179 
	C112.785530,331.364868 113.065041,330.241699 113.517151,328.891907 
	C113.731308,328.106110 113.772865,327.546967 113.814423,326.987823 
	C114.653656,323.670105 116.522545,325.315521 118.546066,326.201263 
	C118.909874,326.634857 119.059891,326.861084 119.538101,327.059448 
	C120.254646,327.992950 120.767342,328.871796 121.538467,329.915100 
	C122.467583,334.769135 123.138275,339.458740 123.542534,344.589905 
	C121.918182,345.316284 120.560272,345.601074 119.202370,345.885864 
z"/>
<path fill="#2E5261" opacity="1.000000" stroke="none" 
	d="
M113.344551,329.118561 
	C113.065041,330.241699 112.785530,331.364868 111.937637,332.834869 
	C100.616150,337.321930 96.591118,351.900513 96.479561,360.250397 
	C96.471840,360.828003 97.481461,361.419189 98.032303,362.410767 
	C98.003281,364.168365 97.959946,365.519226 97.783310,367.325195 
	C98.084579,372.186249 98.519142,376.592224 98.641327,380.856323 
	C96.798363,375.858521 95.246880,371.008972 93.747177,366.143463 
	C93.120010,364.108765 92.602760,362.040131 92.035522,359.986938 
	C92.033783,358.930359 92.032043,357.873779 92.329758,356.253967 
	C93.751503,352.793030 94.873795,349.895294 95.996078,346.997559 
	C96.004524,346.254150 96.012962,345.510773 96.334152,344.258240 
	C97.770157,341.502167 98.893410,339.255188 100.016655,337.008240 
	C101.832298,335.131592 103.647949,333.254974 106.112465,331.160583 
	C108.955734,330.334717 111.150139,329.726624 113.344551,329.118561 
z"/>
<path fill="#2D4855" opacity="1.000000" stroke="none" 
	d="
M91.837769,360.330414 
	C92.602760,362.040131 93.120010,364.108765 93.747177,366.143463 
	C95.246880,371.008972 96.798363,375.858521 98.760651,381.074768 
	C99.379501,381.728821 99.640121,381.925049 99.974228,382.023712 
	C101.696426,385.079285 103.418625,388.134827 105.242950,391.527893 
	C103.177025,390.296997 100.326981,389.173553 98.962090,387.081268 
	C93.772034,379.125244 90.410027,370.489655 91.837769,360.330414 
z"/>
<path fill="#2D4855" opacity="1.000000" stroke="none" 
	d="
M106.192749,393.007568 
	C109.819916,393.882507 113.506042,395.112549 117.592522,396.504150 
	C120.242882,397.992218 122.437134,399.428925 124.762657,400.606323 
	C126.296219,401.382751 128.018646,401.786224 129.841492,402.662842 
	C123.026405,400.862061 115.992378,398.857086 109.059509,396.548340 
	C107.898689,396.161743 107.176567,394.457794 106.192749,393.007568 
z"/>
<path fill="#2D4855" opacity="1.000000" stroke="none" 
	d="
M136.404663,402.975555 
	C136.873825,402.334045 137.689178,401.411102 138.690399,401.113586 
	C144.524475,399.379791 150.402191,397.792786 156.631622,396.076630 
	C155.569946,397.195618 154.316223,399.023071 152.681396,399.476501 
	C147.476120,400.920380 142.129013,401.852936 136.404663,402.975555 
z"/>
<path fill="#2D4855" opacity="1.000000" stroke="none" 
	d="
M174.963882,357.615326 
	C174.034012,356.760956 172.702286,355.624176 172.238052,354.203888 
	C171.010223,350.447266 170.158020,346.567902 169.076141,342.369873 
	C174.071899,345.858185 173.824234,351.801727 174.963882,357.615326 
z"/>
<path fill="#2D4855" opacity="1.000000" stroke="none" 
	d="
M167.259369,387.790466 
	C169.111267,383.091522 171.237366,378.189941 173.667267,373.131073 
	C171.825226,377.845123 169.679398,382.716461 167.259369,387.790466 
z"/>
<path fill="#2D4855" opacity="1.000000" stroke="none" 
	d="
M95.676102,347.139191 
	C94.873795,349.895294 93.751503,352.793030 92.328293,355.857788 
	C93.136955,353.110138 94.246536,350.195496 95.676102,347.139191 
z"/>
<path fill="#2D4855" opacity="1.000000" stroke="none" 
	d="
M113.517151,328.891907 
	C111.150139,329.726624 108.955734,330.334717 106.384583,330.979309 
	C108.364441,329.681976 110.721054,328.348145 113.446045,327.001068 
	C113.772865,327.546967 113.731308,328.106110 113.517151,328.891907 
z"/>
<path fill="#2D4855" opacity="1.000000" stroke="none" 
	d="
M99.743637,337.207703 
	C98.893410,339.255188 97.770157,341.502167 96.336044,343.886536 
	C97.173653,341.818359 98.322128,339.612762 99.743637,337.207703 
z"/>
<path fill="#2D4855" opacity="1.000000" stroke="none" 
	d="
M174.160583,370.735291 
	C174.136505,370.070312 174.296082,369.137543 174.712463,368.088440 
	C174.760956,368.803894 174.552597,369.635712 174.160583,370.735291 
z"/>
<path fill="#2D4855" opacity="1.000000" stroke="none" 
	d="
M174.904770,364.750000 
	C174.579254,364.487061 174.184464,363.947418 173.892761,363.203674 
	C174.275742,363.490814 174.555618,363.982056 174.904770,364.750000 
z"/>
<path fill="#2D4855" opacity="1.000000" stroke="none" 
	d="
M162.263885,392.880249 
	C162.473862,392.399323 162.959579,391.807983 163.719299,391.103851 
	C163.508743,391.583984 163.024170,392.176910 162.263885,392.880249 
z"/>
<path fill="#2D4855" opacity="1.000000" stroke="none" 
	d="
M158.262299,395.879333 
	C158.473572,395.398804 158.961060,394.809021 159.723114,394.107849 
	C159.511276,394.587616 159.024887,395.178864 158.262299,395.879333 
z"/>
<path fill="#2EFFF6" opacity="1.000000" stroke="none" 
	d="
M119.175789,346.282593 
	C120.560272,345.601074 121.918182,345.316284 123.622284,344.989685 
	C129.187317,348.809692 131.443970,348.535706 134.884460,343.310608 
	C137.074081,342.711548 139.139740,342.439453 141.579163,342.066223 
	C142.912949,351.147003 139.873688,356.983795 133.227188,358.722443 
	C125.215027,360.818390 120.904991,357.131317 119.175789,346.282593 
z"/>
<path fill="#98FFFD" opacity="1.000000" stroke="none" 
	d="
M160.923660,377.989868 
	C156.490601,384.917206 150.130844,386.291260 142.690384,384.132660 
	C135.121002,381.936646 128.086288,383.148682 120.979935,386.331360 
	C113.400131,389.726044 108.961319,388.151123 104.078560,380.844666 
	C103.480103,377.128113 103.208961,374.051849 102.937820,370.975586 
	C119.397423,370.983337 135.857315,370.942108 152.316391,371.040070 
	C155.617249,371.059692 158.914948,371.608948 162.559128,372.301697 
	C162.243988,374.456268 161.583817,376.223053 160.923660,377.989868 
z"/>
<path fill="#2EFFF6" opacity="1.000000" stroke="none" 
	d="
M97.916611,366.870117 
	C97.959946,365.519226 98.003281,364.168365 98.225418,362.107910 
	C100.880913,356.113647 103.357628,350.828979 105.834335,345.544312 
	C107.687469,346.058319 109.540604,346.572327 111.829185,347.137970 
	C109.106285,353.460083 105.947922,359.730621 102.338043,366.411652 
	C100.563225,366.838165 99.239922,366.854126 97.916611,366.870117 
z"/>
<path fill="#5EFCF8" opacity="1.000000" stroke="none" 
	d="
M161.232910,378.179810 
	C161.583817,376.223053 162.243988,374.456268 162.981354,372.343384 
	C163.697586,369.242981 164.336594,366.488617 165.030975,363.329956 
	C166.374893,362.953156 167.663452,362.980652 169.339905,363.009827 
	C168.714951,368.593842 167.702118,374.176147 166.417572,380.043274 
	C164.611298,379.675293 163.076736,379.022522 161.232910,378.179810 
z"/>
<path fill="#5EFCF8" opacity="1.000000" stroke="none" 
	d="
M97.783310,367.325195 
	C99.239922,366.854126 100.563225,366.838165 102.273643,366.781738 
	C102.746590,367.871735 102.832420,369.002136 102.928040,370.554077 
	C103.208961,374.051849 103.480103,377.128113 103.842705,380.599762 
	C102.842705,381.315765 101.751251,381.636414 100.317009,381.990387 
	C99.640121,381.925049 99.379501,381.728821 99.073044,381.216614 
	C98.519142,376.592224 98.084579,372.186249 97.783310,367.325195 
z"/>
<path fill="#2E5F70" opacity="1.000000" stroke="none" 
	d="
M126.200851,396.014954 
	C130.727631,395.692688 135.534882,395.648163 140.666473,395.794006 
	C136.226318,399.476288 131.366516,398.482086 126.200851,396.014954 
z"/>
<path fill="#2E5F70" opacity="1.000000" stroke="none" 
	d="
M105.904984,345.221344 
	C103.357628,350.828979 100.880913,356.113647 98.211090,361.701172 
	C97.481461,361.419189 96.471840,360.828003 96.479561,360.250397 
	C96.591118,351.900513 100.616150,337.321930 111.716003,333.105042 
	C110.033722,336.985046 108.004677,340.941711 105.904984,345.221344 
z"/>
</svg>