<svg version="1.1" id="Layer_1" xmlns="http://www.w3.org/2000/svg" xmlns:xlink="http://www.w3.org/1999/xlink" x="0px" y="0px"
	 width="100%" viewBox="0 0 322 487" enable-background="new 0 0 322 487" xml:space="preserve">
<path fill="#2D1A13" opacity="1.000000" stroke="none" 
	d="
M276.000000,488.000000 
	C184.028275,488.000000 92.556549,488.000000 1.042409,488.000000 
	C1.042409,325.745117 1.042409,163.490204 1.042409,1.117648 
	C108.221626,1.117648 215.443420,1.117648 322.832611,1.117648 
	C322.832611,163.333191 322.832611,325.666595 322.832611,488.000000 
	C307.490265,488.000000 291.995148,488.000000 276.000000,488.000000 
M207.242355,254.546539 
	C203.671936,247.774338 200.101517,241.002136 196.489471,234.150986 
	C191.073029,240.118088 186.574875,245.073532 181.143372,250.015442 
	C144.556091,251.120148 117.470161,267.117218 102.077850,300.963837 
	C87.870750,332.204285 94.666847,372.280945 119.584671,395.760345 
	C144.144943,418.902863 173.572388,426.605804 206.393784,416.893585 
	C224.268478,411.604248 239.789444,402.325073 250.947250,386.602722 
	C260.662537,372.913055 266.950195,357.805511 267.767792,341.266479 
	C269.321594,309.836121 257.581909,283.922424 231.654953,265.461182 
	C224.600845,260.438293 216.893509,255.672028 207.242355,254.546539 
z"/>
<path fill="#2D201A" opacity="1.000000" stroke="none" 
	d="
M207.656448,255.116333 
	C216.893509,255.672028 224.600845,260.438293 231.654953,265.461182 
	C257.581909,283.922424 269.321594,309.836121 267.767792,341.266479 
	C266.950195,357.805511 260.662537,372.913055 250.947250,386.602722 
	C239.789444,402.325073 224.268478,411.604248 206.393784,416.893585 
	C173.572388,426.605804 144.144943,418.902863 119.584671,395.760345 
	C94.666847,372.280945 87.870750,332.204285 102.077850,300.963837 
	C117.470161,267.117218 144.556091,251.120148 181.493896,250.336182 
	C180.263260,251.786087 178.682098,252.915253 176.730042,253.889816 
	C175.057159,253.516342 173.725540,252.998993 172.457748,253.124786 
	C159.831253,254.377670 148.015930,258.612000 137.157364,264.790924 
	C122.123001,273.346008 111.798019,286.188385 104.748589,302.173065 
	C90.899605,333.575836 98.467117,369.952606 121.274666,393.460938 
	C137.137955,409.811615 157.879532,416.824341 180.353622,417.846100 
	C192.587662,418.402283 204.203201,414.598907 215.653030,410.248596 
	C246.428299,398.555664 263.950287,366.739105 264.908905,337.032440 
	C265.344635,323.529694 261.786346,310.788818 256.092529,298.467529 
	C247.285950,279.410217 232.904297,266.736267 213.517456,259.436554 
	C212.089554,258.898926 210.189240,259.615997 208.359467,259.384216 
	C208.025726,257.717926 207.841080,256.417114 207.656448,255.116333 
z"/>
<path fill="#03B6F7" opacity="1.000000" stroke="none" 
	d="
M177.100952,254.044434 
	C178.682098,252.915253 180.263260,251.786087 181.960571,250.342957 
	C186.574875,245.073532 191.073029,240.118088 196.489471,234.150986 
	C200.101517,241.002136 203.671936,247.774338 207.449402,254.831436 
	C207.841080,256.417114 208.025726,257.717926 208.306335,259.608459 
	C208.398605,260.531433 208.528275,260.800354 208.650360,261.269836 
	C208.408966,261.707642 208.308533,261.880615 207.799240,262.045685 
	C203.937088,262.042450 200.483780,262.047150 196.929764,261.666565 
	C196.133636,258.209869 195.438232,255.138397 194.679230,251.786057 
	C190.549530,255.505188 187.432129,258.937592 183.710754,261.489136 
	C179.955261,264.064056 175.451370,265.523926 171.559601,267.931702 
	C168.847076,269.609924 166.613983,272.062988 163.868515,273.938873 
	C161.106415,273.145508 158.642517,272.583191 156.281372,271.760590 
	C156.706238,271.048706 157.028320,270.597107 157.642670,270.004333 
	C161.023804,267.274506 164.112686,264.685883 167.488464,261.927979 
	C170.275101,259.875519 172.774826,257.992279 175.520172,255.968658 
	C176.210831,255.233658 176.655899,254.639038 177.100952,254.044434 
z"/>
<path fill="#2D231F" opacity="1.000000" stroke="none" 
	d="
M176.730042,253.889832 
	C176.655899,254.639038 176.210831,255.233658 175.061554,255.945740 
	C158.780762,256.208038 144.605591,261.593506 132.538025,270.617554 
	C107.547447,289.305359 97.403534,315.135315 101.116783,345.950867 
	C103.807777,368.282867 113.978409,387.021484 132.731552,399.894165 
	C148.760605,410.896942 166.851120,416.477539 186.532944,414.941681 
	C207.873093,413.276428 226.999512,405.601501 241.455887,389.668396 
	C257.222321,372.291443 264.317841,351.208740 261.944366,327.603912 
	C259.734283,305.624237 250.192291,287.186035 233.187881,272.912201 
	C226.100418,266.962860 218.027191,262.711670 208.791321,261.004974 
	C208.528275,260.800354 208.398605,260.531433 208.455414,259.973999 
	C210.189240,259.615997 212.089554,258.898926 213.517456,259.436554 
	C232.904297,266.736267 247.285950,279.410217 256.092529,298.467529 
	C261.786346,310.788818 265.344635,323.529694 264.908905,337.032440 
	C263.950287,366.739105 246.428299,398.555664 215.653030,410.248596 
	C204.203201,414.598907 192.587662,418.402283 180.353622,417.846100 
	C157.879532,416.824341 137.137955,409.811615 121.274666,393.460938 
	C98.467117,369.952606 90.899605,333.575836 104.748589,302.173065 
	C111.798019,286.188385 122.123001,273.346008 137.157364,264.790924 
	C148.015930,258.612000 159.831253,254.377670 172.457748,253.124786 
	C173.725540,252.998993 175.057159,253.516342 176.730042,253.889832 
z"/>
<path fill="#2D3133" opacity="1.000000" stroke="none" 
	d="
M167.201584,262.097290 
	C164.112686,264.685883 161.023804,267.274506 157.234253,269.999084 
	C145.932343,271.921875 136.959946,277.211151 129.885391,284.841888 
	C113.711571,302.287170 106.718208,323.119232 110.960365,346.759155 
	C117.370461,382.480103 135.991150,395.693848 166.037262,403.624420 
	C179.823425,407.263214 193.919861,405.225555 207.635880,400.112518 
	C224.489517,393.829803 237.437958,383.855804 244.974396,367.173218 
	C249.983444,356.085175 253.231049,344.591339 252.787506,332.477722 
	C252.343903,320.362518 248.648148,308.852478 242.581665,298.374359 
	C234.753769,284.853912 224.237518,274.343689 208.109650,270.620514 
	C208.321457,268.836792 208.601578,267.420349 209.274658,266.030029 
	C215.545029,268.681305 222.019821,270.460358 227.178986,274.102875 
	C238.947906,282.412018 247.046295,293.545624 252.381561,307.307678 
	C261.957764,332.009094 259.063843,355.299988 245.402298,376.971924 
	C230.100388,401.246033 205.797852,410.816284 178.383224,410.574921 
	C158.712433,410.401733 140.368683,402.885101 126.269745,388.517090 
	C108.947815,370.864563 101.965164,349.146393 105.473137,324.566040 
	C107.396568,311.088531 112.370338,298.597107 120.762123,287.675690 
	C131.393906,273.839050 146.187485,266.620697 162.411758,261.796967 
	C163.851364,261.368927 165.597702,261.972717 167.201584,262.097290 
z"/>
<path fill="#2D393F" opacity="1.000000" stroke="none" 
	d="
M208.177979,270.987823 
	C224.237518,274.343689 234.753769,284.853912 242.581665,298.374359 
	C248.648148,308.852478 252.343903,320.362518 252.787506,332.477722 
	C253.231049,344.591339 249.983444,356.085175 244.974396,367.173218 
	C237.437958,383.855804 224.489517,393.829803 207.635880,400.112518 
	C193.919861,405.225555 179.823425,407.263214 166.037262,403.624420 
	C135.991150,395.693848 117.370461,382.480103 110.960365,346.759155 
	C106.718208,323.119232 113.711571,302.287170 129.885391,284.841888 
	C136.959946,277.211151 145.932343,271.921875 156.942017,270.140259 
	C157.028320,270.597107 156.706238,271.048706 155.993988,271.925232 
	C154.103851,273.914917 152.603882,275.479645 150.721375,277.061584 
	C144.816910,280.299072 138.373108,282.572205 133.927994,286.898773 
	C111.183693,309.036713 107.814064,347.720123 126.390381,374.242615 
	C129.363968,378.488129 134.317276,381.347137 138.629578,385.011444 
	C140.913269,386.842072 142.922729,388.508362 145.096024,390.475433 
	C152.224060,395.179169 159.756699,397.153595 168.155090,396.423309 
	C176.867264,400.605011 185.476929,399.880524 194.092133,397.000397 
	C194.487350,396.868317 194.723358,396.260010 195.487076,395.842438 
	C203.680618,396.728882 210.542725,394.972839 216.452774,389.192383 
	C220.881454,385.128235 224.942108,381.068451 229.353638,376.975830 
	C231.967896,374.628174 234.953934,372.688049 236.379303,369.938782 
	C246.942078,349.565277 248.961029,328.725433 239.590103,307.166626 
	C233.107849,292.253510 222.753586,281.885162 207.112335,276.609650 
	C207.454269,274.482147 207.816132,272.734985 208.177979,270.987823 
z"/>
<path fill="#2D2827" opacity="1.000000" stroke="none" 
	d="
M167.488464,261.928009 
	C165.597702,261.972717 163.851364,261.368927 162.411758,261.796967 
	C146.187485,266.620697 131.393906,273.839050 120.762123,287.675690 
	C112.370338,298.597107 107.396568,311.088531 105.473137,324.566040 
	C101.965164,349.146393 108.947815,370.864563 126.269745,388.517090 
	C140.368683,402.885101 158.712433,410.401733 178.383224,410.574921 
	C205.797852,410.816284 230.100388,401.246033 245.402298,376.971924 
	C259.063843,355.299988 261.957764,332.009094 252.381561,307.307678 
	C247.046295,293.545624 238.947906,282.412018 227.178986,274.102875 
	C222.019821,270.460358 215.545029,268.681305 209.163177,265.641174 
	C208.508530,264.168701 208.358307,263.111145 208.208099,262.053589 
	C208.308533,261.880615 208.408966,261.707642 208.650360,261.269836 
	C218.027191,262.711670 226.100418,266.962860 233.187881,272.912201 
	C250.192291,287.186035 259.734283,305.624237 261.944366,327.603912 
	C264.317841,351.208740 257.222321,372.291443 241.455887,389.668396 
	C226.999512,405.601501 207.873093,413.276428 186.532944,414.941681 
	C166.851120,416.477539 148.760605,410.896942 132.731552,399.894165 
	C113.978409,387.021484 103.807777,368.282867 101.116783,345.950867 
	C97.403534,315.135315 107.547447,289.305359 132.538025,270.617554 
	C144.605591,261.593506 158.780762,256.208038 174.815948,256.086121 
	C172.774826,257.992279 170.275101,259.875519 167.488464,261.928009 
z"/>
<path fill="#A4F5FE" opacity="1.000000" stroke="none" 
	d="
M164.166718,274.169922 
	C166.613983,272.062988 168.847076,269.609924 171.559601,267.931702 
	C175.451370,265.523926 179.955261,264.064056 183.710754,261.489136 
	C187.432129,258.937592 190.549530,255.505188 194.679230,251.786057 
	C195.438232,255.138397 196.133636,258.209869 196.875092,262.107117 
	C195.402664,270.668152 193.884171,278.403412 191.870422,286.110748 
	C182.877335,286.075317 174.379501,286.067780 165.712082,286.018494 
	C165.542511,285.976715 165.198257,285.917847 165.187073,285.501648 
	C164.839478,281.446930 164.503098,277.808411 164.166718,274.169922 
z"/>
<path fill="#02D6F6" opacity="1.000000" stroke="none" 
	d="
M192.365692,286.138641 
	C193.884171,278.403412 195.402664,270.668152 196.975815,262.492371 
	C200.483780,262.047150 203.937088,262.042450 207.799225,262.045685 
	C208.358307,263.111145 208.508530,264.168701 208.770233,265.615112 
	C208.601578,267.420349 208.321457,268.836792 208.109665,270.620514 
	C207.816132,272.734985 207.454269,274.482147 206.951111,276.920319 
	C206.567307,278.739594 206.324829,279.867828 205.874634,281.286865 
	C205.422104,282.714264 205.177292,283.850922 204.721283,285.227661 
	C204.017197,286.643219 203.524292,287.818695 202.570068,288.992920 
	C198.717529,288.987762 195.326294,288.983856 191.947479,288.619934 
	C192.095154,287.552856 192.230423,286.845734 192.365692,286.138641 
z"/>
<path fill="#02D6F6" opacity="1.000000" stroke="none" 
	d="
M163.868515,273.938873 
	C164.503098,277.808411 164.839478,281.446930 164.706177,285.519470 
	C158.474686,285.632416 152.712875,285.311279 146.972717,284.637695 
	C148.364212,281.871582 149.734055,279.457977 151.103912,277.044373 
	C152.603882,275.479645 154.103851,273.914917 155.891220,272.185516 
	C158.642517,272.583191 161.106415,273.145508 163.868515,273.938873 
z"/>
<path fill="#2D434D" opacity="1.000000" stroke="none" 
	d="
M150.721375,277.061584 
	C149.734055,279.457977 148.364212,281.871582 146.793488,284.787933 
	C146.412292,285.546722 146.208466,285.782410 145.638000,286.070496 
	C142.457794,288.134766 139.620712,290.126343 136.530640,292.310364 
	C133.880508,296.658752 131.483353,300.814758 128.952240,305.263794 
	C128.557434,306.372375 128.296570,307.187836 127.711456,308.117554 
	C125.610542,311.857208 123.231758,315.314362 122.163261,319.137695 
	C117.942810,334.239441 119.660812,348.912659 126.609962,362.921936 
	C127.565498,364.848297 129.409775,366.333832 130.911469,368.419739 
	C133.438690,374.159760 135.897034,379.503418 138.355362,384.847107 
	C134.317276,381.347137 129.363968,378.488129 126.390381,374.242615 
	C107.814064,347.720123 111.183693,309.036713 133.927994,286.898773 
	C138.373108,282.572205 144.816910,280.299072 150.721375,277.061584 
z"/>
<path fill="#2D434D" opacity="1.000000" stroke="none" 
	d="
M206.082336,280.996094 
	C206.324829,279.867828 206.567307,278.739594 206.971039,277.300659 
	C222.753586,281.885162 233.107849,292.253510 239.590103,307.166626 
	C248.961029,328.725433 246.942078,349.565277 236.379303,369.938782 
	C234.953934,372.688049 231.967896,374.628174 229.388565,376.613586 
	C230.024445,373.516144 230.976288,370.748108 232.116013,367.665405 
	C232.872818,365.232880 233.441757,363.114990 234.331451,360.879944 
	C236.360107,357.433685 238.824600,354.279907 239.643723,350.744873 
	C243.032440,336.120483 241.895630,321.832367 235.495193,308.034393 
	C229.401352,294.897308 220.437164,285.060333 206.082336,280.996094 
z"/>
<path fill="#8EFFFC" opacity="1.000000" stroke="none" 
	d="
M216.084747,389.196716 
	C210.542725,394.972839 203.680618,396.728882 195.167007,395.622406 
	C185.524902,392.870758 176.730804,393.259308 167.998444,396.098572 
	C159.756699,397.153595 152.224060,395.179169 145.131470,390.098175 
	C145.334915,387.947998 145.666748,386.475891 146.286438,385.183350 
	C154.758804,391.815125 163.402679,393.708923 173.510773,389.597015 
	C177.703552,387.891418 182.829681,387.604950 187.429367,387.967438 
	C195.582870,388.609924 203.623108,389.939514 211.138580,385.344879 
	C212.870651,386.831970 214.477707,388.014343 216.084747,389.196716 
z"/>
<path fill="#87FEFC" opacity="1.000000" stroke="none" 
	d="
M216.452774,389.192383 
	C214.477707,388.014343 212.870651,386.831970 211.417358,385.160980 
	C214.040909,381.778412 216.510666,378.884430 219.217987,375.746521 
	C220.674377,372.960968 221.893250,370.419403 223.552048,367.894470 
	C226.637360,367.934082 229.282745,367.957062 231.928131,367.980042 
	C230.976288,370.748108 230.024445,373.516144 229.037689,376.646423 
	C224.942108,381.068451 220.881454,385.128235 216.452774,389.192383 
z"/>
<path fill="#87FEFC" opacity="1.000000" stroke="none" 
	d="
M145.998581,385.003754 
	C145.666748,386.475891 145.334915,387.947998 144.967651,389.797394 
	C142.922729,388.508362 140.913269,386.842072 138.629578,385.011444 
	C135.897034,379.503418 133.438690,374.159760 130.987122,368.090698 
	C131.033722,366.917816 131.073532,366.470306 131.450836,365.947296 
	C132.915237,365.588287 134.042191,365.304779 135.354065,365.323364 
	C137.028030,369.082764 138.517044,372.540070 140.087860,376.332947 
	C142.112610,379.446899 144.055588,382.225311 145.998581,385.003754 
z"/>
<path fill="#2D434D" opacity="1.000000" stroke="none" 
	d="
M168.155090,396.423309 
	C176.730804,393.259308 185.524902,392.870758 194.713455,395.653473 
	C194.723358,396.260010 194.487350,396.868317 194.092133,397.000397 
	C185.476929,399.880524 176.867264,400.605011 168.155090,396.423309 
z"/>
<path fill="#97FFFC" opacity="1.000000" stroke="none" 
	d="
M191.870438,286.110748 
	C192.230423,286.845734 192.095154,287.552856 191.721558,288.888580 
	C189.951904,293.661255 188.420563,297.805298 186.691711,302.031616 
	C186.494186,302.113892 186.104111,302.289581 185.766083,302.031250 
	C173.981201,301.844391 162.534363,301.915863 150.971939,301.605591 
	C150.600876,300.470367 150.345383,299.716949 150.205963,298.608704 
	C151.554153,298.033142 152.930542,297.346863 153.992264,297.675873 
	C157.694061,298.823090 161.407822,298.646484 163.415146,295.415436 
	C165.041931,292.796906 165.117859,289.214905 165.881653,286.060242 
	C174.379501,286.067780 182.877335,286.075317 191.870438,286.110748 
z"/>
<path fill="#04E5F4" opacity="1.000000" stroke="none" 
	d="
M165.712082,286.018494 
	C165.117859,289.214905 165.041931,292.796906 163.415146,295.415436 
	C161.407822,298.646484 157.694061,298.823090 153.992264,297.675873 
	C152.930542,297.346863 151.554153,298.033142 149.876709,298.617859 
	C148.317276,298.994049 147.203186,299.006256 145.957855,298.673187 
	C145.528015,296.882355 145.229370,295.436768 144.998459,293.588684 
	C145.371155,290.790070 145.676132,288.393921 145.981110,285.997772 
	C146.208466,285.782410 146.412292,285.546722 146.771851,285.140442 
	C152.712875,285.311279 158.474686,285.632416 164.717377,285.935699 
	C165.198257,285.917847 165.542511,285.976715 165.712082,286.018494 
z"/>
<path fill="#2D4B58" opacity="1.000000" stroke="none" 
	d="
M205.874634,281.286865 
	C220.437164,285.060333 229.401352,294.897308 235.495193,308.034393 
	C241.895630,321.832367 243.032440,336.120483 239.643723,350.744873 
	C238.824600,354.279907 236.360107,357.433685 234.281082,360.414368 
	C234.030426,354.386322 234.150940,348.706665 234.613007,342.898987 
	C235.630844,341.033173 236.861938,339.298309 236.871048,337.557098 
	C236.891724,333.602020 236.513107,329.614349 235.940872,325.691895 
	C233.388596,308.197754 223.982758,290.957275 204.932480,284.987579 
	C205.177292,283.850922 205.422104,282.714264 205.874634,281.286865 
z"/>
<path fill="#2D596A" opacity="1.000000" stroke="none" 
	d="
M204.721283,285.227661 
	C223.982758,290.957275 233.388596,308.197754 235.940872,325.691895 
	C236.513107,329.614349 236.891724,333.602020 236.871048,337.557098 
	C236.861938,339.298309 235.630844,341.033173 234.497803,342.528351 
	C233.710052,340.530365 233.379044,338.774902 233.084290,336.604675 
	C232.462524,333.103058 231.804535,330.016266 231.150391,326.537567 
	C230.188492,323.069611 229.222748,319.993561 228.215576,316.544861 
	C224.777496,310.117889 221.380829,304.063568 217.916168,297.701660 
	C216.822540,296.313202 215.796890,295.232361 214.771240,294.151520 
	C214.458450,294.326874 214.145645,294.502197 213.832855,294.677551 
	C214.223694,296.119354 214.614548,297.561127 214.957336,299.326172 
	C214.842255,300.078979 214.775223,300.508545 214.344543,300.930847 
	C209.963028,299.279907 205.945145,297.636230 201.921661,295.593384 
	C202.287827,293.127533 202.659607,291.060852 203.031387,288.994171 
	C203.524292,287.818695 204.017197,286.643219 204.721283,285.227661 
z"/>
<path fill="#04E5F4" opacity="1.000000" stroke="none" 
	d="
M202.570068,288.992920 
	C202.659607,291.060852 202.287827,293.127533 201.713928,295.914093 
	C201.257889,298.429657 201.003983,300.225372 200.300537,302.015808 
	C195.530411,301.990143 191.209824,301.969757 186.889221,301.949341 
	C188.420563,297.805298 189.951904,293.661255 191.709137,289.248596 
	C195.326294,288.983856 198.717529,288.987762 202.570068,288.992920 
z"/>
<path fill="#2D4B58" opacity="1.000000" stroke="none" 
	d="
M131.113358,366.022827 
	C131.073532,366.470306 131.033722,366.917816 130.918243,367.694366 
	C129.409775,366.333832 127.565498,364.848297 126.609962,362.921936 
	C119.660812,348.912659 117.942810,334.239441 122.163261,319.137695 
	C123.231758,315.314362 125.610542,311.857208 127.809814,308.449585 
	C128.499237,309.775024 128.766052,310.882629 129.017380,312.337555 
	C129.322617,313.791779 129.643341,314.898712 129.642365,316.148193 
	C128.963821,316.632446 128.422546,316.909515 128.277039,317.325165 
	C124.298149,328.690887 124.206444,340.136536 127.829750,351.588257 
	C128.128677,352.533051 129.334076,353.190979 130.183762,354.430359 
	C130.537262,358.593292 130.825317,362.308044 131.113358,366.022827 
z"/>
<path fill="#03B6F7" opacity="1.000000" stroke="none" 
	d="
M129.086182,304.970734 
	C131.483353,300.814758 133.880508,296.658752 136.576431,292.693848 
	C137.095276,294.654480 137.315338,296.424011 137.519653,298.592529 
	C137.939346,301.322388 138.374771,303.653290 138.388855,305.981934 
	C135.007065,305.643372 132.046616,305.307037 129.086182,304.970734 
z"/>
<path fill="#02D6F6" opacity="1.000000" stroke="none" 
	d="
M128.952240,305.263794 
	C132.046616,305.307037 135.007065,305.643372 138.555801,306.319794 
	C139.389557,308.111298 139.635025,309.562653 139.445648,311.010376 
	C135.684845,311.334564 132.358871,311.662415 129.032883,311.990265 
	C128.766052,310.882629 128.499237,309.775024 128.134048,308.335358 
	C128.296570,307.187836 128.557434,306.372375 128.952240,305.263794 
z"/>
<path fill="#2D4B58" opacity="1.000000" stroke="none" 
	d="
M137.535400,298.193573 
	C137.315338,296.424011 137.095276,294.654480 136.829407,292.501404 
	C139.620712,290.126343 142.457794,288.134766 145.638000,286.070496 
	C145.676132,288.393921 145.371155,290.790070 144.666138,293.674377 
	C142.022522,295.506195 139.778961,296.849884 137.535400,298.193573 
z"/>
<path fill="#43FEF7" opacity="1.000000" stroke="none" 
	d="
M233.048050,337.019470 
	C233.379044,338.774902 233.710052,340.530365 234.156250,342.656433 
	C234.150940,348.706665 234.030426,354.386322 233.960297,360.531494 
	C233.441757,363.114990 232.872818,365.232880 232.115997,367.665405 
	C229.282745,367.957062 226.637360,367.934082 223.610260,367.509216 
	C223.625137,364.437988 224.021759,361.768555 224.574951,358.741882 
	C224.857544,352.246582 224.983566,346.108490 225.134766,339.581604 
	C225.243988,338.419220 225.328064,337.645691 225.818573,336.904236 
	C228.499344,336.964020 230.773697,336.991730 233.048050,337.019470 
z"/>
<path fill="#A3FFFE" opacity="1.000000" stroke="none" 
	d="
M146.286438,385.183350 
	C144.055588,382.225311 142.112610,379.446899 140.330902,376.031433 
	C142.024002,374.931763 143.554321,374.071838 145.087891,374.066010 
	C167.951202,373.979279 190.815216,373.961609 213.678131,374.090759 
	C215.449097,374.100739 217.213165,375.328674 218.980438,375.990479 
	C216.510666,378.884430 214.040909,381.778412 211.292343,384.856262 
	C203.623108,389.939514 195.582870,388.609924 187.429367,387.967438 
	C182.829681,387.604950 177.703552,387.891418 173.510773,389.597015 
	C163.402679,393.708923 154.758804,391.815125 146.286438,385.183350 
z"/>
<path fill="#97FFFC" opacity="1.000000" stroke="none" 
	d="
M219.217987,375.746521 
	C217.213165,375.328674 215.449097,374.100739 213.678131,374.090759 
	C190.815216,373.961609 167.951202,373.979279 145.087891,374.066010 
	C143.554321,374.071838 142.024002,374.931763 140.249115,375.695923 
	C138.517044,372.540070 137.028030,369.082764 135.293945,364.907288 
	C135.038300,362.793121 135.027725,361.397125 135.387970,359.903503 
	C138.464447,359.204041 141.167267,358.094727 143.876175,358.079681 
	C168.282959,357.944092 192.690918,357.969421 217.098206,358.048462 
	C219.539368,358.056366 221.978378,358.732910 224.418381,359.099152 
	C224.021759,361.768555 223.625137,364.437988 223.170319,367.492615 
	C221.893250,370.419403 220.674377,372.960968 219.217987,375.746521 
z"/>
<path fill="#43FEF7" opacity="1.000000" stroke="none" 
	d="
M135.017136,360.001129 
	C135.027725,361.397125 135.038300,362.793121 135.109009,364.605194 
	C134.042191,365.304779 132.915237,365.588287 131.450836,365.947296 
	C130.825317,362.308044 130.537262,358.593292 130.338699,354.063538 
	C131.065903,349.417786 131.703613,345.587006 132.853577,341.802185 
	C142.514206,341.875641 151.662598,341.903076 160.799255,342.288818 
	C159.688797,346.936005 157.387100,350.219727 153.024323,351.668732 
	C146.510132,353.832336 141.078140,352.154114 136.969131,346.000366 
	C136.550064,346.284363 136.130981,346.568329 135.711899,346.852295 
	C135.480316,351.235229 135.248718,355.618195 135.017136,360.001129 
z"/>
<path fill="#87FEFC" opacity="1.000000" stroke="none" 
	d="
M225.412140,336.872131 
	C225.328064,337.645691 225.243988,338.419220 224.655243,339.588989 
	C203.194153,339.995605 182.237762,340.006042 161.220215,339.573669 
	C160.508530,334.737122 159.857971,330.343414 159.162369,325.563416 
	C157.801575,321.714691 156.485809,318.252258 154.972198,314.480682 
	C153.545380,310.110168 152.316437,306.048767 151.087509,301.987366 
	C162.534363,301.915863 173.981201,301.844391 185.743073,302.407043 
	C185.133316,307.679688 184.208527,312.318146 183.215271,317.357574 
	C183.795700,320.498169 184.444611,323.237762 185.147705,326.318909 
	C188.534027,333.448700 193.649704,337.879547 201.506226,337.651917 
	C208.641663,337.445129 213.506363,333.174896 215.962097,325.596405 
	C216.646667,322.471863 217.253479,319.723724 217.921600,316.649719 
	C218.167343,315.295624 218.351776,314.267456 218.766968,311.952850 
	C220.112991,314.787445 220.907806,316.461243 221.777603,318.514954 
	C222.647278,321.913361 223.441956,324.931854 224.221008,328.355316 
	C224.607620,331.464233 225.009888,334.168182 225.412140,336.872131 
z"/>
<path fill="#05FAF2" opacity="1.000000" stroke="none" 
	d="
M183.283737,316.956604 
	C184.208527,312.318146 185.133316,307.679688 186.081116,302.665405 
	C186.104111,302.289581 186.494186,302.113892 186.691711,302.031616 
	C191.209824,301.969757 195.530411,301.990143 200.364746,302.433624 
	C201.334274,305.262604 201.404541,307.828735 202.324387,310.041779 
	C204.376129,314.977875 208.627045,315.511108 211.451477,310.923035 
	C213.235672,308.024811 213.668945,304.294983 214.708160,300.938141 
	C214.775223,300.508545 214.842255,300.078979 215.264526,299.221985 
	C216.407898,298.532776 217.196030,298.271027 217.984161,298.009247 
	C221.380829,304.063568 224.777496,310.117889 227.811600,316.631958 
	C225.533569,317.439484 223.618088,317.787262 221.702606,318.135040 
	C220.907806,316.461243 220.112991,314.787445 218.766968,311.952850 
	C218.351776,314.267456 218.167343,315.295624 217.495682,316.654419 
	C205.766876,316.975555 194.525314,316.966095 183.283737,316.956604 
z"/>
<path fill="#05FAF2" opacity="1.000000" stroke="none" 
	d="
M150.971939,301.605591 
	C152.316437,306.048767 153.545380,310.110168 154.731781,314.787659 
	C153.302368,315.975525 151.915497,316.547302 150.359161,316.807831 
	C149.364395,313.643005 148.539093,310.789490 147.675262,307.568909 
	C147.120850,304.474030 146.604965,301.746246 146.089081,299.018433 
	C147.203186,299.006256 148.317276,298.994049 149.760620,298.972687 
	C150.345383,299.716949 150.600876,300.470367 150.971939,301.605591 
z"/>
<path fill="#2D596A" opacity="1.000000" stroke="none" 
	d="
M145.957855,298.673187 
	C146.604965,301.746246 147.120850,304.474030 147.359879,307.660217 
	C145.031799,309.755402 142.980576,311.392242 140.674561,312.871613 
	C140.239990,312.147461 140.060242,311.580750 139.880493,311.014038 
	C139.635025,309.562653 139.389557,308.111298 138.977142,306.322083 
	C138.374771,303.653290 137.939346,301.322388 137.519669,298.592529 
	C139.778961,296.849884 142.022522,295.506195 144.598419,294.076843 
	C145.229370,295.436768 145.528015,296.882355 145.957855,298.673187 
z"/>
<path fill="#2C6E8A" opacity="1.000000" stroke="none" 
	d="
M214.344543,300.930847 
	C213.668945,304.294983 213.235672,308.024811 211.451477,310.923035 
	C208.627045,315.511108 204.376129,314.977875 202.324387,310.041779 
	C201.404541,307.828735 201.334274,305.262604 200.814270,302.438873 
	C201.003983,300.225372 201.257889,298.429657 201.719528,296.313232 
	C205.945145,297.636230 209.963028,299.279907 214.344543,300.930847 
z"/>
<path fill="#13FFF5" opacity="1.000000" stroke="none" 
	d="
M221.777603,318.514954 
	C223.618088,317.787262 225.533569,317.439484 227.853027,317.004608 
	C229.222748,319.993561 230.188492,323.069611 230.788422,326.690186 
	C228.360626,327.473267 226.298645,327.711823 224.236633,327.950348 
	C223.441956,324.931854 222.647278,321.913361 221.777603,318.514954 
z"/>
<path fill="#26FFF6" opacity="1.000000" stroke="none" 
	d="
M224.221008,328.355316 
	C226.298645,327.711823 228.360626,327.473267 230.784576,327.082092 
	C231.804535,330.016266 232.462524,333.103058 233.084290,336.604645 
	C230.773697,336.991730 228.499344,336.964020 225.818573,336.904236 
	C225.009888,334.168182 224.607620,331.464233 224.221008,328.355316 
z"/>
<path fill="#2C6E8A" opacity="1.000000" stroke="none" 
	d="
M217.916168,297.701660 
	C217.196030,298.271027 216.407898,298.532776 215.312576,298.898743 
	C214.614548,297.561127 214.223694,296.119354 213.832855,294.677551 
	C214.145645,294.502197 214.458450,294.326874 214.771240,294.151520 
	C215.796890,295.232361 216.822540,296.313202 217.916168,297.701660 
z"/>
<path fill="#2D596A" opacity="1.000000" stroke="none" 
	d="
M132.341309,341.756195 
	C131.703613,345.587006 131.065903,349.417786 130.273239,353.615417 
	C129.334076,353.190979 128.128677,352.533051 127.829750,351.588257 
	C124.206444,340.136536 124.298149,328.690887 128.277039,317.325165 
	C128.422546,316.909515 128.963821,316.632446 129.922394,316.336731 
	C132.740463,318.994904 134.617767,322.449341 138.958160,320.195251 
	C138.309006,323.385773 137.662277,326.159515 136.676819,329.079407 
	C135.005829,333.402466 133.673569,337.579346 132.341309,341.756195 
z"/>
<path fill="#04E5F4" opacity="1.000000" stroke="none" 
	d="
M138.960587,319.778473 
	C134.617767,322.449341 132.740463,318.994904 130.244110,316.194183 
	C129.643341,314.898712 129.322617,313.791779 129.017380,312.337555 
	C132.358871,311.662415 135.684845,311.334564 139.445663,311.010376 
	C140.060242,311.580750 140.239990,312.147461 140.697632,313.244751 
	C140.303864,315.776367 139.632233,317.777405 138.960587,319.778473 
z"/>
<path fill="#8EFFFC" opacity="1.000000" stroke="none" 
	d="
M161.281372,340.016479 
	C182.237762,340.006042 203.194153,339.995605 224.630066,339.977783 
	C224.983566,346.108490 224.857544,352.246582 224.574951,358.741882 
	C221.978378,358.732910 219.539368,358.056366 217.098206,358.048462 
	C192.690918,357.969421 168.282959,357.944092 143.876175,358.079681 
	C141.167267,358.094727 138.464447,359.204041 135.387970,359.903503 
	C135.248718,355.618195 135.480316,351.235229 135.711899,346.852295 
	C136.130981,346.568329 136.550064,346.284363 136.969131,346.000366 
	C141.078140,352.154114 146.510132,353.832336 153.024323,351.668732 
	C157.387100,350.219727 159.688797,346.936005 160.868530,341.967712 
	C161.060165,340.864380 161.170776,340.440430 161.281372,340.016479 
z"/>
<path fill="#26FFF6" opacity="1.000000" stroke="none" 
	d="
M161.220215,339.573669 
	C161.170776,340.440430 161.060165,340.864380 160.880280,341.609436 
	C151.662598,341.903076 142.514206,341.875641 132.853561,341.802185 
	C133.673569,337.579346 135.005829,333.402466 136.729614,329.437866 
	C137.542725,330.729736 137.671936,332.137268 138.443085,332.824768 
	C140.404251,334.573273 142.737762,337.322510 144.762589,337.192169 
	C146.892227,337.055023 149.252670,334.326355 150.726410,332.188385 
	C151.848831,330.560059 151.743073,328.085114 152.617889,325.989319 
	C155.103851,325.977783 157.155624,325.963745 159.207413,325.949707 
	C159.857971,330.343414 160.508530,334.737122 161.220215,339.573669 
z"/>
<path fill="#13FFF5" opacity="1.000000" stroke="none" 
	d="
M183.215271,317.357574 
	C194.525314,316.966095 205.766876,316.975555 217.434372,316.980316 
	C217.253479,319.723724 216.646667,322.471863 215.503189,325.602783 
	C205.008850,325.982819 195.051178,325.980103 185.093521,325.977356 
	C184.444611,323.237762 183.795700,320.498169 183.215271,317.357574 
z"/>
<path fill="#26FFF6" opacity="1.000000" stroke="none" 
	d="
M185.147705,326.318909 
	C195.051178,325.980103 205.008850,325.982819 215.425415,325.979187 
	C213.506363,333.174896 208.641663,337.445129 201.506226,337.651917 
	C193.649704,337.879547 188.534027,333.448700 185.147705,326.318909 
z"/>
<path fill="#13FFF5" opacity="1.000000" stroke="none" 
	d="
M159.162369,325.563416 
	C157.155624,325.963745 155.103851,325.977783 152.526245,325.587341 
	C151.509827,322.494934 151.019211,319.807037 150.528610,317.119110 
	C151.915497,316.547302 153.302368,315.975525 154.929657,315.096741 
	C156.485809,318.252258 157.801575,321.714691 159.162369,325.563416 
z"/>
<path fill="#2C6E8A" opacity="1.000000" stroke="none" 
	d="
M150.359161,316.807831 
	C151.019211,319.807037 151.509827,322.494934 152.092072,325.584839 
	C151.743073,328.085114 151.848831,330.560059 150.726410,332.188385 
	C149.252670,334.326355 146.892227,337.055023 144.762589,337.192169 
	C142.737762,337.322510 140.404251,334.573273 138.443085,332.824768 
	C137.671936,332.137268 137.542725,330.729736 137.068359,329.291687 
	C137.662277,326.159515 138.309006,323.385773 138.958160,320.195251 
	C139.632233,317.777405 140.303864,315.776367 140.952423,313.402161 
	C142.980576,311.392242 145.031799,309.755402 147.398407,308.027283 
	C148.539093,310.789490 149.364395,313.643005 150.359161,316.807831 
z"/>
</svg>