<svg version="1.1" id="Layer_1" xmlns="http://www.w3.org/2000/svg" xmlns:xlink="http://www.w3.org/1999/xlink" x="0px" y="0px"
	 width="100%" viewBox="0 0 303 488" enable-background="new 0 0 303 488" xml:space="preserve">
<path fill="#2D1A13" opacity="1.000000" stroke="none" 
	d="
M304.000000,2.000000 
	C304.000000,164.278671 304.000000,326.557343 304.000000,488.918030 
	C203.088730,488.918030 102.177361,488.918030 1.000000,488.918030 
	C1.000000,326.976776 1.000000,164.953400 1.467854,2.464975 
	C102.623802,1.999949 203.311905,1.999975 304.000000,2.000000 
M204.932251,206.316330 
	C200.790756,200.571716 196.649261,194.827103 192.513962,189.091080 
	C187.870560,194.871933 183.833618,199.897781 179.199112,205.198700 
	C174.275406,209.356415 169.312088,213.468323 164.438217,217.683655 
	C158.587036,222.744278 152.812057,227.893005 146.503418,233.168198 
	C146.089340,233.480209 145.675262,233.792221 144.426422,234.054047 
	C129.507263,237.148972 116.947495,244.888504 105.858940,254.839645 
	C96.244179,263.468170 89.490837,274.360779 84.336784,286.250702 
	C76.888992,303.432068 73.954308,321.215759 77.057732,339.758728 
	C80.707176,361.564087 90.243187,380.395752 106.283600,395.776367 
	C115.446571,404.562408 126.300865,410.938599 138.210999,414.661774 
	C149.201431,418.097473 160.756165,421.099915 172.159897,421.497833 
	C186.742554,422.006653 201.426300,419.000977 214.495499,412.011139 
	C224.382538,406.723267 234.701050,401.107422 242.457031,393.286621 
	C250.322205,385.355774 256.056030,374.947510 261.328949,364.893005 
	C269.695740,348.939056 272.291473,331.480774 269.795441,313.682953 
	C266.483521,290.067474 256.505035,269.459808 238.646362,253.356705 
	C231.028442,246.487671 222.368546,240.746246 212.028671,237.253235 
	C212.018829,236.498703 212.009003,235.744156 212.585220,234.420120 
	C213.415543,224.332565 210.799774,215.212509 204.932251,206.316330 
z"/>
<path fill="#FFFFFF" opacity="1.000000" stroke="none" 
	d="
M304.000000,1.500000 
	C203.311905,1.999975 102.623802,1.999949 1.467854,1.999962 
	C2.500000,1.666667 3.999849,1.042377 5.500021,1.041600 
	C95.166664,0.995132 184.833328,1.000000 274.500000,1.000000 
	C284.333344,1.000000 294.166656,1.000000 304.000000,1.500000 
z"/>
<path fill="#2D201B" opacity="1.000000" stroke="none" 
	d="
M212.172272,237.993942 
	C222.368546,240.746246 231.028442,246.487671 238.646362,253.356705 
	C256.505035,269.459808 266.483521,290.067474 269.795441,313.682953 
	C272.291473,331.480774 269.695740,348.939056 261.328949,364.893005 
	C256.056030,374.947510 250.322205,385.355774 242.457031,393.286621 
	C234.701050,401.107422 224.382538,406.723267 214.495499,412.011139 
	C201.426300,419.000977 186.742554,422.006653 172.159897,421.497833 
	C160.756165,421.099915 149.201431,418.097473 138.210999,414.661774 
	C126.300865,410.938599 115.446571,404.562408 106.283600,395.776367 
	C90.243187,380.395752 80.707176,361.564087 77.057732,339.758728 
	C73.954308,321.215759 76.888992,303.432068 84.336784,286.250702 
	C89.490837,274.360779 96.244179,263.468170 105.858940,254.839645 
	C116.947495,244.888504 129.507263,237.148972 144.735214,234.397125 
	C143.749329,236.181107 142.454636,237.622025 140.753693,239.048096 
	C123.616829,243.062851 110.399345,252.766586 100.168037,266.031891 
	C84.504349,286.340485 76.941360,309.327118 79.915787,335.366852 
	C81.532578,349.521179 86.238846,362.547302 93.267120,374.690582 
	C102.359253,390.399658 115.702347,401.496338 132.370697,408.723145 
	C150.437103,416.556030 169.301758,420.697601 188.649933,416.631683 
	C215.268723,411.037872 238.561081,399.347137 252.963257,374.559570 
	C265.942749,352.220612 270.716431,328.412872 264.410858,303.172852 
	C259.690918,284.279816 250.863892,267.270905 235.227036,255.012131 
	C228.155014,249.467911 219.754532,245.618240 211.922089,240.622437 
	C211.982361,239.494720 212.077316,238.744339 212.172272,237.993942 
z"/>
<path fill="#01BDFA" opacity="1.000000" stroke="none" 
	d="
M147.004089,233.003586 
	C152.812057,227.893005 158.587036,222.744278 164.438217,217.683655 
	C169.312088,213.468323 174.275406,209.356415 179.918091,205.137207 
	C184.665802,205.382980 188.694519,205.690231 192.792053,206.439651 
	C191.561417,215.252090 190.261993,223.622360 188.542969,231.978058 
	C179.528107,231.636490 170.932846,231.309494 162.123230,230.771561 
	C160.031021,232.071854 158.153198,233.583084 155.829407,235.068542 
	C152.590317,234.363052 149.797211,233.683319 147.004089,233.003586 
z"/>
<path fill="#01BDFA" opacity="1.000000" stroke="none" 
	d="
M204.891556,207.016846 
	C210.799774,215.212509 213.415543,224.332565 211.987305,234.438477 
	C208.268738,234.300461 205.148087,234.144104 202.001144,233.559418 
	C203.460052,224.484879 203.009674,216.052292 199.556519,207.930756 
	C201.572678,207.586288 203.232117,207.301575 204.891556,207.016846 
z"/>
<path fill="#03A5F7" opacity="1.000000" stroke="none" 
	d="
M204.911896,206.666595 
	C203.232117,207.301575 201.572678,207.586288 199.342255,207.656403 
	C197.158615,205.131241 195.545959,202.820679 193.280930,199.575409 
	C193.020203,202.577835 192.871719,204.287659 192.723251,205.997498 
	C188.694519,205.690231 184.665802,205.382980 180.216858,204.999680 
	C183.833618,199.897781 187.870560,194.871933 192.513962,189.091080 
	C196.649261,194.827103 200.790756,200.571716 204.911896,206.666595 
z"/>
<path fill="#02D0F7" opacity="1.000000" stroke="none" 
	d="
M202.027466,233.987732 
	C205.148087,234.144104 208.268738,234.300461 211.694275,234.723221 
	C212.009003,235.744156 212.018829,236.498703 212.100464,237.623596 
	C212.077316,238.744339 211.982361,239.494720 211.729263,240.878662 
	C211.429031,242.340652 211.286957,243.169098 210.932556,244.308014 
	C210.407196,246.055923 210.094147,247.493347 209.596008,248.965439 
	C209.410904,249.000092 209.050537,249.109573 208.847763,248.771362 
	C205.459259,247.954620 202.273544,247.476120 199.092682,246.608551 
	C199.699295,243.143372 200.301025,240.067245 201.036469,236.699417 
	C201.455948,235.601059 201.741699,234.794403 202.027466,233.987732 
z"/>
<path fill="#02D0F7" opacity="1.000000" stroke="none" 
	d="
M146.753754,233.085892 
	C149.797211,233.683319 152.590317,234.363052 155.669800,235.380478 
	C153.970215,239.145309 151.984253,242.572449 149.540497,245.999954 
	C145.724075,246.001175 142.365479,246.002045 138.986160,245.655411 
	C139.283981,244.204147 139.602509,243.100388 140.103882,241.731750 
	C140.577805,240.665558 140.868866,239.864243 141.159943,239.062943 
	C142.454636,237.622025 143.749329,236.181107 145.152588,234.422211 
	C145.675262,233.792221 146.089340,233.480209 146.753754,233.085892 
z"/>
<path fill="#2D231F" opacity="1.000000" stroke="none" 
	d="
M140.753677,239.048096 
	C140.868866,239.864243 140.577805,240.665558 139.724533,241.743713 
	C122.561478,246.324982 109.740128,256.679382 100.273621,270.078552 
	C81.541389,296.592743 76.353783,325.645721 87.754723,356.974304 
	C93.800117,373.586426 103.041809,388.019592 117.744865,397.552246 
	C137.934265,410.641968 160.069519,418.056549 184.813477,414.110748 
	C208.548141,410.325867 229.513397,401.402893 244.557892,381.854248 
	C259.047638,363.026398 266.294159,341.669342 263.958923,317.783508 
	C261.410095,291.712708 250.611542,269.609955 229.610825,253.422318 
	C224.230591,249.275192 217.341019,247.086166 211.144867,243.997559 
	C211.286957,243.169098 211.429031,242.340652 211.763947,241.255981 
	C219.754532,245.618240 228.155014,249.467911 235.227036,255.012131 
	C250.863892,267.270905 259.690918,284.279816 264.410858,303.172852 
	C270.716431,328.412872 265.942749,352.220612 252.963257,374.559570 
	C238.561081,399.347137 215.268723,411.037872 188.649933,416.631683 
	C169.301758,420.697601 150.437103,416.556030 132.370697,408.723145 
	C115.702347,401.496338 102.359253,390.399658 93.267120,374.690582 
	C86.238846,362.547302 81.532578,349.521179 79.915787,335.366852 
	C76.941360,309.327118 84.504349,286.340485 100.168037,266.031891 
	C110.399345,252.766586 123.616829,243.062851 140.753677,239.048096 
z"/>
<path fill="#9EF3FE" opacity="1.000000" stroke="none" 
	d="
M149.998306,245.999588 
	C151.984253,242.572449 153.970215,239.145309 156.115768,235.406250 
	C158.153198,233.583084 160.031021,232.071854 162.015076,231.210861 
	C162.141327,234.165741 161.860001,236.520569 162.234039,238.766235 
	C163.782318,248.061508 171.080612,251.134872 178.634827,245.403625 
	C182.100327,242.774414 184.796219,239.130798 188.261963,236.017532 
	C192.756104,236.388947 196.829437,236.690048 200.902756,236.991150 
	C200.301025,240.067245 199.699295,243.143372 198.928741,246.906738 
	C198.191605,249.064316 197.623306,250.534607 196.581375,252.003174 
	C180.561050,251.989532 165.014389,251.977615 149.426392,251.597076 
	C149.589478,249.485489 149.793900,247.742538 149.998306,245.999588 
z"/>
<path fill="#02D0F7" opacity="1.000000" stroke="none" 
	d="
M187.841141,235.947205 
	C184.796219,239.130798 182.100327,242.774414 178.634827,245.403625 
	C171.080612,251.134872 163.782318,248.061508 162.234039,238.766235 
	C161.860001,236.520569 162.141327,234.165741 162.229431,231.421814 
	C170.932846,231.309494 179.528107,231.636490 188.530273,232.323303 
	C188.571838,233.771164 188.206482,234.859192 187.841141,235.947205 
z"/>
<path fill="#A9F1FE" opacity="1.000000" stroke="none" 
	d="
M188.261963,236.017532 
	C188.206482,234.859192 188.571838,233.771164 188.949890,232.337891 
	C190.261993,223.622360 191.561417,215.252090 192.792053,206.439651 
	C192.871719,204.287659 193.020203,202.577835 193.280930,199.575409 
	C195.545959,202.820679 197.158615,205.131241 198.985535,207.716156 
	C203.009674,216.052292 203.460052,224.484879 202.001160,233.559433 
	C201.741699,234.794403 201.455948,235.601059 201.036469,236.699432 
	C196.829437,236.690048 192.756104,236.388947 188.261963,236.017532 
z"/>
<path fill="#2D3134" opacity="1.000000" stroke="none" 
	d="
M209.050537,249.109573 
	C209.050537,249.109573 209.410904,249.000092 209.993805,248.991226 
	C211.229233,249.101929 211.933884,249.101425 212.526672,249.358658 
	C227.465302,255.841019 239.260895,266.004211 246.866501,280.405029 
	C252.835449,291.706909 257.899170,303.510376 258.962677,316.502411 
	C260.204926,331.677826 258.111145,346.473511 251.605667,360.241760 
	C248.022293,367.825684 243.835678,375.489319 238.340912,381.724579 
	C228.797150,392.554504 216.725098,400.063599 202.778778,404.670776 
	C184.439255,410.729279 166.180756,412.446747 147.645844,406.018677 
	C143.097412,404.441193 138.599152,402.702484 134.142807,400.879059 
	C119.471062,394.875732 108.037994,384.561890 100.041634,371.360748 
	C93.394997,360.387848 88.671127,348.357788 87.679970,334.903961 
	C86.698288,321.578674 87.811455,308.952057 91.944229,296.253571 
	C97.526764,279.100494 108.093422,265.822784 122.306343,255.379364 
	C126.864265,252.030258 132.690521,250.407303 137.978699,248.445251 
	C137.964523,251.611923 137.908157,254.327942 137.468048,257.032257 
	C133.699860,258.024200 130.315430,259.027863 126.584503,259.951965 
	C124.185883,261.917786 122.133766,263.963135 119.805115,266.178619 
	C118.419472,267.923889 117.310356,269.499023 115.845444,271.092163 
	C114.403404,271.830414 112.911415,272.302917 112.296143,273.310669 
	C108.007774,280.334778 103.560440,287.295532 99.817650,294.610992 
	C94.481636,305.040558 92.968468,316.597595 93.294678,328.013641 
	C93.621796,339.461761 97.205185,350.396790 101.850014,361.046936 
	C107.190193,373.291473 115.459221,383.125397 126.636375,389.461426 
	C145.128479,399.944122 165.046875,406.481689 186.804993,401.825043 
	C191.722992,400.772522 196.279556,398.031189 201.392914,395.969482 
	C209.607758,395.306091 215.858459,391.208801 222.339050,386.885559 
	C225.322952,383.888885 227.966507,380.870270 230.985718,377.859497 
	C232.809235,376.879242 234.801712,376.213837 235.611084,374.847565 
	C239.216293,368.761780 242.609589,362.540558 245.843857,356.247162 
	C251.192551,345.839447 253.157578,334.424286 252.772736,323.039337 
	C252.173126,305.301270 245.881424,289.105591 235.623444,274.615479 
	C234.166687,272.557678 231.284271,271.509125 228.821457,269.753662 
	C225.580765,266.095673 222.580338,262.677551 219.160873,259.177979 
	C215.101181,257.715149 211.460510,256.333679 207.840759,254.565063 
	C208.257980,252.488464 208.654251,250.799011 209.050537,249.109573 
z"/>
<path fill="#2D2826" opacity="1.000000" stroke="none" 
	d="
M137.936508,247.994629 
	C132.690521,250.407303 126.864265,252.030258 122.306343,255.379364 
	C108.093422,265.822784 97.526764,279.100494 91.944229,296.253571 
	C87.811455,308.952057 86.698288,321.578674 87.679970,334.903961 
	C88.671127,348.357788 93.394997,360.387848 100.041634,371.360748 
	C108.037994,384.561890 119.471062,394.875732 134.142807,400.879059 
	C138.599152,402.702484 143.097412,404.441193 147.645844,406.018677 
	C166.180756,412.446747 184.439255,410.729279 202.778778,404.670776 
	C216.725098,400.063599 228.797150,392.554504 238.340912,381.724579 
	C243.835678,375.489319 248.022293,367.825684 251.605667,360.241760 
	C258.111145,346.473511 260.204926,331.677826 258.962677,316.502411 
	C257.899170,303.510376 252.835449,291.706909 246.866501,280.405029 
	C239.260895,266.004211 227.465302,255.841019 212.526672,249.358658 
	C211.933884,249.101425 211.229233,249.101929 210.178894,248.956573 
	C210.094147,247.493347 210.407196,246.055923 210.932556,244.308014 
	C217.341019,247.086166 224.230591,249.275192 229.610825,253.422318 
	C250.611542,269.609955 261.410095,291.712708 263.958923,317.783508 
	C266.294159,341.669342 259.047638,363.026398 244.557892,381.854248 
	C229.513397,401.402893 208.548141,410.325867 184.813477,414.110748 
	C160.069519,418.056549 137.934265,410.641968 117.744865,397.552246 
	C103.041809,388.019592 93.800117,373.586426 87.754723,356.974304 
	C76.353783,325.645721 81.541389,296.592743 100.273621,270.078552 
	C109.740128,256.679382 122.561478,246.324982 139.541687,242.008575 
	C139.602509,243.100388 139.283981,244.204147 138.815094,245.882172 
	C138.421997,246.969162 138.179245,247.481888 137.936508,247.994629 
z"/>
<path fill="#03DEF5" opacity="1.000000" stroke="none" 
	d="
M208.847763,248.771362 
	C208.654251,250.799011 208.257980,252.488464 207.594299,254.806686 
	C206.535400,257.624847 205.743912,259.814209 204.552917,261.938629 
	C200.855286,261.579681 197.557144,261.285736 194.304245,260.643677 
	C195.251312,257.531982 196.153168,254.768448 197.055023,252.004898 
	C197.623306,250.534607 198.191605,249.064316 198.923859,247.295807 
	C202.273544,247.476120 205.459259,247.954620 208.847763,248.771362 
z"/>
<path fill="#03DEF5" opacity="1.000000" stroke="none" 
	d="
M137.978699,248.445251 
	C138.179245,247.481888 138.421997,246.969162 138.835815,246.229675 
	C142.365479,246.002045 145.724075,246.001175 149.540497,245.999954 
	C149.793900,247.742538 149.589478,249.485489 149.310791,252.005081 
	C149.161819,254.188934 149.087112,255.596146 148.558441,257.003357 
	C144.825897,256.979828 141.547318,256.956299 138.161621,256.949768 
	C138.054504,256.966736 137.851791,257.043976 137.851791,257.043976 
	C137.908157,254.327942 137.964523,251.611923 137.978699,248.445251 
z"/>
<path fill="#96F6FD" opacity="1.000000" stroke="none" 
	d="
M149.012405,257.003357 
	C149.087112,255.596146 149.161819,254.188934 149.352112,252.373718 
	C165.014389,251.977615 180.561050,251.989532 196.581375,252.003174 
	C196.153168,254.768448 195.251312,257.531982 194.259109,260.972961 
	C193.950562,262.497375 193.732376,263.344421 192.999573,264.138062 
	C182.355286,264.056458 172.224167,264.117371 162.096619,263.955261 
	C158.153320,263.892151 154.218063,263.326538 150.183685,262.605286 
	C149.729614,260.481659 149.371002,258.742523 149.012405,257.003357 
z"/>
<path fill="#2E3C42" opacity="1.000000" stroke="none" 
	d="
M201.002502,396.067261 
	C196.279556,398.031189 191.722992,400.772522 186.804993,401.825043 
	C165.046875,406.481689 145.128479,399.944122 126.636375,389.461426 
	C115.459221,383.125397 107.190193,373.291473 101.850014,361.046936 
	C97.205185,350.396790 93.621796,339.461761 93.294678,328.013641 
	C92.968468,316.597595 94.481636,305.040558 99.817650,294.610992 
	C103.560440,287.295532 108.007774,280.334778 112.296143,273.310669 
	C112.911415,272.302917 114.403404,271.830414 115.818932,271.408325 
	C116.048561,272.117554 115.948906,272.528687 115.556473,273.146301 
	C115.015007,275.235779 114.766319,277.118774 114.401733,279.365784 
	C114.205780,280.487579 114.125725,281.245392 113.693893,282.050293 
	C112.589706,282.693420 111.488281,283.132751 111.139458,283.909882 
	C108.022697,290.853546 104.052521,297.606140 102.201172,304.889679 
	C96.737099,326.386505 99.723007,347.106903 111.267464,366.085938 
	C115.302643,372.719757 120.206604,379.289703 128.642609,382.024048 
	C130.585312,383.847137 132.264038,385.496002 134.080841,387.457214 
	C145.078888,395.729828 156.630112,397.972504 169.874466,393.974792 
	C175.607651,392.244293 182.227554,392.984009 188.401535,393.343170 
	C192.640335,393.589752 196.804810,395.114075 201.002502,396.067261 
z"/>
<path fill="#91FCFC" opacity="1.000000" stroke="none" 
	d="
M201.392914,395.969482 
	C196.804810,395.114075 192.640335,393.589752 188.401535,393.343170 
	C182.227554,392.984009 175.607651,392.244293 169.874466,393.974792 
	C156.630112,397.972504 145.078888,395.729828 134.179260,387.086243 
	C137.426987,385.268616 140.714371,384.134308 144.364166,383.048462 
	C154.832260,388.577026 164.581680,389.721191 174.189453,381.666473 
	C177.749069,378.682220 182.095184,380.334290 185.263977,382.764893 
	C194.917953,390.169769 204.379669,388.415771 214.249405,383.256348 
	C217.000793,384.630524 219.499741,385.747070 221.998688,386.863647 
	C215.858459,391.208801 209.607758,395.306091 201.392914,395.969482 
z"/>
<path fill="#2E3C42" opacity="1.000000" stroke="none" 
	d="
M229.061707,269.993469 
	C231.284271,271.509125 234.166687,272.557678 235.623444,274.615479 
	C245.881424,289.105591 252.173126,305.301270 252.772736,323.039337 
	C253.157578,334.424286 251.192551,345.839447 245.843857,356.247162 
	C242.609589,362.540558 239.216293,368.761780 235.611084,374.847565 
	C234.801712,376.213837 232.809235,376.879242 231.016357,377.548523 
	C230.718964,376.820251 230.766632,376.410675 230.984161,375.629944 
	C231.519409,372.509033 231.884811,369.759277 232.581146,366.946899 
	C233.795670,366.165833 234.990189,365.624695 235.515945,364.702362 
	C242.609924,352.256866 246.854568,338.736969 246.642258,324.530365 
	C246.436188,310.739746 242.608749,297.444641 235.590393,285.340546 
	C234.783020,283.948120 233.092880,283.067535 231.671661,281.553558 
	C231.301422,279.773865 231.071533,278.390289 230.875153,276.638367 
	C230.292999,274.177856 229.677353,272.085663 229.061707,269.993469 
z"/>
<path fill="#03EDF4" opacity="1.000000" stroke="none" 
	d="
M228.821457,269.753662 
	C229.677353,272.085663 230.292999,274.177856 230.423935,276.637115 
	C226.003540,277.014130 222.067841,277.024078 218.233154,276.643951 
	C218.629395,273.513336 218.924637,270.772797 219.311935,267.592010 
	C219.462631,264.520966 219.521271,261.890167 219.579895,259.259399 
	C222.580338,262.677551 225.580765,266.095673 228.821457,269.753662 
z"/>
<path fill="#84FFFB" opacity="1.000000" stroke="none" 
	d="
M230.814301,376.001129 
	C230.766632,376.410675 230.718964,376.820251 230.640671,377.540741 
	C227.966507,380.870270 225.322952,383.888885 222.339035,386.885559 
	C219.499741,385.747070 217.000793,384.630524 214.407227,382.962524 
	C216.190750,379.937317 218.068893,377.463501 220.394714,374.992828 
	C224.166382,375.331024 227.490326,375.666077 230.814301,376.001129 
z"/>
<path fill="#2D414B" opacity="1.000000" stroke="none" 
	d="
M219.160873,259.177979 
	C219.521271,261.890167 219.462631,264.520966 218.918121,267.578735 
	C214.004532,266.334045 209.576813,264.662354 205.103714,262.743164 
	C205.023041,262.331635 204.987747,262.167633 204.952423,262.003601 
	C205.743912,259.814209 206.535400,257.624847 207.573364,255.193848 
	C211.460510,256.333679 215.101181,257.715149 219.160873,259.177979 
z"/>
<path fill="#2D414B" opacity="1.000000" stroke="none" 
	d="
M126.931000,260.031525 
	C130.315430,259.027863 133.699860,258.024200 137.468048,257.032257 
	C137.851791,257.043976 138.054504,256.966736 138.136108,257.347382 
	C138.707550,260.098694 139.197357,262.469391 139.304169,264.960815 
	C135.353607,266.380188 131.786057,267.678802 128.135544,268.695923 
	C127.873322,267.865845 127.694046,267.317261 127.421249,266.355927 
	C127.195488,263.972656 127.063240,262.002075 126.931000,260.031525 
z"/>
<path fill="#01BDFA" opacity="1.000000" stroke="none" 
	d="
M127.514771,266.768646 
	C127.694046,267.317261 127.873322,267.865845 128.174835,268.997711 
	C128.877884,270.345245 129.458679,271.109558 129.740189,272.168121 
	C124.910362,272.621490 120.379814,272.780640 115.849258,272.939789 
	C115.948906,272.528687 116.048561,272.117554 116.174728,271.390320 
	C117.310356,269.499023 118.419472,267.923889 120.202843,266.244843 
	C123.089661,266.350189 125.302216,266.559418 127.514771,266.768646 
z"/>
<path fill="#03A5F7" opacity="1.000000" stroke="none" 
	d="
M127.421249,266.355927 
	C125.302216,266.559418 123.089661,266.350189 120.479385,266.074738 
	C122.133766,263.963135 124.185883,261.917786 126.584496,259.951965 
	C127.063240,262.002075 127.195488,263.972656 127.421249,266.355927 
z"/>
<path fill="#03EDF4" opacity="1.000000" stroke="none" 
	d="
M204.552917,261.938629 
	C204.987747,262.167633 205.023041,262.331635 204.926910,263.083984 
	C204.114975,266.770599 203.434448,269.868835 202.542206,273.244110 
	C202.198166,274.682220 202.065857,275.843292 201.498627,277.002808 
	C197.760284,276.667084 194.456848,276.332977 191.137680,275.603271 
	C191.919357,271.535645 192.716782,267.863525 193.514191,264.191437 
	C193.732376,263.344421 193.950562,262.497375 194.213882,261.321075 
	C197.557144,261.285736 200.855286,261.579681 204.552917,261.938629 
z"/>
<path fill="#03EDF4" opacity="1.000000" stroke="none" 
	d="
M139.687164,264.840057 
	C139.197357,262.469391 138.707550,260.098694 138.243225,257.330383 
	C141.547318,256.956299 144.825897,256.979828 148.558441,257.003357 
	C149.371002,258.742523 149.729614,260.481659 150.178406,262.980713 
	C151.572449,268.154266 152.876297,272.567932 154.186096,277.344788 
	C154.493423,279.128296 154.794800,280.548676 154.634109,281.976562 
	C151.122299,281.986450 148.072540,281.988800 144.845612,281.871826 
	C144.668427,281.752533 144.296509,281.542328 144.308167,281.199890 
	C144.041534,279.532196 143.763245,278.206940 143.426453,276.514648 
	C142.890625,274.763580 142.413300,273.379547 141.934692,271.640930 
	C141.184662,269.137573 140.435913,266.988831 139.687164,264.840057 
z"/>
<path fill="#8DF9FC" opacity="1.000000" stroke="none" 
	d="
M154.180145,276.981628 
	C152.876297,272.567932 151.572449,268.154266 150.273865,263.365173 
	C154.218063,263.326538 158.153320,263.892151 162.096619,263.955261 
	C172.224167,264.117371 182.355286,264.056458 192.999573,264.138062 
	C192.716782,267.863525 191.919357,271.535645 191.022552,275.803101 
	C190.819229,276.694122 190.654404,276.950592 189.920105,277.119080 
	C177.667755,277.040680 165.923950,277.011139 154.180145,276.981628 
z"/>
<path fill="#2D414B" opacity="1.000000" stroke="none" 
	d="
M128.378647,381.849854 
	C120.206604,379.289703 115.302643,372.719757 111.267464,366.085938 
	C99.723007,347.106903 96.737099,326.386505 102.201172,304.889679 
	C104.052521,297.606140 108.022697,290.853546 111.139458,283.909882 
	C111.488281,283.132751 112.589706,282.693420 113.730713,282.459839 
	C114.511070,284.078735 114.902824,285.335205 114.872726,286.734711 
	C107.102112,296.605591 104.143799,307.864929 103.008209,319.752319 
	C101.493584,335.607483 106.148743,350.089447 113.686333,363.637756 
	C115.755524,367.356934 120.114578,369.802185 123.609512,373.030975 
	C124.181465,373.825226 124.566742,374.420563 124.984940,375.365967 
	C126.138123,377.760651 127.258385,379.805237 128.378647,381.849854 
z"/>
<path fill="#84FFFB" opacity="1.000000" stroke="none" 
	d="
M128.642609,382.024048 
	C127.258385,379.805237 126.138123,377.760651 125.387772,375.349274 
	C128.513611,374.314819 131.269547,373.647125 134.281982,373.187134 
	C137.692917,376.596558 140.847336,379.798279 144.001770,383.000000 
	C140.714371,384.134308 137.426987,385.268616 134.041168,386.773895 
	C132.264038,385.496002 130.585312,383.847137 128.642609,382.024048 
z"/>
<path fill="#02D0F7" opacity="1.000000" stroke="none" 
	d="
M115.556480,273.146301 
	C120.379814,272.780640 124.910362,272.621490 129.989044,272.360840 
	C131.038498,273.171814 131.539810,274.084351 132.007812,275.418457 
	C131.835068,277.534637 131.695663,279.229218 131.582626,280.603394 
	C128.652161,280.760834 126.329819,280.885620 123.807678,280.684998 
	C120.577797,279.906952 117.547714,279.454346 114.517632,279.001709 
	C114.766319,277.118774 115.015007,275.235779 115.556480,273.146301 
z"/>
<path fill="#03DEF5" opacity="1.000000" stroke="none" 
	d="
M114.401733,279.365753 
	C117.547714,279.454346 120.577797,279.906952 123.604095,280.982178 
	C119.851807,285.090637 120.201202,288.989136 122.117416,293.187469 
	C121.568230,293.358124 121.346519,293.419708 120.867340,293.265656 
	C119.733757,292.425262 118.857635,291.800507 117.744171,290.963257 
	C116.769417,289.364380 116.031998,287.978058 115.294586,286.591705 
	C114.902824,285.335205 114.511070,284.078735 114.082489,282.412720 
	C114.125725,281.245392 114.205780,280.487579 114.401733,279.365753 
z"/>
<path fill="#A2FFFE" opacity="1.000000" stroke="none" 
	d="
M144.364166,383.048462 
	C140.847336,379.798279 137.692917,376.596558 134.267273,372.947571 
	C133.996063,372.500336 133.976257,372.020447 134.189301,371.684265 
	C136.420105,370.898743 138.436584,370.064911 140.455795,370.058197 
	C166.985367,369.970490 193.515320,369.999512 220.039337,370.415405 
	C220.004684,372.217590 219.975861,373.603638 219.947021,374.989716 
	C218.068893,377.463501 216.190750,379.937317 214.154785,382.704926 
	C204.379669,388.415771 194.917953,390.169769 185.263977,382.764893 
	C182.095184,380.334290 177.749069,378.682220 174.189453,381.666473 
	C164.581680,389.721191 154.832260,388.577026 144.364166,383.048462 
z"/>
<path fill="#03FCF3" opacity="1.000000" stroke="none" 
	d="
M190.428665,277.167908 
	C190.654404,276.950592 190.819229,276.694122 191.038284,276.198669 
	C194.456848,276.332977 197.760284,276.667084 201.594833,277.362610 
	C204.950928,284.005280 211.001068,284.995087 215.954041,279.683960 
	C216.793533,278.617676 217.462845,277.825836 218.132141,277.034058 
	C222.067841,277.024078 226.003540,277.014130 230.390442,277.005432 
	C231.071533,278.390289 231.301422,279.773865 231.523605,281.979919 
	C231.380997,285.199371 231.246078,287.596313 230.966064,290.311859 
	C230.502686,291.753326 230.184448,292.876190 229.419434,293.999115 
	C225.715927,293.989563 222.459167,293.979950 219.138062,293.687683 
	C218.832275,292.870026 218.590836,292.335022 218.349396,291.800018 
	C217.878662,292.196228 217.407944,292.592468 216.474121,292.991943 
	C207.357361,292.993835 198.703720,292.992493 189.981293,292.603638 
	C190.084564,287.200073 190.256607,282.183990 190.428665,277.167908 
z"/>
<path fill="#2D414B" opacity="1.000000" stroke="none" 
	d="
M231.111176,289.993286 
	C231.246078,287.596313 231.380997,285.199371 231.663971,282.376038 
	C233.092880,283.067535 234.783020,283.948120 235.590393,285.340546 
	C242.608749,297.444641 246.436188,310.739746 246.642258,324.530365 
	C246.854568,338.736969 242.609924,352.256866 235.515945,364.702362 
	C234.990189,365.624695 233.795670,366.165833 232.490448,366.551788 
	C231.932556,365.152008 231.796280,364.084625 231.703995,362.653015 
	C231.666946,361.559845 231.585907,360.830933 231.853836,359.966705 
	C232.930450,358.956390 233.864822,358.183624 234.355316,357.191376 
	C244.885376,335.889404 244.773483,314.518463 234.504196,293.182770 
	C233.876007,291.877594 232.264923,291.045502 231.111176,289.993286 
z"/>
<path fill="#76FEFB" opacity="1.000000" stroke="none" 
	d="
M231.660004,363.017273 
	C231.796280,364.084625 231.932556,365.152008 232.159531,366.614441 
	C231.884811,369.759277 231.519409,372.509033 230.984146,375.629944 
	C227.490326,375.666077 224.166382,375.331024 220.394714,374.992828 
	C219.975861,373.603638 220.004684,372.217590 220.293304,370.122437 
	C220.695633,367.279907 220.838165,365.146484 221.434479,363.008118 
	C225.145523,363.007904 228.402756,363.012573 231.660004,363.017273 
z"/>
<path fill="#2D4C58" opacity="1.000000" stroke="none" 
	d="
M218.233154,276.643921 
	C217.462845,277.825836 216.793533,278.617676 215.617798,279.635162 
	C210.992203,277.562897 206.873047,275.264984 202.753906,272.967072 
	C203.434448,269.868835 204.114975,266.770599 204.972321,263.331512 
	C209.576813,264.662354 214.004532,266.334045 218.826050,268.019012 
	C218.924637,270.772797 218.629395,273.513336 218.233154,276.643921 
z"/>
<path fill="#2D4C58" opacity="1.000000" stroke="none" 
	d="
M132.041138,274.996887 
	C131.539810,274.084351 131.038498,273.171814 130.288330,272.066589 
	C129.458679,271.109558 128.877884,270.345245 128.257782,269.279175 
	C131.786057,267.678802 135.353607,266.380188 139.304169,264.960815 
	C140.435913,266.988831 141.184662,269.137573 141.560974,271.651184 
	C138.139404,273.009644 135.090271,274.003265 132.041138,274.996887 
z"/>
<path fill="#2D5E73" opacity="1.000000" stroke="none" 
	d="
M202.542191,273.244110 
	C206.873047,275.264984 210.992203,277.562897 215.447586,279.909668 
	C211.001068,284.995087 204.950928,284.005280 202.029739,277.364197 
	C202.065857,275.843292 202.198166,274.682220 202.542191,273.244110 
z"/>
<path fill="#84FFFB" opacity="1.000000" stroke="none" 
	d="
M216.937210,292.988678 
	C217.407944,292.592468 217.878662,292.196228 218.349396,291.800018 
	C218.590836,292.335022 218.832275,292.870026 219.091125,294.142853 
	C218.667099,299.249542 218.225647,303.618378 217.544846,308.230957 
	C215.446106,315.642609 213.586731,322.810608 211.516800,329.967377 
	C211.306244,329.956177 210.885712,329.987122 210.480194,329.920197 
	C208.122513,329.568848 206.170975,329.042267 204.218079,329.037079 
	C182.143463,328.978607 160.068542,328.970093 137.994034,329.045013 
	C135.716171,329.052734 133.440399,329.685181 131.090759,329.739899 
	C130.709427,328.972504 130.400970,328.492950 130.045349,327.620422 
	C129.238113,324.024628 128.478073,320.821869 127.610756,317.167114 
	C141.244888,320.220581 148.249496,317.849457 153.476379,308.901154 
	C155.011414,304.771790 156.273392,300.854431 157.627228,296.534332 
	C156.844788,291.410706 155.970474,286.689880 155.096161,281.969025 
	C154.794800,280.548676 154.493423,279.128296 154.186096,277.344788 
	C165.923950,277.011139 177.667755,277.040680 189.920105,277.119080 
	C190.256607,282.183990 190.084564,287.200073 189.956726,292.984863 
	C191.700699,300.752655 195.219254,304.331696 200.822723,303.587402 
	C207.723480,302.670807 213.831146,299.957458 216.937210,292.988678 
z"/>
<path fill="#2D5E73" opacity="1.000000" stroke="none" 
	d="
M121.124802,293.481293 
	C121.346519,293.419708 121.568230,293.358124 122.439819,293.136505 
	C124.784889,291.278259 126.420120,289.514648 128.186890,287.894501 
	C132.846878,283.621246 136.696243,278.202576 143.484955,276.881714 
	C143.763245,278.206940 144.041534,279.532196 144.117828,281.534668 
	C139.530029,286.642090 135.055817,290.989471 130.795059,295.536835 
	C128.603729,297.875549 126.792824,300.570709 124.460548,303.154175 
	C123.220306,304.911133 122.012070,306.528076 121.494377,308.342102 
	C119.385300,315.732239 122.111191,322.403564 124.902191,329.472931 
	C123.905655,335.948517 122.933754,341.975586 121.613861,347.918121 
	C115.853256,339.608459 116.273666,330.079529 116.784256,321.121979 
	C117.244469,313.048340 120.501205,305.147034 122.312973,297.121979 
	C122.554459,296.052338 121.551468,294.701752 121.124802,293.481293 
z"/>
<path fill="#2D6984" opacity="1.000000" stroke="none" 
	d="
M124.810013,303.104797 
	C126.792824,300.570709 128.603729,297.875549 130.795059,295.536835 
	C135.055817,290.989471 139.530029,286.642090 144.106171,281.877106 
	C144.296509,281.542328 144.668427,281.752533 144.815918,282.338135 
	C144.755768,287.571716 144.548111,292.219696 144.173813,297.129150 
	C141.995102,300.225006 139.983032,303.059387 137.618744,306.002045 
	C130.707108,308.853088 128.640732,308.354492 124.810013,303.104797 
z"/>
<path fill="#03FCF3" opacity="1.000000" stroke="none" 
	d="
M144.340454,296.867645 
	C144.548111,292.219696 144.755768,287.571716 144.993103,282.457458 
	C148.072540,281.988800 151.122299,281.986450 154.634094,281.976562 
	C155.970474,286.689880 156.844788,291.410706 157.204102,296.552063 
	C152.572906,296.937592 148.456680,296.902618 144.340454,296.867645 
z"/>
<path fill="#2D5465" opacity="1.000000" stroke="none" 
	d="
M143.426453,276.514648 
	C136.696243,278.202576 132.846878,283.621246 128.186890,287.894501 
	C126.420120,289.514648 124.784889,291.278259 122.767288,293.027435 
	C120.201202,288.989136 119.851807,285.090637 123.803902,281.307617 
	C126.329819,280.885620 128.652161,280.760834 131.582626,280.603394 
	C131.695663,279.229218 131.835068,277.534637 132.007812,275.418457 
	C135.090271,274.003265 138.139404,273.009644 141.562256,272.005798 
	C142.413300,273.379547 142.890625,274.763580 143.426453,276.514648 
z"/>
<path fill="#2D4C58" opacity="1.000000" stroke="none" 
	d="
M114.872726,286.734711 
	C116.031998,287.978058 116.769417,289.364380 117.683914,291.312622 
	C116.947266,294.161743 116.073456,296.465881 115.113518,298.733551 
	C106.905281,318.123901 108.173264,337.208771 117.083717,355.982239 
	C117.683350,357.245636 119.330482,358.011871 120.576546,359.381927 
	C120.791000,360.505249 120.919342,361.255981 120.996933,362.413269 
	C121.771736,366.157257 122.597282,369.494629 123.422836,372.832031 
	C120.114578,369.802185 115.755524,367.356934 113.686333,363.637756 
	C106.148743,350.089447 101.493584,335.607483 103.008209,319.752319 
	C104.143799,307.864929 107.102112,296.605591 114.872726,286.734711 
z"/>
<path fill="#76FEFB" opacity="1.000000" stroke="none" 
	d="
M123.609512,373.030975 
	C122.597282,369.494629 121.771736,366.157257 121.438591,362.411438 
	C124.298500,362.000488 126.666008,361.997955 129.282410,362.243011 
	C131.012955,365.667236 132.494614,368.843842 133.976257,372.020447 
	C133.976257,372.020447 133.996063,372.500336 134.010773,372.739868 
	C131.269547,373.647125 128.513611,374.314819 125.354843,374.999207 
	C124.566742,374.420563 124.181465,373.825226 123.609512,373.030975 
z"/>
<path fill="#2D5465" opacity="1.000000" stroke="none" 
	d="
M120.490433,359.009308 
	C119.330482,358.011871 117.683350,357.245636 117.083717,355.982239 
	C108.173264,337.208771 106.905281,318.123901 115.113518,298.733551 
	C116.073456,296.465881 116.947266,294.161743 117.921265,291.525146 
	C118.857635,291.800507 119.733757,292.425262 120.867340,293.265656 
	C121.551468,294.701752 122.554459,296.052338 122.312973,297.121979 
	C120.501205,305.147034 117.244469,313.048340 116.784256,321.121979 
	C116.273666,330.079529 115.853256,339.608459 121.642532,348.251770 
	C122.037842,349.114777 122.056496,349.559601 121.904099,350.370758 
	C121.318840,353.494507 120.904640,356.251923 120.490433,359.009308 
z"/>
<path fill="#98FFFD" opacity="1.000000" stroke="none" 
	d="
M134.189316,371.684265 
	C132.494614,368.843842 131.012955,365.667236 129.271286,361.848175 
	C129.022888,358.474579 129.034531,355.743408 129.465240,352.992615 
	C132.834366,352.648651 135.783646,352.051178 138.734604,352.042847 
	C164.485809,351.969940 190.237305,352.002441 216.163391,352.306183 
	C217.885605,356.076813 219.433151,359.544922 220.980682,363.013031 
	C220.838165,365.146484 220.695633,367.279907 220.299133,369.706299 
	C193.515320,369.999512 166.985367,369.970490 140.455795,370.058197 
	C138.436584,370.064911 136.420105,370.898743 134.189316,371.684265 
z"/>
<path fill="#2D4C58" opacity="1.000000" stroke="none" 
	d="
M230.966064,290.311859 
	C232.264923,291.045502 233.876007,291.877594 234.504196,293.182770 
	C244.773483,314.518463 244.885376,335.889404 234.355316,357.191376 
	C233.864822,358.183624 232.930450,358.956390 231.692917,359.642181 
	C230.408279,355.984924 229.633545,352.516846 229.216003,348.973816 
	C230.647827,347.299561 232.186401,345.841187 232.722153,344.078125 
	C236.323044,332.227875 235.623108,320.179993 233.407242,308.242828 
	C232.858551,305.286865 230.373276,302.690399 228.806686,299.549194 
	C229.178848,297.446198 229.522522,295.722626 229.866196,293.999084 
	C230.184448,292.876190 230.502686,291.753326 230.966064,290.311859 
z"/>
<path fill="#11FFF4" opacity="1.000000" stroke="none" 
	d="
M216.474121,292.991943 
	C213.831146,299.957458 207.723480,302.670807 200.822723,303.587402 
	C195.219254,304.331696 191.700699,300.752655 190.025513,293.372375 
	C198.703720,292.992493 207.357361,292.993835 216.474121,292.991943 
z"/>
<path fill="#11FFF4" opacity="1.000000" stroke="none" 
	d="
M229.419434,293.999115 
	C229.522522,295.722626 229.178848,297.446198 228.566650,299.805908 
	C227.553894,303.001160 226.809647,305.560181 225.930603,308.144409 
	C225.795807,308.169556 225.534103,308.251526 225.055817,308.187927 
	C222.313080,308.078613 220.048630,308.032928 217.784195,307.987244 
	C218.225647,303.618378 218.667099,299.249542 219.155487,294.425537 
	C222.459167,293.979950 225.715927,293.989563 229.419434,293.999115 
z"/>
<path fill="#63FCF8" opacity="1.000000" stroke="none" 
	d="
M228.858810,349.048767 
	C229.633545,352.516846 230.408279,355.984924 231.343948,359.777527 
	C231.585907,360.830933 231.666946,361.559845 231.703979,362.652985 
	C228.402756,363.012573 225.145523,363.007904 221.434494,363.008118 
	C219.433151,359.544922 217.885605,356.076813 216.159149,351.979309 
	C215.964447,350.914368 215.948639,350.478851 216.398560,350.029114 
	C220.605621,349.607422 224.346970,349.199921 228.276840,348.868835 
	C228.465378,348.945190 228.858810,349.048767 228.858810,349.048767 
z"/>
<path fill="#8EFFFC" opacity="1.000000" stroke="none" 
	d="
M215.932846,350.043335 
	C215.948639,350.478851 215.964447,350.914368 215.984497,351.676758 
	C190.237305,352.002441 164.485809,351.969940 138.734604,352.042847 
	C135.783646,352.051178 132.834366,352.648651 129.449768,352.616455 
	C129.011734,351.507721 129.008209,350.755524 129.164551,349.648254 
	C129.937500,342.871368 130.550583,336.449554 131.163666,330.027771 
	C133.440399,329.685181 135.716171,329.052734 137.994034,329.045013 
	C160.068542,328.970093 182.143463,328.978607 204.218079,329.037079 
	C206.170975,329.042267 208.122513,329.568848 210.491776,330.327454 
	C208.999817,338.151245 211.288986,344.404694 215.932846,350.043335 
z"/>
<path fill="#26FDF4" opacity="1.000000" stroke="none" 
	d="
M124.460556,303.154175 
	C128.640732,308.354492 130.707108,308.853088 137.730042,306.392822 
	C139.816727,307.115265 141.415894,307.720398 143.068100,307.960388 
	C146.431366,308.448944 149.823242,308.740509 153.203339,309.113190 
	C148.249496,317.849457 141.244888,320.220581 127.610756,317.167114 
	C128.478073,320.821869 129.238113,324.024628 129.667053,327.661346 
	C127.866219,328.404999 126.396523,328.714691 124.926819,329.024414 
	C122.111191,322.403564 119.385300,315.732239 121.494377,308.342102 
	C122.012070,306.528076 123.220306,304.911133 124.460556,303.154175 
z"/>
<path fill="#52FEF8" opacity="1.000000" stroke="none" 
	d="
M216.398560,350.029114 
	C211.288986,344.404694 208.999817,338.151245 210.897293,330.394409 
	C210.885712,329.987122 211.306244,329.956177 212.012085,329.971558 
	C216.255203,329.979645 219.792465,329.972382 223.457382,330.322327 
	C224.409561,333.780701 225.234085,336.881927 226.058136,340.366486 
	C226.734543,343.430725 227.411423,346.111572 228.088303,348.792450 
	C224.346970,349.199921 220.605621,349.607422 216.398560,350.029114 
z"/>
<path fill="#26FDF4" opacity="1.000000" stroke="none" 
	d="
M223.329727,329.965149 
	C219.792465,329.972382 216.255203,329.979645 212.222656,329.982727 
	C213.586731,322.810608 215.446106,315.642609 217.544846,308.230957 
	C220.048630,308.032928 222.313080,308.078613 224.982773,308.595612 
	C224.701935,316.032990 224.015839,322.999084 223.329727,329.965149 
z"/>
<path fill="#11FFF4" opacity="1.000000" stroke="none" 
	d="
M153.476379,308.901154 
	C149.823242,308.740509 146.431366,308.448944 143.068100,307.960388 
	C141.415894,307.720398 139.816727,307.115265 138.082275,306.284546 
	C139.983032,303.059387 141.995102,300.225006 144.173813,297.129150 
	C148.456680,296.902618 152.572906,296.937592 157.112244,296.954834 
	C156.273392,300.854431 155.011414,304.771790 153.476379,308.901154 
z"/>
<path fill="#52FEF8" opacity="1.000000" stroke="none" 
	d="
M124.902191,329.472900 
	C126.396523,328.714691 127.866219,328.404999 129.714218,328.054382 
	C130.400970,328.492950 130.709427,328.972504 131.090775,329.739868 
	C130.550583,336.449554 129.937500,342.871368 128.730560,349.647186 
	C126.116180,350.002258 124.095665,350.003326 122.075157,350.004395 
	C122.056496,349.559601 122.037842,349.114777 121.990517,348.336304 
	C122.933754,341.975586 123.905655,335.948517 124.902191,329.472900 
z"/>
<path fill="#63FCF8" opacity="1.000000" stroke="none" 
	d="
M121.904099,350.370758 
	C124.095665,350.003326 126.116180,350.002258 128.570694,350.002258 
	C129.008209,350.755524 129.011734,351.507721 129.030701,352.636108 
	C129.034531,355.743408 129.022888,358.474579 129.022385,361.600555 
	C126.666008,361.997955 124.298500,362.000488 121.489349,362.004883 
	C120.919342,361.255981 120.791000,360.505249 120.576546,359.381927 
	C120.904640,356.251923 121.318840,353.494507 121.904099,350.370758 
z"/>
<path fill="#2D5465" opacity="1.000000" stroke="none" 
	d="
M228.276840,348.868835 
	C227.411423,346.111572 226.734543,343.430725 226.369598,340.174591 
	C227.368454,338.131622 228.609314,336.678223 228.647705,335.193726 
	C228.826477,328.281799 228.869370,321.351349 228.521210,314.449707 
	C228.412949,312.303711 226.922867,310.227417 226.065399,308.119232 
	C226.809647,305.560181 227.553894,303.001160 228.538177,300.185394 
	C230.373276,302.690399 232.858551,305.286865 233.407242,308.242828 
	C235.623108,320.179993 236.323044,332.227875 232.722153,344.078125 
	C232.186401,345.841187 230.647827,347.299561 229.216003,348.973816 
	C228.858810,349.048767 228.465378,348.945190 228.276840,348.868835 
z"/>
<path fill="#2D5E73" opacity="1.000000" stroke="none" 
	d="
M225.930603,308.144409 
	C226.922867,310.227417 228.412949,312.303711 228.521210,314.449707 
	C228.869370,321.351349 228.826477,328.281799 228.647705,335.193726 
	C228.609314,336.678223 227.368454,338.131622 226.370056,339.791229 
	C225.234085,336.881927 224.409561,333.780701 223.457382,330.322327 
	C224.015839,322.999084 224.701935,316.032990 225.461060,308.659241 
	C225.534103,308.251526 225.795807,308.169556 225.930603,308.144409 
z"/>
</svg>