<svg version="1.1" id="Layer_1" xmlns="http://www.w3.org/2000/svg" xmlns:xlink="http://www.w3.org/1999/xlink" x="0px" y="0px"
	 width="100%" viewBox="0 0 322 487" enable-background="new 0 0 322 487" xml:space="preserve">
<path fill="#2D1A13" opacity="1.000000" stroke="none" 
	d="
M101.000000,488.000000 
	C67.343582,488.000000 34.187164,488.000000 1.015372,488.000000 
	C1.015372,325.727081 1.015372,163.454147 1.015372,1.090611 
	C108.239685,1.090611 215.479477,1.090611 322.859619,1.090611 
	C322.859619,163.333237 322.859619,325.666595 322.859619,488.000000 
	C249.120911,488.000000 175.310455,488.000000 101.000000,488.000000 
M133.916031,226.222107 
	C133.193512,223.943985 132.471008,221.665863 131.453445,218.457474 
	C129.669067,221.793655 128.298126,224.356857 126.281898,227.292511 
	C125.672691,229.464523 125.063492,231.636520 124.164886,234.241425 
	C123.972443,234.901520 123.779999,235.561600 122.816185,236.225891 
	C118.354279,239.296646 113.021339,241.608185 109.573990,245.563263 
	C89.470818,268.627167 78.206161,294.986420 80.941544,326.299438 
	C83.078911,350.766815 91.819969,372.847870 109.509705,389.511810 
	C139.419983,417.687592 174.984680,427.004852 215.040604,414.768829 
	C229.998489,410.199585 244.100784,403.427155 255.112534,392.177856 
	C278.712585,368.068695 290.551727,339.185974 285.885498,305.183929 
	C281.714752,274.792542 267.694397,249.784729 241.239792,233.003113 
	C235.737885,229.512955 229.222076,227.621124 223.041260,224.213181 
	C223.353973,222.140396 223.666702,220.067596 224.270142,217.236572 
	C224.180634,212.823929 224.091125,208.411301 224.110245,203.163895 
	C222.717499,192.360306 218.215958,183.028046 210.587341,174.448105 
	C203.662292,166.606186 195.472687,160.391449 186.916016,155.443359 
	C183.381790,161.834457 180.045334,167.867920 176.157761,174.243454 
	C173.277634,177.217087 170.426773,180.219803 167.510956,183.158005 
	C162.277374,188.431763 157.004730,193.666748 151.173096,199.239410 
	C148.497147,204.164001 145.821198,209.088593 142.805099,214.706909 
	C140.283218,218.674210 140.567184,222.779785 141.379181,227.028137 
	C139.204544,227.374039 137.029907,227.719940 134.360184,227.867233 
	C134.177917,227.566467 133.995636,227.265717 133.916031,226.222107 
z"/>
<path fill="#2D211C" opacity="1.000000" stroke="none" 
	d="
M223.173523,224.992676 
	C229.222076,227.621124 235.737885,229.512955 241.239792,233.003113 
	C267.694397,249.784729 281.714752,274.792542 285.885498,305.183929 
	C290.551727,339.185974 278.712585,368.068695 255.112534,392.177856 
	C244.100784,403.427155 229.998489,410.199585 215.040604,414.768829 
	C174.984680,427.004852 139.419983,417.687592 109.509705,389.511810 
	C91.819969,372.847870 83.078911,350.766815 80.941544,326.299438 
	C78.206161,294.986420 89.470818,268.627167 109.573990,245.563263 
	C113.021339,241.608185 118.354279,239.296646 123.204178,236.630096 
	C123.356697,238.369904 123.121223,239.705505 122.547104,241.105164 
	C120.901070,241.871201 119.247162,242.274048 118.341698,243.322968 
	C111.730438,250.981827 103.994003,258.034698 99.015778,266.665009 
	C87.166908,287.206238 81.794289,309.576752 86.102074,333.388367 
	C89.666229,353.089539 96.870796,371.730713 111.480690,385.592651 
	C140.347549,412.981598 174.731400,422.174744 213.199860,410.373749 
	C224.763443,406.826355 235.899857,400.731018 246.047852,394.013977 
	C259.059357,385.401611 267.253296,372.376984 273.579926,358.067993 
	C282.196106,338.580597 285.209717,318.340149 280.423492,297.765106 
	C275.564453,276.876953 266.211243,257.870544 249.171188,243.792831 
	C241.214432,237.219299 232.693146,231.380569 222.421967,228.474365 
	C222.688660,227.049820 222.931091,226.021255 223.173523,224.992676 
z"/>
<path fill="#03BDF9" opacity="1.000000" stroke="none" 
	d="
M151.748413,198.917938 
	C157.004730,193.666748 162.277374,188.431763 167.510956,183.158005 
	C170.426773,180.219803 173.277634,177.217087 176.919357,174.094513 
	C182.781769,173.968185 187.882568,173.990799 193.144409,174.372131 
	C194.642563,180.582443 193.307053,185.932434 189.786346,190.618393 
	C185.572968,196.226257 180.638519,195.965576 176.551849,189.576279 
	C173.256943,193.450607 170.097885,197.165192 166.710571,200.933578 
	C166.482285,200.987381 166.032547,201.120560 165.697144,200.881073 
	C160.823959,200.067032 156.286179,199.492493 151.748413,198.917938 
z"/>
<path fill="#03BDF9" opacity="1.000000" stroke="none" 
	d="
M210.813507,175.068695 
	C218.215958,183.028046 222.717499,192.360306 223.674225,203.739441 
	C218.664856,204.539322 214.091492,204.763657 209.480591,204.652679 
	C209.342148,203.880310 209.241257,203.443268 209.210724,202.575653 
	C208.671951,192.793716 206.322830,183.975967 201.654953,175.981491 
	C204.971420,175.671112 207.892456,175.369904 210.813507,175.068695 
z"/>
<path fill="#02DAF6" opacity="1.000000" stroke="none" 
	d="
M142.201675,226.951920 
	C140.567184,222.779785 140.283218,218.674210 143.432312,214.358459 
	C148.723450,214.012436 153.387390,214.014877 158.028900,214.405518 
	C157.804764,215.810638 157.603043,216.827515 157.265152,218.226532 
	C156.072464,225.448700 157.605087,231.601456 162.000168,237.245956 
	C161.987534,237.669189 161.983597,237.838501 161.600235,238.163971 
	C156.759460,238.893814 152.298126,239.467529 147.600586,239.873795 
	C146.943100,239.079941 146.521851,238.453522 146.056549,237.458405 
	C144.742233,233.710419 143.471954,230.331177 142.201675,226.951920 
z"/>
<path fill="#03A5F7" opacity="1.000000" stroke="none" 
	d="
M210.700424,174.758392 
	C207.892456,175.369904 204.971420,175.671112 201.423950,175.724365 
	C197.858078,172.331146 194.918625,169.185867 191.943176,165.908325 
	C191.818802,165.748962 191.730453,165.721863 191.642090,165.694748 
	C191.781433,165.779175 191.920792,165.863602 191.950195,166.356537 
	C192.221298,169.181183 192.602341,171.597290 192.983383,174.013412 
	C187.882568,173.990799 182.781769,173.968185 177.194916,173.923492 
	C180.045334,167.867920 183.381790,161.834457 186.916016,155.443359 
	C195.472687,160.391449 203.662292,166.606186 210.700424,174.758392 
z"/>
<path fill="#02DAF6" opacity="1.000000" stroke="none" 
	d="
M223.107391,224.602936 
	C222.931091,226.021255 222.688660,227.049820 222.273407,228.752625 
	C221.964630,230.254059 221.828674,231.081284 221.498932,232.079437 
	C221.062180,232.887527 220.819214,233.524673 220.071274,234.129669 
	C217.607117,234.064850 215.638474,234.142822 213.690628,233.976883 
	C209.383636,233.609985 205.087082,233.120422 200.860382,232.339767 
	C202.914520,227.662903 204.894516,223.327179 207.015228,218.802338 
	C207.307480,218.328629 207.519745,218.100632 208.272385,217.943176 
	C213.827789,217.969711 218.903610,217.982269 223.979416,217.994812 
	C223.666702,220.067596 223.353973,222.140396 223.107391,224.602936 
z"/>
<path fill="#05CBF5" opacity="1.000000" stroke="none" 
	d="
M158.051331,214.017303 
	C153.387390,214.014877 148.723450,214.012436 143.602386,214.011581 
	C145.821198,209.088593 148.497147,204.164001 151.460754,199.078674 
	C156.286179,199.492493 160.823959,200.067032 165.571686,201.189667 
	C163.204880,205.830963 160.628098,209.924133 158.051331,214.017303 
z"/>
<path fill="#05CBF5" opacity="1.000000" stroke="none" 
	d="
M224.124786,217.615692 
	C218.903610,217.982269 213.827789,217.969711 208.304733,217.524948 
	C208.411041,213.057831 208.964600,209.022903 209.518143,204.987976 
	C214.091492,204.763657 218.664856,204.539322 223.619904,204.156830 
	C224.091125,208.411301 224.180634,212.823929 224.124786,217.615692 
z"/>
<path fill="#05CBF5" opacity="1.000000" stroke="none" 
	d="
M122.885742,241.041107 
	C123.121223,239.705505 123.356697,238.369904 123.589867,236.627991 
	C123.779999,235.561600 123.972443,234.901520 124.743652,234.083740 
	C129.231552,233.576920 133.140686,233.227753 137.314606,233.103867 
	C138.370834,235.553940 139.162262,237.778748 139.816071,240.257874 
	C139.573196,240.673691 139.467941,240.835190 138.937653,240.997437 
	C133.440872,240.972382 128.369125,240.946594 123.195099,240.953064 
	C123.092827,240.985321 122.885735,241.041107 122.885742,241.041107 
z"/>
<path fill="#2D2928" opacity="1.000000" stroke="none" 
	d="
M139.953674,240.003540 
	C139.162262,237.778748 138.370834,235.553940 137.278732,232.763901 
	C136.270462,230.821060 135.562866,229.443436 134.855270,228.065826 
	C137.029907,227.719940 139.204544,227.374039 141.790436,226.990021 
	C143.471954,230.331177 144.742233,233.710419 145.796555,237.720398 
	C143.704956,238.901932 141.829330,239.452744 139.953674,240.003540 
z"/>
<path fill="#03BDF9" opacity="1.000000" stroke="none" 
	d="
M134.607727,227.966522 
	C135.562866,229.443436 136.270462,230.821060 137.013947,232.538635 
	C133.140686,233.227753 129.231552,233.576920 124.888351,233.867310 
	C125.063492,231.636520 125.672691,229.464523 127.034180,227.125885 
	C129.795425,226.961166 131.804398,226.963058 133.813370,226.964951 
	C133.995636,227.265717 134.177917,227.566467 134.607727,227.966522 
z"/>
<path fill="#03A5F7" opacity="1.000000" stroke="none" 
	d="
M133.864700,226.593536 
	C131.804398,226.963058 129.795425,226.961166 127.356812,226.939667 
	C128.298126,224.356857 129.669067,221.793655 131.453445,218.457474 
	C132.471008,221.665863 133.193512,223.943985 133.864700,226.593536 
z"/>
<path fill="#2D2623" opacity="1.000000" stroke="none" 
	d="
M221.692719,231.908493 
	C221.828674,231.081284 221.964630,230.254059 222.249146,229.148590 
	C232.693146,231.380569 241.214432,237.219299 249.171188,243.792831 
	C266.211243,257.870544 275.564453,276.876953 280.423492,297.765106 
	C285.209717,318.340149 282.196106,338.580597 273.579926,358.067993 
	C267.253296,372.376984 259.059357,385.401611 246.047852,394.013977 
	C235.899857,400.731018 224.763443,406.826355 213.199860,410.373749 
	C174.731400,422.174744 140.347549,412.981598 111.480690,385.592651 
	C96.870796,371.730713 89.666229,353.089539 86.102074,333.388367 
	C81.794289,309.576752 87.166908,287.206238 99.015778,266.665009 
	C103.994003,258.034698 111.730438,250.981827 118.341698,243.322968 
	C119.247162,242.274048 120.901070,241.871201 122.547096,241.105164 
	C122.885735,241.041107 123.092827,240.985321 123.111580,241.355316 
	C123.060959,242.816177 122.991592,243.907059 122.593277,245.076080 
	C112.715179,252.614563 104.963867,261.477905 99.597931,272.495392 
	C90.027069,292.146545 85.157585,312.436035 89.560905,334.332001 
	C92.453651,348.716431 97.552223,362.355408 106.051491,374.183441 
	C121.936729,396.290283 144.897446,407.004211 171.104935,411.021515 
	C198.233093,415.179901 222.807266,407.239624 244.224869,391.202759 
	C266.892487,374.229919 276.985077,349.818237 278.900513,322.068817 
	C280.247009,302.561646 274.877380,284.400116 264.806885,267.813995 
	C254.606613,251.014130 240.996033,237.951904 221.692719,231.908493 
z"/>
<path fill="#A2F3FE" opacity="1.000000" stroke="none" 
	d="
M209.480591,204.652679 
	C208.964600,209.022903 208.411041,213.057831 207.825134,217.510971 
	C207.519745,218.100632 207.307480,218.328629 206.555756,218.803589 
	C192.368027,218.995895 178.779999,219.057526 165.193375,218.947556 
	C162.593216,218.926514 159.998535,218.229538 157.401321,217.844406 
	C157.603043,216.827515 157.804764,215.810638 158.028900,214.405533 
	C160.628098,209.924133 163.204880,205.830963 165.907104,201.429169 
	C166.032547,201.120560 166.482285,200.987381 166.948395,201.252686 
	C169.422104,202.011749 171.425064,202.909653 173.438095,202.932846 
	C185.337540,203.069962 197.239349,203.003906 209.140350,203.006210 
	C209.241257,203.443268 209.342148,203.880310 209.480591,204.652679 
z"/>
<path fill="#ABF2FE" opacity="1.000000" stroke="none" 
	d="
M209.210724,202.575653 
	C197.239349,203.003906 185.337540,203.069962 173.438095,202.932846 
	C171.425064,202.909653 169.422104,202.011749 167.176666,201.198883 
	C170.097885,197.165192 173.256943,193.450607 176.551849,189.576279 
	C180.638519,195.965576 185.572968,196.226257 189.786346,190.618393 
	C193.307053,185.932434 194.642563,180.582443 193.144409,174.372131 
	C192.602341,171.597290 192.221298,169.181183 191.929108,166.378937 
	C192.017929,165.992798 191.979187,166.040588 191.979187,166.040588 
	C194.918625,169.185867 197.858078,172.331146 201.028534,175.733521 
	C206.322830,183.975967 208.671951,192.793716 209.210724,202.575653 
z"/>
<path fill="#98F5FD" opacity="1.000000" stroke="none" 
	d="
M157.265152,218.226532 
	C159.998535,218.229538 162.593216,218.926514 165.193375,218.947556 
	C178.779999,219.057526 192.368027,218.995895 206.415039,218.992706 
	C204.894516,223.327179 202.914520,227.662903 200.622742,232.540649 
	C199.563843,234.067474 198.816711,235.052292 197.596588,236.030579 
	C195.304749,236.017685 193.484207,235.956970 191.667358,236.013947 
	C181.780685,236.323959 171.894943,236.662994 162.008881,236.992035 
	C157.605087,231.601456 156.072464,225.448700 157.265152,218.226532 
z"/>
<path fill="#8CFFFC" opacity="1.000000" stroke="none" 
	d="
M162.000168,237.245941 
	C171.894943,236.662994 181.780685,236.323959 191.667358,236.013947 
	C193.484207,235.956970 195.304749,236.017685 197.514465,236.368607 
	C195.554306,241.125336 193.203278,245.537552 190.616699,250.184937 
	C189.512314,252.274460 188.643494,254.128799 187.363098,255.974518 
	C181.917877,255.665390 176.884247,255.364883 171.676605,255.030762 
	C171.502609,254.997147 171.152924,254.939316 171.127441,254.565521 
	C168.061203,248.797089 165.020432,243.402466 161.979675,238.007828 
	C161.983597,237.838501 161.987534,237.669189 162.000168,237.245941 
z"/>
<path fill="#02E9F4" opacity="1.000000" stroke="none" 
	d="
M161.600235,238.163971 
	C165.020432,243.402466 168.061203,248.797089 170.647522,254.578430 
	C164.407242,254.989502 158.621445,255.013870 152.666443,254.812347 
	C152.305359,254.056168 152.113464,253.525894 151.954193,252.624634 
	C151.580078,250.832123 151.173325,249.410614 150.742432,247.649902 
	C149.953613,245.667358 149.188934,244.024002 148.336121,242.090912 
	C148.110931,241.214539 147.973862,240.627884 147.836792,240.041245 
	C152.298126,239.467529 156.759460,238.893814 161.600235,238.163971 
z"/>
<path fill="#2D3134" opacity="1.000000" stroke="none" 
	d="
M147.600586,239.873795 
	C147.973862,240.627884 148.110931,241.214539 148.068100,242.392929 
	C145.303497,244.725983 142.814621,247.065567 139.500275,243.988358 
	C139.446365,242.765991 139.404526,241.881348 139.362686,240.996704 
	C139.467941,240.835190 139.573196,240.673691 139.816071,240.257858 
	C141.829330,239.452744 143.704956,238.901932 145.840591,238.089111 
	C146.521851,238.453522 146.943100,239.079941 147.600586,239.873795 
z"/>
<path fill="#ABF2FE" opacity="1.000000" stroke="none" 
	d="
M192.039032,165.970413 
	C191.920792,165.863602 191.781433,165.779175 191.642090,165.694748 
	C191.730453,165.721863 191.818802,165.748962 191.943176,165.908325 
	C191.979187,166.040588 192.017929,165.992798 192.039032,165.970413 
z"/>
<path fill="#2D2928" opacity="1.000000" stroke="none" 
	d="
M221.498932,232.079437 
	C240.996033,237.951904 254.606613,251.014130 264.806885,267.813995 
	C274.877380,284.400116 280.247009,302.561646 278.900513,322.068817 
	C276.985077,349.818237 266.892487,374.229919 244.224869,391.202759 
	C222.807266,407.239624 198.233093,415.179901 171.104935,411.021515 
	C144.897446,407.004211 121.936729,396.290283 106.051491,374.183441 
	C97.552223,362.355408 92.453651,348.716431 89.560905,334.332001 
	C85.157585,312.436035 90.027069,292.146545 99.597931,272.495392 
	C104.963867,261.477905 112.715179,252.614563 122.710625,245.395447 
	C123.252495,246.533859 123.348068,247.431046 123.223640,248.658569 
	C119.976166,252.034119 116.933960,255.064865 113.923927,258.127228 
	C104.266632,267.952484 99.572632,280.569946 95.630295,293.204376 
	C89.252632,313.643494 91.298965,333.874420 99.739693,353.567566 
	C103.568886,362.501465 108.056351,370.827667 114.560013,378.217041 
	C125.664680,390.834045 140.031433,397.674316 155.447845,402.997406 
	C165.774689,406.563141 176.442993,409.021484 187.257614,407.643738 
	C197.052261,406.395874 206.774048,403.896729 216.261444,401.058411 
	C236.032944,395.143494 251.439163,383.238098 261.721802,365.223541 
	C264.668030,360.061951 266.756989,354.390686 269.020966,348.863800 
	C276.079468,331.632599 277.054382,313.617035 272.092896,296.069611 
	C267.411530,279.512817 260.858337,263.535278 246.745850,251.730652 
	C238.577499,244.898102 230.565750,238.540771 220.157135,235.705200 
	C220.361481,234.986328 220.468857,234.574081 220.576233,234.161819 
	C220.819214,233.524673 221.062180,232.887527 221.498932,232.079437 
z"/>
<path fill="#02E9F4" opacity="1.000000" stroke="none" 
	d="
M220.071289,234.129669 
	C220.468857,234.574081 220.361481,234.986328 219.813263,235.842682 
	C219.190186,237.751801 219.007935,239.216797 218.578094,240.920914 
	C217.840012,242.680099 217.349503,244.200180 216.579132,245.922821 
	C215.590347,247.766602 214.881454,249.407822 213.693268,251.038452 
	C205.760071,250.668503 198.306152,250.309128 190.852264,249.949768 
	C193.203278,245.537552 195.554306,241.125336 197.987457,236.375122 
	C198.816711,235.052292 199.563843,234.067474 200.548630,232.881775 
	C205.087082,233.120422 209.383636,233.609985 213.690628,233.976883 
	C215.638474,234.142822 217.607117,234.064850 220.071289,234.129669 
z"/>
<path fill="#02DAF6" opacity="1.000000" stroke="none" 
	d="
M123.443642,248.328247 
	C123.348068,247.431046 123.252495,246.533859 123.039566,245.317291 
	C122.991592,243.907059 123.060959,242.816177 123.213852,241.323059 
	C128.369125,240.946594 133.440872,240.972382 138.937653,240.997437 
	C139.404526,241.881348 139.446365,242.765991 139.251541,244.195724 
	C138.533600,245.972137 138.052353,247.203445 137.515411,248.577225 
	C132.960098,243.250336 130.834732,243.673477 128.397751,250.173584 
	C127.824562,251.702423 127.515884,253.329880 126.968491,254.870361 
	C126.935913,254.962051 125.858192,254.682343 125.207512,254.221985 
	C124.580025,252.021744 124.011833,250.174988 123.443642,248.328247 
z"/>
<path fill="#82FFFB" opacity="1.000000" stroke="none" 
	d="
M171.850601,255.064362 
	C176.884247,255.364883 181.917877,255.665390 187.301453,256.338470 
	C186.690964,261.799896 185.730530,266.888733 184.606934,272.323547 
	C184.913864,276.795593 185.383942,280.921661 185.875061,285.426056 
	C187.324463,288.858063 188.752838,291.911713 190.313202,295.264954 
	C194.315292,298.609985 198.185394,301.655487 201.730804,304.972229 
	C199.459442,305.495605 197.513596,305.959045 195.566010,305.966461 
	C179.791351,306.026398 164.015686,306.081726 148.241959,305.947113 
	C144.051865,305.911377 139.867432,305.212280 135.950882,304.600281 
	C143.042938,300.539795 144.831909,294.194885 144.925430,286.557495 
	C145.087494,283.781799 145.196701,281.429443 145.315079,278.879852 
	C156.315598,283.798828 162.601807,282.095825 168.970337,272.664795 
	C173.032822,267.054108 172.356705,261.046173 171.850601,255.064362 
z"/>
<path fill="#02F8F3" opacity="1.000000" stroke="none" 
	d="
M184.770081,271.977600 
	C185.730530,266.888733 186.690964,261.799896 187.713043,256.347076 
	C188.643494,254.128799 189.512314,252.274460 190.616699,250.184937 
	C198.306152,250.309128 205.760071,250.668503 213.661163,251.402542 
	C213.934830,252.487167 213.761322,253.197128 213.373291,254.162842 
	C212.669434,255.915421 212.180099,257.412262 211.463196,259.161255 
	C210.821411,260.941650 210.407196,262.469910 209.779404,264.295532 
	C209.063477,267.061584 208.561127,269.530243 207.586456,271.999329 
	C199.666138,271.992340 192.218109,271.984985 184.770081,271.977600 
z"/>
<path fill="#02F8F3" opacity="1.000000" stroke="none" 
	d="
M171.676605,255.030762 
	C172.356705,261.046173 173.032822,267.054108 168.565491,272.660767 
	C162.511292,272.737610 157.078552,272.607910 151.661636,272.243073 
	C150.387283,272.157227 149.166367,271.278076 148.100189,270.482605 
	C149.673767,266.452332 151.067993,262.703308 152.562958,258.572632 
	C152.721024,257.140045 152.778320,256.089142 152.835632,255.038239 
	C158.621445,255.013870 164.407242,254.989502 170.672989,254.952225 
	C171.152924,254.939316 171.502609,254.997147 171.676605,255.030762 
z"/>
<path fill="#2D3C42" opacity="1.000000" stroke="none" 
	d="
M125.266815,254.575470 
	C125.858192,254.682343 126.935913,254.962051 126.968491,254.870361 
	C127.515884,253.329880 127.824562,251.702423 128.397751,250.173584 
	C130.834732,243.673477 132.960098,243.250336 137.515411,248.577225 
	C138.052353,247.203445 138.533600,245.972137 139.263580,244.533447 
	C142.814621,247.065567 145.303497,244.725983 148.156219,242.682663 
	C149.188934,244.024002 149.953613,245.667358 150.404388,247.730118 
	C146.061386,250.098358 141.787415,251.664261 138.043198,254.058578 
	C114.804008,268.919189 106.653015,292.010132 105.401924,317.821686 
	C104.678520,332.746429 109.978798,346.901764 117.194221,360.023682 
	C118.328514,362.086487 120.877205,363.371552 122.930710,365.327759 
	C124.008965,367.445923 124.928421,369.252533 125.903152,371.412842 
	C129.309494,375.742706 132.660553,379.718872 136.219055,383.960876 
	C138.340744,385.633911 140.255035,387.041168 141.954758,388.696045 
	C138.087784,387.344482 133.954498,386.382141 130.859299,384.045013 
	C107.004028,366.032074 97.824585,341.220490 99.066612,312.173431 
	C99.792274,295.202789 105.997612,279.818726 115.546814,265.874237 
	C118.336922,261.799896 122.002510,258.325104 125.266815,254.575470 
z"/>
<path fill="#2D4B58" opacity="1.000000" stroke="none" 
	d="
M152.666443,254.812347 
	C152.778320,256.089142 152.721024,257.140045 152.250305,258.670288 
	C140.350845,263.475250 132.494415,272.226685 124.555298,281.354187 
	C122.253822,287.956543 120.269005,294.468140 118.208092,301.395660 
	C118.326828,303.481384 118.521675,305.151154 118.387665,307.073730 
	C113.693474,318.036957 116.380257,328.315552 120.001282,338.526703 
	C120.083672,338.759003 120.555420,338.853271 120.881271,339.385376 
	C120.946526,340.505249 120.976059,341.251617 120.877174,342.374817 
	C120.555664,345.829041 120.362579,348.906494 119.816071,351.910187 
	C118.476570,350.602997 117.008675,349.514709 116.585823,348.111511 
	C114.491058,341.160278 111.860207,334.234528 110.906410,327.100800 
	C107.886673,304.514954 113.656944,284.207001 129.110931,267.232239 
	C135.253769,260.484894 142.195099,254.327911 151.921570,252.995621 
	C152.113464,253.525894 152.305359,254.056168 152.666443,254.812347 
z"/>
<path fill="#2D424C" opacity="1.000000" stroke="none" 
	d="
M151.954193,252.624634 
	C142.195099,254.327911 135.253769,260.484894 129.110931,267.232239 
	C113.656944,284.207001 107.886673,304.514954 110.906410,327.100800 
	C111.860207,334.234528 114.491058,341.160278 116.585823,348.111511 
	C117.008675,349.514709 118.476570,350.602997 119.976730,352.264923 
	C120.780434,354.474762 121.070061,356.256165 121.352905,358.398163 
	C121.821381,360.844604 122.296646,362.930389 122.771912,365.016205 
	C120.877205,363.371552 118.328514,362.086487 117.194221,360.023682 
	C109.978798,346.901764 104.678520,332.746429 105.401924,317.821686 
	C106.653015,292.010132 114.804008,268.919189 138.043198,254.058578 
	C141.787415,251.664261 146.061386,250.098358 150.428528,248.069305 
	C151.173325,249.410614 151.580078,250.832123 151.954193,252.624634 
z"/>
<path fill="#2D3134" opacity="1.000000" stroke="none" 
	d="
M125.207520,254.221985 
	C122.002510,258.325104 118.336922,261.799896 115.546814,265.874237 
	C105.997612,279.818726 99.792274,295.202789 99.066612,312.173431 
	C97.824585,341.220490 107.004028,366.032074 130.859299,384.045013 
	C133.954498,386.382141 138.087784,387.344482 142.299484,388.826660 
	C148.226318,390.636475 153.593872,392.563324 159.069458,394.799347 
	C161.113815,396.304535 163.032394,398.499146 164.989365,398.533936 
	C177.376572,398.753998 189.780716,398.706329 202.157669,398.209229 
	C204.491760,398.115479 206.728775,395.604126 209.417633,394.127319 
	C217.836823,393.308655 224.800735,390.065826 231.377106,385.085297 
	C232.739563,384.322418 233.792831,383.632080 235.204987,382.898254 
	C238.821686,380.622498 242.353943,378.700073 245.287552,376.101746 
	C255.410202,367.136078 260.241486,354.840149 264.081512,342.530640 
	C269.746826,324.370148 269.163452,306.275024 262.319824,287.945221 
	C256.388855,272.059967 247.549561,259.091400 233.821686,249.456039 
	C229.097519,246.140213 223.839706,243.584671 218.825684,240.681808 
	C219.007935,239.216797 219.190186,237.751801 219.716293,236.149292 
	C230.565750,238.540771 238.577499,244.898102 246.745850,251.730652 
	C260.858337,263.535278 267.411530,279.512817 272.092896,296.069611 
	C277.054382,313.617035 276.079468,331.632599 269.020966,348.863800 
	C266.756989,354.390686 264.668030,360.061951 261.721802,365.223541 
	C251.439163,383.238098 236.032944,395.143494 216.261444,401.058411 
	C206.774048,403.896729 197.052261,406.395874 187.257614,407.643738 
	C176.442993,409.021484 165.774689,406.563141 155.447845,402.997406 
	C140.031433,397.674316 125.664680,390.834045 114.560013,378.217041 
	C108.056351,370.827667 103.568886,362.501465 99.739693,353.567566 
	C91.298965,333.874420 89.252632,313.643494 95.630295,293.204376 
	C99.572632,280.569946 104.266632,267.952484 113.923927,258.127228 
	C116.933960,255.064865 119.976166,252.034119 123.223640,248.658569 
	C124.011833,250.174988 124.580025,252.021744 125.207520,254.221985 
z"/>
<path fill="#2D3C42" opacity="1.000000" stroke="none" 
	d="
M218.578094,240.920914 
	C223.839706,243.584671 229.097519,246.140213 233.821686,249.456039 
	C247.549561,259.091400 256.388855,272.059967 262.319824,287.945221 
	C269.163452,306.275024 269.746826,324.370148 264.081512,342.530640 
	C260.241486,354.840149 255.410202,367.136078 245.287552,376.101746 
	C242.353943,378.700073 238.821686,380.622498 235.265930,382.553467 
	C236.486115,380.555298 238.004227,378.858429 239.775238,376.950928 
	C242.437042,371.832550 244.845947,366.924835 247.595856,361.978546 
	C248.962677,360.945862 250.316299,360.129456 250.965866,358.931335 
	C263.674988,335.489960 265.523376,311.406982 255.673126,286.390625 
	C248.957092,269.334167 238.162689,256.389465 221.122375,248.994019 
	C219.527969,248.302032 218.272064,246.830078 216.859009,245.720261 
	C217.349503,244.200180 217.840012,242.680099 218.578094,240.920914 
z"/>
<path fill="#2D424C" opacity="1.000000" stroke="none" 
	d="
M216.579117,245.922821 
	C218.272064,246.830078 219.527969,248.302032 221.122375,248.994019 
	C238.162689,256.389465 248.957092,269.334167 255.673126,286.390625 
	C265.523376,311.406982 263.674988,335.489960 250.965866,358.931335 
	C250.316299,360.129456 248.962677,360.945862 247.583588,361.609894 
	C247.658173,358.876160 248.086014,356.472565 248.668289,353.623169 
	C248.860016,349.452332 248.897339,345.727295 249.041504,341.760590 
	C249.206085,341.352570 249.263824,341.186188 249.647415,340.915436 
	C250.937271,339.354950 252.395340,338.020599 252.789047,336.423828 
	C256.833099,320.022766 255.738724,303.964386 248.894394,288.450623 
	C248.272476,287.040955 246.525269,286.127747 245.178741,284.616394 
	C242.712067,279.854919 240.367264,275.461029 237.956558,270.725708 
	C231.822083,261.894287 223.573242,256.620026 213.587799,253.907089 
	C213.761322,253.197128 213.934830,252.487167 214.140442,251.413116 
	C214.881454,249.407822 215.590347,247.766602 216.579117,245.922821 
z"/>
<path fill="#88FFFB" opacity="1.000000" stroke="none" 
	d="
M135.680389,304.817780 
	C139.867432,305.212280 144.051865,305.911377 148.241959,305.947113 
	C164.015686,306.081726 179.791351,306.026398 195.566010,305.966461 
	C197.513596,305.959045 199.459442,305.495605 202.121521,305.056427 
	C210.198212,307.425873 217.558044,307.952576 225.196716,305.086914 
	C227.998642,306.215759 230.519180,307.111694 232.973389,308.344177 
	C232.548386,309.764709 232.189697,310.848724 231.596924,312.196136 
	C230.503494,315.259186 229.644135,318.058838 228.573273,320.887939 
	C228.361801,320.917419 227.939468,320.980682 227.535767,320.899231 
	C220.688904,320.545197 214.243332,319.993958 207.802979,320.049194 
	C182.605408,320.265442 157.409485,320.673248 132.158875,320.611450 
	C130.438416,316.776520 128.772064,313.340057 127.053802,309.602051 
	C126.927078,308.899475 126.852249,308.498444 127.085754,307.923889 
	C129.015533,306.775818 130.636993,305.801300 132.603882,304.813202 
	C133.859665,304.805664 134.770035,304.811737 135.680389,304.817780 
z"/>
<path fill="#1CFEF4" opacity="1.000000" stroke="none" 
	d="
M190.181213,294.965393 
	C188.752838,291.911713 187.324463,288.858063 186.320404,285.411743 
	C195.208099,284.679169 203.676239,284.422150 212.131485,283.939423 
	C214.170258,283.823059 216.166367,282.959412 218.567032,282.505920 
	C222.227478,282.676239 225.502991,282.779999 229.144714,283.044281 
	C233.005524,284.139496 236.500122,285.074219 239.661743,286.093201 
	C237.581757,289.129120 235.834732,292.080750 233.613586,295.025574 
	C218.820038,295.001038 204.500626,294.983215 190.181213,294.965393 
z"/>
<path fill="#1CFEF4" opacity="1.000000" stroke="none" 
	d="
M135.950882,304.600281 
	C134.770035,304.811737 133.859665,304.805664 132.341309,304.595093 
	C129.408524,302.213593 127.083763,300.036591 124.517326,297.633270 
	C124.269333,298.512909 124.063004,299.244720 123.501106,300.002350 
	C121.525085,300.345337 119.904648,300.662537 118.284195,300.979736 
	C120.269005,294.468140 122.253822,287.956543 124.553314,281.710602 
	C125.957527,285.477844 128.140244,287.342682 132.286743,286.736694 
	C133.555527,286.410767 134.517639,286.074585 135.902557,285.847748 
	C139.174454,286.298340 142.023514,286.639587 144.872589,286.980835 
	C144.831909,294.194885 143.042938,300.539795 135.950882,304.600281 
z"/>
<path fill="#2AFFF6" opacity="1.000000" stroke="none" 
	d="
M190.313202,295.264954 
	C204.500626,294.983215 218.820038,295.001038 233.525146,295.356079 
	C230.912323,298.746887 227.913834,301.800415 224.915344,304.853943 
	C217.558044,307.952576 210.198212,307.425873 202.446228,304.785156 
	C198.185394,301.655487 194.315292,298.609985 190.313202,295.264954 
z"/>
<path fill="#0EFEF4" opacity="1.000000" stroke="none" 
	d="
M218.182098,282.439392 
	C216.166367,282.959412 214.170258,283.823059 212.131485,283.939423 
	C203.676239,284.422150 195.208099,284.679169 186.299377,285.033386 
	C185.383942,280.921661 184.913864,276.795593 184.606934,272.323547 
	C192.218109,271.984985 199.666138,271.992340 207.710510,272.333405 
	C209.265060,278.282623 213.941635,280.140656 218.182098,282.439392 
z"/>
<path fill="#0EFEF4" opacity="1.000000" stroke="none" 
	d="
M144.925430,286.557495 
	C142.023514,286.639587 139.174454,286.298340 136.108658,285.567993 
	C137.441879,282.108765 138.991821,279.038696 140.661591,275.558472 
	C140.876633,273.538300 140.971848,271.928223 141.040695,270.763855 
	C143.530884,270.763855 145.725876,270.763855 147.920868,270.763855 
	C149.166367,271.278076 150.387283,272.157227 151.661636,272.243073 
	C157.078552,272.607910 162.511292,272.737610 168.343109,272.957214 
	C162.601807,282.095825 156.315598,283.798828 145.315079,278.879852 
	C145.196701,281.429443 145.087494,283.781799 144.925430,286.557495 
z"/>
<path fill="#2D5F75" opacity="1.000000" stroke="none" 
	d="
M218.567032,282.505920 
	C213.941635,280.140656 209.265060,278.282623 208.182816,272.333008 
	C208.561127,269.530243 209.063477,267.061584 210.131073,264.365234 
	C212.620071,265.084412 214.774445,265.737152 216.425293,267.031921 
	C221.863922,271.297424 227.120270,275.795288 232.253723,280.472107 
	C230.966721,281.454773 229.872604,282.169250 228.778503,282.883759 
	C225.502991,282.779999 222.227478,282.676239 218.567032,282.505920 
z"/>
<path fill="#2C5768" opacity="1.000000" stroke="none" 
	d="
M232.446594,280.203949 
	C227.120270,275.795288 221.863922,271.297424 216.425293,267.031921 
	C214.774445,265.737152 212.620071,265.084412 210.344650,264.067871 
	C210.407196,262.469910 210.821411,260.941650 211.867386,259.184326 
	C214.052948,259.455414 215.885162,259.587646 217.113922,260.517395 
	C223.558441,265.393524 229.850143,270.471588 236.144958,275.785156 
	C234.878860,277.461884 233.662735,278.832916 232.446594,280.203949 
z"/>
<path fill="#2D4B58" opacity="1.000000" stroke="none" 
	d="
M236.194931,275.479492 
	C229.850143,270.471588 223.558441,265.393524 217.113922,260.517395 
	C215.885162,259.587646 214.052948,259.455414 212.094940,258.932159 
	C212.180099,257.412262 212.669434,255.915421 213.373291,254.162842 
	C223.573242,256.620026 231.822083,261.894287 237.945251,271.074127 
	C237.398209,273.002441 236.796570,274.240967 236.194931,275.479492 
z"/>
<path fill="#2C5768" opacity="1.000000" stroke="none" 
	d="
M148.100189,270.482605 
	C145.725876,270.763855 143.530884,270.763855 141.040695,270.763855 
	C140.971848,271.928223 140.876633,273.538300 140.360443,275.657104 
	C137.286331,279.686035 134.633209,283.206268 131.980072,286.726471 
	C128.140244,287.342682 125.957527,285.477844 124.869987,281.619873 
	C132.494415,272.226685 140.350845,263.475250 152.149551,259.051971 
	C151.067993,262.703308 149.673767,266.452332 148.100189,270.482605 
z"/>
<path fill="#91FFFC" opacity="1.000000" stroke="none" 
	d="
M158.961441,394.490173 
	C153.593872,392.563324 148.226318,390.636475 142.514038,388.579010 
	C140.255035,387.041168 138.340744,385.633911 136.347092,383.684357 
	C137.515274,382.090546 138.762833,381.039062 140.371475,380.063049 
	C149.354935,384.484161 158.094955,385.330322 167.154037,381.355347 
	C170.421768,382.458923 173.534988,383.850647 176.667160,383.894684 
	C192.729462,384.120697 208.796875,383.958160 224.861816,384.051300 
	C226.932587,384.063263 228.999329,384.771912 231.067932,385.157837 
	C224.800735,390.065826 217.836823,393.308655 209.012543,394.029053 
	C204.523254,393.104736 200.711746,392.551056 197.197571,391.215271 
	C190.379562,388.623566 183.808289,388.650787 176.829208,390.817596 
	C171.050262,392.611816 164.930313,393.307678 158.961441,394.490173 
z"/>
<path fill="#88FFFB" opacity="1.000000" stroke="none" 
	d="
M140.010406,379.987549 
	C138.762833,381.039062 137.515274,382.090546 136.139679,383.418518 
	C132.660553,379.718872 129.309494,375.742706 126.247375,371.383850 
	C127.365196,370.654694 128.194061,370.308228 129.301987,370.142883 
	C133.057480,373.545197 136.533936,376.766388 140.010406,379.987549 
z"/>
<path fill="#82FFFB" opacity="1.000000" stroke="none" 
	d="
M129.022934,369.961761 
	C128.194061,370.308228 127.365196,370.654694 126.192108,371.030151 
	C124.928421,369.252533 124.008965,367.445923 122.930710,365.327759 
	C122.296646,362.930389 121.821381,360.844604 121.718063,358.396118 
	C123.064201,358.025940 124.038406,358.018433 125.156952,358.339050 
	C125.865852,360.444580 126.430412,362.221954 127.018478,364.356079 
	C127.702293,366.462463 128.362610,368.212128 129.022934,369.961761 
z"/>
<path fill="#2C5768" opacity="1.000000" stroke="none" 
	d="
M120.845535,339.011963 
	C120.555420,338.853271 120.083672,338.759003 120.001282,338.526703 
	C116.380257,328.315552 113.693474,318.036957 118.538231,307.355652 
	C119.974480,309.316498 120.931297,311.248230 121.950348,313.553314 
	C122.725403,317.951416 123.438217,321.976135 124.002121,326.360413 
	C122.850647,330.817291 121.848091,334.914642 120.845535,339.011963 
z"/>
<path fill="#51FCF7" opacity="1.000000" stroke="none" 
	d="
M120.881264,339.385406 
	C121.848091,334.914642 122.850647,330.817291 124.432495,326.360229 
	C127.039536,326.016052 129.067291,326.031647 131.092621,326.459900 
	C130.682922,329.569519 130.275665,332.266449 129.672333,335.239746 
	C128.653839,337.678406 127.831436,339.840668 126.580276,342.000885 
	C124.436218,341.998566 122.720901,341.998291 121.005585,341.998016 
	C120.976059,341.251617 120.946526,340.505249 120.881264,339.385406 
z"/>
<path fill="#62FEFA" opacity="1.000000" stroke="none" 
	d="
M120.877167,342.374817 
	C122.720901,341.998291 124.436218,341.998566 126.576950,342.405884 
	C126.670761,345.208893 126.339165,347.604797 125.917870,350.388550 
	C125.556320,353.187897 125.284470,355.599396 125.012611,358.010925 
	C124.038406,358.018433 123.064201,358.025940 121.724846,358.035492 
	C121.070061,356.256165 120.780434,354.474762 120.330147,352.338654 
	C120.362579,348.906494 120.555664,345.829041 120.877167,342.374817 
z"/>
<path fill="#2AFFF6" opacity="1.000000" stroke="none" 
	d="
M121.888123,313.179932 
	C120.931297,311.248230 119.974480,309.316498 118.867096,307.102875 
	C118.521675,305.151154 118.326828,303.481384 118.208099,301.395660 
	C119.904648,300.662537 121.525085,300.345337 123.574921,300.379333 
	C124.928680,303.186157 125.853058,305.641815 126.777435,308.097443 
	C126.852249,308.498444 126.927078,308.899475 126.838959,309.886108 
	C125.080048,311.374481 123.484085,312.277222 121.888123,313.179932 
z"/>
<path fill="#8CFFFC" opacity="1.000000" stroke="none" 
	d="
M231.377106,385.085297 
	C228.999329,384.771912 226.932587,384.063263 224.861816,384.051300 
	C208.796875,383.958160 192.729462,384.120697 176.667160,383.894684 
	C173.534988,383.850647 170.421768,382.458923 167.506653,381.280884 
	C170.706406,379.466949 173.950195,378.427460 176.643417,376.583740 
	C183.717316,371.741028 190.706131,372.618896 197.685455,376.372467 
	C208.025970,381.933624 217.711945,380.783875 227.124268,374.341003 
	C231.344040,375.514374 235.433167,376.337982 239.522308,377.161560 
	C238.004227,378.858429 236.486115,380.555298 234.907043,382.596924 
	C233.792831,383.632080 232.739563,384.322418 231.377106,385.085297 
z"/>
<path fill="#2D424C" opacity="1.000000" stroke="none" 
	d="
M159.069458,394.799316 
	C164.930313,393.307678 171.050262,392.611816 176.829208,390.817596 
	C183.808289,388.650787 190.379562,388.623566 197.197571,391.215271 
	C200.711746,392.551056 204.523254,393.104736 208.605484,394.110107 
	C206.728775,395.604126 204.491760,398.115479 202.157669,398.209229 
	C189.780716,398.706329 177.376572,398.753998 164.989365,398.533936 
	C163.032394,398.499146 161.113815,396.304535 159.069458,394.799316 
z"/>
<path fill="#82FFFB" opacity="1.000000" stroke="none" 
	d="
M239.775223,376.950928 
	C235.433167,376.337982 231.344040,375.514374 227.303253,374.056702 
	C228.910294,370.614868 230.468979,367.807129 232.253448,364.700806 
	C233.006119,360.914276 233.533035,357.426270 234.519836,353.956665 
	C239.491089,354.006317 244.002487,354.037628 248.513870,354.068970 
	C248.086014,356.472565 247.658173,358.876160 247.242584,361.648438 
	C244.845947,366.924835 242.437042,371.832550 239.775223,376.950928 
z"/>
<path fill="#51FCF7" opacity="1.000000" stroke="none" 
	d="
M227.939468,320.980682 
	C227.939468,320.980682 228.361801,320.917419 228.942017,321.129669 
	C234.910431,321.488861 240.298615,321.635773 245.805695,322.077881 
	C246.310898,323.575073 246.697220,324.777100 247.068939,326.388245 
	C247.810074,331.538177 248.565826,336.278961 249.321564,341.019775 
	C249.263824,341.186188 249.206085,341.352570 248.579239,341.758942 
	C243.038940,341.986633 238.067734,341.974335 232.933929,341.644867 
	C231.894211,339.204437 231.017075,337.081207 230.092209,334.561340 
	C229.342804,329.770050 228.641129,325.375366 227.939468,320.980682 
z"/>
<path fill="#2D4B58" opacity="1.000000" stroke="none" 
	d="
M249.647415,340.915436 
	C248.565826,336.278961 247.810074,331.538177 247.366699,326.144714 
	C247.845535,318.880859 248.251099,312.261536 248.028976,305.663391 
	C247.964478,303.747650 246.103256,301.892456 245.028320,299.580444 
	C244.982056,294.765747 244.973129,290.380127 245.047867,285.741699 
	C245.187881,285.320618 245.244247,285.152283 245.300613,284.983978 
	C246.525269,286.127747 248.272476,287.040955 248.894394,288.450623 
	C255.738724,303.964386 256.833099,320.022766 252.789047,336.423828 
	C252.395340,338.020599 250.937271,339.354950 249.647415,340.915436 
z"/>
<path fill="#62FEFA" opacity="1.000000" stroke="none" 
	d="
M233.096542,341.962036 
	C238.067734,341.974335 243.038940,341.986633 248.472382,342.000580 
	C248.897339,345.727295 248.860016,349.452332 248.668289,353.623169 
	C244.002487,354.037628 239.491089,354.006317 234.513809,353.564636 
	C234.020233,352.104095 233.992554,351.053925 233.979279,349.589783 
	C233.694641,346.771210 233.395584,344.366608 233.096542,341.962036 
z"/>
<path fill="#0EFEF4" opacity="1.000000" stroke="none" 
	d="
M245.178741,284.616394 
	C245.244247,285.152283 245.187881,285.320618 244.633728,285.742584 
	C242.754944,285.998932 241.373947,286.001648 239.996368,286.002197 
	C239.999802,286.000000 239.994705,286.008911 239.994705,286.008911 
	C236.500122,285.074219 233.005524,284.139496 229.144714,283.044281 
	C229.872604,282.169250 230.966721,281.454773 232.253723,280.472107 
	C233.662735,278.832916 234.878860,277.461884 236.144958,275.785156 
	C236.796570,274.240967 237.398209,273.002441 238.011154,271.415527 
	C240.367264,275.461029 242.712067,279.854919 245.178741,284.616394 
z"/>
<path fill="#8CFFFC" opacity="1.000000" stroke="none" 
	d="
M227.535767,320.899231 
	C228.641129,325.375366 229.342804,329.770050 229.657562,334.542938 
	C225.980469,334.614105 222.691071,334.050812 219.399994,334.040833 
	C194.671677,333.965881 169.942795,333.946716 145.214630,334.043640 
	C140.098099,334.063690 134.983765,334.642242 129.868408,334.963379 
	C130.275665,332.266449 130.682922,329.569519 131.239838,326.120789 
	C131.663986,323.915924 131.938477,322.462921 132.212952,321.009888 
	C157.409485,320.673248 182.605408,320.265442 207.802979,320.049194 
	C214.243332,319.993958 220.688904,320.545197 227.535767,320.899231 
z"/>
<path fill="#3EFDF6" opacity="1.000000" stroke="none" 
	d="
M245.686813,321.782715 
	C240.298615,321.635773 234.910431,321.488861 229.153503,321.100220 
	C229.644135,318.058838 230.503494,315.259186 231.992538,312.358521 
	C236.377808,312.498138 240.133392,312.738770 244.017395,313.364349 
	C244.659470,316.427094 245.173141,319.104919 245.686813,321.782715 
z"/>
<path fill="#2AFFF6" opacity="1.000000" stroke="none" 
	d="
M243.888977,312.979401 
	C240.133392,312.738770 236.377808,312.498138 232.226624,312.095093 
	C232.189697,310.848724 232.548386,309.764709 233.217621,308.115021 
	C235.373474,304.705536 237.218765,301.861755 239.452988,299.093475 
	C241.410294,299.518250 242.978638,299.867493 244.546997,300.668274 
	C244.327652,305.072998 244.108307,309.026215 243.888977,312.979401 
z"/>
<path fill="#82FFFB" opacity="1.000000" stroke="none" 
	d="
M239.064041,299.017944 
	C237.218765,301.861755 235.373474,304.705536 233.283966,307.778503 
	C230.519180,307.111694 227.998642,306.215759 225.196716,305.086914 
	C227.913834,301.800415 230.912323,298.746887 233.999252,295.362854 
	C235.834732,292.080750 237.581757,289.129120 239.661743,286.093201 
	C239.994705,286.008911 239.999802,286.000000 239.978180,286.458496 
	C239.659042,290.950623 239.361542,294.984283 239.064041,299.017944 
z"/>
<path fill="#3EFDF6" opacity="1.000000" stroke="none" 
	d="
M132.158875,320.611450 
	C131.938477,322.462921 131.663986,323.915924 131.242279,325.708099 
	C129.067291,326.031647 127.039536,326.016052 124.581406,326.000671 
	C123.438217,321.976135 122.725403,317.951416 121.950356,313.553314 
	C123.484085,312.277222 125.080048,311.374481 126.890854,310.187683 
	C128.772064,313.340057 130.438416,316.776520 132.158875,320.611450 
z"/>
<path fill="#82FFFB" opacity="1.000000" stroke="none" 
	d="
M127.085754,307.923889 
	C125.853058,305.641815 124.928680,303.186157 123.930496,300.353546 
	C124.063004,299.244720 124.269333,298.512909 124.517326,297.633270 
	C127.083763,300.036591 129.408524,302.213593 131.995880,304.608704 
	C130.636993,305.801300 129.015533,306.775818 127.085754,307.923889 
z"/>
<path fill="#2D5F75" opacity="1.000000" stroke="none" 
	d="
M132.286743,286.736694 
	C134.633209,283.206268 137.286331,279.686035 140.240601,276.067200 
	C138.991821,279.038696 137.441879,282.108765 135.685852,285.458618 
	C134.517639,286.074585 133.555527,286.410767 132.286743,286.736694 
z"/>
<path fill="#A1FFFE" opacity="1.000000" stroke="none" 
	d="
M232.027679,364.999359 
	C230.468979,367.807129 228.910294,370.614868 227.172638,373.706909 
	C217.711945,380.783875 208.025970,381.933624 197.685455,376.372467 
	C190.706131,372.618896 183.717316,371.741028 176.643417,376.583740 
	C173.950195,378.427460 170.706406,379.466949 167.360901,380.947418 
	C158.094955,385.330322 149.354935,384.484161 140.371460,380.063049 
	C136.533936,376.766388 133.057480,373.545197 129.301987,370.142883 
	C128.362610,368.212128 127.702293,366.462463 127.487686,364.356384 
	C159.675705,363.999939 191.418091,363.973663 223.160248,364.043579 
	C226.116745,364.050110 229.071899,364.666260 232.027679,364.999359 
z"/>
<path fill="#99FFFD" opacity="1.000000" stroke="none" 
	d="
M232.253448,364.700806 
	C229.071899,364.666260 226.116745,364.050110 223.160248,364.043579 
	C191.418091,363.973663 159.675705,363.999939 127.464188,363.999634 
	C126.430412,362.221954 125.865852,360.444580 125.156960,358.339050 
	C125.284470,355.599396 125.556320,353.187897 126.299591,350.310852 
	C130.844727,349.230255 134.915497,348.106018 138.992645,348.082336 
	C166.266815,347.923889 193.542923,347.911591 220.816849,348.089722 
	C225.203506,348.118347 229.582397,349.335876 233.964874,350.003784 
	C233.992554,351.053925 234.020233,352.104095 234.053940,353.546265 
	C233.533035,357.426270 233.006119,360.914276 232.253448,364.700806 
z"/>
<path fill="#91FFFC" opacity="1.000000" stroke="none" 
	d="
M233.979294,349.589783 
	C229.582397,349.335876 225.203506,348.118347 220.816849,348.089722 
	C193.542923,347.911591 166.266815,347.923889 138.992645,348.082336 
	C134.915497,348.106018 130.844727,349.230255 126.389282,349.923035 
	C126.339165,347.604797 126.670761,345.208893 127.005692,342.407959 
	C127.831436,339.840668 128.653839,337.678406 129.672333,335.239746 
	C134.983765,334.642242 140.098099,334.063690 145.214630,334.043640 
	C169.942795,333.946716 194.671677,333.965881 219.399994,334.040833 
	C222.691071,334.050812 225.980469,334.614105 229.705292,334.939545 
	C231.017075,337.081207 231.894211,339.204437 232.933929,341.644867 
	C233.395584,344.366608 233.694641,346.771210 233.979294,349.589783 
z"/>
<path fill="#2C5768" opacity="1.000000" stroke="none" 
	d="
M244.017395,313.364349 
	C244.108307,309.026215 244.327652,305.072998 244.674530,300.611267 
	C244.802063,300.102722 245.065659,300.009491 245.065659,300.009491 
	C246.103256,301.892456 247.964478,303.747650 248.028976,305.663391 
	C248.251099,312.261536 247.845535,318.880859 247.381317,325.735626 
	C246.697220,324.777100 246.310898,323.575073 245.805695,322.077881 
	C245.173141,319.104919 244.659470,316.427094 244.017395,313.364349 
z"/>
<path fill="#1CFEF4" opacity="1.000000" stroke="none" 
	d="
M245.028320,299.580444 
	C245.065659,300.009491 244.802063,300.102722 244.674530,300.159729 
	C242.978638,299.867493 241.410294,299.518250 239.452988,299.093475 
	C239.361542,294.984283 239.659042,290.950623 239.974762,286.460663 
	C241.373947,286.001648 242.754944,285.998932 244.550079,285.995361 
	C244.973129,290.380127 244.982056,294.765747 245.028320,299.580444 
z"/>
</svg>