<svg version="1.1" id="Layer_1" xmlns="http://www.w3.org/2000/svg" xmlns:xlink="http://www.w3.org/1999/xlink" x="0px" y="0px"
	 width="100%" viewBox="0 0 304 488" enable-background="new 0 0 304 488" xml:space="preserve">
<path fill="#2D1A13" opacity="1.000000" stroke="none" 
	d="
M305.000000,2.000000 
	C305.000000,164.278717 305.000000,326.557434 305.000000,488.918091 
	C203.755447,488.918091 102.510796,488.918091 1.000000,488.918091 
	C1.000000,326.976776 1.000000,164.953400 1.467854,2.464934 
	C102.957138,1.999896 203.978577,1.999948 305.000000,2.000000 
M106.951492,218.752304 
	C107.326660,219.777100 107.701820,220.801895 107.764763,222.448853 
	C101.488228,228.821442 94.534363,234.665192 89.066132,241.668884 
	C74.486839,260.341888 66.351624,281.708893 65.023315,305.473145 
	C64.138336,321.305878 66.836456,336.561188 72.913773,351.225372 
	C81.073212,370.913574 92.187927,388.338715 110.610199,400.057037 
	C131.699936,413.472168 154.361145,420.941925 179.805664,420.192108 
	C199.325653,419.616913 216.928085,413.824371 233.819458,404.767700 
	C250.555878,395.794098 263.016968,382.652283 272.288330,366.182068 
	C286.182098,341.500244 291.238892,315.395050 285.036285,287.575378 
	C279.670624,263.509308 267.931519,242.934128 249.149902,226.813538 
	C240.706345,219.566269 231.426620,213.331970 220.161423,210.226471 
	C220.251541,209.486954 220.341644,208.747421 220.729858,207.243195 
	C220.450974,201.496826 220.172104,195.750458 219.998734,189.169785 
	C219.225632,185.115601 218.452530,181.061417 217.664322,176.269928 
	C216.477036,172.836823 215.289749,169.403717 214.079529,165.222275 
	C212.436005,161.715652 210.792496,158.209015 209.056091,154.021759 
	C207.132141,150.978714 205.208191,147.935684 203.089508,144.220505 
	C195.847748,133.679886 186.723038,125.231514 175.042038,118.658493 
	C173.435104,128.917923 168.858368,137.278778 162.268784,145.240555 
	C158.758011,148.793625 155.247253,152.346710 151.121490,156.123306 
	C147.296219,160.039764 143.470947,163.956207 139.082977,168.198425 
	C136.417755,172.466721 133.752533,176.735031 130.625046,181.628143 
	C130.137924,186.085464 129.650803,190.542801 129.054871,195.792343 
	C130.301453,199.885361 131.548050,203.978394 132.820602,208.746735 
	C132.869720,209.194092 132.918854,209.641449 132.611923,210.664368 
	C130.079422,211.776016 127.546944,212.887665 124.885269,213.250916 
	C124.798622,212.502701 124.711975,211.754486 124.736023,210.268463 
	C124.175041,208.168365 123.614067,206.068253 123.081406,203.224136 
	C122.166237,200.765381 121.251068,198.306610 120.257973,195.054123 
	C119.362854,191.894852 118.467743,188.735580 117.185036,184.208344 
	C113.986282,188.847900 111.523079,192.420593 108.505943,196.426788 
	C107.552429,198.901337 106.598915,201.375885 105.230965,204.534607 
	C105.175484,206.691650 105.119995,208.848694 104.943741,211.767792 
	C105.618385,213.868683 106.293030,215.969589 106.951492,218.752304 
z"/>
<path fill="#FFFFFF" opacity="1.000000" stroke="none" 
	d="
M305.000000,1.500000 
	C203.978577,1.999948 102.957138,1.999896 1.467854,1.999922 
	C2.500000,1.666667 3.999849,1.042383 5.500021,1.041602 
	C94.833336,0.995114 184.166672,1.000000 273.500000,1.000000 
	C284.000000,1.000000 294.500000,1.000000 305.000000,1.500000 
z"/>
<path fill="#2D211C" opacity="1.000000" stroke="none" 
	d="
M220.167419,210.993378 
	C231.426620,213.331970 240.706345,219.566269 249.149902,226.813538 
	C267.931519,242.934128 279.670624,263.509308 285.036285,287.575378 
	C291.238892,315.395050 286.182098,341.500244 272.288330,366.182068 
	C263.016968,382.652283 250.555878,395.794098 233.819458,404.767700 
	C216.928085,413.824371 199.325653,419.616913 179.805664,420.192108 
	C154.361145,420.941925 131.699936,413.472168 110.610199,400.057037 
	C92.187927,388.338715 81.073212,370.913574 72.913773,351.225372 
	C66.836456,336.561188 64.138336,321.305878 65.023315,305.473145 
	C66.351624,281.708893 74.486839,260.341888 89.066132,241.668884 
	C94.534363,234.665192 101.488228,228.821442 108.206871,222.263077 
	C109.447571,223.017548 110.246162,223.957794 110.889984,225.202057 
	C109.482948,226.840302 108.388687,228.381668 106.953629,229.476242 
	C94.461243,239.004730 86.082352,251.553787 79.618774,265.673645 
	C69.237808,288.351166 65.659966,311.829926 72.728111,335.942139 
	C76.016472,347.159973 80.844055,358.151764 86.523827,368.385864 
	C93.443581,380.854187 103.229683,391.461884 116.178764,397.899384 
	C128.186066,403.868683 140.549759,409.715607 153.412720,413.179871 
	C163.588791,415.920471 174.973846,416.604248 185.433060,415.233459 
	C197.952179,413.592743 210.220123,409.280304 222.296753,405.230133 
	C234.437607,401.158356 244.696304,393.445770 253.651520,384.540253 
	C262.042511,376.195770 268.334534,366.070068 272.943756,355.067535 
	C277.771423,343.543610 282.142426,331.806885 282.923676,319.220093 
	C283.956055,302.587463 281.134491,286.600861 274.976837,270.969666 
	C264.528168,244.445755 246.740723,225.512665 220.088791,214.598053 
	C220.072189,213.131485 220.119812,212.062424 220.167419,210.993378 
z"/>
<path fill="#2D2826" opacity="1.000000" stroke="none" 
	d="
M125.014450,213.999298 
	C127.546944,212.887665 130.079422,211.776016 133.056351,210.599350 
	C134.779861,213.652237 136.058929,216.770157 136.951050,219.950882 
	C132.250427,221.751480 127.653206,222.999069 123.667946,225.304504 
	C91.506599,243.909668 77.807655,273.604248 75.227699,309.089630 
	C74.094604,324.674591 79.343781,339.520905 85.446739,353.838684 
	C92.310219,369.940582 103.277763,382.738403 118.033722,391.798859 
	C126.168861,396.793976 135.391388,400.051941 144.214294,403.884460 
	C154.757004,408.464111 166.125641,409.851288 177.327744,409.752655 
	C193.781784,409.607849 209.322479,404.310333 224.094330,397.350952 
	C244.634277,387.674072 258.801575,372.058960 267.763763,350.971710 
	C276.448730,330.536743 279.237366,309.857422 273.965759,288.400299 
	C268.559753,266.396301 258.266663,246.916489 240.013351,232.848450 
	C233.889572,228.128738 226.113098,225.553406 219.034958,221.639709 
	C219.198624,220.145950 219.419373,219.010422 220.022217,217.938248 
	C225.160385,220.378571 230.157806,222.373520 234.630386,225.199188 
	C253.155930,236.903259 265.424133,253.436478 273.011658,274.003235 
	C279.230957,290.861389 282.482910,307.927582 278.827026,325.568542 
	C276.686462,335.897400 273.205994,346.046631 269.369843,355.903656 
	C263.214325,371.720245 251.872055,383.879395 238.319519,393.459167 
	C230.857620,398.733734 221.743210,401.766357 213.196960,405.392975 
	C188.761047,415.762299 164.131012,415.552155 139.522583,405.978149 
	C127.271965,401.211945 115.279381,396.039764 105.342010,386.932037 
	C87.284348,370.381927 77.770218,349.424133 73.231216,325.882111 
	C70.678429,312.641785 71.393845,299.315491 75.131203,286.443634 
	C81.340103,265.059540 90.677979,245.411911 109.021935,231.353485 
	C110.746086,230.032150 111.716499,227.727280 113.436913,225.943359 
	C118.979408,226.074646 121.820618,223.525970 124.015526,216.719543 
	C124.445679,215.620560 124.730064,214.809937 125.014450,213.999298 
z"/>
<path fill="#00BDF9" opacity="1.000000" stroke="none" 
	d="
M139.645676,167.872650 
	C143.470947,163.956207 147.296219,160.039764 151.868042,156.050140 
	C154.725220,156.317398 156.834244,156.940857 158.946716,156.952805 
	C174.008621,157.038086 189.072067,157.070572 204.132477,156.897873 
	C205.812820,156.878601 207.477188,155.467850 209.148972,154.702393 
	C210.792496,158.209015 212.436005,161.715652 213.670975,165.663513 
	C211.158554,166.403351 209.058640,166.923355 206.950134,166.960892 
	C199.200089,167.098846 191.447189,167.076736 183.446060,167.009445 
	C182.717285,167.601303 182.237839,168.298569 181.304871,168.996552 
	C167.116119,168.622421 153.380905,168.247543 139.645676,167.872650 
z"/>
<path fill="#00B5FA" opacity="1.000000" stroke="none" 
	d="
M209.102539,154.362076 
	C207.477188,155.467850 205.812820,156.878601 204.132477,156.897873 
	C189.072067,157.070572 174.008621,157.038086 158.946716,156.952805 
	C156.834244,156.940857 154.725220,156.317398 152.175552,155.938385 
	C155.247253,152.346710 158.758011,148.793625 163.041595,145.108459 
	C176.971024,144.948441 190.127625,144.920547 203.284241,144.892639 
	C205.208191,147.935684 207.132141,150.978714 209.102539,154.362076 
z"/>
<path fill="#01C7F9" opacity="1.000000" stroke="none" 
	d="
M139.364319,168.035538 
	C153.380905,168.247543 167.116119,168.622421 181.360413,169.376099 
	C180.036362,173.878128 178.203232,178.001389 175.879196,182.092194 
	C160.621307,181.707611 145.854309,181.355484 131.087311,181.003357 
	C133.752533,176.735031 136.417755,172.466721 139.364319,168.035538 
z"/>
<path fill="#00ACFB" opacity="1.000000" stroke="none" 
	d="
M203.186874,144.556580 
	C190.127625,144.920547 176.971024,144.948441 163.336517,144.961548 
	C168.858368,137.278778 173.435104,128.917923 175.042038,118.658493 
	C186.723038,125.231514 195.847748,133.679886 203.186874,144.556580 
z"/>
<path fill="#01D1F8" opacity="1.000000" stroke="none" 
	d="
M130.856171,181.315750 
	C145.854309,181.355484 160.621307,181.707611 175.749908,182.421280 
	C172.999481,186.873276 169.887466,190.963745 166.368195,195.018372 
	C153.695175,194.988403 141.429428,194.994263 129.163681,195.000122 
	C129.650803,190.542801 130.137924,186.085464 130.856171,181.315750 
z"/>
<path fill="#01D8F5" opacity="1.000000" stroke="none" 
	d="
M129.109283,195.396225 
	C141.429428,194.994263 153.695175,194.988403 166.530914,194.980225 
	C167.100922,194.977921 167.423492,194.891815 167.157013,195.137939 
	C163.854858,199.585495 160.819214,203.786926 157.328476,207.991089 
	C148.847137,208.019684 140.820892,208.045547 132.794632,208.071411 
	C131.548050,203.978394 130.301453,199.885361 129.109283,195.396225 
z"/>
<path fill="#01D8F5" opacity="1.000000" stroke="none" 
	d="
M219.893219,190.004089 
	C220.172104,195.750458 220.450974,201.496826 220.078461,207.621902 
	C211.476700,207.629913 203.526352,207.259232 195.613007,206.444992 
	C195.635818,202.374313 195.621597,198.747208 195.682556,194.789612 
	C195.743103,193.330643 195.728470,192.202164 196.200012,191.053955 
	C204.421860,190.690857 212.157547,190.347473 219.893219,190.004089 
z"/>
<path fill="#02E4F4" opacity="1.000000" stroke="none" 
	d="
M195.576004,206.888550 
	C203.526352,207.259232 211.476700,207.629913 219.929398,208.004257 
	C220.341644,208.747421 220.251541,209.486954 220.164429,210.609924 
	C220.119812,212.062424 220.072189,213.131485 219.987122,214.949951 
	C219.846497,216.424530 219.743301,217.149719 219.640106,217.874893 
	C219.419373,219.010422 219.198624,220.145950 218.936523,221.855560 
	C218.895157,222.429657 218.958023,222.899963 218.792419,222.962677 
	C218.626801,223.025375 218.279495,223.094788 217.847672,223.018509 
	C210.712585,222.627945 204.004425,222.388336 197.309204,221.951004 
	C195.452637,221.829727 193.634430,221.121536 191.844696,220.309204 
	C192.756805,216.681900 193.622849,213.428024 194.628510,209.915405 
	C195.037415,208.733948 195.306717,207.811249 195.576004,206.888550 
z"/>
<path fill="#02CDF8" opacity="1.000000" stroke="none" 
	d="
M219.945984,189.586945 
	C212.157547,190.347473 204.421860,190.690857 196.014343,190.805618 
	C193.893784,186.052048 192.445099,181.527084 191.465302,177.001678 
	C200.515930,177.003235 209.097672,177.005234 217.679428,177.007233 
	C218.452530,181.061417 219.225632,185.115601 219.945984,189.586945 
z"/>
<path fill="#02E4F4" opacity="1.000000" stroke="none" 
	d="
M132.807617,208.409058 
	C140.820892,208.045547 148.847137,208.019684 157.349487,208.234558 
	C157.825577,208.475296 157.838409,208.963715 157.571213,209.225677 
	C157.310593,213.962112 157.317169,218.436554 156.835724,222.935333 
	C151.179092,223.726624 146.010498,224.493622 140.616913,225.076355 
	C140.014053,224.238708 139.636185,223.585281 139.211685,222.617401 
	C138.556046,221.497971 137.947021,220.693008 137.338013,219.888062 
	C136.058929,216.770157 134.779861,213.652237 133.234375,210.311569 
	C132.918854,209.641449 132.869720,209.194092 132.807617,208.409058 
z"/>
<path fill="#01C7F9" opacity="1.000000" stroke="none" 
	d="
M217.671875,176.638580 
	C209.097672,177.005234 200.515930,177.003235 191.209351,176.785675 
	C188.221481,173.418350 185.958435,170.266586 183.695374,167.114838 
	C191.447189,167.076736 199.200089,167.098846 206.950134,166.960892 
	C209.058640,166.923355 211.158554,166.403351 213.682434,166.037689 
	C215.289749,169.403717 216.477036,172.836823 217.671875,176.638580 
z"/>
<path fill="#01D8F5" opacity="1.000000" stroke="none" 
	d="
M123.053093,203.968155 
	C123.614067,206.068253 124.175041,208.168365 124.236679,210.638550 
	C117.513062,211.007660 111.288780,211.006699 105.064507,211.005737 
	C105.119995,208.848694 105.175484,206.691650 105.928673,204.231949 
	C112.101952,203.942245 117.577522,203.955200 123.053093,203.968155 
z"/>
<path fill="#00BDF9" opacity="1.000000" stroke="none" 
	d="
M123.067245,203.596146 
	C117.577522,203.955200 112.101952,203.942245 106.135895,203.889862 
	C106.598915,201.375885 107.552429,198.901337 109.242493,196.212036 
	C113.431320,195.947479 116.883614,195.897659 120.335899,195.847839 
	C121.251068,198.306610 122.166237,200.765381 123.067245,203.596146 
z"/>
<path fill="#02E4F4" opacity="1.000000" stroke="none" 
	d="
M105.004120,211.386765 
	C111.288780,211.006699 117.513062,211.007660 124.181328,211.007446 
	C124.711975,211.754486 124.798622,212.502701 124.949860,213.625122 
	C124.730064,214.809937 124.445679,215.620560 123.556747,216.718185 
	C117.624031,217.360275 112.295853,217.715378 106.967674,218.070480 
	C106.293030,215.969589 105.618385,213.868683 105.004120,211.386765 
z"/>
<path fill="#01F0F3" opacity="1.000000" stroke="none" 
	d="
M106.959579,218.411392 
	C112.295853,217.715378 117.624031,217.360275 123.410980,217.006546 
	C121.820618,223.525970 118.979408,226.074646 113.282005,225.694031 
	C112.166290,225.219589 111.605522,225.058807 111.044754,224.898026 
	C110.246162,223.957794 109.447571,223.017548 108.362984,221.951996 
	C107.701820,220.801895 107.326660,219.777100 106.959579,218.411392 
z"/>
<path fill="#00ACFB" opacity="1.000000" stroke="none" 
	d="
M120.296936,195.450989 
	C116.883614,195.897659 113.431320,195.947479 109.519455,195.995285 
	C111.523079,192.420593 113.986282,188.847900 117.185036,184.208344 
	C118.467743,188.735580 119.362854,191.894852 120.296936,195.450989 
z"/>
<path fill="#2D2522" opacity="1.000000" stroke="none" 
	d="
M110.889984,225.202057 
	C111.605522,225.058807 112.166290,225.219589 112.881958,225.629700 
	C111.716499,227.727280 110.746086,230.032150 109.021935,231.353485 
	C90.677979,245.411911 81.340103,265.059540 75.131203,286.443634 
	C71.393845,299.315491 70.678429,312.641785 73.231216,325.882111 
	C77.770218,349.424133 87.284348,370.381927 105.342010,386.932037 
	C115.279381,396.039764 127.271965,401.211945 139.522583,405.978149 
	C164.131012,415.552155 188.761047,415.762299 213.196960,405.392975 
	C221.743210,401.766357 230.857620,398.733734 238.319519,393.459167 
	C251.872055,383.879395 263.214325,371.720245 269.369843,355.903656 
	C273.205994,346.046631 276.686462,335.897400 278.827026,325.568542 
	C282.482910,307.927582 279.230957,290.861389 273.011658,274.003235 
	C265.424133,253.436478 253.155930,236.903259 234.630386,225.199188 
	C230.157806,222.373520 225.160385,220.378571 220.022217,217.938248 
	C219.743301,217.149719 219.846497,216.424530 220.051361,215.347473 
	C246.740723,225.512665 264.528168,244.445755 274.976837,270.969666 
	C281.134491,286.600861 283.956055,302.587463 282.923676,319.220093 
	C282.142426,331.806885 277.771423,343.543610 272.943756,355.067535 
	C268.334534,366.070068 262.042511,376.195770 253.651520,384.540253 
	C244.696304,393.445770 234.437607,401.158356 222.296753,405.230133 
	C210.220123,409.280304 197.952179,413.592743 185.433060,415.233459 
	C174.973846,416.604248 163.588791,415.920471 153.412720,413.179871 
	C140.549759,409.715607 128.186066,403.868683 116.178764,397.899384 
	C103.229683,391.461884 93.443581,380.854187 86.523827,368.385864 
	C80.844055,358.151764 76.016472,347.159973 72.728111,335.942139 
	C65.659966,311.829926 69.237808,288.351166 79.618774,265.673645 
	C86.082352,251.553787 94.461243,239.004730 106.953629,229.476242 
	C108.388687,228.381668 109.482948,226.840302 110.889984,225.202057 
z"/>
<path fill="#2D2C2C" opacity="1.000000" stroke="none" 
	d="
M136.951050,219.950882 
	C137.947021,220.693008 138.556046,221.497971 138.812744,222.641968 
	C123.429459,226.979492 112.153572,236.524445 101.662575,247.440887 
	C93.812798,255.609009 89.871246,265.798798 85.551140,275.888336 
	C80.767708,287.059906 78.532883,298.942383 78.524422,310.809265 
	C78.515831,322.852783 81.397858,334.705017 85.794891,346.181305 
	C94.432503,368.725555 109.069946,385.408508 131.309036,395.123169 
	C144.901398,401.060699 158.669769,405.969543 173.896271,406.136658 
	C187.998276,406.291412 201.032227,402.779755 214.077560,397.944885 
	C237.677917,389.198090 254.290527,373.617859 264.383698,350.501221 
	C269.927826,337.803406 273.545135,324.654205 273.634491,311.045349 
	C273.707794,299.883118 271.122803,288.865082 267.383545,278.007751 
	C260.014954,256.612183 247.115753,240.173386 227.871796,228.519516 
	C224.867828,226.700348 221.927673,224.775787 218.958023,222.899963 
	C218.958023,222.899963 218.895157,222.429657 218.993591,222.213791 
	C226.113098,225.553406 233.889572,228.128738 240.013351,232.848450 
	C258.266663,246.916489 268.559753,266.396301 273.965759,288.400299 
	C279.237366,309.857422 276.448730,330.536743 267.763763,350.971710 
	C258.801575,372.058960 244.634277,387.674072 224.094330,397.350952 
	C209.322479,404.310333 193.781784,409.607849 177.327744,409.752655 
	C166.125641,409.851288 154.757004,408.464111 144.214294,403.884460 
	C135.391388,400.051941 126.168861,396.793976 118.033722,391.798859 
	C103.277763,382.738403 92.310219,369.940582 85.446739,353.838684 
	C79.343781,339.520905 74.094604,324.674591 75.227699,309.089630 
	C77.807655,273.604248 91.506599,243.909668 123.667946,225.304504 
	C127.653206,222.999069 132.250427,221.751480 136.951050,219.950882 
z"/>
<path fill="#AFF6FF" opacity="1.000000" stroke="none" 
	d="
M183.446060,167.009445 
	C185.958435,170.266586 188.221481,173.418350 190.740479,176.786118 
	C192.445099,181.527084 193.893784,186.052048 195.528168,190.825333 
	C195.728470,192.202164 195.743103,193.330643 195.155029,194.749100 
	C185.509384,194.989975 176.466446,194.940903 167.423492,194.891815 
	C167.423492,194.891815 167.100922,194.977921 166.938187,195.016068 
	C169.887466,190.963745 172.999481,186.873276 176.240799,182.453735 
	C178.203232,178.001389 180.036362,173.878128 181.813934,169.375351 
	C182.237839,168.298569 182.717285,167.601303 183.446060,167.009445 
z"/>
<path fill="#A7F7FE" opacity="1.000000" stroke="none" 
	d="
M167.157013,195.137939 
	C176.466446,194.940903 185.509384,194.989975 195.079865,195.079575 
	C195.621597,198.747208 195.635818,202.374313 195.613007,206.444992 
	C195.306717,207.811249 195.037415,208.733948 194.117416,209.867493 
	C189.990387,210.052216 186.511230,210.106476 183.038300,209.984024 
	C174.636780,209.687790 166.238190,209.309128 157.838409,208.963715 
	C157.838409,208.963715 157.825577,208.475296 157.804565,208.231812 
	C160.819214,203.786926 163.854858,199.585495 167.157013,195.137939 
z"/>
<path fill="#2D3336" opacity="1.000000" stroke="none" 
	d="
M218.792419,222.962677 
	C221.927673,224.775787 224.867828,226.700348 227.871796,228.519516 
	C247.115753,240.173386 260.014954,256.612183 267.383545,278.007751 
	C271.122803,288.865082 273.707794,299.883118 273.634491,311.045349 
	C273.545135,324.654205 269.927826,337.803406 264.383698,350.501221 
	C254.290527,373.617859 237.677917,389.198090 214.077560,397.944885 
	C201.032227,402.779755 187.998276,406.291412 173.896271,406.136658 
	C158.669769,405.969543 144.901398,401.060699 131.309036,395.123169 
	C109.069946,385.408508 94.432503,368.725555 85.794891,346.181305 
	C81.397858,334.705017 78.515831,322.852783 78.524422,310.809265 
	C78.532883,298.942383 80.767708,287.059906 85.551140,275.888336 
	C89.871246,265.798798 93.812798,255.609009 101.662575,247.440887 
	C112.153572,236.524445 123.429459,226.979492 138.859360,222.956436 
	C139.636185,223.585281 140.014053,224.238708 140.622025,225.419785 
	C140.910767,226.628403 140.969406,227.309341 140.704895,228.138123 
	C132.144852,232.802261 122.984512,236.192093 115.843925,242.045715 
	C94.268501,259.732635 86.021652,284.184326 85.206947,311.098663 
	C84.625961,330.291718 91.496964,347.852173 101.764404,363.913116 
	C103.632446,366.835236 107.201981,368.669647 110.266571,371.195801 
	C115.365868,376.550385 120.184631,381.715363 125.297173,387.067780 
	C135.388763,393.740936 145.795776,397.810699 158.000381,395.775726 
	C158.933136,396.732605 159.680298,397.754333 160.482086,397.799164 
	C168.743912,398.261200 177.027359,398.978241 185.276840,398.722565 
	C188.886429,398.610748 192.431610,396.420654 196.413208,395.123047 
	C199.561615,395.198242 202.606506,396.160858 204.987869,395.296143 
	C212.479156,392.575989 219.721191,389.169250 227.388336,385.950745 
	C230.852188,382.675446 233.987411,379.477722 237.396118,376.119568 
	C238.434921,374.968262 239.200256,373.977386 240.332458,372.983734 
	C242.899841,371.347198 245.655289,370.123352 247.212875,368.014709 
	C259.462280,351.431580 266.928375,332.737427 266.761963,312.144318 
	C266.554321,286.451996 258.635223,263.276337 239.473373,244.878159 
	C232.882187,238.549637 225.853928,233.239090 216.869446,230.568542 
	C217.347214,227.810974 217.813354,225.452881 218.279495,223.094788 
	C218.279495,223.094788 218.626801,223.025375 218.792419,222.962677 
z"/>
<path fill="#9EF9FE" opacity="1.000000" stroke="none" 
	d="
M157.571213,209.225677 
	C166.238190,209.309128 174.636780,209.687790 183.038300,209.984024 
	C186.511230,210.106476 189.990387,210.052216 193.977814,210.126251 
	C193.622849,213.428024 192.756805,216.681900 191.602325,220.548584 
	C190.486618,222.769699 189.659348,224.378021 188.377762,225.989594 
	C178.313828,225.992844 168.704239,225.992813 158.947876,225.729034 
	C158.308670,224.613846 157.816193,223.762421 157.323730,222.911011 
	C157.317169,218.436554 157.310593,213.962112 157.571213,209.225677 
z"/>
<path fill="#01F0F3" opacity="1.000000" stroke="none" 
	d="
M188.832092,225.986328 
	C189.659348,224.378021 190.486618,222.769699 191.556244,220.922012 
	C193.634430,221.121536 195.452637,221.829727 197.309204,221.951004 
	C204.004425,222.388336 210.712585,222.627945 217.847672,223.018509 
	C217.813354,225.452881 217.347214,227.810974 216.635818,230.794174 
	C216.025208,232.436996 215.659866,233.454727 215.135071,234.792999 
	C214.022781,235.253204 213.067398,235.377777 212.117493,235.535309 
	C209.085327,236.038147 206.055191,236.553238 202.711823,237.130096 
	C201.248444,238.082092 200.097534,238.967590 198.831085,239.481979 
	C196.904724,238.740784 195.107040,238.276566 193.280151,238.021484 
	C190.112106,237.579132 186.925995,237.266220 183.793259,236.533905 
	C185.503403,232.774643 187.167740,229.380478 188.832092,225.986328 
z"/>
<path fill="#01F0F3" opacity="1.000000" stroke="none" 
	d="
M156.835724,222.935333 
	C157.816193,223.762421 158.308670,224.613846 158.937286,226.137161 
	C159.656326,231.536270 160.239227,236.263474 160.368408,240.992783 
	C153.313583,240.999405 146.712479,241.003922 140.181091,240.666046 
	C140.770294,238.544968 141.289780,236.766296 141.897430,234.585815 
	C141.666443,232.119461 141.347244,230.054871 141.028046,227.990295 
	C140.969406,227.309341 140.910767,226.628403 140.847015,225.604034 
	C146.010498,224.493622 151.179092,223.726624 156.835724,222.935333 
z"/>
<path fill="#8CFFFC" opacity="1.000000" stroke="none" 
	d="
M237.122650,376.279999 
	C233.987411,379.477722 230.852188,382.675446 227.001709,385.781372 
	C224.991287,385.460358 223.696365,385.032623 222.400909,385.031067 
	C191.283310,384.993286 160.165573,384.977539 129.048264,385.080261 
	C127.698006,385.084747 126.351593,386.253815 125.003387,386.880371 
	C120.184631,381.715363 115.365868,376.550385 110.246330,370.882324 
	C109.695129,369.589905 109.444710,368.800537 109.636475,368.010498 
	C114.062561,367.334534 118.046463,366.659210 122.320290,366.150208 
	C136.083740,384.555023 152.524109,386.485840 167.870239,375.376404 
	C175.391754,369.931396 182.110260,369.390045 190.003723,372.847473 
	C198.619690,376.621338 207.283875,377.438690 216.379028,373.060364 
	C222.004532,373.412567 227.230423,373.547363 232.413971,374.088074 
	C234.042038,374.257935 235.556305,375.518616 237.122650,376.279999 
z"/>
<path fill="#2D3B41" opacity="1.000000" stroke="none" 
	d="
M109.194290,368.011169 
	C109.444710,368.800537 109.695129,369.589905 109.965790,370.692749 
	C107.201981,368.669647 103.632446,366.835236 101.764404,363.913116 
	C91.496964,347.852173 84.625961,330.291718 85.206947,311.098663 
	C86.021652,284.184326 94.268501,259.732635 115.843925,242.045715 
	C122.984512,236.192093 132.144852,232.802261 140.704895,228.138123 
	C141.347244,230.054871 141.666443,232.119461 141.530807,234.600128 
	C138.299057,236.083801 135.450302,236.996567 132.757492,238.245560 
	C120.506325,243.927872 110.421806,252.473877 104.110039,264.265747 
	C95.360924,280.611145 90.179169,297.978424 91.814911,317.095978 
	C92.857544,329.281616 96.058098,340.521454 101.684288,351.197784 
	C102.298241,352.362854 103.754692,353.083893 104.938828,354.388184 
	C106.436287,359.180695 107.815285,363.595947 109.194290,368.011169 
z"/>
<path fill="#2D3B41" opacity="1.000000" stroke="none" 
	d="
M215.294510,234.472443 
	C215.659866,233.454727 216.025208,232.436996 216.624176,231.193649 
	C225.853928,233.239090 232.882187,238.549637 239.473373,244.878159 
	C258.635223,263.276337 266.554321,286.451996 266.761963,312.144318 
	C266.928375,332.737427 259.462280,351.431580 247.212875,368.014709 
	C245.655289,370.123352 242.899841,371.347198 240.383240,372.627197 
	C242.016815,367.513916 243.966492,362.754395 246.270996,357.949097 
	C247.538010,357.019653 248.754791,356.296509 249.317657,355.228668 
	C261.974213,331.217224 265.046143,306.257751 255.898819,280.398651 
	C250.793365,265.965759 243.393219,252.888153 230.341644,243.960648 
	C225.450882,240.615265 220.317352,237.624741 215.294510,234.472443 
z"/>
<path fill="#94FDFD" opacity="1.000000" stroke="none" 
	d="
M125.297173,387.067780 
	C126.351593,386.253815 127.698006,385.084747 129.048264,385.080261 
	C160.165573,384.977539 191.283310,384.993286 222.400909,385.031067 
	C223.696365,385.032623 224.991287,385.460358 226.673096,385.858948 
	C219.721191,389.169250 212.479156,392.575989 204.987869,395.296143 
	C202.606506,396.160858 199.561615,395.198242 196.070435,394.988159 
	C188.817078,391.976654 182.285126,388.529816 174.901581,390.128723 
	C169.106613,391.383636 163.519562,393.598633 157.840149,395.387085 
	C145.795776,397.810699 135.388763,393.740936 125.297173,387.067780 
z"/>
<path fill="#76FEFB" opacity="1.000000" stroke="none" 
	d="
M245.916168,357.994843 
	C243.966492,362.754395 242.016815,367.513916 240.016357,372.630005 
	C239.200256,373.977386 238.434921,374.968262 237.396133,376.119568 
	C235.556305,375.518616 234.042038,374.257935 232.413971,374.088074 
	C227.230423,373.547363 222.004532,373.412567 216.545349,372.767975 
	C221.898682,367.065186 225.308151,360.506561 227.235489,352.774963 
	C227.959198,351.363312 228.442520,350.175415 229.400162,348.992950 
	C235.512497,349.335052 241.150497,349.671722 246.835312,350.408661 
	C246.560135,353.204224 246.238144,355.599548 245.916168,357.994843 
z"/>
<path fill="#2D3B41" opacity="1.000000" stroke="none" 
	d="
M158.000381,395.775696 
	C163.519562,393.598633 169.106613,391.383636 174.901581,390.128723 
	C182.285126,388.529816 188.817078,391.976654 195.663284,395.039429 
	C192.431610,396.420654 188.886429,398.610748 185.276840,398.722565 
	C177.027359,398.978241 168.743912,398.261200 160.482086,397.799164 
	C159.680298,397.754333 158.933136,396.732605 158.000381,395.775696 
z"/>
<path fill="#94FDFD" opacity="1.000000" stroke="none" 
	d="
M160.822113,240.990677 
	C160.239227,236.263474 159.656326,231.536270 159.084045,226.400940 
	C168.704239,225.992813 178.313828,225.992844 188.377762,225.989594 
	C187.167740,229.380478 185.503403,232.774643 183.576309,236.765289 
	C182.569183,238.910629 181.824814,240.459457 180.604355,242.005554 
	C173.809860,241.998032 167.491455,241.993225 161.093079,241.736252 
	C160.949432,241.319611 160.885773,241.155136 160.822113,240.990677 
z"/>
<path fill="#2D434D" opacity="1.000000" stroke="none" 
	d="
M246.270981,357.949097 
	C246.238144,355.599548 246.560135,353.204224 246.952972,349.960144 
	C247.285095,345.756561 247.546371,342.401764 248.132599,339.007172 
	C250.062195,334.876129 252.176117,330.906036 253.183640,326.672668 
	C257.615692,308.050659 254.842529,290.256470 246.082458,273.360138 
	C245.360046,271.966797 243.646027,271.087524 242.265717,269.726318 
	C242.052353,269.322083 241.966019,269.160889 241.915741,268.608154 
	C239.705811,262.769379 237.459793,257.322174 234.765686,250.788284 
	C233.237503,253.345963 232.667038,254.300720 231.908127,254.963638 
	C224.515121,250.410141 217.287186,246.187271 210.118942,241.865356 
	C207.676788,240.392929 205.384842,238.671341 203.024277,237.063599 
	C206.055191,236.553238 209.085327,236.038147 212.117493,235.535309 
	C213.067398,235.377777 214.022781,235.253204 215.135071,234.792999 
	C220.317352,237.624741 225.450882,240.615265 230.341644,243.960648 
	C243.393219,252.888153 250.793365,265.965759 255.898819,280.398651 
	C265.046143,306.257751 261.974213,331.217224 249.317657,355.228668 
	C248.754791,356.296509 247.538010,357.019653 246.270981,357.949097 
z"/>
<path fill="#05FDF2" opacity="1.000000" stroke="none" 
	d="
M181.080444,242.008270 
	C181.824814,240.459457 182.569183,238.910629 183.530502,237.130402 
	C186.925995,237.266220 190.112106,237.579132 193.280151,238.021484 
	C195.107040,238.276566 196.904724,238.740784 198.859467,239.585785 
	C199.003387,240.060684 199.056259,240.269333 198.823044,240.237610 
	C198.218781,240.353897 198.111496,240.611710 198.186798,241.309204 
	C198.106842,242.091339 198.108078,242.543579 197.889053,243.315903 
	C197.477875,245.421585 197.286942,247.207199 197.038651,249.383636 
	C197.833389,252.454285 198.685486,255.134125 199.037445,257.860565 
	C192.144699,257.925903 185.752106,257.944641 179.286102,257.545898 
	C179.835297,252.088348 180.457855,247.048309 181.080444,242.008270 
z"/>
<path fill="#2D4C59" opacity="1.000000" stroke="none" 
	d="
M198.109314,242.995834 
	C198.108078,242.543579 198.106842,242.091339 198.346512,241.225372 
	C198.786316,240.667725 198.942596,240.486954 199.056259,240.269333 
	C199.056259,240.269333 199.003387,240.060684 198.975006,239.956879 
	C200.097534,238.967590 201.248444,238.082092 202.711823,237.130096 
	C205.384842,238.671341 207.676788,240.392929 210.118942,241.865356 
	C217.287186,246.187271 224.515121,250.410141 231.877594,255.302505 
	C230.803146,257.564026 229.570786,259.194794 228.190613,260.455902 
	C220.808441,249.584305 209.133423,246.860077 198.109314,242.995834 
z"/>
<path fill="#2D434D" opacity="1.000000" stroke="none" 
	d="
M104.820366,354.010895 
	C103.754692,353.083893 102.298241,352.362854 101.684288,351.197784 
	C96.058098,340.521454 92.857544,329.281616 91.814911,317.095978 
	C90.179169,297.978424 95.360924,280.611145 104.110039,264.265747 
	C110.421806,252.473877 120.506325,243.927872 132.757492,238.245560 
	C135.450302,236.996567 138.299057,236.083801 141.442627,235.001907 
	C141.289780,236.766296 140.770294,238.544968 139.935501,240.874115 
	C138.215027,242.669525 136.809860,243.914459 134.988403,245.118530 
	C130.958679,245.112778 127.833008,245.866867 127.068413,250.095581 
	C127.037148,250.043930 127.138107,250.110168 126.756958,250.083344 
	C125.326340,251.128098 124.276863,252.199677 123.127594,253.185852 
	C123.027809,253.100479 123.250473,253.239777 122.870949,253.177887 
	C120.953552,253.952164 119.175713,254.523895 117.916283,255.666855 
	C108.952271,263.801819 104.767868,274.761963 101.015564,285.771027 
	C95.617638,301.608185 96.005585,317.754364 100.256149,333.798401 
	C100.784760,335.793610 102.933662,337.359558 104.406021,339.567444 
	C104.705048,344.341370 104.929810,348.672272 105.077080,353.257141 
	C104.939850,353.677673 104.880112,353.844299 104.820366,354.010895 
z"/>
<path fill="#05FDF2" opacity="1.000000" stroke="none" 
	d="
M135.404709,245.159409 
	C136.809860,243.914459 138.215027,242.669525 139.865784,241.216507 
	C146.712479,241.003922 153.313583,240.999405 160.368408,240.992783 
	C160.885773,241.155136 160.949432,241.319611 161.011353,242.127182 
	C159.923416,249.531693 157.381897,255.423492 150.844330,258.970581 
	C149.023819,258.582794 147.581650,258.215515 146.135071,258.197357 
	C137.427490,258.087921 128.718918,258.058594 120.092407,257.688416 
	C121.199585,255.996185 122.225029,254.617981 123.250473,253.239777 
	C123.250473,253.239777 123.027809,253.100479 123.428268,253.082123 
	C124.931862,252.079254 126.034988,251.094711 127.138115,250.110168 
	C127.138107,250.110168 127.037148,250.043930 127.406860,250.021805 
	C130.319290,248.386261 132.862015,246.772842 135.404709,245.159409 
z"/>
<path fill="#9FFFFD" opacity="1.000000" stroke="none" 
	d="
M226.995102,352.998779 
	C225.308151,360.506561 221.898682,367.065186 216.129364,372.707397 
	C207.283875,377.438690 198.619690,376.621338 190.003723,372.847473 
	C182.110260,369.390045 175.391754,369.931396 167.870239,375.376404 
	C152.524109,386.485840 136.083740,384.555023 122.257126,365.783203 
	C120.908081,361.154755 119.912132,357.059570 118.936432,352.637512 
	C118.970169,351.873322 118.983643,351.436066 119.465958,350.999268 
	C152.759064,350.999817 185.583511,350.950378 218.407211,351.086792 
	C221.272446,351.098724 224.132599,352.332520 226.995102,352.998779 
z"/>
<path fill="#76FEFB" opacity="1.000000" stroke="none" 
	d="
M118.916176,352.964417 
	C119.912132,357.059570 120.908081,361.154755 121.967194,365.616913 
	C118.046463,366.659210 114.062561,367.334534 109.636475,368.010498 
	C107.815285,363.595947 106.436287,359.180695 104.938828,354.388184 
	C104.880112,353.844299 104.939850,353.677673 105.531326,353.256348 
	C110.347435,352.989227 114.631805,352.976807 118.916176,352.964417 
z"/>
<path fill="#95FFFC" opacity="1.000000" stroke="none" 
	d="
M227.235489,352.774963 
	C224.132599,352.332520 221.272446,351.098724 218.407211,351.086792 
	C185.583511,350.950378 152.759064,350.999817 119.460312,350.602722 
	C120.327484,346.806335 121.669151,343.406982 123.309479,339.844299 
	C125.274765,338.655121 126.908638,337.570831 128.614212,336.614380 
	C133.539642,333.852203 138.163208,330.820709 139.936584,324.731689 
	C139.981308,324.491791 140.056015,324.009460 140.474457,323.990356 
	C143.846359,323.647491 146.798935,323.052032 149.753387,323.042511 
	C175.865875,322.958344 201.978668,322.978210 228.312500,323.205566 
	C228.718048,324.287781 228.902466,325.131805 229.058197,326.410706 
	C229.349884,330.564758 229.670227,334.283997 229.826782,338.377747 
	C229.417267,342.164001 229.171555,345.575775 228.925842,348.987518 
	C228.442520,350.175415 227.959198,351.363312 227.235489,352.774963 
z"/>
<path fill="#65FEFB" opacity="1.000000" stroke="none" 
	d="
M229.400146,348.992950 
	C229.171555,345.575775 229.417267,342.164001 230.295563,338.376526 
	C236.319565,337.998993 241.711029,337.997162 247.272217,338.262634 
	C247.563873,338.702271 247.685776,338.874634 247.807663,339.046967 
	C247.546371,342.401764 247.285095,345.756561 246.906158,349.559875 
	C241.150497,349.671722 235.512497,349.335052 229.400146,348.992950 
z"/>
<path fill="#8CFFFC" opacity="1.000000" stroke="none" 
	d="
M228.091385,322.967346 
	C201.978668,322.978210 175.865875,322.958344 149.753387,323.042511 
	C146.798935,323.052032 143.846359,323.647491 140.598389,323.626587 
	C142.265747,318.162720 142.607147,313.044373 140.228210,307.522400 
	C138.570190,301.711426 136.980042,296.305359 135.303543,290.479706 
	C134.770248,286.367676 134.323288,282.675232 133.924408,278.596436 
	C134.745987,275.614136 135.519516,273.018188 136.593201,270.262268 
	C141.669098,266.452271 146.444870,262.802307 151.220642,259.152374 
	C157.381897,255.423492 159.923416,249.531693 161.091339,242.379333 
	C167.491455,241.993225 173.809860,241.998032 180.604340,242.005554 
	C180.457855,247.048309 179.835297,252.088348 179.193253,257.963501 
	C179.741699,262.205475 180.309616,265.612366 180.881363,269.408691 
	C182.325195,273.184601 183.765213,276.571014 185.315826,280.264954 
	C192.337189,289.841583 201.865448,292.841888 213.151672,292.344849 
	C217.602203,299.398468 221.868896,306.179382 226.156311,313.341797 
	C226.815155,316.804657 227.453262,319.885986 228.091385,322.967346 
z"/>
<path fill="#1AFFF5" opacity="1.000000" stroke="none" 
	d="
M185.205231,279.957458 
	C183.765213,276.571014 182.325195,273.184601 181.362350,269.402161 
	C201.852905,269.004028 221.866287,269.001892 241.879669,268.999725 
	C241.966019,269.160889 242.052353,269.322083 242.215759,270.175446 
	C242.311752,273.570374 242.330704,276.273102 242.217041,279.228882 
	C242.003265,279.654266 241.922119,279.826569 241.382263,279.999207 
	C226.267303,279.999542 211.611008,280.002441 196.954727,279.997650 
	C193.038223,279.996368 189.121735,279.971527 185.205231,279.957458 
z"/>
<path fill="#10FEF3" opacity="1.000000" stroke="none" 
	d="
M241.915741,268.608154 
	C221.866287,269.001892 201.852905,269.004028 181.358536,269.012726 
	C180.309616,265.612366 179.741699,262.205475 179.266632,258.380981 
	C185.752106,257.944641 192.144699,257.925903 199.255646,258.060394 
	C200.524811,258.777954 201.075638,259.342316 201.760620,260.177002 
	C205.302826,264.600403 209.577576,266.843079 215.424683,266.519287 
	C219.016769,265.481354 222.245544,264.344818 225.741150,263.127808 
	C226.784805,262.306793 227.561615,261.566193 228.338440,260.825592 
	C229.570786,259.194794 230.803146,257.564026 232.066040,255.594360 
	C232.667038,254.300720 233.237503,253.345963 234.765686,250.788284 
	C237.459793,257.322174 239.705811,262.769379 241.915741,268.608154 
z"/>
<path fill="#2D4C59" opacity="1.000000" stroke="none" 
	d="
M242.349655,278.975830 
	C242.330704,276.273102 242.311752,273.570374 242.342773,270.418518 
	C243.646027,271.087524 245.360046,271.966797 246.082458,273.360138 
	C254.842529,290.256470 257.615692,308.050659 253.183640,326.672668 
	C252.176117,330.906036 250.062195,334.876129 248.132599,339.007172 
	C247.685776,338.874634 247.563873,338.702271 247.347198,337.823608 
	C247.156601,334.747070 247.060760,332.376892 247.323196,329.919373 
	C248.331146,328.741150 249.365158,327.718384 249.572357,326.549103 
	C252.297806,311.168732 251.978806,296.012726 245.555161,281.461456 
	C245.074799,280.373291 243.445084,279.792480 242.349655,278.975830 
z"/>
<path fill="#2D5566" opacity="1.000000" stroke="none" 
	d="
M228.190628,260.455902 
	C227.561615,261.566193 226.784805,262.306793 225.360382,263.046661 
	C216.358673,256.688293 207.412476,251.494156 197.096024,248.992813 
	C197.286942,247.207199 197.477875,245.421585 197.889053,243.315903 
	C209.133423,246.860077 220.808441,249.584305 228.190628,260.455902 
z"/>
<path fill="#2D6177" opacity="1.000000" stroke="none" 
	d="
M197.038651,249.383636 
	C207.412476,251.494156 216.358673,256.688293 225.093536,263.127106 
	C222.245544,264.344818 219.016769,265.481354 215.390945,266.193787 
	C210.961990,263.354095 206.937912,260.924835 202.859772,258.589935 
	C202.739410,258.521057 202.050369,259.445374 201.626465,259.906647 
	C201.075638,259.342316 200.524811,258.777954 199.755783,258.013794 
	C198.685486,255.134125 197.833389,252.454285 197.038651,249.383636 
z"/>
<path fill="#2D5566" opacity="1.000000" stroke="none" 
	d="
M198.823044,240.237610 
	C198.942596,240.486954 198.786316,240.667725 198.427704,240.895477 
	C198.111496,240.611710 198.218781,240.353897 198.823044,240.237610 
z"/>
<path fill="#2D4C59" opacity="1.000000" stroke="none" 
	d="
M122.870941,253.177887 
	C122.225029,254.617981 121.199585,255.996185 119.804871,257.890869 
	C118.191719,261.914886 116.947838,265.422394 115.510551,269.256714 
	C115.144402,271.383057 114.971649,273.182617 114.439430,275.001770 
	C113.057388,276.166290 111.468071,277.155426 111.103630,278.481262 
	C108.622581,287.507355 105.855072,296.513000 104.310303,305.714935 
	C103.469940,310.720795 102.403755,316.542694 106.895264,321.414246 
	C106.263878,327.540527 105.612328,333.262695 104.808022,339.040039 
	C104.655266,339.095184 104.331772,339.124420 104.331772,339.124420 
	C102.933662,337.359558 100.784760,335.793610 100.256149,333.798401 
	C96.005585,317.754364 95.617638,301.608185 101.015564,285.771027 
	C104.767868,274.761963 108.952271,263.801819 117.916283,255.666855 
	C119.175713,254.523895 120.953552,253.952164 122.870941,253.177887 
z"/>
<path fill="#65FEFB" opacity="1.000000" stroke="none" 
	d="
M104.406029,339.567444 
	C104.331772,339.124420 104.655266,339.095184 105.278076,339.043884 
	C111.604202,339.330933 117.307510,339.669281 123.010826,340.007629 
	C121.669151,343.406982 120.327484,346.806335 118.991470,350.602234 
	C118.983643,351.436066 118.970169,351.873322 118.936432,352.637512 
	C114.631805,352.976807 110.347435,352.989227 105.608810,353.002441 
	C104.929810,348.672272 104.705048,344.341370 104.406029,339.567444 
z"/>
<path fill="#2D4C59" opacity="1.000000" stroke="none" 
	d="
M134.988434,245.118561 
	C132.862015,246.772842 130.319290,248.386261 127.438126,250.073456 
	C127.833008,245.866867 130.958679,245.112778 134.988434,245.118561 
z"/>
<path fill="#2D4C59" opacity="1.000000" stroke="none" 
	d="
M126.756973,250.083359 
	C126.034988,251.094711 124.931862,252.079254 123.528061,253.167511 
	C124.276863,252.199677 125.326340,251.128098 126.756973,250.083359 
z"/>
<path fill="#10FEF3" opacity="1.000000" stroke="none" 
	d="
M115.703949,268.929871 
	C116.947838,265.422394 118.191719,261.914886 119.723129,258.204895 
	C128.718918,258.058594 137.427490,258.087921 146.135071,258.197357 
	C147.581650,258.215515 149.023819,258.582794 150.844330,258.970581 
	C146.444870,262.802307 141.669098,266.452271 136.281830,269.918396 
	C129.014877,269.466370 122.359413,269.198120 115.703949,268.929871 
z"/>
<path fill="#58FDF8" opacity="1.000000" stroke="none" 
	d="
M123.309479,339.844330 
	C117.307510,339.669281 111.604202,339.330933 105.430832,338.988708 
	C105.612328,333.262695 106.263878,327.540527 107.022156,321.114685 
	C107.484512,319.438446 107.840149,318.465881 108.269577,317.291534 
	C108.929939,318.096466 109.405090,318.675629 109.924286,319.595123 
	C112.351471,324.303375 115.334389,327.563385 121.299911,325.898865 
	C122.690193,325.248566 123.763985,324.598083 125.259232,324.016968 
	C130.417755,324.381439 135.154800,324.676514 139.891846,324.971619 
	C138.163208,330.820709 133.539642,333.852203 128.614212,336.614380 
	C126.908638,337.570831 125.274765,338.655121 123.309479,339.844330 
z"/>
<path fill="#48FEF8" opacity="1.000000" stroke="none" 
	d="
M139.936584,324.731689 
	C135.154800,324.676514 130.417755,324.381439 125.404686,323.661316 
	C128.302353,318.311127 127.075310,313.169312 126.350388,308.021240 
	C131.314255,307.984802 135.805176,307.956085 140.296112,307.927368 
	C142.607147,313.044373 142.265747,318.162720 140.179947,323.645691 
	C140.056015,324.009460 139.981308,324.491791 139.936584,324.731689 
z"/>
<path fill="#48FEF8" opacity="1.000000" stroke="none" 
	d="
M228.312500,323.205566 
	C227.453262,319.885986 226.815155,316.804657 226.611053,313.352051 
	C232.216400,312.922150 237.387772,312.863464 242.716431,313.132141 
	C243.841599,317.639038 244.809464,321.818573 245.323746,325.998352 
	C239.609055,325.990997 234.347977,325.983398 229.086884,325.975830 
	C228.902466,325.131805 228.718048,324.287781 228.312500,323.205566 
z"/>
<path fill="#58FDF8" opacity="1.000000" stroke="none" 
	d="
M229.058197,326.410706 
	C234.347977,325.983398 239.609055,325.990997 245.434052,326.334595 
	C246.320282,327.782623 246.642609,328.894653 246.964920,330.006714 
	C247.060760,332.376892 247.156601,334.747070 247.177460,337.556274 
	C241.711029,337.997162 236.319565,337.998993 230.459351,338.002014 
	C229.670227,334.283997 229.349884,330.564758 229.058197,326.410706 
z"/>
<path fill="#27FEF6" opacity="1.000000" stroke="none" 
	d="
M185.315826,280.264954 
	C189.121735,279.971527 193.038223,279.996368 196.954727,279.997650 
	C211.611008,280.002441 226.267303,279.999542 241.421783,280.397644 
	C241.247894,284.197784 240.575806,287.599823 239.441101,291.001770 
	C233.515915,291.001495 228.049500,290.877777 222.592270,291.048065 
	C219.376617,291.148438 216.175507,291.715149 212.967865,292.072144 
	C201.865448,292.841888 192.337189,289.841583 185.315826,280.264954 
z"/>
<path fill="#35FEF6" opacity="1.000000" stroke="none" 
	d="
M213.151672,292.344849 
	C216.175507,291.715149 219.376617,291.148438 222.592270,291.048065 
	C228.049500,290.877777 233.515915,291.001495 239.479752,291.465332 
	C240.840393,298.887634 241.699753,305.846191 242.559113,312.804779 
	C237.387772,312.863464 232.216400,312.922150 226.590317,312.970551 
	C221.868896,306.179382 217.602203,299.398468 213.151672,292.344849 
z"/>
<path fill="#35FEF6" opacity="1.000000" stroke="none" 
	d="
M140.228210,307.522430 
	C135.805176,307.956085 131.314255,307.984802 126.112961,307.771118 
	C124.087914,304.624756 122.773216,301.720886 121.341736,298.463562 
	C120.325089,295.786865 119.425217,293.463623 119.021194,291.105164 
	C124.807991,291.013092 130.098938,290.956207 135.389893,290.899292 
	C136.980042,296.305359 138.570190,301.711426 140.228210,307.522430 
z"/>
<path fill="#27FEF6" opacity="1.000000" stroke="none" 
	d="
M135.303543,290.479736 
	C130.098938,290.956207 124.807991,291.013092 118.838089,290.835541 
	C117.512100,288.952393 116.865059,287.303711 116.205193,285.277954 
	C115.940643,282.933685 115.688927,280.966492 115.878036,278.999664 
	C122.171364,278.994263 128.023849,278.988525 133.876343,278.982788 
	C134.323288,282.675232 134.770248,286.367676 135.303543,290.479736 
z"/>
<path fill="#1AFFF5" opacity="1.000000" stroke="none" 
	d="
M133.924408,278.596436 
	C128.023849,278.988525 122.171364,278.994263 115.755600,278.610016 
	C115.061172,277.140717 114.930031,276.061432 114.798889,274.982147 
	C114.971649,273.182617 115.144402,271.383057 115.510551,269.256714 
	C122.359413,269.198120 129.014877,269.466370 135.981689,270.078430 
	C135.519516,273.018188 134.745987,275.614136 133.924408,278.596436 
z"/>
<path fill="#2D5566" opacity="1.000000" stroke="none" 
	d="
M242.716415,313.132141 
	C241.699753,305.846191 240.840393,298.887634 239.942383,291.465454 
	C240.575806,287.599823 241.247894,284.197784 241.880463,280.397308 
	C241.922119,279.826569 242.003265,279.654266 242.217041,279.228882 
	C243.445084,279.792480 245.074799,280.373291 245.555161,281.461456 
	C251.978806,296.012726 252.297806,311.168732 249.572357,326.549103 
	C249.365158,327.718384 248.331146,328.741150 247.323196,329.919373 
	C246.642609,328.894653 246.320282,327.782623 245.887665,326.334351 
	C244.809464,321.818573 243.841599,317.639038 242.716415,313.132141 
z"/>
<path fill="#2E6C86" opacity="1.000000" stroke="none" 
	d="
M201.760620,260.177002 
	C202.050369,259.445374 202.739410,258.521057 202.859772,258.589935 
	C206.937912,260.924835 210.961990,263.354095 215.027634,266.095215 
	C209.577576,266.843079 205.302826,264.600403 201.760620,260.177002 
z"/>
<path fill="#2D5566" opacity="1.000000" stroke="none" 
	d="
M114.439423,275.001770 
	C114.930031,276.061432 115.061172,277.140717 115.314758,278.609650 
	C115.688927,280.966492 115.940643,282.933685 116.011116,285.624084 
	C114.220650,293.384705 112.443649,300.389618 111.069130,307.472595 
	C110.320274,311.331604 110.254234,315.323059 109.880241,319.254791 
	C109.405090,318.675629 108.929939,318.096466 108.269577,317.291534 
	C107.840149,318.465881 107.484512,319.438446 107.001984,320.710571 
	C102.403755,316.542694 103.469940,310.720795 104.310303,305.714935 
	C105.855072,296.513000 108.622581,287.507355 111.103630,278.481262 
	C111.468071,277.155426 113.057388,276.166290 114.439423,275.001770 
z"/>
<path fill="#2D6177" opacity="1.000000" stroke="none" 
	d="
M109.924286,319.595123 
	C110.254234,315.323059 110.320274,311.331604 111.069130,307.472595 
	C112.443649,300.389618 114.220650,293.384705 116.023941,286.001160 
	C116.865059,287.303711 117.512100,288.952393 118.342239,290.870728 
	C119.425217,293.463623 120.325089,295.786865 121.003006,298.708099 
	C117.044937,308.199188 120.123444,317.040466 120.983406,325.898621 
	C115.334389,327.563385 112.351471,324.303375 109.924286,319.595123 
z"/>
<path fill="#2E6C86" opacity="1.000000" stroke="none" 
	d="
M121.299911,325.898865 
	C120.123444,317.040466 117.044937,308.199188 121.119797,299.061523 
	C122.773216,301.720886 124.087914,304.624756 125.640038,307.778809 
	C127.075310,313.169312 128.302353,318.311127 124.983215,323.591919 
	C123.763985,324.598083 122.690193,325.248566 121.299911,325.898865 
z"/>
</svg>