<svg version="1.1" id="Layer_1" xmlns="http://www.w3.org/2000/svg" xmlns:xlink="http://www.w3.org/1999/xlink" x="0px" y="0px"
	 width="100%" viewBox="0 0 346 487" enable-background="new 0 0 346 487" xml:space="preserve">
<path fill="#2D1A13" opacity="1.000000" stroke="none" 
	d="
M149.000000,488.000000 
	C99.348083,488.000000 50.196171,488.000000 1.022129,488.000000 
	C1.022129,325.730133 1.022129,163.460251 1.022129,1.095191 
	C116.235199,1.095191 231.470505,1.095191 346.852905,1.095191 
	C346.852905,163.333237 346.852905,325.666595 346.852905,488.000000 
	C281.126984,488.000000 215.313492,488.000000 149.000000,488.000000 
M240.904480,117.239998 
	C238.678085,113.276260 236.451706,109.312523 234.088242,105.104736 
	C232.125519,109.934860 230.509628,113.911453 228.288437,118.236610 
	C227.201111,120.826462 226.113785,123.416321 224.527161,126.622063 
	C224.319839,128.737198 224.112518,130.852341 223.698700,133.572983 
	C224.427261,136.470871 225.155838,139.368759 225.790390,141.892685 
	C227.792877,139.703430 229.449875,137.891891 231.106888,136.080368 
	C233.270630,138.106110 235.854279,139.847977 237.472763,142.242294 
	C238.914474,144.375076 239.288010,147.229904 240.132965,149.766068 
	C240.711441,149.779297 241.289917,149.792511 241.868393,149.805740 
	C242.680298,144.213242 243.492203,138.620743 244.534790,132.284805 
	C244.080399,129.835052 243.626007,127.385292 243.200989,124.171104 
	C242.413422,122.095490 241.625854,120.019875 240.904480,117.239998 
M82.004433,259.836548 
	C82.001717,261.222778 81.999008,262.608978 81.351402,264.249146 
	C80.785500,265.037170 80.050346,265.752960 79.678604,266.623840 
	C71.509247,285.762909 68.851868,305.680878 72.072678,326.212402 
	C75.869133,350.413544 86.356514,371.469421 103.549652,388.941498 
	C112.998077,398.543243 124.609901,405.087067 136.896744,410.452484 
	C160.577347,420.793335 184.974167,423.335785 209.962753,416.401031 
	C218.572876,414.011566 226.988174,410.662018 235.157303,407.002777 
	C247.123657,401.642670 257.811554,394.027039 266.168823,383.967377 
	C285.925995,360.185577 296.171631,332.997131 294.071533,301.617920 
	C293.110931,287.264862 289.208313,273.852631 282.997986,260.334595 
	C282.996399,259.890839 282.994843,259.447052 282.938843,258.203949 
	C282.345825,255.610306 281.500885,253.045364 281.201477,250.418259 
	C279.477051,235.287567 276.087646,220.474686 270.124695,206.545547 
	C265.245178,195.147263 259.820190,183.654648 252.627747,173.648102 
	C240.632568,156.959717 224.156647,145.443115 204.449020,137.978241 
	C205.186203,133.317230 205.923370,128.656219 206.956787,123.247574 
	C209.025482,113.273460 212.808167,103.458786 209.797302,92.263908 
	C207.852402,87.846901 205.907516,83.429886 203.844711,78.333633 
	C198.210236,69.234093 190.728195,61.884338 183.301895,55.764484 
	C180.561172,63.593365 177.862717,71.301506 174.687408,79.500290 
	C171.480087,83.723946 168.272766,87.947594 164.488525,92.484612 
	C163.130402,93.947227 161.642975,95.310951 160.435959,96.889137 
	C154.312256,104.896011 148.261292,112.958527 141.741135,121.573242 
	C140.201050,126.716370 138.660965,131.859497 136.866791,137.795654 
	C136.524414,142.528549 136.182037,147.261444 135.188858,152.164566 
	C130.760315,155.642120 126.051132,158.819626 121.954185,162.651688 
	C107.849197,175.844788 99.087730,192.543365 93.538925,210.617126 
	C88.682564,226.435394 85.776283,242.852386 82.004433,259.836548 
z"/>
<path fill="#2D1F1A" opacity="1.000000" stroke="none" 
	d="
M282.998779,261.000366 
	C289.208313,273.852631 293.110931,287.264862 294.071533,301.617920 
	C296.171631,332.997131 285.925995,360.185577 266.168823,383.967377 
	C257.811554,394.027039 247.123657,401.642670 235.157303,407.002777 
	C226.988174,410.662018 218.572876,414.011566 209.962753,416.401031 
	C184.974167,423.335785 160.577347,420.793335 136.896744,410.452484 
	C124.609901,405.087067 112.998077,398.543243 103.549652,388.941498 
	C86.356514,371.469421 75.869133,350.413544 72.072678,326.212402 
	C68.851868,305.680878 71.509247,285.762909 79.678604,266.623840 
	C80.050346,265.752960 80.785500,265.037170 81.692955,264.448303 
	C82.356140,265.431671 82.677765,266.215820 82.971565,267.391296 
	C82.624702,269.852936 82.305672,271.923279 81.663643,274.132507 
	C75.384773,285.291321 74.578575,297.492554 74.167236,309.528839 
	C73.702461,323.128632 77.207657,336.161316 82.053513,348.905457 
	C92.211929,375.621155 109.825340,394.953644 136.323059,406.237976 
	C151.061569,412.514557 166.206009,416.502472 182.226425,416.572510 
	C197.744827,416.640350 212.541183,412.915344 226.757645,406.883148 
	C242.116959,400.366058 256.064850,391.793427 266.429932,378.332031 
	C280.390533,360.201111 288.646088,339.656189 290.756714,316.946014 
	C292.125366,302.219696 289.907745,287.740204 283.999512,273.667084 
	C283.999359,272.889679 283.999176,272.445221 283.970703,271.604462 
	C283.627838,267.805573 283.313293,264.402985 282.998779,261.000366 
z"/>
<path fill="#01BBFA" opacity="1.000000" stroke="none" 
	d="
M209.769775,93.009567 
	C212.808167,103.458786 209.025482,113.273460 206.366425,123.623535 
	C201.549347,123.999207 197.322601,123.998917 193.064117,123.658585 
	C193.136673,122.193985 193.240997,121.069435 193.512512,119.537628 
	C194.650635,111.644524 195.323074,104.205208 190.860031,97.458405 
	C187.073257,104.511559 183.487091,111.191048 179.636658,118.061050 
	C178.247635,119.835014 177.122879,121.418465 175.760895,122.693398 
	C173.667648,121.921661 171.817123,121.085564 169.954712,121.058205 
	C160.699799,120.922287 151.441772,120.999428 142.184830,121.001541 
	C148.261292,112.958527 154.312256,104.896011 160.435959,96.889137 
	C161.642975,95.310951 163.130402,93.947227 165.136169,92.517929 
	C180.445786,92.704018 195.107788,92.856796 209.769775,93.009567 
z"/>
<path fill="#01D4F6" opacity="1.000000" stroke="none" 
	d="
M135.839661,151.994339 
	C136.182037,147.261444 136.524414,142.528549 137.454742,137.398773 
	C148.647034,137.002609 159.251373,137.003342 169.888947,137.341690 
	C169.937195,138.131516 169.952209,138.583725 169.758789,139.363129 
	C170.091263,144.023132 170.632156,148.355942 170.935379,153.022797 
	C168.874496,153.903824 167.071274,154.823654 165.224030,154.922775 
	C160.932831,155.153015 156.620377,154.987289 152.086853,154.873810 
	C151.424835,155.170868 150.992523,155.576141 150.142700,155.984894 
	C145.615448,155.660522 141.505676,155.332642 137.224945,154.701691 
	C136.649216,153.597183 136.244446,152.795761 135.839661,151.994339 
z"/>
<path fill="#2D1F1A" opacity="1.000000" stroke="none" 
	d="
M204.492523,138.841125 
	C224.156647,145.443115 240.632568,156.959717 252.627747,173.648102 
	C259.820190,183.654648 265.245178,195.147263 270.124695,206.545547 
	C276.087646,220.474686 279.477051,235.287567 281.201477,250.418259 
	C281.500885,253.045364 282.345825,255.610306 282.673096,258.520569 
	C281.603546,258.225037 280.799774,257.612885 279.994812,256.669220 
	C279.992859,255.895721 279.992065,255.453735 279.903442,254.722168 
	C279.214569,253.954590 278.613495,253.476608 278.009491,252.599670 
	C278.001099,251.137390 277.995667,250.074066 277.964233,248.613968 
	C276.592163,242.406250 275.274200,236.588608 273.894958,230.785522 
	C269.057800,210.433640 261.902161,191.066360 248.576614,174.604462 
	C245.578781,170.901062 241.243210,168.280518 237.457031,165.241333 
	C237.390594,165.321167 237.224258,165.196701 237.158356,164.823578 
	C236.403473,163.158752 236.029160,161.468018 234.976273,160.637833 
	C225.670822,153.300568 215.583847,147.348770 204.049133,143.600677 
	C203.959442,142.135437 203.934296,141.066864 204.020935,139.810608 
	C204.161545,139.320419 204.281479,139.059799 204.492523,138.841125 
z"/>
<path fill="#01CAF8" opacity="1.000000" stroke="none" 
	d="
M169.855713,137.004074 
	C159.251373,137.003342 148.647034,137.002609 137.581787,137.002258 
	C138.660965,131.859497 140.201050,126.716370 141.962982,121.287392 
	C151.441772,120.999428 160.699799,120.922287 169.954712,121.058205 
	C171.817123,121.085564 173.667648,121.921661 175.674194,123.033508 
	C173.835068,128.122787 171.845383,132.563431 169.855713,137.004074 
z"/>
<path fill="#01B1FB" opacity="1.000000" stroke="none" 
	d="
M209.783539,92.636734 
	C195.107788,92.856796 180.445786,92.704018 165.424622,92.361244 
	C168.272766,87.947594 171.480087,83.723946 175.322922,79.345627 
	C185.293167,79.131607 194.627884,79.072243 203.962616,79.012878 
	C205.907516,83.429886 207.852402,87.846901 209.783539,92.636734 
z"/>
<path fill="#2D1F1A" opacity="1.000000" stroke="none" 
	d="
M135.514252,152.079453 
	C136.244446,152.795761 136.649216,153.597183 137.107544,154.955154 
	C137.069138,155.673660 136.977158,155.835602 136.546783,156.071472 
	C126.411987,161.098953 119.510857,169.278870 113.241180,177.825897 
	C99.569321,196.463852 93.223228,218.161621 88.498573,240.406616 
	C88.276527,241.452072 89.463501,242.796783 89.871613,244.252747 
	C89.496872,245.001160 89.244781,245.498978 88.749573,246.061859 
	C88.339523,246.751694 88.172600,247.376434 87.977921,248.385712 
	C86.963905,252.178543 85.977623,255.586823 84.618393,258.996155 
	C83.499809,258.999756 82.754173,259.002319 82.008545,259.004883 
	C85.776283,242.852386 88.682564,226.435394 93.538925,210.617126 
	C99.087730,192.543365 107.849197,175.844788 121.954185,162.651688 
	C126.051132,158.819626 130.760315,155.642120 135.514252,152.079453 
z"/>
<path fill="#01A5F9" opacity="1.000000" stroke="none" 
	d="
M203.903656,78.673256 
	C194.627884,79.072243 185.293167,79.131607 175.561356,79.100311 
	C177.862717,71.301506 180.561172,63.593365 183.301895,55.764484 
	C190.728195,61.884338 198.210236,69.234093 203.903656,78.673256 
z"/>
<path fill="#01CAF8" opacity="1.000000" stroke="none" 
	d="
M204.470764,138.409683 
	C204.281479,139.059799 204.161545,139.320419 203.621262,139.723221 
	C198.793701,139.534439 194.477615,139.245377 190.043320,138.974152 
	C189.925125,138.991989 189.695938,139.059952 189.781464,138.638474 
	C190.943298,133.477539 192.019577,128.738083 193.095871,123.998627 
	C197.322601,123.998917 201.549347,123.999207 206.218307,123.997345 
	C205.923370,128.656219 205.186203,133.317230 204.470764,138.409683 
z"/>
<path fill="#03E0F4" opacity="1.000000" stroke="none" 
	d="
M244.304108,133.028244 
	C243.492203,138.620743 242.680298,144.213242 241.868393,149.805740 
	C241.289917,149.792511 240.711441,149.779297 240.132965,149.766068 
	C239.288010,147.229904 238.914474,144.375076 237.472763,142.242294 
	C235.854279,139.847977 233.270630,138.106110 231.106873,136.080353 
	C229.449875,137.891891 227.792877,139.703430 225.790390,141.892685 
	C225.155838,139.368759 224.427261,136.470871 224.276382,133.277435 
	C231.337418,132.997360 237.820755,133.012802 244.304108,133.028244 
z"/>
<path fill="#01D4F6" opacity="1.000000" stroke="none" 
	d="
M244.419449,132.656525 
	C237.820755,133.012802 231.337418,132.997360 224.379639,132.974701 
	C224.112518,130.852341 224.319839,128.737198 225.242050,126.314178 
	C231.695160,125.649376 237.433395,125.292458 243.171616,124.935539 
	C243.626007,127.385292 244.080399,129.835052 244.419449,132.656525 
z"/>
<path fill="#01CAF8" opacity="1.000000" stroke="none" 
	d="
M243.186310,124.553322 
	C237.433395,125.292458 231.695160,125.649376 225.491699,126.006241 
	C226.113785,123.416321 227.201111,120.826462 229.053040,118.088699 
	C233.491196,117.941956 237.164734,117.943108 240.838287,117.944260 
	C241.625854,120.019875 242.413422,122.095490 243.186310,124.553322 
z"/>
<path fill="#01A5F9" opacity="1.000000" stroke="none" 
	d="
M240.871384,117.592133 
	C237.164734,117.943108 233.491196,117.941956 229.355682,117.914421 
	C230.509628,113.911453 232.125519,109.934860 234.088242,105.104736 
	C236.451706,109.312523 238.678085,113.276260 240.871384,117.592133 
z"/>
<path fill="#2D221F" opacity="1.000000" stroke="none" 
	d="
M279.996002,257.000732 
	C280.799774,257.612885 281.603546,258.225037 282.700287,258.920227 
	C282.994843,259.447052 282.996399,259.890839 282.998352,260.667480 
	C283.313293,264.402985 283.627838,267.805573 283.596100,271.604187 
	C282.500427,271.999847 281.751038,271.999512 281.000977,271.665955 
	C281.000031,270.888641 280.999725,270.444611 281.096161,269.681122 
	C280.960999,267.400238 280.695190,265.442017 280.506287,263.476410 
	C280.299225,261.321411 280.163055,259.159576 279.996002,257.000732 
z"/>
<path fill="#2D221F" opacity="1.000000" stroke="none" 
	d="
M82.006485,259.420715 
	C82.754173,259.002319 83.499809,258.999756 84.613708,259.390320 
	C84.321114,262.188995 83.660255,264.594482 82.999390,267.000000 
	C82.677765,266.215820 82.356140,265.431671 82.015404,264.321350 
	C81.999008,262.608978 82.001717,261.222778 82.006485,259.420715 
z"/>
<path fill="#2D221F" opacity="1.000000" stroke="none" 
	d="
M283.999512,274.000000 
	C289.907745,287.740204 292.125366,302.219696 290.756714,316.946014 
	C288.646088,339.656189 280.390533,360.201111 266.429932,378.332031 
	C256.064850,391.793427 242.116959,400.366058 226.757645,406.883148 
	C212.541183,412.915344 197.744827,416.640350 182.226425,416.572510 
	C166.206009,416.502472 151.061569,412.514557 136.323059,406.237976 
	C109.825340,394.953644 92.211929,375.621155 82.053513,348.905457 
	C77.207657,336.161316 73.702461,323.128632 74.167236,309.528839 
	C74.578575,297.492554 75.384773,285.291321 81.667908,274.466766 
	C81.997467,275.107697 81.999779,275.553223 81.872894,276.286713 
	C81.828079,277.716187 81.912460,278.857697 81.996597,280.373657 
	C81.995285,281.496674 81.994217,282.245270 81.652100,283.121552 
	C80.637520,284.152588 79.530045,284.982513 79.362671,285.971527 
	C78.448250,291.375031 77.455551,296.795105 77.058159,302.250854 
	C75.684242,321.112976 79.774117,338.956238 87.574387,356.063812 
	C93.034554,368.039032 100.869751,378.193878 110.486214,387.132568 
	C121.749794,397.602325 135.523727,403.391449 149.607742,408.591858 
	C161.303696,412.910492 173.579391,414.196411 185.923782,413.795929 
	C198.644470,413.383209 210.847153,410.131805 222.760010,405.622925 
	C248.452820,395.898468 267.118652,379.035004 278.309235,353.617950 
	C287.751343,332.172150 290.578613,310.255737 285.903229,287.368347 
	C285.513214,285.459290 283.998352,283.779968 283.005371,281.619629 
	C283.004425,280.496643 283.004211,279.747894 283.166565,278.786560 
	C283.218658,277.715820 283.108154,276.857758 282.997803,275.666382 
	C282.997406,274.888763 282.996857,274.444366 283.247131,274.000000 
	C283.665131,274.000000 283.832306,274.000000 283.999512,274.000000 
z"/>
<path fill="#2D2928" opacity="1.000000" stroke="none" 
	d="
M82.002090,275.998779 
	C81.999779,275.553223 81.997467,275.107697 81.990891,274.327881 
	C82.305672,271.923279 82.624702,269.852936 82.971565,267.391296 
	C83.660255,264.594482 84.321114,262.188995 84.986664,259.389282 
	C85.977623,255.586823 86.963905,252.178543 88.168716,248.173874 
	C88.589073,247.050598 88.790886,246.523697 88.992699,245.996796 
	C89.244781,245.498978 89.496872,245.001160 89.875992,244.003571 
	C90.003029,243.503815 90.008614,243.005493 90.381828,243.004135 
	C91.501747,243.000839 92.248451,242.998886 92.921997,243.369537 
	C92.360527,245.309357 91.767479,246.852692 91.403183,248.448242 
	C90.221939,253.621872 89.124573,258.814636 87.993912,264.332214 
	C87.992119,265.107239 87.991318,265.550140 87.684212,266.108643 
	C86.921974,267.151794 86.466049,268.079285 86.009300,269.406067 
	C86.005791,270.870270 86.003105,271.935120 85.794434,273.238403 
	C84.730125,274.318481 83.871803,275.160156 82.760635,276.001099 
	C82.339226,275.999847 82.170662,275.999298 82.002090,275.998779 
z"/>
<path fill="#2D2624" opacity="1.000000" stroke="none" 
	d="
M283.999512,273.667084 
	C283.832306,274.000000 283.665131,274.000000 282.913879,274.000092 
	C281.885345,274.000336 281.440826,274.000488 280.997498,273.666901 
	C280.999634,272.888519 281.000641,272.443848 281.001648,271.999176 
	C281.751038,271.999512 282.500427,271.999847 283.624390,272.000488 
	C283.999176,272.445221 283.999359,272.889679 283.999512,273.667084 
z"/>
<path fill="#8EF8FD" opacity="1.000000" stroke="none" 
	d="
M193.064117,123.658585 
	C192.019577,128.738083 190.943298,133.477539 189.335052,138.623260 
	C182.524460,139.031677 176.245850,139.033813 169.967224,139.035934 
	C169.952209,138.583725 169.937195,138.131516 169.888947,137.341690 
	C171.845383,132.563431 173.835068,128.122787 175.911438,123.342026 
	C177.122879,121.418465 178.247635,119.835014 179.881348,118.373901 
	C184.708618,118.979118 189.026962,119.461998 193.345306,119.944878 
	C193.240997,121.069435 193.136673,122.193985 193.064117,123.658585 
z"/>
<path fill="#A5FFFE" opacity="1.000000" stroke="none" 
	d="
M193.512497,119.537628 
	C189.026962,119.461998 184.708618,118.979118 180.145599,118.183388 
	C183.487091,111.191048 187.073257,104.511559 190.860031,97.458405 
	C195.323074,104.205208 194.650635,111.644524 193.512497,119.537628 
z"/>
<path fill="#03E0F4" opacity="1.000000" stroke="none" 
	d="
M237.224258,165.196701 
	C237.224258,165.196701 237.390594,165.321167 237.601288,165.567963 
	C239.766541,169.250046 241.721069,172.685349 243.719116,176.509308 
	C243.890106,177.926804 244.017593,178.955643 243.667328,179.985901 
	C228.381454,179.990204 213.570419,179.845123 198.767899,180.134369 
	C196.147583,180.185577 193.562637,182.047073 190.647736,182.918289 
	C182.310471,177.892822 174.003555,173.421738 166.361938,168.011002 
	C161.195312,164.352737 156.965424,159.371521 152.316544,154.982040 
	C156.620377,154.987289 160.932831,155.153015 165.224030,154.922775 
	C167.071274,154.823654 168.874496,153.903824 171.182434,153.256332 
	C173.744537,155.466736 175.821945,157.777649 178.074402,160.376312 
	C183.829544,165.790726 190.275269,168.289291 198.538528,167.713593 
	C197.109756,165.349228 196.097244,163.673721 195.475052,161.911621 
	C198.875946,161.549667 201.886551,161.274277 205.021301,161.319839 
	C205.188889,162.097427 205.232300,162.554092 205.207733,163.262390 
	C205.427917,163.668579 205.716095,163.823105 206.126221,164.262848 
	C206.807602,165.376236 207.367035,166.204391 207.981552,167.372406 
	C212.191284,173.548050 217.042984,178.101898 225.376434,176.970276 
	C228.533478,175.350113 231.317810,173.697388 234.393982,171.856461 
	C235.546661,169.520187 236.407501,167.372116 237.271210,165.194702 
	C237.274063,165.165375 237.224258,165.196701 237.224258,165.196701 
z"/>
<path fill="#8EF8FD" opacity="1.000000" stroke="none" 
	d="
M152.086853,154.873810 
	C156.965424,159.371521 161.195312,164.352737 166.361938,168.011002 
	C174.003555,173.421738 182.310471,177.892822 190.857086,183.183548 
	C193.660217,185.029907 195.940414,186.456696 197.873230,188.087799 
	C195.169357,188.861450 192.836670,189.768677 190.451935,189.936554 
	C183.366028,190.435440 176.259628,190.643356 168.866211,190.795822 
	C164.080048,185.036591 159.588898,179.446518 155.063721,173.482849 
	C153.539841,167.399979 152.050018,161.690704 150.560196,155.981415 
	C150.992523,155.576141 151.424835,155.170868 152.086853,154.873810 
z"/>
<path fill="#6EFEFB" opacity="1.000000" stroke="none" 
	d="
M177.899353,160.088547 
	C175.821945,157.777649 173.744537,155.466736 171.420105,152.922272 
	C170.632156,148.355942 170.091263,144.023132 169.758789,139.363129 
	C176.245850,139.033813 182.524460,139.031677 189.249512,139.044739 
	C189.695938,139.059952 189.925125,138.991989 189.967896,139.435883 
	C190.702240,145.897369 191.393829,151.914978 191.834747,158.239319 
	C187.022507,159.060211 182.460922,159.574371 177.899353,160.088547 
z"/>
<path fill="#03E0F4" opacity="1.000000" stroke="none" 
	d="
M150.142700,155.984894 
	C152.050018,161.690704 153.539841,167.399979 154.761383,173.709702 
	C152.078110,175.187149 149.663147,176.064163 147.098755,176.913193 
	C146.949341,176.885193 146.650253,176.830551 146.514587,176.504822 
	C145.282791,174.727936 144.186676,173.276794 143.086761,171.506317 
	C142.719391,170.458084 142.355804,169.729187 141.971497,168.674088 
	C141.293365,167.231766 140.635971,166.115646 139.946014,164.669571 
	C139.580948,163.559174 139.248444,162.778748 138.964539,161.641968 
	C138.360458,159.819305 137.707809,158.352997 137.027893,156.661469 
	C137.000626,156.436279 136.885178,155.997528 136.885178,155.997528 
	C136.977158,155.835602 137.069138,155.673660 137.278519,155.258240 
	C141.505676,155.332642 145.615448,155.660522 150.142700,155.984894 
z"/>
<path fill="#01D4F6" opacity="1.000000" stroke="none" 
	d="
M192.085419,157.932587 
	C191.393829,151.914978 190.702240,145.897369 190.086090,139.418030 
	C194.477615,139.245377 198.793701,139.534439 203.509476,139.910889 
	C203.934296,141.066864 203.959442,142.135437 203.952820,143.993317 
	C203.948227,145.855042 203.975418,146.927475 203.901611,148.435333 
	C203.973053,151.239960 204.145477,153.609177 204.272522,156.340042 
	C204.450485,158.134109 204.673813,159.566498 204.897141,160.998901 
	C201.886551,161.274277 198.875946,161.549667 195.265930,161.668884 
	C193.806137,160.319351 192.945770,159.125961 192.085419,157.932587 
z"/>
<path fill="#2D221F" opacity="1.000000" stroke="none" 
	d="
M243.675613,176.120651 
	C241.721069,172.685349 239.766541,169.250046 237.667725,165.488113 
	C241.243210,168.280518 245.578781,170.901062 248.576614,174.604462 
	C261.902161,191.066360 269.057800,210.433640 273.894958,230.785522 
	C275.274200,236.588608 276.592163,242.406250 277.653778,248.510880 
	C275.917908,247.864792 274.466522,246.925034 272.949890,245.648743 
	C272.592133,244.207352 272.299530,243.102524 272.137634,241.708618 
	C272.511414,240.613647 272.754486,239.807739 272.923615,238.628540 
	C271.589172,233.609558 270.279022,228.976654 269.077148,224.315826 
	C264.891418,208.083679 258.488159,192.873642 248.232254,179.486740 
	C247.128815,178.046432 245.214020,177.227722 243.675613,176.120651 
z"/>
<path fill="#2D221F" opacity="1.000000" stroke="none" 
	d="
M204.002594,147.999893 
	C203.975418,146.927475 203.948227,145.855042 204.017365,144.389969 
	C215.583847,147.348770 225.670822,153.300568 234.976273,160.637833 
	C236.029160,161.468018 236.403473,163.158752 237.158356,164.823578 
	C237.224258,165.196701 237.274063,165.165375 236.892944,165.113556 
	C234.348572,163.880936 232.203476,162.665314 230.018845,161.525436 
	C221.353470,157.004059 212.675751,152.506363 204.002594,147.999893 
z"/>
<path fill="#2D2928" opacity="1.000000" stroke="none" 
	d="
M273.015106,245.985275 
	C274.466522,246.925034 275.917908,247.864792 277.679779,248.907639 
	C277.995667,250.074066 278.001099,251.137390 277.875275,252.824219 
	C278.493103,253.969055 279.242188,254.490402 279.991272,255.011749 
	C279.992065,255.453735 279.992859,255.895721 279.994812,256.669220 
	C280.163055,259.159576 280.299225,261.321411 280.506287,263.476410 
	C280.695190,265.442017 280.960999,267.400238 280.761719,269.681122 
	C279.884796,270.001099 279.439117,270.001648 278.920532,269.629456 
	C278.561890,267.506714 278.276123,265.756744 277.966064,263.674194 
	C277.297272,262.559021 276.652740,261.776398 276.006836,260.594971 
	C276.000336,259.132904 275.995300,258.069672 275.966949,256.626678 
	C274.967499,252.826385 273.991302,249.405823 273.015106,245.985275 
z"/>
<path fill="#2D221F" opacity="1.000000" stroke="none" 
	d="
M279.903442,254.722168 
	C279.242188,254.490402 278.493103,253.969055 277.878235,253.223175 
	C278.613495,253.476608 279.214569,253.954590 279.903442,254.722168 
z"/>
<path fill="#2D221F" opacity="1.000000" stroke="none" 
	d="
M136.546783,156.071472 
	C136.885178,155.997528 137.000626,156.436279 136.850327,156.955109 
	C136.137115,158.082672 135.666031,158.826691 134.997772,159.280182 
	C121.338852,168.549210 112.582039,181.805862 104.982956,196.023438 
	C97.102516,210.767410 93.865601,226.983444 90.008614,243.005493 
	C90.008614,243.005493 90.003029,243.503815 89.998650,243.752975 
	C89.463501,242.796783 88.276527,241.452072 88.498573,240.406616 
	C93.223228,218.161621 99.569321,196.463852 113.241180,177.825897 
	C119.510857,169.278870 126.411987,161.098953 136.546783,156.071472 
z"/>
<path fill="#2D221F" opacity="1.000000" stroke="none" 
	d="
M88.749573,246.061859 
	C88.790886,246.523697 88.589073,247.050598 88.196465,247.789337 
	C88.172600,247.376434 88.339523,246.751694 88.749573,246.061859 
z"/>
<path fill="#2D2E2F" opacity="1.000000" stroke="none" 
	d="
M278.993408,270.002228 
	C279.439117,270.001648 279.884796,270.001099 280.664978,270.000549 
	C280.999725,270.444611 281.000031,270.888641 281.000977,271.665955 
	C281.000641,272.443848 280.999634,272.888519 280.834839,273.879578 
	C280.781525,275.284149 280.891968,276.142334 281.002380,277.333344 
	C281.003540,278.109985 281.004761,278.553741 281.004761,279.441345 
	C281.115723,281.708801 281.229126,283.532440 281.339783,285.356171 
	C281.842010,293.634216 283.024933,301.940521 282.684296,310.183777 
	C282.182739,322.319946 279.408752,334.035278 275.168152,345.591217 
	C268.805786,362.929199 258.663086,377.488068 243.593994,387.538513 
	C232.814240,394.728119 220.404480,399.728302 208.262711,404.548462 
	C196.552887,409.197113 184.134918,410.035797 171.467224,408.142853 
	C157.561249,406.064880 144.968353,400.487701 132.469177,394.653351 
	C118.263741,388.022552 107.094055,377.534576 98.885880,364.384491 
	C90.736511,351.328644 85.635094,336.928955 83.334015,321.567963 
	C81.695343,310.628937 82.404282,299.827606 84.222809,289.350769 
	C85.293747,300.273041 85.532280,310.938538 87.119026,321.399506 
	C90.789284,345.596466 100.281013,366.813110 119.887962,382.725952 
	C128.947433,390.078552 139.078827,395.247742 149.640808,399.803467 
	C169.135330,408.212006 188.975739,408.503967 208.998749,401.977509 
	C223.687332,397.189819 236.970642,390.122986 248.329788,379.266113 
	C256.240204,371.705444 263.296753,363.807739 267.916718,353.815155 
	C274.183594,340.260406 278.386932,326.081238 279.513855,311.239258 
	C280.173065,302.556732 279.220947,293.751831 278.994202,284.669128 
	C278.993774,283.892639 278.992920,283.449005 278.991516,282.578461 
	C278.991821,278.101807 278.992615,274.052002 278.993408,270.002228 
z"/>
<path fill="#2D2624" opacity="1.000000" stroke="none" 
	d="
M283.006104,281.993896 
	C283.998352,283.779968 285.513214,285.459290 285.903229,287.368347 
	C290.578613,310.255737 287.751343,332.172150 278.309235,353.617950 
	C267.118652,379.035004 248.452820,395.898468 222.760010,405.622925 
	C210.847153,410.131805 198.644470,413.383209 185.923782,413.795929 
	C173.579391,414.196411 161.303696,412.910492 149.607742,408.591858 
	C135.523727,403.391449 121.749794,397.602325 110.486214,387.132568 
	C100.869751,378.193878 93.034554,368.039032 87.574387,356.063812 
	C79.774117,338.956238 75.684242,321.112976 77.058159,302.250854 
	C77.455551,296.795105 78.448250,291.375031 79.362671,285.971527 
	C79.530045,284.982513 80.637520,284.152588 81.644226,283.545532 
	C80.023354,297.822510 78.124329,311.797028 81.011909,325.897064 
	C85.013565,345.437073 92.132652,363.449158 105.866585,378.417694 
	C116.225906,389.708344 128.800980,397.102203 143.015976,402.801880 
	C166.769531,412.326141 190.315125,413.923553 214.557297,405.358582 
	C229.921188,399.930359 244.455490,393.333038 256.126129,381.450928 
	C266.731232,370.653778 273.537079,357.806396 279.099915,343.851929 
	C283.652985,332.430420 285.198212,320.645233 285.553375,308.750092 
	C285.818695,299.864624 283.933624,290.914978 283.006104,281.993896 
z"/>
<path fill="#2D2928" opacity="1.000000" stroke="none" 
	d="
M283.005402,281.619629 
	C283.933624,290.914978 285.818695,299.864624 285.553375,308.750092 
	C285.198212,320.645233 283.652985,332.430420 279.099915,343.851929 
	C273.537079,357.806396 266.731232,370.653778 256.126129,381.450928 
	C244.455490,393.333038 229.921188,399.930359 214.557297,405.358582 
	C190.315125,413.923553 166.769531,412.326141 143.015976,402.801880 
	C128.800980,397.102203 116.225906,389.708344 105.866585,378.417694 
	C92.132652,363.449158 85.013565,345.437073 81.011909,325.897064 
	C78.124329,311.797028 80.023354,297.822510 81.985283,283.417908 
	C81.994217,282.245270 81.995285,281.496674 82.248596,280.374115 
	C82.668816,280.000427 82.836784,280.000671 83.213425,280.303467 
	C83.616608,282.071991 83.811127,283.537933 84.005280,285.403534 
	C84.004219,286.869171 84.003532,287.935089 84.002846,289.001038 
	C82.404282,299.827606 81.695343,310.628937 83.334015,321.567963 
	C85.635094,336.928955 90.736511,351.328644 98.885880,364.384491 
	C107.094055,377.534576 118.263741,388.022552 132.469177,394.653351 
	C144.968353,400.487701 157.561249,406.064880 171.467224,408.142853 
	C184.134918,410.035797 196.552887,409.197113 208.262711,404.548462 
	C220.404480,399.728302 232.814240,394.728119 243.593994,387.538513 
	C258.663086,377.488068 268.805786,362.929199 275.168152,345.591217 
	C279.408752,334.035278 282.182739,322.319946 282.684296,310.183777 
	C283.024933,301.940521 281.842010,293.634216 281.339783,285.356171 
	C281.229126,283.532440 281.115723,281.708801 281.337708,279.441772 
	C282.115845,278.998688 282.559906,278.998932 283.003967,278.999176 
	C283.004211,279.747894 283.004425,280.496643 283.005402,281.619629 
z"/>
<path fill="#2D2624" opacity="1.000000" stroke="none" 
	d="
M83.004761,280.000885 
	C82.836784,280.000671 82.668816,280.000427 82.248840,279.999695 
	C81.912460,278.857697 81.828079,277.716187 81.872894,276.286713 
	C82.170662,275.999298 82.339226,275.999847 82.758331,276.400940 
	C83.007507,277.867981 83.006134,278.934418 83.004761,280.000885 
z"/>
<path fill="#2D2928" opacity="1.000000" stroke="none" 
	d="
M281.002441,277.000488 
	C280.891968,276.142334 280.781525,275.284149 280.833710,274.213318 
	C281.440826,274.000488 281.885345,274.000336 282.663086,274.000092 
	C282.996857,274.444366 282.997406,274.888763 282.747192,275.789062 
	C281.998444,276.496826 281.500458,276.748657 281.002441,277.000488 
z"/>
<path fill="#2D2624" opacity="1.000000" stroke="none" 
	d="
M281.002380,277.333344 
	C281.500458,276.748657 281.998444,276.496826 282.747009,276.122314 
	C283.108154,276.857758 283.218658,277.715820 283.166565,278.786560 
	C282.559906,278.998932 282.115845,278.998688 281.338867,278.997986 
	C281.004761,278.553741 281.003540,278.109985 281.002380,277.333344 
z"/>
<path fill="#2D3235" opacity="1.000000" stroke="none" 
	d="
M84.222809,289.350769 
	C84.003532,287.935089 84.004219,286.869171 84.344994,285.239990 
	C85.123528,280.784515 85.561966,276.892242 86.000412,273.000000 
	C86.003105,271.935120 86.005791,270.870270 86.315414,269.290344 
	C87.078400,267.847839 87.534462,266.920441 87.990524,265.993011 
	C87.991318,265.550140 87.992119,265.107239 88.216103,264.051025 
	C91.624161,254.290222 94.809044,245.142746 97.996918,235.663849 
	C98.003029,234.890564 98.006157,234.448654 98.331451,233.897583 
	C100.588310,230.215927 103.376259,226.851471 104.306900,223.034210 
	C107.934448,208.154922 114.990326,195.072632 124.569481,183.398193 
	C129.348633,177.573685 134.201813,171.385056 141.992218,169.000305 
	C142.355804,169.729187 142.719391,170.458084 142.898254,171.797104 
	C128.661285,182.213913 119.488647,195.850433 112.458588,211.128342 
	C108.180046,220.426575 104.249336,229.888275 99.832642,239.118759 
	C93.020416,253.355713 89.014984,268.274139 88.012970,284.343201 
	C88.012291,285.115692 88.011230,285.557098 87.787369,286.347046 
	C86.135635,298.701599 87.556877,310.478455 90.068047,322.233521 
	C96.974091,354.561432 113.043388,379.750977 143.816925,394.556854 
	C165.306198,404.895813 186.944839,407.249817 209.517670,399.308075 
	C232.062561,391.376221 250.589752,378.296417 262.320251,356.954193 
	C272.002228,339.338989 277.076019,320.365814 278.013611,300.279541 
	C278.251495,295.182861 278.662323,290.094299 278.993713,285.001984 
	C279.220947,293.751831 280.173065,302.556732 279.513855,311.239258 
	C278.386932,326.081238 274.183594,340.260406 267.916718,353.815155 
	C263.296753,363.807739 256.240204,371.705444 248.329788,379.266113 
	C236.970642,390.122986 223.687332,397.189819 208.998749,401.977509 
	C188.975739,408.503967 169.135330,408.212006 149.640808,399.803467 
	C139.078827,395.247742 128.947433,390.078552 119.887962,382.725952 
	C100.281013,366.813110 90.789284,345.596466 87.119026,321.399506 
	C85.532280,310.938538 85.293747,300.273041 84.222809,289.350769 
z"/>
<path fill="#2D2624" opacity="1.000000" stroke="none" 
	d="
M90.381828,243.004135 
	C93.865601,226.983444 97.102516,210.767410 104.982956,196.023438 
	C112.582039,181.805862 121.338852,168.549210 134.997772,159.280182 
	C135.666031,158.826691 136.137115,158.082672 136.877594,157.180313 
	C137.707809,158.352997 138.360458,159.819305 138.608887,161.667480 
	C134.054016,165.013504 129.312057,167.412827 125.851227,171.035919 
	C107.126244,190.638779 98.368866,215.055222 93.004166,241.336639 
	C93.000511,242.111465 92.997833,242.554214 92.995155,242.996948 
	C92.248451,242.998886 91.501747,243.000839 90.381828,243.004135 
z"/>
<path fill="#2D2E2F" opacity="1.000000" stroke="none" 
	d="
M92.921997,243.369537 
	C92.997833,242.554214 93.000511,242.111465 93.277260,241.149597 
	C95.032204,239.085403 96.513077,237.540329 97.993942,235.995270 
	C94.809044,245.142746 91.624161,254.290222 88.217087,263.718872 
	C89.124573,258.814636 90.221939,253.621872 91.403183,248.448242 
	C91.767479,246.852692 92.360527,245.309357 92.921997,243.369537 
z"/>
<path fill="#2D2E2F" opacity="1.000000" stroke="none" 
	d="
M85.794434,273.238403 
	C85.561966,276.892242 85.123528,280.784515 84.345367,284.840302 
	C83.811127,283.537933 83.616608,282.071991 83.213425,280.303467 
	C83.006134,278.934418 83.007507,277.867981 83.011185,276.401672 
	C83.871803,275.160156 84.730125,274.318481 85.794434,273.238403 
z"/>
<path fill="#2D2E2F" opacity="1.000000" stroke="none" 
	d="
M87.684219,266.108643 
	C87.534462,266.920441 87.078400,267.847839 86.316238,268.891022 
	C86.466049,268.079285 86.921974,267.151794 87.684219,266.108643 
z"/>
<path fill="#01F0F4" opacity="1.000000" stroke="none" 
	d="
M198.220612,187.883453 
	C195.940414,186.456696 193.660217,185.029907 191.170700,183.337860 
	C193.562637,182.047073 196.147583,180.185577 198.767899,180.134369 
	C213.570419,179.845123 228.381454,179.990204 243.857941,180.196106 
	C244.719498,180.935852 244.912659,181.466812 245.055817,182.424454 
	C245.121399,184.562683 245.237000,186.274200 245.258118,188.395111 
	C245.145706,190.201675 245.127777,191.598877 244.978104,193.296387 
	C244.509323,194.399323 244.172256,195.201935 243.426224,195.967621 
	C231.074997,195.934647 219.132721,195.938614 206.911316,195.754944 
	C203.828323,193.006042 201.024475,190.444748 198.220612,187.883453 
z"/>
<path fill="#2D2928" opacity="1.000000" stroke="none" 
	d="
M203.901611,148.435333 
	C212.675751,152.506363 221.353470,157.004059 230.018845,161.525436 
	C232.203476,162.665314 234.348572,163.880936 236.890091,165.142899 
	C236.407501,167.372116 235.546661,169.520187 234.048721,171.774048 
	C231.848816,170.951920 230.315689,169.969070 228.718170,169.105316 
	C220.593903,164.712708 212.452988,160.350937 204.317886,155.978378 
	C204.145477,153.609177 203.973053,151.239960 203.901611,148.435333 
z"/>
<path fill="#2D3235" opacity="1.000000" stroke="none" 
	d="
M204.272522,156.340042 
	C212.452988,160.350937 220.593903,164.712708 228.718170,169.105316 
	C230.315689,169.969070 231.848816,170.951920 233.756882,171.962250 
	C231.317810,173.697388 228.533478,175.350113 225.289276,176.642090 
	C219.195099,173.198395 213.560791,170.115479 207.926483,167.032562 
	C207.367035,166.204391 206.807602,165.376236 206.032837,164.081909 
	C205.667618,163.386597 205.487015,163.184921 205.275711,163.010742 
	C205.232300,162.554092 205.188889,162.097427 205.021301,161.319839 
	C204.673813,159.566498 204.450485,158.134109 204.272522,156.340042 
z"/>
<path fill="#2D2624" opacity="1.000000" stroke="none" 
	d="
M245.105835,181.997757 
	C244.912659,181.466812 244.719498,180.935852 244.335693,180.194702 
	C244.017593,178.955643 243.890106,177.926804 243.719116,176.509308 
	C245.214020,177.227722 247.128815,178.046432 248.232254,179.486740 
	C258.488159,192.873642 264.891418,208.083679 269.077148,224.315826 
	C270.279022,228.976654 271.589172,233.609558 272.549530,238.628082 
	C271.501221,238.999619 270.753052,238.998337 270.003296,238.747971 
	C270.001740,238.498871 269.998779,238.000687 269.990417,237.589127 
	C266.772278,219.722458 261.472656,203.007233 251.804047,187.976761 
	C250.243744,185.551208 247.371582,183.969528 245.105835,181.997757 
z"/>
<path fill="#5FFEFA" opacity="1.000000" stroke="none" 
	d="
M191.834747,158.239319 
	C192.945770,159.125961 193.806137,160.319351 194.875610,161.755463 
	C196.097244,163.673721 197.109756,165.349228 198.538528,167.713593 
	C190.275269,168.289291 183.829544,165.790726 178.074402,160.376312 
	C182.460922,159.574371 187.022507,159.060211 191.834747,158.239319 
z"/>
<path fill="#2D3F47" opacity="1.000000" stroke="none" 
	d="
M207.981552,167.372406 
	C213.560791,170.115479 219.195099,173.198395 224.916565,176.609528 
	C217.042984,178.101898 212.191284,173.548050 207.981552,167.372406 
z"/>
<path fill="#2D3F47" opacity="1.000000" stroke="none" 
	d="
M205.207733,163.262390 
	C205.487015,163.184921 205.667618,163.386597 205.910889,163.796707 
	C205.716095,163.823105 205.427917,163.668579 205.207733,163.262390 
z"/>
<path fill="#8AFFFC" opacity="1.000000" stroke="none" 
	d="
M197.873230,188.087799 
	C201.024475,190.444748 203.828323,193.006042 207.015411,196.072403 
	C208.923737,199.384613 210.448822,202.191742 211.549469,205.009048 
	C201.121262,205.003876 191.117477,204.988525 180.864105,204.748932 
	C178.128754,201.667557 175.642990,198.810425 173.007202,195.664520 
	C171.625183,193.905487 170.393219,192.435226 169.161240,190.964966 
	C176.259628,190.643356 183.366028,190.435440 190.451935,189.936554 
	C192.836670,189.768677 195.169357,188.861450 197.873230,188.087799 
z"/>
<path fill="#01F0F4" opacity="1.000000" stroke="none" 
	d="
M168.866211,190.795807 
	C170.393219,192.435226 171.625183,193.905487 172.625198,195.742050 
	C170.175674,196.764938 167.958115,197.421524 165.509583,197.956604 
	C164.868805,197.524490 164.458969,197.213898 163.919830,196.600769 
	C161.849701,194.232910 159.908859,192.167572 157.807159,189.823700 
	C156.363937,188.226379 155.081558,186.907578 153.633270,185.310135 
	C152.191620,183.630615 150.915894,182.229721 149.501007,180.530029 
	C148.657288,179.134552 147.952744,178.037872 147.248184,176.941193 
	C149.663147,176.064163 152.078110,175.187149 154.795410,174.083282 
	C159.588898,179.446518 164.080048,185.036591 168.866211,190.795807 
z"/>
<path fill="#2D3F47" opacity="1.000000" stroke="none" 
	d="
M147.098755,176.913193 
	C147.952744,178.037872 148.657288,179.134552 149.116272,180.610352 
	C144.562515,184.387375 140.254349,187.785294 135.552460,191.161224 
	C134.769058,192.758865 134.379364,194.378510 133.654831,196.075012 
	C132.120941,197.242523 130.609711,198.135254 129.772751,199.455429 
	C123.640762,209.127792 117.622131,218.872360 111.608887,228.619553 
	C98.346992,250.116501 92.085724,273.659576 92.679573,298.751526 
	C93.161667,319.122101 98.629913,338.456787 108.507591,356.373016 
	C109.569054,358.298340 111.971344,359.484406 113.918343,361.340820 
	C115.183746,364.380371 116.282463,367.092407 117.020004,369.787476 
	C114.289917,367.783295 110.993332,366.264648 109.712097,363.728027 
	C104.052940,352.523987 97.548019,341.440735 94.088562,329.518890 
	C90.677994,317.765503 90.570351,305.054749 88.997375,292.766113 
	C88.707970,290.505157 88.341225,288.254150 88.010178,285.998535 
	C88.011230,285.557098 88.012291,285.115692 88.345840,284.189819 
	C89.451416,280.735687 90.161705,277.747986 91.008789,274.799530 
	C94.196411,263.704437 96.688286,252.332733 100.873917,241.624863 
	C104.339577,232.758850 110.472160,224.960327 114.241829,216.181580 
	C118.552238,206.143539 123.575455,196.611282 131.037155,188.765305 
	C135.495392,184.077469 141.397293,180.762589 146.650253,176.830551 
	C146.650253,176.830551 146.949341,176.885193 147.098755,176.913193 
z"/>
<path fill="#2D373C" opacity="1.000000" stroke="none" 
	d="
M146.514587,176.504822 
	C141.397293,180.762589 135.495392,184.077469 131.037155,188.765305 
	C123.575455,196.611282 118.552238,206.143539 114.241829,216.181580 
	C110.472160,224.960327 104.339577,232.758850 100.873917,241.624863 
	C96.688286,252.332733 94.196411,263.704437 91.008789,274.799530 
	C90.161705,277.747986 89.451416,280.735687 88.345459,283.858765 
	C89.014984,268.274139 93.020416,253.355713 99.832642,239.118759 
	C104.249336,229.888275 108.180046,220.426575 112.458588,211.128342 
	C119.488647,195.850433 128.661285,182.213913 142.902039,172.116455 
	C144.186676,173.276794 145.282791,174.727936 146.514587,176.504822 
z"/>
<path fill="#2D2928" opacity="1.000000" stroke="none" 
	d="
M97.996925,235.663864 
	C96.513077,237.540329 95.032204,239.085403 93.278244,240.817505 
	C98.368866,215.055222 107.126244,190.638779 125.851227,171.035919 
	C129.312057,167.412827 134.054016,165.013504 138.560318,162.023834 
	C139.248444,162.778748 139.580948,163.559174 139.610504,164.746414 
	C134.418457,169.283600 128.931686,172.887939 124.749039,177.640121 
	C110.511429,193.816391 102.560783,213.145813 98.009277,234.006760 
	C98.006157,234.448654 98.003029,234.890564 97.996925,235.663864 
z"/>
<path fill="#2D2E2F" opacity="1.000000" stroke="none" 
	d="
M98.331451,233.897583 
	C102.560783,213.145813 110.511429,193.816391 124.749039,177.640121 
	C128.931686,172.887939 134.418457,169.283600 139.643066,165.076370 
	C140.635971,166.115646 141.293365,167.231766 141.971497,168.674088 
	C134.201813,171.385056 129.348633,177.573685 124.569481,183.398193 
	C114.990326,195.072632 107.934448,208.154922 104.306900,223.034210 
	C103.376259,226.851471 100.588310,230.215927 98.331451,233.897583 
z"/>
<path fill="#2D2E2F" opacity="1.000000" stroke="none" 
	d="
M269.998779,238.000687 
	C269.998779,238.000687 270.001740,238.498871 270.063721,239.056168 
	C270.752808,240.408203 271.379883,241.202942 272.006958,241.997681 
	C272.299530,243.102524 272.592133,244.207352 272.949890,245.648743 
	C273.991302,249.405823 274.967499,252.826385 275.645111,256.498474 
	C272.897217,250.167114 270.447876,243.584229 268.250000,237.123367 
	C269.000580,237.497147 269.499695,237.748917 269.998779,238.000687 
z"/>
<path fill="#2D2928" opacity="1.000000" stroke="none" 
	d="
M272.137634,241.708618 
	C271.379883,241.202942 270.752808,240.408203 270.065308,239.305267 
	C270.753052,238.998337 271.501221,238.999619 272.623474,239.001373 
	C272.754486,239.807739 272.511414,240.613647 272.137634,241.708618 
z"/>
<path fill="#2D3235" opacity="1.000000" stroke="none" 
	d="
M267.998535,237.001343 
	C270.447876,243.584229 272.897217,250.167114 275.668396,256.878204 
	C275.995300,258.069672 276.000336,259.132904 276.031372,260.927521 
	C276.701691,262.441498 277.346039,263.224121 277.990356,264.006744 
	C278.276123,265.756744 278.561890,267.506714 278.920532,269.629456 
	C278.992615,274.052002 278.991821,278.101807 278.656860,282.422363 
	C277.856384,281.510223 277.133148,280.363159 276.962097,279.138977 
	C274.184937,259.262238 268.452759,240.497665 256.682129,223.912445 
	C255.665680,222.480209 255.405502,220.523407 254.726288,218.837555 
	C251.782959,211.531998 250.828430,203.189545 243.931915,197.636826 
	C243.932800,196.875183 243.883987,196.439865 243.835190,196.004547 
	C244.172256,195.201935 244.509323,194.399323 245.324890,193.331390 
	C247.274628,194.533844 249.352219,195.741241 250.113342,197.513885 
	C253.635590,205.717072 256.645142,214.139923 260.146027,222.352936 
	C261.726318,226.060287 264.024078,229.461807 266.135742,233.289291 
	C266.849609,234.718124 267.424072,235.859726 267.998535,237.001343 
z"/>
<path fill="#2D2E2F" opacity="1.000000" stroke="none" 
	d="
M277.966064,263.674194 
	C277.346039,263.224121 276.701691,262.441498 276.032806,261.326355 
	C276.652740,261.776398 277.297272,262.559021 277.966064,263.674194 
z"/>
<path fill="#2D373C" opacity="1.000000" stroke="none" 
	d="
M243.882202,197.963150 
	C250.828430,203.189545 251.782959,211.531998 254.726288,218.837555 
	C255.405502,220.523407 255.665680,222.480209 256.682129,223.912445 
	C268.452759,240.497665 274.184937,259.262238 276.962097,279.138977 
	C277.133148,280.363159 277.856384,281.510223 278.657379,282.849243 
	C278.992920,283.449005 278.993774,283.892639 278.994141,284.669128 
	C278.662323,290.094299 278.251495,295.182861 278.013611,300.279541 
	C277.076019,320.365814 272.002228,339.338989 262.320251,356.954193 
	C250.589752,378.296417 232.062561,391.376221 209.517670,399.308075 
	C186.944839,407.249817 165.306198,404.895813 143.816925,394.556854 
	C113.043388,379.750977 96.974091,354.561432 90.068047,322.233521 
	C87.556877,310.478455 86.135635,298.701599 87.787369,286.347046 
	C88.341225,288.254150 88.707970,290.505157 88.997375,292.766113 
	C90.570351,305.054749 90.677994,317.765503 94.088562,329.518890 
	C97.548019,341.440735 104.052940,352.523987 109.712097,363.728027 
	C110.993332,366.264648 114.289917,367.783295 117.190399,369.825592 
	C117.721970,369.880676 118.055290,369.984802 118.100632,370.327576 
	C124.068192,381.322113 133.366852,387.278717 145.085999,390.326721 
	C145.930679,391.501740 146.533081,392.693726 147.478485,393.113861 
	C163.170959,400.087250 179.573593,403.551147 196.495316,399.666504 
	C206.122345,397.456482 215.455597,393.564545 224.572876,389.624207 
	C240.928604,382.555573 252.871399,370.298431 260.963837,354.722504 
	C270.750763,335.885010 275.767120,315.840057 275.294373,294.271118 
	C274.882385,275.474487 271.071747,257.676575 263.262207,240.772476 
	C258.391266,230.229065 252.559555,220.127747 247.101135,209.858795 
	C245.787766,207.387939 244.244553,205.039261 242.824005,202.271118 
	C243.188049,200.592941 243.535126,199.278046 243.882202,197.963150 
z"/>
<path fill="#01FAF3" opacity="1.000000" stroke="none" 
	d="
M243.931915,197.636826 
	C243.535126,199.278046 243.188049,200.592941 242.579620,202.522888 
	C241.264389,205.422852 240.210510,207.707779 239.056000,210.248993 
	C238.880539,210.863480 238.805710,211.221680 238.473663,211.790375 
	C237.730011,212.971466 237.243576,213.942047 236.520691,215.042786 
	C236.124619,215.680222 235.965012,216.187515 235.555695,216.865326 
	C234.602219,217.714813 233.898453,218.393768 232.773376,218.980988 
	C228.628998,218.593018 224.897079,218.378403 221.185791,217.974167 
	C218.336899,217.663849 215.514069,217.114487 212.698227,216.239197 
	C212.469177,212.204254 212.221542,208.601562 211.973907,204.998871 
	C210.448822,202.191742 208.923737,199.384613 207.294556,196.260025 
	C219.132721,195.938614 231.074997,195.934647 243.426224,195.967621 
	C243.883987,196.439865 243.932800,196.875183 243.931915,197.636826 
z"/>
<path fill="#2D2928" opacity="1.000000" stroke="none" 
	d="
M268.250000,237.123367 
	C267.424072,235.859726 266.849609,234.718124 266.129089,232.885742 
	C262.783630,217.874908 258.905670,203.795990 250.277191,191.608215 
	C249.159698,190.029724 247.019226,189.175461 245.352615,187.985733 
	C245.237000,186.274200 245.121399,184.562683 245.055817,182.424454 
	C247.371582,183.969528 250.243744,185.551208 251.804047,187.976761 
	C261.472656,203.007233 266.772278,219.722458 269.990417,237.589127 
	C269.499695,237.748917 269.000580,237.497147 268.250000,237.123367 
z"/>
<path fill="#2D2E2F" opacity="1.000000" stroke="none" 
	d="
M245.258118,188.395111 
	C247.019226,189.175461 249.159698,190.029724 250.277191,191.608215 
	C258.905670,203.795990 262.783630,217.874908 265.989685,232.598511 
	C264.024078,229.461807 261.726318,226.060287 260.146027,222.352936 
	C256.645142,214.139923 253.635590,205.717072 250.113342,197.513885 
	C249.352219,195.741241 247.274628,194.533844 245.456619,193.031082 
	C245.127777,191.598877 245.145706,190.201675 245.258118,188.395111 
z"/>
<path fill="#82FFFB" opacity="1.000000" stroke="none" 
	d="
M211.549484,205.009048 
	C212.221542,208.601562 212.469177,212.204254 212.512543,216.558563 
	C210.460754,222.803467 208.613220,228.296738 206.543030,234.055725 
	C204.174408,239.865112 202.028458,245.408783 199.674316,251.255966 
	C198.559113,255.046738 197.652100,258.533997 196.292419,262.017151 
	C179.176346,262.009399 162.512924,262.021179 145.849579,261.987946 
	C142.807755,261.981903 140.014084,262.142761 139.631073,266.006134 
	C136.989090,261.818451 134.632462,257.824036 132.253113,253.390411 
	C131.360199,245.424561 133.697891,238.604660 137.016693,231.782379 
	C137.818817,231.727203 138.458221,231.854721 139.068878,232.379395 
	C141.634033,238.233215 143.333084,244.410309 147.018646,248.988113 
	C153.554016,257.105713 165.601486,259.326111 174.821579,255.518112 
	C184.578003,251.488602 190.027786,243.254913 189.792206,232.558777 
	C189.009781,227.979996 188.176926,223.818726 187.240814,219.304184 
	C185.129608,214.291656 183.121658,209.632401 181.113693,204.973160 
	C191.117477,204.988525 201.121262,205.003876 211.549484,205.009048 
z"/>
<path fill="#01FAF3" opacity="1.000000" stroke="none" 
	d="
M180.864105,204.748932 
	C183.121658,209.632401 185.129608,214.291656 186.873688,219.571564 
	C182.266052,220.423935 177.922302,220.655609 173.601227,220.483521 
	C173.355667,217.711060 173.087433,215.342407 172.794312,212.613983 
	C171.520630,209.501892 170.271790,206.749573 168.943268,203.666809 
	C167.822556,201.583618 166.781555,199.830856 165.740540,198.078094 
	C167.958115,197.421524 170.175674,196.764938 172.775238,196.030823 
	C175.642990,198.810425 178.128754,201.667557 180.864105,204.748932 
z"/>
<path fill="#2D596A" opacity="1.000000" stroke="none" 
	d="
M157.968002,190.102234 
	C159.908859,192.167572 161.849701,194.232910 163.789169,196.929901 
	C158.019592,200.114868 152.251404,202.668167 146.331573,204.923523 
	C145.482269,202.746033 144.784576,200.866516 144.421143,198.906372 
	C149.159622,195.917923 153.563812,193.010086 157.968002,190.102234 
z"/>
<path fill="#2E677A" opacity="1.000000" stroke="none" 
	d="
M146.483200,205.221466 
	C152.251404,202.668167 158.019592,200.114868 163.918457,197.232437 
	C164.458969,197.213898 164.868805,197.524490 165.509583,197.956589 
	C166.781555,199.830856 167.822556,201.583618 168.543640,203.703552 
	C161.240051,206.366486 154.256393,208.662262 147.192841,210.551193 
	C146.903061,208.503372 146.693130,206.862427 146.483200,205.221466 
z"/>
<path fill="#2D4D59" opacity="1.000000" stroke="none" 
	d="
M157.807159,189.823700 
	C153.563812,193.010086 149.159622,195.917923 144.196899,198.694366 
	C142.647919,197.288162 141.657501,196.013367 140.849472,194.399994 
	C145.287643,191.237213 149.543411,188.412994 153.799164,185.588776 
	C155.081558,186.907578 156.363937,188.226379 157.807159,189.823700 
z"/>
<path fill="#2D4550" opacity="1.000000" stroke="none" 
	d="
M153.633270,185.310135 
	C149.543411,188.412994 145.287643,191.237213 140.559143,194.233643 
	C138.706329,193.331650 137.326248,192.257446 135.946182,191.183228 
	C140.254349,187.785294 144.562515,184.387375 149.255417,180.909149 
	C150.915894,182.229721 152.191620,183.630615 153.633270,185.310135 
z"/>
<path fill="#2D4550" opacity="1.000000" stroke="none" 
	d="
M113.751656,361.013367 
	C111.971344,359.484406 109.569054,358.298340 108.507591,356.373016 
	C98.629913,338.456787 93.161667,319.122101 92.679573,298.751526 
	C92.085724,273.659576 98.346992,250.116501 111.608887,228.619553 
	C117.622131,218.872360 123.640762,209.127792 129.772751,199.455429 
	C130.609711,198.135254 132.120941,197.242523 133.760773,196.503448 
	C134.040573,198.897903 133.879578,200.940781 133.402618,203.073486 
	C132.303162,203.759888 131.299225,204.205063 130.769699,204.976044 
	C124.205956,214.533127 117.212013,223.841751 111.311996,233.797012 
	C101.671837,250.063126 96.121658,267.961456 95.198143,286.784393 
	C94.154358,308.058502 96.948792,328.956604 106.795990,348.306091 
	C107.911247,350.497559 110.137444,352.123627 111.987778,354.370667 
	C112.668594,356.824127 113.210129,358.918732 113.751656,361.013367 
z"/>
<path fill="#82FFFB" opacity="1.000000" stroke="none" 
	d="
M113.918350,361.340820 
	C113.210129,358.918732 112.668594,356.824127 112.020432,353.991547 
	C111.670601,351.506470 111.427391,349.759308 111.639435,348.010315 
	C118.378944,347.660736 124.663216,347.313049 130.962341,347.402802 
	C131.332001,350.897369 131.686813,353.954529 132.096863,357.372711 
	C133.106689,360.485809 134.061249,363.237854 134.775818,366.296570 
	C131.337830,367.069336 128.116379,367.416473 124.949608,368.040894 
	C122.614517,368.501312 120.350807,369.323700 118.055298,369.984802 
	C118.055290,369.984802 117.721970,369.880676 117.551575,369.842590 
	C116.282463,367.092407 115.183746,364.380371 113.918350,361.340820 
z"/>
<path fill="#01FAF3" opacity="1.000000" stroke="none" 
	d="
M133.718597,202.983673 
	C133.879578,200.940781 134.040573,198.897903 134.095627,196.426575 
	C134.379364,194.378510 134.769058,192.758865 135.552460,191.161224 
	C137.326248,192.257446 138.706329,193.331650 140.376740,194.572220 
	C141.657501,196.013367 142.647919,197.288162 143.862610,198.774963 
	C144.784576,200.866516 145.482269,202.746033 146.331573,204.923523 
	C146.693130,206.862427 146.903061,208.503372 147.122604,210.944641 
	C147.252090,213.832138 147.371933,215.919327 147.055237,218.005310 
	C140.415161,218.003082 134.211624,218.002045 128.087311,217.657623 
	C130.017227,212.537399 131.867905,207.760544 133.718597,202.983673 
z"/>
<path fill="#91FDFC" opacity="1.000000" stroke="none" 
	d="
M118.100632,370.327606 
	C120.350807,369.323700 122.614517,368.501312 124.949608,368.040894 
	C128.116379,367.416473 131.337830,367.069336 135.012238,366.526825 
	C137.035629,368.183319 138.508331,369.989899 140.141861,371.636993 
	C149.262650,380.833649 161.088593,382.552155 172.480957,376.199036 
	C176.390717,374.018738 180.133865,371.520996 183.848160,369.012878 
	C190.861328,364.277161 197.942642,363.688843 205.330002,368.138062 
	C212.030869,372.173767 218.924835,373.112671 226.280167,369.256348 
	C229.580505,370.008789 232.631409,370.356537 235.601242,371.050903 
	C237.486877,371.491760 239.251999,372.448120 241.040863,373.514923 
	C232.715286,383.093292 222.967987,389.415344 209.600754,389.181091 
	C206.130524,388.429535 203.072571,387.795288 199.667023,386.978271 
	C188.405319,383.320496 177.666000,384.643311 166.586853,387.961731 
	C162.448883,388.656586 158.723862,389.362732 154.547607,390.012421 
	C151.065353,389.965485 148.034332,389.975006 145.003296,389.984528 
	C133.366852,387.278717 124.068192,381.322113 118.100632,370.327606 
z"/>
<path fill="#2D3F47" opacity="1.000000" stroke="none" 
	d="
M210.013031,389.298431 
	C222.967987,389.415344 232.715286,383.093292 241.379593,373.435394 
	C244.239700,369.680969 246.730789,366.347656 249.568863,362.988708 
	C251.255920,361.838684 252.965912,360.955444 253.879745,359.553345 
	C264.835205,342.744232 269.671631,323.849365 271.849335,304.229614 
	C272.475555,298.587830 271.324005,292.748657 270.987122,286.668213 
	C270.987183,285.894073 270.987640,285.451721 270.992310,284.561401 
	C269.309753,275.024109 268.049622,265.829437 265.837555,256.869812 
	C262.409851,242.986542 254.893555,230.941040 247.203705,219.101151 
	C245.020996,215.740494 241.865814,213.011429 239.156631,209.992706 
	C240.210510,207.707779 241.264389,205.422852 242.562653,202.886169 
	C244.244553,205.039261 245.787766,207.387939 247.101135,209.858795 
	C252.559555,220.127747 258.391266,230.229065 263.262207,240.772476 
	C271.071747,257.676575 274.882385,275.474487 275.294373,294.271118 
	C275.767120,315.840057 270.750763,335.885010 260.963837,354.722504 
	C252.871399,370.298431 240.928604,382.555573 224.572876,389.624207 
	C215.455597,393.564545 206.122345,397.456482 196.495316,399.666504 
	C179.573593,403.551147 163.170959,400.087250 147.478485,393.113861 
	C146.533081,392.693726 145.930679,391.501740 145.085999,390.326721 
	C148.034332,389.975006 151.065353,389.965485 154.669083,390.338928 
	C156.132065,391.412354 156.920105,392.426575 157.927902,392.744843 
	C173.985214,397.815826 190.086853,397.833405 206.116257,392.688904 
	C207.622742,392.205414 208.723755,390.458649 210.013031,389.298431 
z"/>
<path fill="#2D596A" opacity="1.000000" stroke="none" 
	d="
M233.194702,219.072723 
	C233.898453,218.393768 234.602219,217.714813 235.744080,217.170624 
	C248.578857,233.632126 257.910767,251.382065 261.703369,271.755615 
	C264.585541,287.238312 265.409729,302.726440 261.808533,318.183746 
	C261.319397,320.283325 259.527283,322.079346 258.269348,323.555176 
	C258.077820,318.752838 257.955383,314.411194 258.151764,309.837280 
	C258.972412,308.263153 259.956543,306.900330 259.899231,305.582825 
	C259.470978,295.738129 259.092072,285.877045 258.118927,276.078583 
	C257.807861,272.946533 255.751282,269.987823 254.390900,266.568542 
	C253.932770,264.426422 253.577118,262.665558 253.218475,260.521484 
	C251.746368,256.774109 250.277237,253.409988 249.030533,249.793091 
	C248.769669,247.566879 248.744690,245.308350 247.724747,243.668732 
	C242.974792,236.032913 237.949707,228.568222 233.039749,220.712952 
	C233.102539,219.946640 233.148621,219.509674 233.194702,219.072723 
z"/>
<path fill="#2D515F" opacity="1.000000" stroke="none" 
	d="
M258.338470,324.015900 
	C259.527283,322.079346 261.319397,320.283325 261.808533,318.183746 
	C265.409729,302.726440 264.585541,287.238312 261.703369,271.755615 
	C257.910767,251.382065 248.578857,233.632126 235.993805,217.000076 
	C235.965012,216.187515 236.124619,215.680222 236.870209,215.128311 
	C238.528946,216.069962 239.830887,216.897781 240.639191,218.066895 
	C249.272293,230.553680 256.776733,243.491180 261.403076,258.209442 
	C269.378754,283.583252 268.616302,308.658356 261.107269,333.798645 
	C260.522552,335.756256 258.484497,337.279755 257.080017,338.586212 
	C257.318146,334.449432 257.598175,330.731476 257.970520,326.644226 
	C258.154755,325.521912 258.246613,324.768890 258.338470,324.015900 
z"/>
<path fill="#2D4D59" opacity="1.000000" stroke="none" 
	d="
M257.121918,339.005035 
	C258.484497,337.279755 260.522552,335.756256 261.107269,333.798645 
	C268.616302,308.658356 269.378754,283.583252 261.403076,258.209442 
	C256.776733,243.491180 249.272293,230.553680 240.639191,218.066895 
	C239.830887,216.897781 238.528946,216.069962 237.106659,214.998154 
	C237.243576,213.942047 237.730011,212.971466 238.666107,212.104889 
	C244.640533,220.823547 250.538773,229.225418 255.597794,238.105408 
	C262.281097,249.836472 266.427582,262.529755 268.120575,276.015381 
	C268.505890,279.084991 270.002808,282.015045 270.988098,285.009338 
	C270.987640,285.451721 270.987183,285.894073 270.768616,287.017090 
	C270.366547,289.001404 270.040161,290.302887 270.020081,291.609100 
	C269.750092,309.167938 267.376648,326.345093 260.192780,342.529785 
	C258.974945,345.273407 256.428436,347.427246 254.585114,349.472168 
	C255.075638,347.069336 255.476852,345.047882 256.011566,342.700378 
	C256.470673,341.251221 256.796295,340.128113 257.121918,339.005035 
z"/>
<path fill="#0DFEF3" opacity="1.000000" stroke="none" 
	d="
M232.773376,218.980988 
	C233.148621,219.509674 233.102539,219.946640 232.772568,220.916962 
	C231.135391,223.608078 229.782089,225.765839 228.206512,228.139465 
	C226.358917,230.912079 224.733612,233.468842 222.693405,235.940689 
	C220.324722,235.571732 218.373764,235.265930 216.416458,235.008560 
	C213.201721,234.585846 209.982834,234.194550 206.765701,233.790009 
	C208.613220,228.296738 210.460754,222.803467 212.493958,216.990814 
	C215.514069,217.114487 218.336899,217.663849 221.185791,217.974167 
	C224.897079,218.378403 228.628998,218.593018 232.773376,218.980988 
z"/>
<path fill="#2D4550" opacity="1.000000" stroke="none" 
	d="
M270.992310,284.561401 
	C270.002808,282.015045 268.505890,279.084991 268.120575,276.015381 
	C266.427582,262.529755 262.281097,249.836472 255.597794,238.105408 
	C250.538773,229.225418 244.640533,220.823547 238.923340,211.894379 
	C238.805710,211.221680 238.880539,210.863480 239.056000,210.248993 
	C241.865814,213.011429 245.020996,215.740494 247.203705,219.101151 
	C254.893555,230.941040 262.409851,242.986542 265.837555,256.869812 
	C268.049622,265.829437 269.309753,275.024109 270.992310,284.561401 
z"/>
<path fill="#8AFFFC" opacity="1.000000" stroke="none" 
	d="
M139.916428,266.199402 
	C140.014084,262.142761 142.807755,261.981903 145.849579,261.987946 
	C162.512924,262.021179 179.176346,262.009399 196.265503,262.417175 
	C196.502853,265.875275 196.314468,268.929291 196.082550,272.418091 
	C196.695938,276.567139 197.352859,280.281433 198.060577,284.349152 
	C200.005219,290.622070 203.916611,294.909851 209.867126,296.263763 
	C214.377914,297.290100 219.224838,296.839142 224.117004,297.318237 
	C226.265411,299.699249 228.219040,301.807526 229.693481,303.933777 
	C202.490005,303.971130 175.765701,303.990540 149.137527,303.707886 
	C149.454987,302.596039 149.676315,301.786224 150.077332,300.660614 
	C151.480499,296.225891 152.703995,292.106964 153.967438,287.540344 
	C153.798615,283.176178 155.366043,278.852783 151.262604,275.484253 
	C147.376465,272.183594 143.646454,269.191498 139.916428,266.199402 
z"/>
<path fill="#1CFEF4" opacity="1.000000" stroke="none" 
	d="
M189.741760,232.976303 
	C190.027786,243.254913 184.578003,251.488602 174.821579,255.518112 
	C165.601486,259.326111 153.554016,257.105713 147.018646,248.988113 
	C143.333084,244.410309 141.634033,238.233215 139.526398,232.385391 
	C145.045380,231.651794 150.078064,231.309357 155.415787,230.996674 
	C156.123367,231.101135 156.525940,231.175842 157.213730,231.463623 
	C160.617935,231.651245 163.736908,231.625778 167.181427,231.882996 
	C174.918564,232.435898 182.330170,232.706100 189.741760,232.976303 
z"/>
<path fill="#31FEF6" opacity="1.000000" stroke="none" 
	d="
M196.126068,271.983307 
	C196.314468,268.929291 196.502853,265.875275 196.718170,262.421265 
	C197.652100,258.533997 198.559113,255.046738 200.068375,251.422607 
	C206.186310,251.545792 211.701996,251.805832 217.216888,252.499588 
	C217.557587,256.036560 217.387512,259.308594 218.344345,262.208862 
	C220.509613,268.772095 227.052307,270.874237 233.422821,267.183533 
	C235.076035,264.959686 236.443130,262.928528 237.899628,260.925079 
	C237.989029,260.952759 238.150269,261.047760 238.607666,261.034088 
	C243.783859,260.981842 248.502670,260.943268 253.221466,260.904694 
	C253.577118,262.665558 253.932770,264.426422 254.316742,266.985596 
	C254.239441,269.189880 254.133820,270.595917 253.557587,272.001404 
	C234.100006,271.995026 215.113037,271.989166 196.126068,271.983307 
z"/>
<path fill="#1CFEF4" opacity="1.000000" stroke="none" 
	d="
M136.854004,231.965088 
	C133.697891,238.604660 131.360199,245.424561 131.877716,253.629364 
	C123.447319,254.538818 115.369576,254.770111 107.235962,254.610504 
	C108.336739,245.378540 111.783203,237.578156 118.246948,230.946564 
	C124.770660,231.297119 130.812332,231.631104 136.854004,231.965088 
z"/>
<path fill="#31FEF6" opacity="1.000000" stroke="none" 
	d="
M107.291840,255.001404 
	C115.369576,254.770111 123.447319,254.538818 131.900452,254.068573 
	C134.632462,257.824036 136.989090,261.818451 139.631073,266.006134 
	C143.646454,269.191498 147.376465,272.183594 150.836548,275.667297 
	C144.906769,276.467255 139.246902,276.775604 133.440109,276.834198 
	C132.852142,275.725677 132.411102,274.866882 131.923813,273.671906 
	C130.747803,271.508575 129.618073,269.681427 128.290466,267.555298 
	C122.967110,262.842529 118.587723,263.704102 116.325081,269.942322 
	C115.337631,272.664764 115.363426,275.754730 114.614471,278.598297 
	C112.527779,275.681000 110.755692,272.843170 108.960457,269.629303 
	C108.282661,266.834869 107.628006,264.416473 107.020615,261.597107 
	C106.969528,260.128052 106.871178,259.060028 106.857071,257.620758 
	C107.058167,256.500153 107.175003,255.750778 107.291840,255.001404 
z"/>
<path fill="#0DFEF3" opacity="1.000000" stroke="none" 
	d="
M137.016693,231.782379 
	C130.812332,231.631104 124.770660,231.297119 118.363937,230.620651 
	C121.335274,226.185791 124.671677,222.093399 128.008072,218.001007 
	C134.211624,218.002045 140.415161,218.003082 147.182159,218.378693 
	C148.373550,220.436386 149.001480,222.119507 149.689545,224.110779 
	C151.536697,226.601593 153.323730,228.784241 155.110764,230.966904 
	C150.078064,231.309357 145.045380,231.651794 139.555161,231.988251 
	C138.458221,231.854721 137.818817,231.727203 137.016693,231.782379 
z"/>
<path fill="#1CFEF4" opacity="1.000000" stroke="none" 
	d="
M217.217682,252.065872 
	C211.701996,251.805832 206.186310,251.545792 200.276566,251.119095 
	C202.028458,245.408783 204.174408,239.865112 206.543030,234.055725 
	C209.982834,234.194550 213.201721,234.585846 216.416458,235.008560 
	C218.373764,235.265930 220.324722,235.571732 222.655457,236.262909 
	C222.931335,237.090469 222.830261,237.510910 222.496582,238.165054 
	C221.506744,240.264832 220.749481,242.130920 219.780212,244.285156 
	C218.784698,247.070847 218.001205,249.568359 217.217682,252.065872 
z"/>
<path fill="#0DFEF3" opacity="1.000000" stroke="none" 
	d="
M189.792206,232.558777 
	C182.330170,232.706100 174.918564,232.435898 167.392014,231.653351 
	C168.619934,229.475403 169.962830,227.809784 171.511353,225.894196 
	C172.337509,224.058578 172.958038,222.472946 173.578568,220.887299 
	C177.922302,220.655609 182.266052,220.423935 186.976929,219.924866 
	C188.176926,223.818726 189.009781,227.979996 189.792206,232.558777 
z"/>
<path fill="#2D7A95" opacity="1.000000" stroke="none" 
	d="
M149.629410,223.802628 
	C149.001480,222.119507 148.373550,220.436386 147.618698,218.379898 
	C147.371933,215.919327 147.252090,213.832138 147.202484,211.351501 
	C154.256393,208.662262 161.240051,206.366486 168.623352,204.033981 
	C170.271790,206.749573 171.520630,209.501892 172.441833,212.704575 
	C164.298264,216.026291 155.763641,217.380005 149.629410,223.802628 
z"/>
<path fill="#2D8CAB" opacity="1.000000" stroke="none" 
	d="
M149.689545,224.110779 
	C155.763641,217.380005 164.298264,216.026291 172.466690,213.064331 
	C173.087433,215.342407 173.355667,217.711060 173.601227,220.483521 
	C172.958038,222.472946 172.337509,224.058578 171.065979,225.860703 
	C165.119400,225.715912 160.693802,227.622574 156.928497,231.250549 
	C156.525940,231.175842 156.123367,231.101135 155.415787,230.996674 
	C153.323730,228.784241 151.536697,226.601593 149.689545,224.110779 
z"/>
<path fill="#2D4D59" opacity="1.000000" stroke="none" 
	d="
M128.087311,217.657623 
	C124.671677,222.093399 121.335274,226.185791 117.881897,230.604095 
	C111.783203,237.578156 108.336739,245.378540 107.235962,254.610504 
	C107.175003,255.750778 107.058167,256.500153 106.506104,257.664124 
	C104.766342,260.207764 102.929070,262.185883 102.274139,264.498840 
	C101.105156,268.627136 100.700859,272.967346 99.887802,277.201843 
	C95.765205,298.673065 98.851837,319.395752 106.487114,339.601532 
	C107.118500,341.272430 108.875618,342.517944 110.282211,344.266846 
	C110.697899,345.719116 110.941048,346.865631 111.184189,348.012177 
	C111.427391,349.759308 111.670601,351.506470 111.881149,353.632751 
	C110.137444,352.123627 107.911247,350.497559 106.795990,348.306091 
	C96.948792,328.956604 94.154358,308.058502 95.198143,286.784393 
	C96.121658,267.961456 101.671837,250.063126 111.311996,233.797012 
	C117.212013,223.841751 124.205956,214.533127 130.769699,204.976044 
	C131.299225,204.205063 132.303162,203.759888 133.402618,203.073486 
	C131.867905,207.760544 130.017227,212.537399 128.087311,217.657623 
z"/>
<path fill="#9EFFFD" opacity="1.000000" stroke="none" 
	d="
M132.041626,357.011658 
	C131.686813,353.954529 131.332001,350.897369 130.974365,346.991486 
	C132.289490,342.059204 133.607422,337.975677 135.276398,334.133606 
	C137.761261,334.583374 139.894852,334.970154 142.028946,334.973083 
	C171.189362,335.013062 200.349976,334.959869 229.510178,335.045410 
	C233.644608,335.057526 237.777237,335.681091 241.858612,336.393707 
	C241.551758,338.500946 241.297012,340.236084 241.000671,342.364685 
	C238.976517,347.844696 236.993958,352.931305 234.772018,357.709717 
	C232.328796,356.934448 230.126266,356.068146 227.920898,356.060760 
	C200.261887,355.968262 172.602341,355.956787 144.943298,356.045227 
	C140.641769,356.058960 136.342133,356.674438 132.041626,357.011658 
z"/>
<path fill="#A5FFFE" opacity="1.000000" stroke="none" 
	d="
M132.096863,357.372711 
	C136.342133,356.674438 140.641769,356.058960 144.943298,356.045227 
	C172.602341,355.956787 200.261887,355.968262 227.920898,356.060760 
	C230.126266,356.068146 232.328796,356.934448 234.694183,358.041809 
	C231.902634,362.120789 228.949524,365.559601 225.996414,368.998383 
	C218.924835,373.112671 212.030869,372.173767 205.330002,368.138062 
	C197.942642,363.688843 190.861328,364.277161 183.848160,369.012878 
	C180.133865,371.520996 176.390717,374.018738 172.480957,376.199036 
	C161.088593,382.552155 149.262650,380.833649 140.141861,371.636993 
	C138.508331,369.989899 137.035629,368.183319 135.252243,366.220154 
	C134.061249,363.237854 133.106689,360.485809 132.096863,357.372711 
z"/>
<path fill="#6EFEFB" opacity="1.000000" stroke="none" 
	d="
M134.925354,333.892151 
	C133.607422,337.975677 132.289490,342.059204 130.959518,346.554047 
	C124.663216,347.313049 118.378944,347.660736 111.639435,348.010315 
	C110.941048,346.865631 110.697899,345.719116 110.337799,343.821350 
	C110.012032,340.386749 109.803207,337.703369 109.673508,334.606445 
	C109.814064,332.795502 109.875481,331.398132 110.409744,330.000031 
	C119.253975,329.665710 127.625374,329.332092 135.934174,329.353302 
	C135.556168,331.102814 135.240768,332.497498 134.925354,333.892151 
z"/>
<path fill="#82FFFB" opacity="1.000000" stroke="none" 
	d="
M226.280167,369.256348 
	C228.949524,365.559601 231.902634,362.120789 234.933563,358.349945 
	C236.993958,352.931305 238.976517,347.844696 241.425919,342.377991 
	C246.554535,342.340759 251.216293,342.683594 255.878067,343.026459 
	C255.476852,345.047882 255.075638,347.069336 254.383698,349.759705 
	C252.469269,354.623871 250.845581,358.819122 249.221878,363.014374 
	C246.730789,366.347656 244.239700,369.680969 241.409882,373.093781 
	C239.251999,372.448120 237.486877,371.491760 235.601242,371.050903 
	C232.631409,370.356537 229.580505,370.008789 226.280167,369.256348 
z"/>
<path fill="#2D4550" opacity="1.000000" stroke="none" 
	d="
M209.600754,389.181091 
	C208.723755,390.458649 207.622742,392.205414 206.116257,392.688904 
	C190.086853,397.833405 173.985214,397.815826 157.927902,392.744843 
	C156.920105,392.426575 156.132065,391.412354 155.120300,390.395386 
	C158.723862,389.362732 162.448883,388.656586 166.735535,388.299072 
	C167.972504,389.077576 168.640320,389.868103 169.324341,389.882416 
	C177.575516,390.054901 185.835083,390.309937 194.077698,390.058655 
	C196.084259,389.997467 198.037094,388.174103 200.014633,387.161011 
	C203.072571,387.795288 206.130524,388.429535 209.600754,389.181091 
z"/>
<path fill="#2D596A" opacity="1.000000" stroke="none" 
	d="
M199.667023,386.978241 
	C198.037094,388.174103 196.084259,389.997467 194.077698,390.058655 
	C185.835083,390.309937 177.575516,390.054901 169.324341,389.882416 
	C168.640320,389.868103 167.972504,389.077576 167.148483,388.310303 
	C177.666000,384.643311 188.405319,383.320496 199.667023,386.978241 
z"/>
<path fill="#2D4550" opacity="1.000000" stroke="none" 
	d="
M249.568863,362.988708 
	C250.845581,358.819122 252.469269,354.623871 254.294373,350.141113 
	C256.428436,347.427246 258.974945,345.273407 260.192780,342.529785 
	C267.376648,326.345093 269.750092,309.167938 270.020081,291.609100 
	C270.040161,290.302887 270.366547,289.001404 270.769043,287.348877 
	C271.324005,292.748657 272.475555,298.587830 271.849335,304.229614 
	C269.671631,323.849365 264.835205,342.744232 253.879745,359.553345 
	C252.965912,360.955444 251.255920,361.838684 249.568863,362.988708 
z"/>
<path fill="#5FFEFA" opacity="1.000000" stroke="none" 
	d="
M258.269348,323.555176 
	C258.246613,324.768890 258.154755,325.521912 257.511505,326.641296 
	C251.964081,327.009705 246.968002,327.011688 241.830246,326.659912 
	C240.069778,321.237000 238.450989,316.167847 237.317413,311.071594 
	C244.239517,310.637665 250.676392,310.230835 257.290039,309.894684 
	C257.466797,309.965363 257.832977,310.069550 257.832977,310.069550 
	C257.955383,314.411194 258.077820,318.752838 258.269348,323.555176 
z"/>
<path fill="#2E677A" opacity="1.000000" stroke="none" 
	d="
M258.151764,309.837280 
	C257.832977,310.069550 257.466797,309.965363 257.331848,309.478027 
	C256.398163,304.661102 255.599396,300.331482 254.797546,295.591248 
	C254.439346,291.454163 254.084229,287.727722 253.805328,283.546021 
	C253.930405,279.394470 253.979294,275.698212 254.028198,272.001923 
	C254.133820,270.595917 254.239441,269.189880 254.419220,267.366821 
	C255.751282,269.987823 257.807861,272.946533 258.118927,276.078583 
	C259.092072,285.877045 259.470978,295.738129 259.899231,305.582825 
	C259.956543,306.900330 258.972412,308.263153 258.151764,309.837280 
z"/>
<path fill="#2E677A" opacity="1.000000" stroke="none" 
	d="
M228.428787,227.923584 
	C229.782089,225.765839 231.135391,223.608078 232.755859,221.246338 
	C237.949707,228.568222 242.974792,236.032913 247.724747,243.668732 
	C248.744690,245.308350 248.769669,247.566879 248.748718,249.630402 
	C245.144562,247.095581 242.044693,244.470642 238.810760,241.537491 
	C237.757233,239.472504 237.090775,237.509628 235.863754,236.003372 
	C233.556320,233.170898 230.925278,230.602051 228.428787,227.923584 
z"/>
<path fill="#1CFEF4" opacity="1.000000" stroke="none" 
	d="
M238.944824,241.845703 
	C242.044693,244.470642 245.144562,247.095581 248.526276,249.883179 
	C250.277237,253.409988 251.746368,256.774109 253.218475,260.521484 
	C248.502670,260.943268 243.783859,260.981842 238.584930,260.617310 
	C238.384811,254.091385 238.664825,247.968552 238.944824,241.845703 
z"/>
<path fill="#6EFEFB" opacity="1.000000" stroke="none" 
	d="
M241.971954,327.013672 
	C246.968002,327.011688 251.964081,327.009705 257.419189,327.010620 
	C257.598175,330.731476 257.318146,334.449432 257.080017,338.586212 
	C256.796295,340.128113 256.470673,341.251221 256.011566,342.700378 
	C251.216293,342.683594 246.554535,342.340759 241.467499,341.984558 
	C241.297012,340.236084 241.551758,338.500946 241.884766,335.942261 
	C241.966019,332.417084 241.968979,329.715393 241.971954,327.013672 
z"/>
<path fill="#2D7A95" opacity="1.000000" stroke="none" 
	d="
M238.810760,241.537491 
	C238.664825,247.968552 238.384811,254.091385 238.127533,260.630981 
	C238.150269,261.047760 237.989029,260.952759 237.591431,260.818970 
	C235.744400,258.132996 234.412766,255.504593 232.820953,253.044556 
	C229.530411,247.959335 226.101303,242.963791 222.729187,237.931366 
	C222.830261,237.510910 222.931335,237.090469 223.070343,236.347809 
	C224.733612,233.468842 226.358917,230.912079 228.206512,228.139465 
	C230.925278,230.602051 233.556320,233.170898 235.863754,236.003372 
	C237.090775,237.509628 237.757233,239.472504 238.810760,241.537491 
z"/>
<path fill="#94FFFC" opacity="1.000000" stroke="none" 
	d="
M241.830261,326.659912 
	C241.968979,329.715393 241.966019,332.417084 241.936874,335.570190 
	C237.777237,335.681091 233.644608,335.057526 229.510178,335.045410 
	C200.349976,334.959869 171.189362,335.013062 142.028946,334.973083 
	C139.894852,334.970154 137.761261,334.583374 135.276398,334.133606 
	C135.240768,332.497498 135.556168,331.102814 136.168213,329.106323 
	C138.940613,323.656738 141.416397,318.808960 144.058868,313.655212 
	C145.830856,310.236145 147.436142,307.123047 149.041412,304.009949 
	C175.765701,303.990540 202.490005,303.971130 229.958588,304.119476 
	C232.745972,306.557739 234.789093,308.828217 236.832214,311.098724 
	C238.450989,316.167847 240.069778,321.237000 241.830261,326.659912 
z"/>
<path fill="#3AFFF7" opacity="1.000000" stroke="none" 
	d="
M253.557587,272.001404 
	C253.979294,275.698212 253.930405,279.394470 253.354614,283.545959 
	C234.555069,283.999329 216.282440,283.997498 198.009796,283.995697 
	C197.352859,280.281433 196.695938,276.567139 196.082550,272.418091 
	C215.113037,271.989166 234.100006,271.995026 253.557587,272.001404 
z"/>
<path fill="#44FFF8" opacity="1.000000" stroke="none" 
	d="
M198.060577,284.349152 
	C216.282440,283.997498 234.555069,283.999329 253.278412,284.001221 
	C254.084229,287.727722 254.439346,291.454163 254.384399,295.602356 
	C243.956955,296.364594 233.939575,296.705078 223.922195,297.045563 
	C219.224838,296.839142 214.377914,297.290100 209.867126,296.263763 
	C203.916611,294.909851 200.005219,290.622070 198.060577,284.349152 
z"/>
<path fill="#50FEF8" opacity="1.000000" stroke="none" 
	d="
M224.117004,297.318237 
	C233.939575,296.705078 243.956955,296.364594 254.387482,296.013000 
	C255.599396,300.331482 256.398163,304.661102 257.155090,309.407349 
	C250.676392,310.230835 244.239517,310.637665 237.317413,311.071594 
	C234.789093,308.828217 232.745972,306.557739 230.437759,304.101532 
	C228.219040,301.807526 226.265411,299.699249 224.117004,297.318237 
z"/>
<path fill="#50FEF8" opacity="1.000000" stroke="none" 
	d="
M149.137543,303.707886 
	C147.436142,307.123047 145.830856,310.236145 143.601883,313.664185 
	C136.607407,313.626984 130.236649,313.274750 123.926491,312.743347 
	C123.987106,312.564209 124.102600,312.203979 124.431343,312.149353 
	C126.218361,310.814606 127.676636,309.534515 129.401215,308.041199 
	C130.903900,305.483154 132.140274,303.138275 133.881195,300.832672 
	C139.556381,300.906769 144.727020,300.941620 149.897659,300.976440 
	C149.676315,301.786224 149.454987,302.596039 149.137543,303.707886 
z"/>
<path fill="#3AFFF7" opacity="1.000000" stroke="none" 
	d="
M133.587036,277.083923 
	C139.246902,276.775604 144.906769,276.467255 150.992676,275.975830 
	C155.366043,278.852783 153.798615,283.176178 153.555359,287.576294 
	C147.098969,288.371643 141.094589,288.683411 135.031906,288.562988 
	C134.511398,284.448486 134.049225,280.766205 133.587036,277.083923 
z"/>
<path fill="#44FFF8" opacity="1.000000" stroke="none" 
	d="
M135.090225,288.995178 
	C141.094589,288.683411 147.098969,288.371643 153.515411,288.023987 
	C152.703995,292.106964 151.480499,296.225891 150.077332,300.660614 
	C144.727020,300.941620 139.556381,300.906769 133.983246,300.423767 
	C134.083908,296.315460 134.587067,292.655304 135.090225,288.995178 
z"/>
<path fill="#2E9ABA" opacity="1.000000" stroke="none" 
	d="
M157.213730,231.463623 
	C160.693802,227.622574 165.119400,225.715912 170.860352,226.110672 
	C169.962830,227.809784 168.619934,229.475403 167.066467,231.370667 
	C163.736908,231.625778 160.617935,231.651245 157.213730,231.463623 
z"/>
<path fill="#2E9ABA" opacity="1.000000" stroke="none" 
	d="
M217.216888,252.499588 
	C218.001205,249.568359 218.784698,247.070847 220.065247,244.465805 
	C221.715927,245.757462 223.166534,247.005203 223.970825,248.582504 
	C227.136490,254.790817 230.098862,261.102783 233.136703,267.376282 
	C227.052307,270.874237 220.509613,268.772095 218.344345,262.208862 
	C217.387512,259.308594 217.557587,256.036560 217.216888,252.499588 
z"/>
<path fill="#2D8CAB" opacity="1.000000" stroke="none" 
	d="
M233.422821,267.183533 
	C230.098862,261.102783 227.136490,254.790817 223.970825,248.582504 
	C223.166534,247.005203 221.715927,245.757462 220.277267,244.177643 
	C220.749481,242.130920 221.506744,240.264832 222.496597,238.165054 
	C226.101303,242.963791 229.530411,247.959335 232.820953,253.044556 
	C234.412766,255.504593 235.744400,258.132996 237.502029,260.791290 
	C236.443130,262.928528 235.076035,264.959686 233.422821,267.183533 
z"/>
<path fill="#2D7A95" opacity="1.000000" stroke="none" 
	d="
M124.102600,312.203979 
	C124.102600,312.203979 123.987106,312.564209 123.514275,312.749908 
	C120.012100,312.014709 116.982758,311.093811 114.095505,309.803894 
	C114.468079,299.182465 114.698570,288.930145 114.929077,278.677795 
	C115.363426,275.754730 115.337631,272.664764 116.325081,269.942322 
	C118.587723,263.704102 122.967110,262.842529 127.939331,267.741333 
	C126.524582,271.714478 124.316597,275.165161 124.176788,278.697693 
	C123.735420,289.849976 124.068916,301.032898 124.102600,312.203979 
z"/>
<path fill="#2E677A" opacity="1.000000" stroke="none" 
	d="
M114.614471,278.598297 
	C114.698570,288.930145 114.468079,299.182465 113.775192,309.663177 
	C112.404083,309.394348 111.495369,308.897186 110.251930,308.216858 
	C109.974716,313.188629 109.728615,317.602386 109.187683,321.853149 
	C108.368675,320.865356 107.560638,320.102997 107.363495,319.206329 
	C104.933182,308.152069 103.868881,296.965088 105.417969,285.718201 
	C106.148071,280.417450 107.767273,275.239166 108.983597,270.005371 
	C110.755692,272.843170 112.527779,275.681000 114.614471,278.598297 
z"/>
<path fill="#2D596A" opacity="1.000000" stroke="none" 
	d="
M108.960457,269.629303 
	C107.767273,275.239166 106.148071,280.417450 105.417969,285.718201 
	C103.868881,296.965088 104.933182,308.152069 107.363495,319.206329 
	C107.560638,320.102997 108.368675,320.865356 109.244568,322.293732 
	C109.709824,325.265137 109.823364,327.632935 109.936905,330.000732 
	C109.875481,331.398132 109.814064,332.795502 109.334869,334.559662 
	C107.721222,333.076630 105.894333,331.368469 105.441795,329.351868 
	C103.737877,321.758759 102.347961,314.086639 101.116585,306.399872 
	C100.543854,302.824677 100.182030,299.114746 100.465248,295.524323 
	C101.063522,287.939789 101.871452,280.346283 103.152336,272.851959 
	C103.789291,269.125183 105.660492,265.609375 106.973351,261.998108 
	C107.628006,264.416473 108.282661,266.834869 108.960457,269.629303 
z"/>
<path fill="#2D515F" opacity="1.000000" stroke="none" 
	d="
M107.020615,261.597107 
	C105.660492,265.609375 103.789291,269.125183 103.152336,272.851959 
	C101.871452,280.346283 101.063522,287.939789 100.465248,295.524323 
	C100.182030,299.114746 100.543854,302.824677 101.116585,306.399872 
	C102.347961,314.086639 103.737877,321.758759 105.441795,329.351868 
	C105.894333,331.368469 107.721222,333.076630 109.255737,334.973206 
	C109.803207,337.703369 110.012032,340.386749 110.165268,343.515625 
	C108.875618,342.517944 107.118500,341.272430 106.487114,339.601532 
	C98.851837,319.395752 95.765205,298.673065 99.887802,277.201843 
	C100.700859,272.967346 101.105156,268.627136 102.274139,264.498840 
	C102.929070,262.185883 104.766342,260.207764 106.421852,258.035400 
	C106.871178,259.060028 106.969528,260.128052 107.020615,261.597107 
z"/>
<path fill="#2D8CAB" opacity="1.000000" stroke="none" 
	d="
M124.431335,312.149353 
	C124.068916,301.032898 123.735420,289.849976 124.176788,278.697693 
	C124.316597,275.165161 126.524582,271.714478 128.137207,268.040283 
	C129.618073,269.681427 130.747803,271.508575 131.630829,273.899689 
	C130.933105,275.500275 130.282242,276.496307 130.062241,277.579834 
	C127.998039,287.746094 126.994087,297.956177 129.134918,308.254395 
	C127.676636,309.534515 126.218361,310.814606 124.431335,312.149353 
z"/>
<path fill="#2E9ABA" opacity="1.000000" stroke="none" 
	d="
M129.401215,308.041199 
	C126.994087,297.956177 127.998039,287.746094 130.062241,277.579834 
	C130.282242,276.496307 130.933105,275.500275 131.677094,274.235870 
	C132.411102,274.866882 132.852142,275.725677 133.440109,276.834198 
	C134.049225,280.766205 134.511398,284.448486 135.031906,288.562958 
	C134.587067,292.655304 134.083908,296.315460 133.478699,300.384521 
	C132.140274,303.138275 130.903900,305.483154 129.401215,308.041199 
z"/>
<path fill="#5FFEFA" opacity="1.000000" stroke="none" 
	d="
M110.409744,330.000031 
	C109.823364,327.632935 109.709824,325.265137 109.539398,322.456757 
	C109.728615,317.602386 109.974716,313.188629 110.251930,308.216858 
	C111.495369,308.897186 112.404083,309.394348 113.633110,310.032227 
	C116.982758,311.093811 120.012100,312.014709 123.453659,312.929077 
	C130.236649,313.274750 136.607407,313.626984 143.435181,313.970215 
	C141.416397,318.808960 138.940613,323.656738 136.230804,328.751465 
	C127.625374,329.332092 119.253975,329.665710 110.409744,330.000031 
z"/>
</svg>