<svg version="1.1" id="Layer_1" xmlns="http://www.w3.org/2000/svg" xmlns:xlink="http://www.w3.org/1999/xlink" x="0px" y="0px"
	 width="100%" viewBox="0 0 286 487" enable-background="new 0 0 286 487" xml:space="preserve">
<path fill="#2D1A13" opacity="1.000000" stroke="none" 
	d="
M118.000000,488.000000 
	C78.666672,488.000000 39.833347,488.000000 1.000016,488.000000 
	C1.000010,325.666718 1.000010,163.333405 1.000005,1.000081 
	C96.333282,1.000054 191.666565,1.000054 286.999878,1.000027 
	C286.999939,163.333252 286.999939,325.666504 286.999969,487.999878 
	C230.833328,488.000000 174.666672,488.000000 118.000000,488.000000 
M84.063728,151.092285 
	C84.063728,148.091721 84.063728,145.091156 84.063728,142.090591 
	C83.461555,141.796799 82.859383,141.503006 82.257202,141.209229 
	C79.473076,144.387192 76.688950,147.565140 73.302071,151.063965 
	C71.168816,154.026016 69.035561,156.988083 66.328468,160.324768 
	C65.037239,163.148209 63.746014,165.971634 62.095486,169.430252 
	C61.799240,174.952591 61.502991,180.474945 61.185051,186.756210 
	C63.790455,191.839752 66.395859,196.923279 69.000748,202.671204 
	C69.000595,203.114136 69.000450,203.557068 68.439667,204.384857 
	C64.610397,213.333832 60.257961,222.101944 57.086044,231.278152 
	C53.236660,242.414169 51.111889,254.171005 46.938980,265.165070 
	C39.592522,284.520264 35.906155,304.129364 38.953003,324.774231 
	C42.538326,349.067688 52.351311,370.764130 69.747658,387.834656 
	C91.112411,408.799316 117.954147,418.678528 147.777740,419.908783 
	C160.163055,420.419617 172.259598,417.948120 184.017715,413.994812 
	C200.292206,408.523102 215.303772,400.783173 227.713730,388.720734 
	C240.219711,376.564880 248.975250,361.924011 254.598022,345.486969 
	C262.776184,321.579773 263.161743,297.664856 254.517517,273.658661 
	C250.808640,263.358612 247.665375,252.821747 244.866959,242.233414 
	C237.665512,214.985428 227.809418,189.319168 205.175659,170.651840 
	C196.771072,163.720078 187.847351,157.791718 177.018433,154.335159 
	C176.976425,153.890350 176.934433,153.445541 177.147629,152.265732 
	C180.144592,142.526169 183.141571,132.786621 186.638489,122.508598 
	C187.694366,118.006882 188.750259,113.505157 190.080215,108.211487 
	C190.454041,103.497429 190.827866,98.783379 191.433060,93.386566 
	C191.123672,82.547455 189.203247,72.151955 182.929077,62.242542 
	C176.656860,52.004696 167.820526,45.016685 156.559219,40.991165 
	C161.337509,48.107670 162.143906,55.998238 162.193161,64.870636 
	C161.628967,75.491257 157.744904,84.803749 150.496033,93.329483 
	C145.929001,98.193405 141.361984,103.057327 136.191681,108.183304 
	C131.236069,114.124893 126.280464,120.066483 120.859772,126.576363 
	C117.148743,132.929245 115.261436,139.623672 116.943863,147.777237 
	C117.369148,150.024826 117.794434,152.272415 117.827942,155.156479 
	C116.953972,155.897995 116.159004,156.768341 115.193382,157.360352 
	C108.275543,161.601547 101.339165,165.813385 94.362503,169.956802 
	C93.409111,170.522995 92.199821,170.658325 90.881462,170.457687 
	C90.627205,169.952789 90.372948,169.447891 90.147781,168.200928 
	C88.893890,165.416168 87.639999,162.631424 86.244881,159.090912 
	C85.478569,156.721786 84.712257,154.352646 84.063728,151.092285 
z"/>
<path fill="#2D201B" opacity="1.000000" stroke="none" 
	d="
M177.152817,154.994019 
	C187.847351,157.791718 196.771072,163.720078 205.175659,170.651840 
	C227.809418,189.319168 237.665512,214.985428 244.866959,242.233414 
	C247.665375,252.821747 250.808640,263.358612 254.517517,273.658661 
	C263.161743,297.664856 262.776184,321.579773 254.598022,345.486969 
	C248.975250,361.924011 240.219711,376.564880 227.713730,388.720734 
	C215.303772,400.783173 200.292206,408.523102 184.017715,413.994812 
	C172.259598,417.948120 160.163055,420.419617 147.777740,419.908783 
	C117.954147,418.678528 91.112411,408.799316 69.747658,387.834656 
	C52.351311,370.764130 42.538326,349.067688 38.953003,324.774231 
	C35.906155,304.129364 39.592522,284.520264 46.938980,265.165070 
	C51.111889,254.171005 53.236660,242.414169 57.086044,231.278152 
	C60.257961,222.101944 64.610397,213.333832 68.883820,204.452057 
	C68.791870,206.201126 68.257645,207.883591 67.719345,209.564758 
	C64.149742,220.713013 60.579273,231.860977 56.859459,243.337769 
	C54.470673,252.442688 52.231506,261.218903 49.665489,270.142273 
	C48.492947,272.568512 47.279106,274.782654 46.863766,277.137604 
	C44.798515,288.847504 41.355679,300.597931 41.380932,312.327637 
	C41.420319,330.623260 47.977345,347.756653 56.214279,363.994843 
	C58.293713,368.094208 62.026138,371.355042 64.999588,375.250610 
	C65.000214,375.500000 65.001305,375.998779 65.076584,376.334473 
	C68.101036,379.780457 71.050209,382.890717 74.103958,386.317871 
	C94.644081,405.431763 119.216431,414.230316 146.499161,415.917633 
	C163.071732,416.942535 178.688797,412.210571 193.798752,405.961884 
	C198.778519,403.902496 203.280289,400.687286 208.363007,397.975769 
	C214.346329,393.937653 220.842941,390.736115 225.441666,385.775238 
	C249.673309,359.635529 260.669739,328.857300 255.626007,293.121826 
	C254.990631,288.620117 252.588074,284.367828 250.984375,279.674011 
	C250.638901,278.565094 250.313339,277.782104 249.990387,276.600281 
	C249.989471,275.138550 249.985931,274.075714 249.985733,272.616211 
	C248.994736,270.144958 248.000381,268.070343 247.003876,265.747192 
	C247.001740,265.498596 246.996826,265.001434 246.922729,264.622253 
	C244.233429,256.495605 241.618240,248.748108 239.166962,240.718719 
	C239.383209,240.112015 239.542816,239.761749 239.472641,239.465988 
	C233.092285,212.576309 221.728119,188.509964 198.769485,171.781357 
	C192.354263,167.106964 184.409882,164.531189 177.092987,160.568695 
	C177.063629,158.427780 177.108215,156.710907 177.152817,154.994019 
z"/>
<path fill="#02D5F5" opacity="1.000000" stroke="none" 
	d="
M186.138535,123.047073 
	C183.141571,132.786621 180.144592,142.526169 176.618896,152.543060 
	C167.454620,152.544312 158.819092,152.268219 150.039673,151.596863 
	C147.431747,141.251205 149.284042,131.923691 154.435730,123.004089 
	C165.317230,123.018219 175.727890,123.032646 186.138535,123.047073 
z"/>
<path fill="#01CAF8" opacity="1.000000" stroke="none" 
	d="
M186.388519,122.777832 
	C175.727890,123.032646 165.317230,123.018219 154.457703,122.667976 
	C154.156754,121.356026 154.304703,120.379890 154.656876,118.056129 
	C149.893082,121.600502 146.153976,124.382477 141.979431,127.125259 
	C134.804276,126.726746 128.064560,126.367409 121.324860,126.008072 
	C126.280464,120.066483 131.236069,114.124893 136.938568,108.071350 
	C142.793991,108.306061 147.899628,108.890419 153.011581,108.952019 
	C165.274872,109.099815 177.541092,109.002083 189.806152,109.003433 
	C188.750259,113.505157 187.694366,118.006882 186.388519,122.777832 
z"/>
<path fill="#01B8FA" opacity="1.000000" stroke="none" 
	d="
M151.098465,93.027802 
	C157.744904,84.803749 161.628967,75.491257 162.737244,64.449593 
	C169.869125,63.660187 176.456924,63.291828 183.044708,62.923470 
	C189.203247,72.151955 191.123672,82.547455 190.872223,93.711143 
	C177.240417,93.699745 164.169449,93.363770 151.098465,93.027802 
z"/>
<path fill="#00C1F9" opacity="1.000000" stroke="none" 
	d="
M150.797241,93.178635 
	C164.169449,93.363770 177.240417,93.699745 190.756546,94.052521 
	C190.827866,98.783379 190.454041,103.497429 189.943176,108.607460 
	C177.541092,109.002083 165.274872,109.099815 153.011581,108.952019 
	C147.899628,108.890419 142.793991,108.306061 137.240204,107.940323 
	C141.361984,103.057327 145.929001,98.193405 150.797241,93.178635 
z"/>
<path fill="#02D5F5" opacity="1.000000" stroke="none" 
	d="
M90.118690,168.942993 
	C90.372948,169.447891 90.627205,169.952789 90.935959,171.139877 
	C90.893448,174.019470 90.796448,176.216888 90.486618,178.684387 
	C89.531502,180.261520 88.789215,181.568558 87.857513,182.556488 
	C79.356155,178.240448 77.908401,178.583389 71.416901,185.964050 
	C67.755653,185.954239 64.481201,185.975754 61.206745,185.997284 
	C61.502991,180.474945 61.799240,174.952591 62.777962,169.155258 
	C72.346519,168.901184 81.232605,168.922089 90.118690,168.942993 
z"/>
<path fill="#01E5F6" opacity="1.000000" stroke="none" 
	d="
M150.183563,151.992142 
	C158.819092,152.268219 167.454620,152.544312 176.491287,152.910568 
	C176.934433,153.445541 176.976425,153.890350 177.085632,154.664581 
	C177.108215,156.710907 177.063629,158.427780 177.068878,160.890961 
	C177.635498,162.798294 178.152267,163.959335 178.706284,165.479492 
	C178.872528,166.546661 179.001526,167.254700 178.713211,168.049835 
	C171.196899,168.424423 164.097931,168.711929 156.724213,168.783020 
	C154.360840,163.041794 152.272202,157.516968 150.183563,151.992142 
z"/>
<path fill="#02D5F5" opacity="1.000000" stroke="none" 
	d="
M121.092316,126.292221 
	C128.064560,126.367409 134.804276,126.726746 141.787781,127.416336 
	C136.815674,133.187210 133.874573,139.803024 131.608337,147.008728 
	C126.436310,147.005615 121.735199,147.004578 117.034088,147.003555 
	C115.261436,139.623672 117.148743,132.929245 121.092316,126.292221 
z"/>
<path fill="#2D2320" opacity="1.000000" stroke="none" 
	d="
M71.803711,185.995407 
	C77.908401,178.583389 79.356155,178.240448 87.824127,182.924316 
	C87.311447,184.911179 86.886856,186.432968 85.937332,187.477646 
	C72.307976,202.473114 65.567352,220.715714 60.997955,240.247864 
	C60.996670,240.496353 60.993935,240.993317 60.686569,241.088318 
	C59.255833,241.791901 58.132458,242.400467 57.009087,243.009048 
	C60.579273,231.860977 64.149742,220.713013 67.719345,209.564758 
	C68.257645,207.883591 68.791870,206.201126 69.164139,204.259628 
	C69.000450,203.557068 69.000595,203.114136 69.379120,202.336121 
	C70.442924,202.298477 71.128342,202.595901 70.678085,202.400513 
	C71.047852,197.011398 71.425781,191.503403 71.803711,185.995407 
z"/>
<path fill="#01A4F8" opacity="1.000000" stroke="none" 
	d="
M182.986893,62.583004 
	C176.456924,63.291828 169.869125,63.660187 162.838196,64.031952 
	C162.143906,55.998238 161.337509,48.107670 156.559219,40.991165 
	C167.820526,45.016685 176.656860,52.004696 182.986893,62.583004 
z"/>
<path fill="#01E5F6" opacity="1.000000" stroke="none" 
	d="
M116.988976,147.390396 
	C121.735199,147.004578 126.436310,147.005615 131.625702,147.476105 
	C132.305618,154.271057 132.497238,160.596588 132.185562,166.929901 
	C129.133713,166.955521 126.585144,166.973343 123.815071,166.748352 
	C122.777443,164.984268 121.961327,163.462997 121.104065,161.577560 
	C120.115181,158.982269 119.167442,156.751129 118.219711,154.520004 
	C117.794434,152.272415 117.369148,150.024826 116.988976,147.390396 
z"/>
<path fill="#2D2320" opacity="1.000000" stroke="none" 
	d="
M118.023827,154.838242 
	C119.167442,156.751129 120.115181,158.982269 120.782043,161.730621 
	C112.262596,167.322586 104.067482,172.470734 95.742798,177.400040 
	C94.349876,178.224838 92.394783,178.100204 90.699455,178.414291 
	C90.796448,176.216888 90.893448,174.019470 91.049728,171.407623 
	C92.199821,170.658325 93.409111,170.522995 94.362503,169.956802 
	C101.339165,165.813385 108.275543,161.601547 115.193382,157.360352 
	C116.159004,156.768341 116.953972,155.897995 118.023827,154.838242 
z"/>
<path fill="#00C1F9" opacity="1.000000" stroke="none" 
	d="
M90.133240,168.571960 
	C81.232605,168.922089 72.346519,168.901184 62.957611,168.837677 
	C63.746014,165.971634 65.037239,163.148209 67.089676,160.149170 
	C74.029282,159.931259 80.207695,159.888962 86.386101,159.846664 
	C87.639999,162.631424 88.893890,165.416168 90.133240,168.571960 
z"/>
<path fill="#01B8FA" opacity="1.000000" stroke="none" 
	d="
M86.315491,159.468781 
	C80.207695,159.888962 74.029282,159.931259 67.376595,159.961853 
	C69.035561,156.988083 71.168816,154.026016 73.926270,151.162811 
	C77.682297,151.502274 80.814117,151.742905 83.945946,151.983521 
	C84.712257,154.352646 85.478569,156.721786 86.315491,159.468781 
z"/>
<path fill="#01E5F6" opacity="1.000000" stroke="none" 
	d="
M71.416908,185.964050 
	C71.425781,191.503403 71.047852,197.011398 70.678085,202.400513 
	C71.128342,202.595901 70.442924,202.298477 69.379379,202.003937 
	C66.395859,196.923279 63.790455,191.839752 61.195900,186.376740 
	C64.481201,185.975754 67.755653,185.954239 71.416908,185.964050 
z"/>
<path fill="#01A4F8" opacity="1.000000" stroke="none" 
	d="
M84.004837,151.537903 
	C80.814117,151.742905 77.682297,151.502274 74.227646,151.002380 
	C76.688950,147.565140 79.473076,144.387192 82.257202,141.209229 
	C82.859383,141.503006 83.461555,141.796799 84.063728,142.090591 
	C84.063728,145.091156 84.063728,148.091721 84.004837,151.537903 
z"/>
<path fill="#2D2623" opacity="1.000000" stroke="none" 
	d="
M178.669037,165.120361 
	C178.152267,163.959335 177.635498,162.798294 177.142853,161.315002 
	C184.409882,164.531189 192.354263,167.106964 198.769485,171.781357 
	C221.728119,188.509964 233.092285,212.576309 239.472641,239.465988 
	C239.542816,239.761749 239.383209,240.112015 238.833725,240.718201 
	C237.892349,240.998901 237.448120,240.998230 236.934265,240.653702 
	C235.909363,238.206573 234.954071,236.103287 234.163361,233.726242 
	C234.221527,232.484955 234.230133,231.488037 233.991638,230.554230 
	C229.492996,212.939926 220.598938,197.603256 208.517593,184.293869 
	C200.419708,175.372864 190.366486,168.790421 178.669037,165.120361 
z"/>
<path fill="#2D2320" opacity="1.000000" stroke="none" 
	d="
M208.000610,398.000549 
	C203.280289,400.687286 198.778519,403.902496 193.798752,405.961884 
	C178.688797,412.210571 163.071732,416.942535 146.499161,415.917633 
	C119.216431,414.230316 94.644081,405.431763 74.104263,386.317383 
	C74.000000,386.000000 74.001701,385.997925 74.361923,386.022522 
	C75.636856,386.396057 76.768951,386.511139 77.433716,387.129028 
	C87.741890,396.710175 100.344276,402.161682 113.228180,407.088593 
	C126.691917,412.237183 140.552429,414.738037 155.376144,412.997650 
	C156.499985,412.997681 157.249222,412.997620 158.432938,412.997772 
	C170.893997,412.693268 181.748810,407.899689 192.827896,404.031403 
	C197.961166,402.239136 202.946106,400.022064 207.999146,397.998779 
	C208.000000,398.000000 208.000610,398.000549 208.000610,398.000549 
z"/>
<path fill="#2D2320" opacity="1.000000" stroke="none" 
	d="
M251.004272,280.000000 
	C252.588074,284.367828 254.990631,288.620117 255.626007,293.121826 
	C260.669739,328.857300 249.673309,359.635529 225.441666,385.775238 
	C220.842941,390.736115 214.346329,393.937653 208.363007,397.975739 
	C208.000610,398.000549 208.000000,398.000000 208.105347,397.680664 
	C209.429596,396.267242 210.640015,395.163544 211.868851,394.080780 
	C217.575470,389.052246 223.732819,384.445831 228.900040,378.914154 
	C238.328506,368.820679 243.896927,356.452148 248.762787,343.595123 
	C253.325729,331.538544 254.618729,319.113617 254.826935,306.514496 
	C254.895599,302.359283 252.999527,298.171600 252.001862,293.665649 
	C252.001770,292.888336 252.001648,292.444183 252.181839,291.779053 
	C252.241226,290.705414 252.120270,289.852692 251.999268,288.600250 
	C251.998367,287.134491 251.997528,286.068451 251.905151,284.714417 
	C251.209885,283.950592 250.606171,283.474823 250.001389,282.624084 
	C249.997360,281.499207 249.994385,280.749268 250.244629,279.999573 
	C250.666641,279.999847 250.835464,279.999908 251.004272,280.000000 
z"/>
<path fill="#2D2320" opacity="1.000000" stroke="none" 
	d="
M64.998962,375.001221 
	C62.026138,371.355042 58.293713,368.094208 56.214279,363.994843 
	C47.977345,347.756653 41.420319,330.623260 41.380932,312.327637 
	C41.355679,300.597931 44.798515,288.847504 46.863766,277.137604 
	C47.279106,274.782654 48.492947,272.568512 49.670242,270.395233 
	C50.004448,270.669617 50.007038,270.838196 50.000214,271.398926 
	C49.996120,274.194427 50.001442,276.597778 50.007732,279.335144 
	C50.010178,280.114532 50.011654,280.559906 49.712666,281.025024 
	C48.940994,282.363190 48.469791,283.681610 47.667309,285.145874 
	C45.910156,293.990997 43.251602,302.703583 43.345280,311.386444 
	C43.488323,324.645264 46.323723,337.746735 52.034203,349.897888 
	C56.037071,358.415436 60.655460,366.643738 64.998962,375.001221 
z"/>
<path fill="#2D2623" opacity="1.000000" stroke="none" 
	d="
M64.999588,375.250610 
	C60.655460,366.643738 56.037071,358.415436 52.034203,349.897888 
	C46.323723,337.746735 43.488323,324.645264 43.345280,311.386444 
	C43.251602,302.703583 45.910156,293.990997 47.872219,285.429321 
	C48.603878,286.710114 48.799347,287.853333 48.657001,289.158081 
	C47.882584,290.338654 47.111500,291.341736 47.061913,292.379303 
	C46.636978,301.270569 45.353035,310.264221 46.206341,319.044525 
	C48.256756,340.142792 55.864914,359.267059 69.321175,375.892303 
	C70.507133,377.357544 71.121208,379.285645 71.718964,380.824829 
	C69.291779,379.100189 67.146538,377.549500 65.001297,375.998779 
	C65.001305,375.998779 65.000214,375.500000 64.999588,375.250610 
z"/>
<path fill="#2D2827" opacity="1.000000" stroke="none" 
	d="
M50.009624,271.006775 
	C50.007038,270.838196 50.004448,270.669617 49.997097,270.248047 
	C52.231506,261.218903 54.470673,252.442688 56.859463,243.337769 
	C58.132458,242.400467 59.255833,241.791901 60.618210,241.439758 
	C59.910683,244.136230 58.964149,246.576248 58.008514,249.398834 
	C57.665920,251.520721 57.332436,253.260056 56.671661,255.131943 
	C54.902176,259.848358 53.459976,264.432190 52.018463,269.347168 
	C52.018154,270.119720 52.017170,270.561218 51.681618,271.002380 
	C50.901237,271.003662 50.455433,271.005219 50.009624,271.006775 
z"/>
<path fill="#2D2C2C" opacity="1.000000" stroke="none" 
	d="
M249.991409,279.999359 
	C249.994385,280.749268 249.997360,281.499207 249.999847,282.957581 
	C249.998138,284.110687 249.996918,284.555328 249.791565,285.285187 
	C249.387680,286.717316 249.187927,287.864227 248.646790,288.840515 
	C247.938538,288.144867 247.343903,287.661774 247.238663,287.088745 
	C245.458771,277.397491 243.739731,267.695068 242.324677,258.129822 
	C244.093704,260.510162 245.545258,262.755798 246.996826,265.001434 
	C246.996826,265.001434 247.001740,265.498596 247.002914,266.143066 
	C247.996857,268.862640 248.989624,270.937775 249.982391,273.012878 
	C249.985931,274.075714 249.989471,275.138550 249.709625,276.699158 
	C249.614639,278.131042 249.803024,279.065216 249.991409,279.999359 
z"/>
<path fill="#2D2827" opacity="1.000000" stroke="none" 
	d="
M246.922729,264.622253 
	C245.545258,262.755798 244.093704,260.510162 242.322433,257.797302 
	C242.000977,256.886566 241.999222,256.443054 242.161743,255.731323 
	C240.551987,250.641251 238.777939,245.819397 237.003891,240.997559 
	C237.448120,240.998230 237.892349,240.998901 238.669815,241.000092 
	C241.618240,248.748108 244.233429,256.495605 246.922729,264.622253 
z"/>
<path fill="#2D2320" opacity="1.000000" stroke="none" 
	d="
M65.076569,376.334503 
	C67.146538,377.549500 69.291779,379.100189 71.718506,380.825439 
	C72.000000,381.000000 72.000916,380.998779 72.073601,381.330261 
	C72.764755,383.107117 73.383224,384.552521 74.001694,385.997925 
	C74.001701,385.997925 74.000000,386.000000 73.999695,386.000488 
	C71.050209,382.890717 68.101036,379.780457 65.076569,376.334503 
z"/>
<path fill="#2D2623" opacity="1.000000" stroke="none" 
	d="
M249.985748,272.616211 
	C248.989624,270.937775 247.996857,268.862640 247.005051,266.391663 
	C248.000381,268.070343 248.994736,270.144958 249.985748,272.616211 
z"/>
<path fill="#2D2827" opacity="1.000000" stroke="none" 
	d="
M250.244629,279.999573 
	C249.803024,279.065216 249.614639,278.131042 249.707001,277.098022 
	C250.313339,277.782104 250.638901,278.565094 250.984375,279.674011 
	C250.835464,279.999908 250.666641,279.999847 250.244629,279.999573 
z"/>
<path fill="#89F6FC" opacity="1.000000" stroke="none" 
	d="
M132.688858,166.922104 
	C132.497238,160.596588 132.305618,154.271057 132.096619,147.478165 
	C133.874573,139.803024 136.815674,133.187210 142.223236,127.455528 
	C146.153976,124.382477 149.893082,121.600502 154.656876,118.056129 
	C154.304703,120.379890 154.156754,121.356026 153.986847,122.668274 
	C149.284042,131.923691 147.431747,141.251205 150.039673,151.596863 
	C152.272202,157.516968 154.360840,163.041794 156.788147,169.126434 
	C158.178955,171.767502 159.231079,173.848785 159.850464,176.020233 
	C151.629166,176.073181 143.840652,176.035934 135.869095,175.688873 
	C134.686996,172.560089 133.687927,169.741104 132.688858,166.922104 
z"/>
<path fill="#2D2827" opacity="1.000000" stroke="none" 
	d="
M90.486618,178.684387 
	C92.394783,178.100204 94.349876,178.224838 95.742798,177.400040 
	C104.067482,172.470734 112.262596,167.322586 120.823196,162.094788 
	C121.961327,163.462997 122.777443,164.984268 123.809181,167.076569 
	C124.084343,168.080383 124.143883,168.513199 123.809647,168.980011 
	C121.514015,169.578430 119.507950,169.917526 117.726173,170.741562 
	C96.178352,180.706818 81.990433,197.502899 72.761543,219.015076 
	C69.841736,225.821030 66.278572,232.350967 62.757034,239.128235 
	C62.002567,239.499283 61.500900,239.749329 60.999237,239.999390 
	C65.567352,220.715714 72.307976,202.473114 85.937332,187.477646 
	C86.886856,186.432968 87.311447,184.911179 88.013535,183.243423 
	C88.789215,181.568558 89.531502,180.261520 90.486618,178.684387 
z"/>
<path fill="#01EEF3" opacity="1.000000" stroke="none" 
	d="
M160.283218,175.930054 
	C159.231079,173.848785 158.178955,171.767502 157.062881,169.342834 
	C164.097931,168.711929 171.196899,168.424423 178.938950,168.210297 
	C179.974365,168.886353 180.366730,169.489029 180.797882,170.444336 
	C182.147934,172.893768 183.459183,174.990540 184.889771,177.407440 
	C186.404617,179.795578 187.800110,181.863586 188.714508,183.945877 
	C180.831665,184.304504 173.429901,184.648849 165.785339,184.757202 
	C163.789444,181.657486 162.036331,178.793762 160.283218,175.930054 
z"/>
<path fill="#2D2827" opacity="1.000000" stroke="none" 
	d="
M180.759094,170.091705 
	C180.366730,169.489029 179.974365,168.886353 179.356277,168.123199 
	C179.001526,167.254700 178.872528,166.546661 178.706284,165.479492 
	C190.366486,168.790421 200.419708,175.372864 208.517593,184.293869 
	C220.598938,197.603256 229.492996,212.939926 233.991638,230.554230 
	C234.230133,231.488037 234.221527,232.484955 233.830658,233.725967 
	C232.889725,233.999023 232.446091,233.998596 231.870041,233.710022 
	C231.488602,232.618134 231.239563,231.814392 230.918274,230.634140 
	C225.915421,209.626358 214.480774,192.949661 198.568359,179.468765 
	C193.570786,175.234879 186.747009,173.156616 180.759094,170.091705 
z"/>
<path fill="#2D2C2C" opacity="1.000000" stroke="none" 
	d="
M60.997952,240.247864 
	C61.500900,239.749329 62.002567,239.499283 62.748848,239.517029 
	C61.334843,242.861954 59.676228,245.939117 58.017616,249.016266 
	C58.964149,246.576248 59.910683,244.136230 60.925575,241.344757 
	C60.993935,240.993317 60.996670,240.496353 60.997952,240.247864 
z"/>
<path fill="#01EEF3" opacity="1.000000" stroke="none" 
	d="
M124.203430,168.946014 
	C124.143883,168.513199 124.084343,168.080383 124.030693,167.319366 
	C126.585144,166.973343 129.133713,166.955521 132.185562,166.929901 
	C133.687927,169.741104 134.686996,172.560089 135.902283,176.059814 
	C137.213791,180.125565 138.309082,183.510590 138.904999,186.917816 
	C135.461792,186.996429 132.517929,187.052872 129.427185,186.867798 
	C129.137894,186.081238 128.995499,185.536148 128.883850,184.601242 
	C128.025757,180.987137 127.136909,177.762878 126.225494,174.196564 
	C125.536430,172.218338 124.869926,170.582184 124.203430,168.946014 
z"/>
<path fill="#2D2C2C" opacity="1.000000" stroke="none" 
	d="
M232.002441,233.998169 
	C232.446091,233.998596 232.889725,233.999023 233.666077,233.999725 
	C234.954071,236.103287 235.909363,238.206573 236.934265,240.653717 
	C238.777939,245.819397 240.551987,250.641251 241.921967,255.480225 
	C238.346085,248.330948 235.174255,241.164566 232.002441,233.998169 
z"/>
<path fill="#2D2827" opacity="1.000000" stroke="none" 
	d="
M248.988159,289.011169 
	C249.187927,287.864227 249.387680,286.717316 250.125153,285.285492 
	C251.107483,285.001221 251.552078,285.001831 251.996689,285.002441 
	C251.997528,286.068451 251.998367,287.134491 251.818817,288.821167 
	C251.759445,290.294556 251.880478,291.147278 252.001511,292.000000 
	C252.001648,292.444183 252.001770,292.888336 252.001221,294.122375 
	C253.364639,307.886169 253.352264,320.905518 249.772476,333.461151 
	C243.858765,354.202759 234.993118,373.267426 217.404770,387.236176 
	C202.021835,399.453278 184.506973,406.302460 165.513885,410.124084 
	C162.920990,410.645782 160.499359,412.018738 157.998444,412.997559 
	C157.249222,412.997620 156.499985,412.997681 155.233154,412.673401 
	C154.027206,411.974457 153.310318,411.229462 152.654724,411.279938 
	C139.553894,412.288940 126.961502,410.161743 114.750618,405.422577 
	C103.769501,401.160645 92.707405,397.126404 83.480362,389.384674 
	C79.858337,386.345703 75.839195,383.780029 72.000916,380.998779 
	C72.000916,380.998779 72.000000,381.000000 72.000458,380.999390 
	C71.121208,379.285645 70.507133,377.357544 69.321175,375.892303 
	C55.864914,359.267059 48.256756,340.142792 46.206341,319.044525 
	C45.353035,310.264221 46.636978,301.270569 47.061913,292.379303 
	C47.111500,291.341736 47.882584,290.338654 48.658531,289.618347 
	C48.942657,292.746063 49.165768,295.612701 48.788971,298.398132 
	C45.203491,324.903290 53.079185,348.580627 67.777649,369.983521 
	C76.833664,383.170258 89.414017,392.718079 104.542969,398.897217 
	C120.075340,405.241150 135.624756,410.651917 152.775772,409.022369 
	C181.593719,406.284332 207.015747,396.436890 226.565186,374.120056 
	C239.143036,359.761688 245.441818,342.495911 248.765335,324.148682 
	C250.004272,317.309265 248.980743,310.059998 248.989136,302.581787 
	C248.990540,300.779907 248.991684,299.393860 248.994720,297.671631 
	C248.994812,296.887177 248.993011,296.438934 248.989975,295.659180 
	C248.988693,294.885712 248.988647,294.443695 249.141541,293.825195 
	C249.192764,293.098694 249.091034,292.548737 248.989288,291.625214 
	C248.988892,290.504822 248.988525,289.757996 248.988159,289.011169 
z"/>
<path fill="#2D2623" opacity="1.000000" stroke="none" 
	d="
M158.432938,412.997772 
	C160.499359,412.018738 162.920990,410.645782 165.513885,410.124084 
	C184.506973,406.302460 202.021835,399.453278 217.404770,387.236176 
	C234.993118,373.267426 243.858765,354.202759 249.772476,333.461151 
	C253.352264,320.905518 253.364639,307.886169 252.001190,294.455505 
	C252.999527,298.171600 254.895599,302.359283 254.826935,306.514496 
	C254.618729,319.113617 253.325729,331.538544 248.762787,343.595123 
	C243.896927,356.452148 238.328506,368.820679 228.900040,378.914154 
	C223.732819,384.445831 217.575470,389.052246 211.868851,394.080780 
	C210.640015,395.163544 209.429596,396.267242 208.104492,397.679443 
	C202.946106,400.022064 197.961166,402.239136 192.827896,404.031403 
	C181.748810,407.899689 170.893997,412.693268 158.432938,412.997772 
z"/>
<path fill="#2D2623" opacity="1.000000" stroke="none" 
	d="
M72.073593,381.330261 
	C75.839195,383.780029 79.858337,386.345703 83.480362,389.384674 
	C92.707405,397.126404 103.769501,401.160645 114.750618,405.422577 
	C126.961502,410.161743 139.553894,412.288940 152.654724,411.279938 
	C153.310318,411.229462 154.027206,411.974457 154.858536,412.673340 
	C140.552429,414.738037 126.691917,412.237183 113.228180,407.088593 
	C100.344276,402.161682 87.741890,396.710175 77.433716,387.129028 
	C76.768951,386.511139 75.636856,386.396057 74.361923,386.022522 
	C73.383224,384.552521 72.764755,383.107117 72.073593,381.330261 
z"/>
<path fill="#2D2623" opacity="1.000000" stroke="none" 
	d="
M252.181839,291.779053 
	C251.880478,291.147278 251.759445,290.294556 251.818863,289.220917 
	C252.120270,289.852692 252.241226,290.705414 252.181839,291.779053 
z"/>
<path fill="#2D2623" opacity="1.000000" stroke="none" 
	d="
M251.905151,284.714417 
	C251.552078,285.001831 251.107483,285.001221 250.329285,285.000305 
	C249.996918,284.555328 249.998138,284.110687 250.000885,283.332520 
	C250.606171,283.474823 251.209885,283.950592 251.905151,284.714417 
z"/>
<path fill="#2E3335" opacity="1.000000" stroke="none" 
	d="
M248.988586,294.001709 
	C248.988647,294.443695 248.988693,294.885712 248.751465,295.735291 
	C248.673721,296.764526 248.833282,297.386169 248.992828,298.007812 
	C248.991684,299.393860 248.990540,300.779907 248.732986,302.865601 
	C247.985138,305.623688 247.144379,307.667328 247.056717,309.742828 
	C246.251816,328.796295 240.686798,346.510468 230.760956,362.577789 
	C220.319397,379.479889 204.835342,390.657959 186.731354,398.648224 
	C169.479294,406.262421 151.841522,408.854492 133.305511,405.150391 
	C119.416634,402.374908 106.815689,396.652252 94.933586,389.050140 
	C73.554916,375.372101 61.469162,355.274536 55.042866,331.374054 
	C51.212952,317.129913 50.407200,302.511017 50.943645,287.795715 
	C51.025639,285.546539 50.342430,283.269470 50.013130,281.005280 
	C50.011654,280.559906 50.010178,280.114532 50.330009,279.191895 
	C51.106274,276.144012 51.561226,273.573334 52.016182,271.002686 
	C52.017170,270.561218 52.018154,270.119720 52.342384,269.201904 
	C54.110069,264.150146 55.554504,259.574768 56.998943,254.999390 
	C57.332436,253.260056 57.665920,251.520721 58.008511,249.398834 
	C59.676228,245.939117 61.334843,242.861954 63.001648,239.396027 
	C66.278572,232.350967 69.841736,225.821030 72.761543,219.015076 
	C81.990433,197.502899 96.178352,180.706818 117.726173,170.741562 
	C119.507950,169.917526 121.514015,169.578430 123.809647,168.980011 
	C124.869926,170.582184 125.536430,172.218338 126.032288,174.518356 
	C124.345116,176.404236 122.985519,177.935837 121.286194,178.797287 
	C111.406738,183.805573 101.562836,188.811630 94.071167,197.337128 
	C93.367599,198.137756 92.112305,198.453583 91.014526,198.722153 
	C90.249596,198.257874 89.118568,197.733536 88.983917,197.921814 
	C83.203964,206.003189 79.855713,214.991913 78.822502,225.019379 
	C77.798119,225.558701 76.913521,225.867859 76.472420,226.490982 
	C63.840168,244.335999 57.319981,264.593048 55.214489,285.994019 
	C53.066971,307.822144 56.935822,328.934753 66.058510,349.169922 
	C71.610336,361.484497 79.143089,372.625977 89.609238,380.248749 
	C108.436821,393.961243 129.093994,403.348541 153.876511,401.487183 
	C165.372299,400.623718 175.631485,397.517120 185.924286,393.355225 
	C187.210724,392.835083 187.977325,391.029297 189.344772,389.665802 
	C194.243378,388.034515 199.206345,387.272400 203.212814,384.897034 
	C208.181610,381.951080 212.358292,377.669128 217.185394,373.818420 
	C220.384491,369.806610 223.275314,365.940613 226.447968,361.886292 
	C229.919769,353.138611 233.109787,344.579193 236.623154,335.913818 
	C238.001236,334.023865 239.554413,332.363281 240.031479,330.436249 
	C243.714188,315.560455 246.176331,300.639557 244.086121,285.130188 
	C242.027252,269.853363 239.082886,254.848846 231.517075,241.352936 
	C223.738174,227.476898 215.297821,213.942627 206.521255,200.672607 
	C203.882553,196.682968 201.458801,191.322662 195.009903,190.749664 
	C192.904053,188.325226 191.049820,186.128418 189.195602,183.931595 
	C187.800110,181.863586 186.404617,179.795578 185.291077,177.395065 
	C191.538376,180.710754 198.702789,183.267609 203.221573,188.232422 
	C212.883362,198.847855 221.662842,210.369537 226.137421,224.499939 
	C226.909454,226.937958 229.330948,228.853668 230.990524,231.010651 
	C231.239563,231.814392 231.488602,232.618134 231.870041,233.710022 
	C235.174255,241.164566 238.346085,248.330948 241.757690,255.748444 
	C241.999222,256.443054 242.000977,256.886566 242.004974,257.662598 
	C243.739731,267.695068 245.458771,277.397491 247.238663,287.088745 
	C247.343903,287.661774 247.938538,288.144867 248.646805,288.840515 
	C248.988525,289.757996 248.988892,290.504822 248.839798,291.802704 
	C248.789749,292.903076 248.889160,293.452393 248.988586,294.001709 
z"/>
<path fill="#2D2C2C" opacity="1.000000" stroke="none" 
	d="
M49.712669,281.025024 
	C50.342430,283.269470 51.025639,285.546539 50.943645,287.795715 
	C50.407200,302.511017 51.212952,317.129913 55.042866,331.374054 
	C61.469162,355.274536 73.554916,375.372101 94.933586,389.050140 
	C106.815689,396.652252 119.416634,402.374908 133.305511,405.150391 
	C151.841522,408.854492 169.479294,406.262421 186.731354,398.648224 
	C204.835342,390.657959 220.319397,379.479889 230.760956,362.577789 
	C240.686798,346.510468 246.251816,328.796295 247.056717,309.742828 
	C247.144379,307.667328 247.985138,305.623688 248.732727,303.281433 
	C248.980743,310.059998 250.004272,317.309265 248.765335,324.148682 
	C245.441818,342.495911 239.143036,359.761688 226.565186,374.120056 
	C207.015747,396.436890 181.593719,406.284332 152.775772,409.022369 
	C135.624756,410.651917 120.075340,405.241150 104.542969,398.897217 
	C89.414017,392.718079 76.833664,383.170258 67.777649,369.983521 
	C53.079185,348.580627 45.203491,324.903290 48.788971,298.398132 
	C49.165768,295.612701 48.942657,292.746063 48.996346,289.456848 
	C48.799347,287.853333 48.603878,286.710114 48.203499,285.283447 
	C48.469791,283.681610 48.940994,282.363190 49.712669,281.025024 
z"/>
<path fill="#2D2C2C" opacity="1.000000" stroke="none" 
	d="
M51.681610,271.002380 
	C51.561226,273.573334 51.106274,276.144012 50.329041,278.857880 
	C50.001442,276.597778 49.996120,274.194427 50.000214,271.398926 
	C50.455433,271.005219 50.901237,271.003662 51.681610,271.002380 
z"/>
<path fill="#2D2C2C" opacity="1.000000" stroke="none" 
	d="
M56.671658,255.131943 
	C55.554504,259.574768 54.110069,264.150146 52.341705,268.870789 
	C53.459976,264.432190 54.902176,259.848358 56.671658,255.131943 
z"/>
<path fill="#81FFFB" opacity="1.000000" stroke="none" 
	d="
M139.404373,186.895615 
	C138.309082,183.510590 137.213791,180.125565 136.085327,176.369598 
	C143.840652,176.035934 151.629166,176.073181 159.850464,176.020233 
	C162.036331,178.793762 163.789444,181.657486 165.818680,185.114105 
	C167.527039,188.443512 168.959259,191.180008 169.887863,193.934692 
	C160.591324,193.968536 151.798386,193.984192 142.823761,193.708618 
	C141.562820,191.243454 140.483597,189.069534 139.404373,186.895615 
z"/>
<path fill="#01F9F3" opacity="1.000000" stroke="none" 
	d="
M170.391479,193.916504 
	C168.959259,191.180008 167.527039,188.443512 166.061478,185.350098 
	C173.429901,184.648849 180.831665,184.304504 188.714508,183.945877 
	C191.049820,186.128418 192.904053,188.325226 195.111679,191.064697 
	C198.070374,196.710709 200.675690,201.814087 202.793915,206.934479 
	C194.173340,206.979813 186.039871,207.008118 177.677490,206.785492 
	C175.096207,202.328537 172.743851,198.122513 170.391479,193.916504 
z"/>
<path fill="#2D2C2C" opacity="1.000000" stroke="none" 
	d="
M230.918274,230.634140 
	C229.330948,228.853668 226.909454,226.937958 226.137421,224.499939 
	C221.662842,210.369537 212.883362,198.847855 203.221573,188.232422 
	C198.702789,183.267609 191.538376,180.710754 185.171722,177.074951 
	C183.459183,174.990540 182.147934,172.893768 180.797882,170.444336 
	C186.747009,173.156616 193.570786,175.234879 198.568359,179.468765 
	C214.480774,192.949661 225.915421,209.626358 230.918274,230.634140 
z"/>
<path fill="#01F9F3" opacity="1.000000" stroke="none" 
	d="
M138.904999,186.917816 
	C140.483597,189.069534 141.562820,191.243454 142.862732,194.089142 
	C144.167831,200.163284 145.252243,205.565659 145.888672,210.945221 
	C138.828461,210.552628 132.216248,210.182816 125.702347,209.477966 
	C126.455009,207.422577 127.109360,205.702255 127.923294,203.626648 
	C128.497421,200.489426 128.911957,197.707489 129.463898,194.510712 
	C129.592255,191.766998 129.583176,189.438156 129.574081,187.109299 
	C132.517929,187.052872 135.461792,186.996429 138.904999,186.917816 
z"/>
<path fill="#2E3D43" opacity="1.000000" stroke="none" 
	d="
M91.113167,198.994492 
	C92.112305,198.453583 93.367599,198.137756 94.071167,197.337128 
	C101.562836,188.811630 111.406738,183.805573 121.286194,178.797287 
	C122.985519,177.935837 124.345116,176.404236 126.054855,174.860413 
	C127.136909,177.762878 128.025757,180.987137 128.519180,184.630417 
	C114.870026,190.089432 102.977318,197.043060 94.323929,208.621063 
	C93.084404,205.220764 92.098785,202.107620 91.113167,198.994492 
z"/>
<path fill="#2D4550" opacity="1.000000" stroke="none" 
	d="
M94.577835,208.908218 
	C102.977318,197.043060 114.870026,190.089432 128.488419,185.020248 
	C128.995499,185.536148 129.137894,186.081238 129.427185,186.867798 
	C129.583176,189.438156 129.592255,191.766998 129.118866,194.533234 
	C127.827034,195.143539 126.907455,195.125244 126.225067,195.518524 
	C118.048561,200.230698 109.919052,205.024384 101.746155,209.742905 
	C100.218918,210.624649 98.554657,211.269073 96.693619,211.897125 
	C95.815010,210.816910 95.196426,209.862564 94.577835,208.908218 
z"/>
<path fill="#2D2C2C" opacity="1.000000" stroke="none" 
	d="
M248.994736,297.671631 
	C248.833282,297.386169 248.673721,296.764526 248.752686,296.066772 
	C248.993011,296.438934 248.994812,296.887177 248.994736,297.671631 
z"/>
<path fill="#2D2C2C" opacity="1.000000" stroke="none" 
	d="
M249.141541,293.825195 
	C248.889160,293.452393 248.789749,292.903076 248.839813,292.176270 
	C249.091034,292.548737 249.192764,293.098694 249.141541,293.825195 
z"/>
<path fill="#91FDFC" opacity="1.000000" stroke="none" 
	d="
M216.877121,373.964233 
	C212.358292,377.669128 208.181610,381.951080 203.212814,384.897034 
	C199.206345,387.272400 194.243378,388.034515 188.970367,389.549103 
	C186.161896,389.481537 184.087784,389.377228 181.609558,389.143677 
	C178.849701,388.500549 176.493973,387.986694 173.834518,387.295624 
	C170.687698,386.451019 167.844620,385.783600 164.619034,384.948975 
	C156.488861,385.263031 148.741226,385.744263 140.613708,386.231262 
	C136.823471,387.169495 133.413116,388.101929 129.587311,389.012878 
	C126.110451,389.400879 123.049042,389.810425 119.560898,390.139709 
	C106.669533,389.929779 97.499496,383.566895 90.073334,374.228271 
	C95.459030,373.620483 100.534492,373.477722 105.566780,372.934784 
	C108.419846,372.626923 111.202118,371.662842 114.349335,370.996948 
	C115.126442,371.007141 115.570480,371.014709 116.085564,371.258820 
	C116.764992,371.339783 117.373367,371.184174 118.385468,371.023376 
	C119.865875,371.020905 120.942551,371.023651 122.189461,371.371643 
	C123.876938,372.143921 125.392006,372.932831 126.911781,372.941986 
	C142.121597,373.033661 157.333054,373.075714 172.541565,372.907532 
	C174.704651,372.883606 176.854507,371.663239 179.259415,370.998688 
	C179.508331,371.000793 180.006119,371.008759 180.123398,371.307159 
	C181.489594,371.409637 182.738495,371.213745 184.326874,370.950989 
	C185.782410,370.598877 186.898468,370.313568 188.119415,370.394287 
	C190.225937,371.506470 192.190659,372.758942 194.235886,372.908234 
	C201.768524,373.458069 209.327835,373.642426 216.877121,373.964233 
z"/>
<path fill="#2E3D43" opacity="1.000000" stroke="none" 
	d="
M89.745033,374.525787 
	C97.499496,383.566895 106.669533,389.929779 119.602386,390.489349 
	C121.548592,392.055450 122.859886,393.714050 124.530319,394.247040 
	C141.429260,399.638947 158.355865,399.504608 175.119293,393.687042 
	C177.626144,392.817078 179.725708,390.773560 182.013672,389.272888 
	C184.087784,389.377228 186.161896,389.481537 188.610382,389.702545 
	C187.977325,391.029297 187.210724,392.835083 185.924286,393.355225 
	C175.631485,397.517120 165.372299,400.623718 153.876511,401.487183 
	C129.093994,403.348541 108.436821,393.961243 89.609238,380.248749 
	C79.143089,372.625977 71.610336,361.484497 66.058510,349.169922 
	C56.935822,328.934753 53.066971,307.822144 55.214489,285.994019 
	C57.319981,264.593048 63.840168,244.335999 76.472420,226.490982 
	C76.913521,225.867859 77.798119,225.558701 79.052841,225.028687 
	C79.629684,224.954147 80.090668,224.954803 80.128204,225.373077 
	C80.145638,227.183502 80.125526,228.575653 79.736443,229.998108 
	C77.578209,232.352280 75.788956,234.676132 73.678825,237.109192 
	C71.908211,239.815384 70.458473,242.412384 68.852180,245.329773 
	C67.796631,248.433212 66.897644,251.216263 65.710762,254.092499 
	C64.952583,254.794525 64.482300,255.403397 64.009247,256.422577 
	C63.336235,260.887909 62.665985,264.942902 61.753159,269.063019 
	C61.341492,269.752350 61.172401,270.376617 60.925900,271.383240 
	C60.565254,273.843597 60.282021,275.921570 59.680595,278.132629 
	C58.912369,279.514252 58.462330,280.762787 58.011925,282.426880 
	C58.010883,284.227783 58.010212,285.613098 57.807964,287.274078 
	C57.739311,289.033569 57.872238,290.517395 58.004883,292.445251 
	C58.004684,295.259125 58.004772,297.628937 57.823242,300.219482 
	C57.762760,301.293854 57.883888,302.147522 58.004868,303.417664 
	C58.004925,305.222321 58.005138,306.610565 57.810867,308.251648 
	C57.748798,309.670410 57.881218,310.836334 58.014099,312.333099 
	C58.013840,313.105072 58.013115,313.546234 58.100876,314.276855 
	C58.791557,315.044861 59.393761,315.523407 59.996857,316.456116 
	C60.349209,320.683563 59.788204,324.850861 61.216888,328.158844 
	C66.244286,339.799164 71.815575,351.214905 77.541588,362.533173 
	C78.515053,364.457306 81.264824,365.482849 83.466919,367.106537 
	C85.741600,369.701599 87.743317,372.113708 89.745033,374.525787 
z"/>
<path fill="#2E3D43" opacity="1.000000" stroke="none" 
	d="
M203.281006,206.917465 
	C200.675690,201.814087 198.070374,196.710709 195.363297,191.292297 
	C201.458801,191.322662 203.882553,196.682968 206.521255,200.672607 
	C215.297821,213.942627 223.738174,227.476898 231.517075,241.352936 
	C239.082886,254.848846 242.027252,269.853363 244.086121,285.130188 
	C246.176331,300.639557 243.714188,315.560455 240.031479,330.436249 
	C239.554413,332.363281 238.001236,334.023865 236.490845,335.572845 
	C236.350998,334.226990 236.666840,333.116180 237.152557,331.625275 
	C237.639175,325.832336 237.955917,320.419434 238.604614,314.896790 
	C239.954834,312.123871 241.785522,309.475800 241.835190,306.794739 
	C241.970428,299.498016 241.571991,292.169952 240.994186,284.885315 
	C238.718216,256.191681 226.252426,232.011063 207.635651,210.645737 
	C206.868607,209.765442 205.361389,209.530136 204.089844,208.726074 
	C203.747452,207.944366 203.514236,207.430908 203.281006,206.917465 
z"/>
<path fill="#7CFFFB" opacity="1.000000" stroke="none" 
	d="
M236.982681,332.005341 
	C236.666840,333.116180 236.350998,334.226990 236.167480,335.678833 
	C233.109787,344.579193 229.919769,353.138611 226.054474,361.721680 
	C222.655060,361.496490 219.903458,361.409637 217.214417,360.953827 
	C214.438690,360.483337 211.723770,359.653992 209.159424,358.697052 
	C211.908661,354.613708 214.480743,350.814972 217.286987,346.766785 
	C219.371689,341.323547 221.222229,336.129761 223.484680,330.983490 
	C228.258636,331.355774 232.620651,331.680573 236.982681,332.005341 
z"/>
<path fill="#89FFFC" opacity="1.000000" stroke="none" 
	d="
M208.982239,358.981628 
	C211.723770,359.653992 214.438690,360.483337 217.214417,360.953827 
	C219.903458,361.409637 222.655060,361.496490 225.772675,361.909973 
	C223.275314,365.940613 220.384491,369.806610 217.185394,373.818420 
	C209.327835,373.642426 201.768524,373.458069 194.235886,372.908234 
	C192.190659,372.758942 190.225937,371.506470 188.480194,370.318146 
	C195.484818,366.244537 202.233536,362.613098 208.982239,358.981628 
z"/>
<path fill="#0AFEF3" opacity="1.000000" stroke="none" 
	d="
M80.090668,224.954803 
	C80.090668,224.954803 79.629684,224.954147 79.399338,224.944839 
	C79.855713,214.991913 83.203964,206.003189 88.983917,197.921814 
	C89.118568,197.733536 90.249596,198.257874 91.014526,198.722153 
	C92.098785,202.107620 93.084404,205.220764 94.323929,208.621063 
	C95.196426,209.862564 95.815010,210.816910 96.812531,212.201324 
	C98.836739,214.008392 100.482018,215.385406 101.830872,217.025604 
	C97.193855,217.859634 92.827545,219.028244 88.519470,218.842941 
	C83.646072,218.633316 80.626160,219.756500 80.090668,224.954803 
z"/>
<path fill="#7CFFFB" opacity="1.000000" stroke="none" 
	d="
M146.336670,210.968018 
	C145.252243,205.565659 144.167831,200.163284 143.044434,194.380386 
	C151.798386,193.984192 160.591324,193.968536 169.887878,193.934692 
	C172.743851,198.122513 175.096207,202.328537 177.746368,207.149780 
	C179.338699,211.846054 180.633240,215.927109 181.848236,220.383392 
	C180.830017,224.169617 179.891327,227.580612 178.713089,231.226288 
	C176.194183,235.277435 173.914825,239.093918 171.429047,243.050064 
	C170.831314,243.497269 170.440018,243.804810 169.749771,243.866180 
	C166.754059,243.080215 164.076904,242.230988 161.356842,242.058624 
	C153.181488,241.540573 144.989395,241.286407 136.998596,240.650574 
	C139.390839,237.238235 141.588348,234.104630 143.961639,230.631149 
	C144.803116,227.200363 145.468796,224.109482 146.287140,220.652344 
	C146.405426,217.180084 146.371048,214.074051 146.336670,210.968018 
z"/>
<path fill="#0AFEF3" opacity="1.000000" stroke="none" 
	d="
M181.927765,220.008163 
	C180.633240,215.927109 179.338699,211.846054 177.975281,207.400726 
	C186.039871,207.008118 194.173340,206.979813 202.793915,206.934479 
	C203.514236,207.430908 203.747452,207.944366 204.063553,209.154175 
	C204.350204,211.546310 204.553970,213.242065 204.592255,215.335876 
	C204.306915,217.160889 204.187073,218.587875 203.935852,220.071594 
	C203.804504,220.128326 203.545074,220.249161 203.044449,220.199768 
	C195.671799,220.102966 188.799789,220.055573 181.927765,220.008163 
z"/>
<path fill="#0AFEF3" opacity="1.000000" stroke="none" 
	d="
M145.888672,210.945221 
	C146.371048,214.074051 146.405426,217.180084 145.805450,220.647186 
	C137.395401,221.004639 129.611145,221.210342 121.848381,220.891876 
	C118.844971,220.768646 115.890282,219.457764 113.217987,218.511841 
	C118.506149,217.162323 122.478432,214.614471 125.075790,209.914841 
	C125.248924,209.867065 125.604034,209.813019 125.604034,209.813019 
	C132.216248,210.182816 138.828461,210.552628 145.888672,210.945221 
z"/>
<path fill="#2D5362" opacity="1.000000" stroke="none" 
	d="
M102.127296,216.762421 
	C100.482018,215.385406 98.836739,214.008392 97.072556,212.327194 
	C98.554657,211.269073 100.218918,210.624649 101.746155,209.742905 
	C109.919052,205.024384 118.048561,200.230698 126.225067,195.518524 
	C126.907455,195.125244 127.827034,195.143539 128.981445,194.948090 
	C128.911957,197.707489 128.497421,200.489426 127.538963,203.635895 
	C117.627106,205.544693 110.047043,210.327667 103.154755,216.910400 
	C102.585335,216.819229 102.356316,216.790833 102.127296,216.762421 
z"/>
<path fill="#2D5A6B" opacity="1.000000" stroke="none" 
	d="
M103.495171,216.973175 
	C110.047043,210.327667 117.627106,205.544693 127.379379,203.991180 
	C127.109360,205.702255 126.455009,207.422577 125.702347,209.477966 
	C125.604034,209.813019 125.248924,209.867065 124.691544,209.923523 
	C118.526634,211.225555 113.335831,213.188705 109.550537,218.291321 
	C107.278168,217.894180 105.386665,217.433685 103.495171,216.973175 
z"/>
<path fill="#A0FFFE" opacity="1.000000" stroke="none" 
	d="
M209.159409,358.697021 
	C202.233536,362.613098 195.484818,366.244537 188.375320,369.952118 
	C186.898468,370.313568 185.782410,370.598877 183.929062,370.947998 
	C182.129898,371.010803 181.068008,371.009796 180.006119,371.008759 
	C180.006119,371.008759 179.508331,371.000793 178.971115,370.792450 
	C174.630325,368.625885 170.555573,367.057312 167.075058,364.634918 
	C157.404129,357.904114 146.106049,358.045105 136.338684,364.583832 
	C132.049911,367.454895 126.821167,368.921875 122.019226,371.026367 
	C120.942551,371.023651 119.865875,371.020905 118.057785,371.019135 
	C116.889091,371.020813 116.451805,371.021545 116.014519,371.022278 
	C115.570480,371.014709 115.126442,371.007141 114.069290,370.781738 
	C104.316284,368.129791 97.742607,362.179718 91.995270,354.609222 
	C91.264954,351.837158 90.628677,349.424469 90.232620,346.705017 
	C92.171768,345.933044 93.869873,345.065125 95.569725,345.061737 
	C134.100830,344.984650 172.632202,344.972595 211.163101,345.087646 
	C213.128235,345.093506 215.089676,346.344818 217.052826,347.016235 
	C214.480743,350.814972 211.908661,354.613708 209.159409,358.697021 
z"/>
<path fill="#89FFFC" opacity="1.000000" stroke="none" 
	d="
M122.189453,371.371643 
	C126.821167,368.921875 132.049911,367.454895 136.338684,364.583832 
	C146.106049,358.045105 157.404129,357.904114 167.075058,364.634918 
	C170.555573,367.057312 174.630325,368.625885 178.722198,370.790344 
	C176.854507,371.663239 174.704651,372.883606 172.541565,372.907532 
	C157.333054,373.075714 142.121597,373.033661 126.911781,372.941986 
	C125.392006,372.932831 123.876938,372.143921 122.189453,371.371643 
z"/>
<path fill="#89FFFC" opacity="1.000000" stroke="none" 
	d="
M92.089317,354.968628 
	C97.742607,362.179718 104.316284,368.129791 113.736221,370.779114 
	C111.202118,371.662842 108.419846,372.626923 105.566780,372.934784 
	C100.534492,373.477722 95.459030,373.620483 90.073334,374.228271 
	C87.743317,372.113708 85.741600,369.701599 83.384293,366.760742 
	C81.535500,363.218262 80.042297,360.204559 78.957634,357.022400 
	C83.607224,356.225494 87.848267,355.597076 92.089317,354.968628 
z"/>
<path fill="#2D4550" opacity="1.000000" stroke="none" 
	d="
M181.609543,389.143677 
	C179.725708,390.773560 177.626144,392.817078 175.119293,393.687042 
	C158.355865,399.504608 141.429260,399.638947 124.530319,394.247040 
	C122.859886,393.714050 121.548592,392.055450 120.029121,390.569641 
	C123.049042,389.810425 126.110451,389.400879 129.715393,389.348663 
	C131.646072,390.466156 133.000977,391.811768 134.425705,391.890228 
	C142.822433,392.352936 151.288101,393.190338 159.623016,392.534607 
	C164.563583,392.145905 169.306488,389.244446 174.138260,387.472809 
	C176.493973,387.986694 178.849701,388.500549 181.609543,389.143677 
z"/>
<path fill="#2D5362" opacity="1.000000" stroke="none" 
	d="
M173.834518,387.295624 
	C169.306488,389.244446 164.563583,392.145905 159.623016,392.534607 
	C151.288101,393.190338 142.822433,392.352936 134.425705,391.890228 
	C133.000977,391.811768 131.646072,390.466156 130.130829,389.370178 
	C133.413116,388.101929 136.823471,387.169495 140.773163,386.545166 
	C148.879852,391.085785 156.414764,387.821228 163.943939,386.683044 
	C164.365799,386.619293 164.652145,385.659088 165.001556,385.116150 
	C167.844620,385.783600 170.687698,386.451019 173.834518,387.295624 
z"/>
<path fill="#2D5A6B" opacity="1.000000" stroke="none" 
	d="
M164.619034,384.948975 
	C164.652145,385.659088 164.365799,386.619293 163.943939,386.683044 
	C156.414764,387.821228 148.879852,391.085785 141.153030,386.539368 
	C148.741226,385.744263 156.488861,385.263031 164.619034,384.948975 
z"/>
<path fill="#89FFFC" opacity="1.000000" stroke="none" 
	d="
M180.123398,371.307159 
	C181.068008,371.009796 182.129898,371.010803 183.589600,371.014832 
	C182.738495,371.213745 181.489594,371.409637 180.123398,371.307159 
z"/>
<path fill="#89FFFC" opacity="1.000000" stroke="none" 
	d="
M116.085564,371.258820 
	C116.451805,371.021545 116.889091,371.020813 117.654068,371.024353 
	C117.373367,371.184174 116.764992,371.339783 116.085564,371.258820 
z"/>
<path fill="#12FEF3" opacity="1.000000" stroke="none" 
	d="
M103.154755,216.910400 
	C105.386665,217.433685 107.278168,217.894180 109.822594,218.430573 
	C111.288147,218.566971 112.100769,218.627472 112.913399,218.687958 
	C115.890282,219.457764 118.844971,220.768646 121.848381,220.891876 
	C129.611145,221.210342 137.395401,221.004639 145.652771,221.013428 
	C145.468796,224.109482 144.803116,227.200363 143.564636,230.639954 
	C128.319336,231.329300 113.646812,231.669952 98.765274,231.757965 
	C97.829567,230.016678 97.102875,228.528015 95.940575,226.147003 
	C95.357285,228.490326 95.048859,229.729401 94.296066,230.975769 
	C89.785820,231.028976 85.719925,231.074905 81.492172,231.092926 
	C81.330307,231.065033 81.016693,230.967239 80.992867,230.712936 
	C80.681168,230.295029 80.393295,230.131424 80.105423,229.967819 
	C80.125526,228.575653 80.145638,227.183502 80.128204,225.373077 
	C80.626160,219.756500 83.646072,218.633316 88.519470,218.842941 
	C92.827545,219.028244 97.193855,217.859634 101.830872,217.025604 
	C102.356316,216.790833 102.585335,216.819229 103.154755,216.910400 
z"/>
<path fill="#2D4550" opacity="1.000000" stroke="none" 
	d="
M79.736443,229.998108 
	C80.393295,230.131424 80.681168,230.295029 80.814636,231.003662 
	C66.049835,252.866486 59.828487,276.489777 60.933422,302.229004 
	C61.569046,317.035675 64.748947,331.230225 70.592491,344.790192 
	C71.748749,347.473267 74.202301,349.597290 76.277451,352.219055 
	C77.181244,354.036255 77.865173,355.613556 78.549103,357.190857 
	C80.042297,360.204559 81.535500,363.218262 83.111328,366.577759 
	C81.264824,365.482849 78.515053,364.457306 77.541588,362.533173 
	C71.815575,351.214905 66.244286,339.799164 61.216888,328.158844 
	C59.788204,324.850861 60.349209,320.683563 59.906410,316.167969 
	C59.214176,314.946167 58.613285,314.466766 58.012394,313.987366 
	C58.013115,313.546234 58.013840,313.105072 58.205284,312.079163 
	C58.265789,310.329193 58.135571,309.164001 58.005352,307.998779 
	C58.005138,306.610565 58.004925,305.222321 58.184860,303.196472 
	C58.244953,301.705475 58.124905,300.852142 58.004856,299.998779 
	C58.004772,297.628937 58.004684,295.259125 58.203857,292.168762 
	C58.271927,289.964935 58.140736,288.481689 58.009544,286.998413 
	C58.010212,285.613098 58.010883,284.227783 58.328331,282.291321 
	C59.096333,280.493317 59.547558,279.246399 59.998779,277.999512 
	C60.282021,275.921570 60.565254,273.843597 61.115524,271.170532 
	C61.586952,270.049591 61.791340,269.523743 61.995731,268.997925 
	C62.665985,264.942902 63.336235,260.887909 64.295517,256.327057 
	C65.055916,255.213928 65.527290,254.606628 65.998657,253.999313 
	C66.897644,251.216263 67.796631,248.433212 69.172005,245.218353 
	C71.098831,242.191025 72.549278,239.595520 73.999718,237.000000 
	C75.788956,234.676132 77.578209,232.352280 79.736443,229.998108 
z"/>
<path fill="#2D4048" opacity="1.000000" stroke="none" 
	d="
M73.678833,237.109192 
	C72.549278,239.595520 71.098831,242.191025 69.328560,244.897949 
	C70.458473,242.412384 71.908211,239.815384 73.678833,237.109192 
z"/>
<path fill="#2D4048" opacity="1.000000" stroke="none" 
	d="
M57.807964,287.274078 
	C58.140736,288.481689 58.271927,289.964935 58.204144,291.724731 
	C57.872238,290.517395 57.739311,289.033569 57.807964,287.274078 
z"/>
<path fill="#2D4048" opacity="1.000000" stroke="none" 
	d="
M57.810867,308.251648 
	C58.135571,309.164001 58.265789,310.329193 58.204819,311.748352 
	C57.881218,310.836334 57.748798,309.670410 57.810867,308.251648 
z"/>
<path fill="#2D4048" opacity="1.000000" stroke="none" 
	d="
M59.680595,278.132629 
	C59.547558,279.246399 59.096333,280.493317 58.328701,281.875763 
	C58.462330,280.762787 58.912369,279.514252 59.680595,278.132629 
z"/>
<path fill="#2D4048" opacity="1.000000" stroke="none" 
	d="
M57.823242,300.219482 
	C58.124905,300.852142 58.244953,301.705475 58.185013,302.780029 
	C57.883888,302.147522 57.762760,301.293854 57.823242,300.219482 
z"/>
<path fill="#2D4048" opacity="1.000000" stroke="none" 
	d="
M65.710770,254.092499 
	C65.527290,254.606628 65.055916,255.213928 64.298279,255.916748 
	C64.482300,255.403397 64.952583,254.794525 65.710770,254.092499 
z"/>
<path fill="#2D4048" opacity="1.000000" stroke="none" 
	d="
M58.100876,314.276855 
	C58.613285,314.466766 59.214176,314.946167 59.905518,315.713745 
	C59.393761,315.523407 58.791557,315.044861 58.100876,314.276855 
z"/>
<path fill="#2D4048" opacity="1.000000" stroke="none" 
	d="
M61.753159,269.063019 
	C61.791340,269.523743 61.586952,270.049591 61.192932,270.788147 
	C61.172401,270.376617 61.341492,269.752350 61.753159,269.063019 
z"/>
<path fill="#5CFFFA" opacity="1.000000" stroke="none" 
	d="
M237.152557,331.625275 
	C232.620651,331.680573 228.258636,331.355774 223.507889,330.612701 
	C223.366364,328.470123 223.613556,326.745819 223.898895,324.584900 
	C222.955887,317.766296 221.974731,311.384247 221.460571,305.001892 
	C226.896255,305.003082 231.864975,305.004578 236.952026,305.397400 
	C237.471130,308.861328 237.871887,311.933960 238.272644,315.006561 
	C237.955917,320.419434 237.639175,325.832336 237.152557,331.625275 
z"/>
<path fill="#2D4048" opacity="1.000000" stroke="none" 
	d="
M238.604599,314.896790 
	C237.871887,311.933960 237.471130,308.861328 237.020676,305.147888 
	C237.013290,304.339874 237.055618,304.172638 237.429565,303.828156 
	C238.168839,302.445770 238.969284,301.223846 238.918488,300.038361 
	C238.648468,293.734619 238.624649,287.369537 237.671036,281.155273 
	C234.572083,260.960724 227.212677,242.321136 215.517761,225.572296 
	C212.678268,221.505768 208.383408,218.455429 204.757751,214.937836 
	C204.553970,213.242065 204.350204,211.546310 204.172714,209.422424 
	C205.361389,209.530136 206.868607,209.765442 207.635651,210.645737 
	C226.252426,232.011063 238.718216,256.191681 240.994186,284.885315 
	C241.571991,292.169952 241.970428,299.498016 241.835190,306.794739 
	C241.785522,309.475800 239.954834,312.123871 238.604599,314.896790 
z"/>
<path fill="#98FFFD" opacity="1.000000" stroke="none" 
	d="
M223.860748,325.021515 
	C223.613556,326.745819 223.366364,328.470123 223.095978,330.565216 
	C221.222229,336.129761 219.371689,341.323547 217.286987,346.766785 
	C215.089676,346.344818 213.128235,345.093506 211.163101,345.087646 
	C172.632202,344.972595 134.100830,344.984650 95.569725,345.061737 
	C93.869873,345.065125 92.171768,345.933044 90.012604,346.354248 
	C89.376862,340.550903 89.201355,334.791534 89.149986,328.732117 
	C89.792946,327.266724 90.311783,326.101440 91.309723,324.949707 
	C135.812805,324.982666 179.836777,325.002106 223.860748,325.021515 
z"/>
<path fill="#81FFFB" opacity="1.000000" stroke="none" 
	d="
M94.740433,230.968475 
	C95.048859,229.729401 95.357285,228.490326 95.940575,226.147003 
	C97.102875,228.528015 97.829567,230.016678 98.830948,232.099625 
	C101.885155,235.898773 104.153641,239.850983 107.540825,242.167236 
	C117.373451,248.891098 127.274979,246.874268 136.803833,240.929291 
	C144.989395,241.286407 153.181488,241.540573 161.356842,242.058624 
	C164.076904,242.230988 166.754059,243.080215 169.655182,244.190399 
	C165.921906,252.172668 161.984268,259.584564 157.874130,267.334106 
	C157.078018,270.454437 156.454422,273.237152 155.464142,275.927673 
	C151.246490,275.223694 147.378372,274.007751 143.547882,274.116577 
	C133.270676,274.408569 123.009575,275.267487 112.792801,275.501099 
	C112.621147,273.051971 112.398781,271.002930 112.098282,268.593323 
	C106.708115,259.467163 101.396088,250.701614 96.007187,241.535370 
	C95.533684,237.745956 95.137062,234.357224 94.740433,230.968475 
z"/>
<path fill="#1DFFF5" opacity="1.000000" stroke="none" 
	d="
M136.998596,240.650558 
	C127.274979,246.874268 117.373451,248.891098 107.540825,242.167236 
	C104.153641,239.850983 101.885155,235.898773 99.039963,232.352249 
	C113.646812,231.669952 128.319336,231.329300 143.388855,230.979858 
	C141.588348,234.104630 139.390839,237.238235 136.998596,240.650558 
z"/>
<path fill="#30FFF7" opacity="1.000000" stroke="none" 
	d="
M158.046646,266.996429 
	C161.984268,259.584564 165.921906,252.172668 169.954117,244.436584 
	C170.440018,243.804810 170.831314,243.497269 171.871048,243.144379 
	C175.784882,243.403564 179.080963,243.528580 182.304291,244.079300 
	C184.265762,244.414398 186.115051,245.406143 187.877594,246.379944 
	C187.081375,247.695892 186.422272,248.734833 185.493439,249.965576 
	C183.410812,252.690887 181.597916,255.224396 179.531067,257.990631 
	C177.843872,261.483521 176.410629,264.743652 174.512970,268.003357 
	C168.714584,267.667450 163.380615,267.331940 158.046646,266.996429 
z"/>
<path fill="#12FEF3" opacity="1.000000" stroke="none" 
	d="
M181.848236,220.383392 
	C188.799789,220.055573 195.671799,220.102966 203.004181,220.574921 
	C203.220795,221.975388 202.977051,222.951294 202.468689,224.144104 
	C201.727921,225.890396 201.251785,227.419800 200.545349,229.121216 
	C199.688080,230.243805 199.061127,231.194366 197.940125,232.115570 
	C191.281601,231.721344 185.117111,231.356476 178.952637,230.991608 
	C179.891327,227.580612 180.830017,224.169617 181.848236,220.383392 
z"/>
<path fill="#1DFFF5" opacity="1.000000" stroke="none" 
	d="
M178.713089,231.226288 
	C185.117111,231.356476 191.281601,231.721344 197.845886,232.420380 
	C198.121506,233.160355 197.997299,233.566132 197.589142,234.147507 
	C196.326569,235.816895 195.347931,237.310699 194.153046,238.982727 
	C193.276505,240.073456 192.616196,240.985947 191.693024,242.083862 
	C190.291687,243.547165 189.153198,244.825043 188.014709,246.102905 
	C186.115051,245.406143 184.265762,244.414398 182.304291,244.079300 
	C179.080963,243.528580 175.784882,243.403564 172.077484,243.004730 
	C173.914825,239.093918 176.194183,235.277435 178.713089,231.226288 
z"/>
<path fill="#2D4B56" opacity="1.000000" stroke="none" 
	d="
M204.592255,215.335876 
	C208.383408,218.455429 212.678268,221.505768 215.517761,225.572296 
	C227.212677,242.321136 234.572083,260.960724 237.671036,281.155273 
	C238.624649,287.369537 238.648468,293.734619 238.918488,300.038361 
	C238.969284,301.223846 238.168839,302.445770 237.280884,303.472168 
	C235.433182,298.531799 234.065781,293.770142 232.681015,288.697998 
	C232.461853,287.592438 232.260071,286.797333 232.381927,285.847931 
	C232.942581,284.025421 233.597412,282.292938 233.352249,280.698914 
	C230.780975,263.980621 225.346680,248.262466 215.931717,234.137527 
	C212.530350,229.034561 210.634109,222.512177 204.067230,220.014847 
	C204.187073,218.587875 204.306915,217.160889 204.592255,215.335876 
z"/>
<path fill="#2D5362" opacity="1.000000" stroke="none" 
	d="
M203.935867,220.071594 
	C210.634109,222.512177 212.530350,229.034561 215.931717,234.137527 
	C225.346680,248.262466 230.780975,263.980621 233.352249,280.698914 
	C233.597412,282.292938 232.942581,284.025421 232.163116,285.570801 
	C229.963181,281.835999 228.305710,278.223938 226.716980,274.143860 
	C226.506348,270.896454 226.877243,267.841217 225.835281,265.385437 
	C221.252167,254.583771 216.566544,243.799835 211.251709,233.348328 
	C209.399460,229.705933 205.628159,227.039413 202.733307,223.927200 
	C202.977051,222.951294 203.220795,221.975388 203.504807,220.624329 
	C203.545074,220.249161 203.804504,220.128326 203.935867,220.071594 
z"/>
<path fill="#2D657A" opacity="1.000000" stroke="none" 
	d="
M113.217987,218.511841 
	C112.100769,218.627472 111.288147,218.566971 110.203461,218.367218 
	C113.335831,213.188705 118.526634,211.225555 124.518410,209.971298 
	C122.478432,214.614471 118.506149,217.162323 113.217987,218.511841 
z"/>
<path fill="#7CFFFB" opacity="1.000000" stroke="none" 
	d="
M89.025856,329.032196 
	C89.201355,334.791534 89.376862,340.550903 89.772377,346.661011 
	C90.628677,349.424469 91.264954,351.837158 91.995270,354.609222 
	C87.848267,355.597076 83.607224,356.225494 78.957642,357.022400 
	C77.865173,355.613556 77.181244,354.036255 76.278030,351.816223 
	C75.176346,346.767731 74.293938,342.362030 73.480988,337.512421 
	C73.544373,334.381531 73.538300,331.694489 73.965744,329.011383 
	C79.274780,329.020935 84.150322,329.026550 89.025856,329.032196 
z"/>
<path fill="#2D4B56" opacity="1.000000" stroke="none" 
	d="
M73.411530,337.956299 
	C74.293938,342.362030 75.176346,346.767731 76.058167,351.576294 
	C74.202301,349.597290 71.748749,347.473267 70.592491,344.790192 
	C64.748947,331.230225 61.569046,317.035675 60.933422,302.229004 
	C59.828487,276.489777 66.049835,252.866486 80.838470,231.257965 
	C81.016693,230.967239 81.330307,231.065033 81.535950,231.454483 
	C82.164551,233.228027 82.587509,234.612106 82.722755,236.175232 
	C80.319290,239.511520 77.795265,242.471039 76.154518,245.858383 
	C66.046623,266.726227 62.536686,288.785828 65.311317,311.752747 
	C66.165543,318.823547 67.843742,325.820496 69.577522,332.742798 
	C70.062531,334.679260 72.091049,336.229095 73.411530,337.956299 
z"/>
<path fill="#1DFFF5" opacity="1.000000" stroke="none" 
	d="
M83.010468,235.996201 
	C82.587509,234.612106 82.164551,233.228027 81.697815,231.482391 
	C85.719925,231.074905 89.785820,231.028976 94.296074,230.975769 
	C95.137062,234.357224 95.533684,237.745956 95.702019,241.753525 
	C93.271736,242.935837 91.069748,243.499344 88.623184,243.902527 
	C87.648132,243.141449 86.917656,242.540695 86.118729,241.605362 
	C85.500732,240.301376 84.951172,239.331970 84.322372,238.092621 
	C83.832237,237.213852 83.421349,236.605026 83.010468,235.996201 
z"/>
<path fill="#91FFFC" opacity="1.000000" stroke="none" 
	d="
M223.898895,324.584900 
	C179.836777,325.002106 135.812805,324.982666 91.345680,324.557434 
	C92.986343,318.127350 95.070145,312.103119 97.336594,305.919739 
	C97.743088,305.524475 97.955406,305.278351 98.565811,304.982178 
	C101.757523,304.628113 104.538536,304.053925 107.321915,304.042267 
	C125.858231,303.964661 144.395050,304.007324 163.096649,304.244446 
	C163.802139,305.008331 164.342682,305.538666 164.985565,306.393555 
	C170.110580,314.204376 177.102142,318.993225 185.606888,321.722229 
	C199.078171,326.044922 213.004562,319.319000 218.261383,305.850342 
	C219.303635,305.444305 220.148605,305.223267 220.993591,305.002228 
	C221.974731,311.384247 222.955887,317.766296 223.898895,324.584900 
z"/>
<path fill="#4FFEF9" opacity="1.000000" stroke="none" 
	d="
M221.460571,305.001892 
	C220.148605,305.223267 219.303635,305.444305 217.786163,305.840363 
	C199.703522,306.033264 182.293381,306.051147 164.883224,306.069031 
	C164.342682,305.538666 163.802139,305.008331 162.961090,303.925568 
	C161.133469,299.910004 159.606339,296.446869 158.539810,292.988251 
	C168.110672,292.611816 177.220947,292.230896 186.691788,291.889862 
	C188.710922,292.238434 190.369461,292.547089 192.442993,292.912231 
	C195.580551,292.344360 198.303146,291.720093 201.369308,291.041443 
	C203.173111,290.334747 204.633347,289.682404 206.554779,289.022797 
	C215.576782,289.013214 224.137589,289.010834 232.698380,289.008484 
	C234.065781,293.770142 235.433182,298.531799 236.949265,303.649445 
	C237.055618,304.172638 237.013290,304.339874 236.902313,304.756592 
	C231.864975,305.004578 226.896255,305.003082 221.460571,305.001892 
z"/>
<path fill="#5CFFFA" opacity="1.000000" stroke="none" 
	d="
M97.153954,306.078857 
	C95.070145,312.103119 92.986343,318.127350 90.866577,324.543884 
	C90.311783,326.101440 89.792946,327.266724 89.149986,328.732117 
	C84.150322,329.026550 79.274780,329.020935 73.864990,328.755646 
	C73.256714,328.328369 73.182693,328.160706 73.253738,327.616028 
	C73.588448,324.826141 73.778091,322.413300 74.123940,319.640991 
	C75.190292,314.861023 76.100441,310.440521 77.187576,305.978394 
	C77.364555,305.936768 77.722893,305.875031 78.207947,305.900970 
	C84.846657,305.977570 91.000305,306.028198 97.153954,306.078857 
z"/>
<path fill="#89FFFC" opacity="1.000000" stroke="none" 
	d="
M158.079208,292.983765 
	C159.606339,296.446869 161.133469,299.910004 162.796143,303.691986 
	C144.395050,304.007324 125.858231,303.964661 107.321915,304.042267 
	C104.538536,304.053925 101.757523,304.628113 98.683830,304.660889 
	C100.186829,300.907623 101.981415,297.435486 103.900482,293.627686 
	C105.756729,289.564453 107.488487,285.836884 109.432732,281.859650 
	C110.677498,279.707031 111.709778,277.804138 112.742065,275.901215 
	C123.009575,275.267487 133.270676,274.408569 143.547882,274.116577 
	C147.378372,274.007751 151.246490,275.223694 155.499634,276.324158 
	C155.942200,277.873779 155.982574,278.934753 155.996307,280.431824 
	C156.672867,284.906525 157.376038,288.945160 158.079208,292.983765 
z"/>
<path fill="#30FFF7" opacity="1.000000" stroke="none" 
	d="
M88.867760,244.062836 
	C91.069748,243.499344 93.271736,242.935837 95.778885,242.154205 
	C101.396088,250.701614 106.708115,259.467163 111.693954,268.752930 
	C105.029022,269.449493 98.690292,269.625854 92.441330,269.395264 
	C92.943336,265.650513 93.355583,262.312714 93.799164,258.585815 
	C92.300339,254.017746 90.770172,249.838791 89.176941,245.393066 
	C89.031822,244.771835 88.949791,244.417328 88.867760,244.062836 
z"/>
<path fill="#3CFEF7" opacity="1.000000" stroke="none" 
	d="
M92.351547,269.802216 
	C98.690292,269.625854 105.029022,269.449493 111.772087,269.113525 
	C112.398781,271.002930 112.621147,273.051971 112.792793,275.501099 
	C111.709778,277.804138 110.677498,279.707031 108.942200,281.829895 
	C101.244751,282.035736 94.250298,282.021606 87.231812,281.773834 
	C87.207779,281.540192 87.167015,281.072235 87.410980,280.833130 
	C89.220482,276.996765 90.786011,273.399506 92.351547,269.802216 
z"/>
<path fill="#3CFEF7" opacity="1.000000" stroke="none" 
	d="
M156.022934,279.995789 
	C155.982574,278.934753 155.942200,277.873779 155.866333,276.416321 
	C156.454422,273.237152 157.078018,270.454437 157.874130,267.334106 
	C163.380615,267.331940 168.714584,267.667450 174.530823,268.452393 
	C175.326431,272.605499 175.639786,276.309082 175.549133,280.096191 
	C168.771057,280.118378 162.397003,280.057068 156.022934,279.995789 
z"/>
<path fill="#2D8BAB" opacity="1.000000" stroke="none" 
	d="
M206.093567,289.030029 
	C204.633347,289.682404 203.173111,290.334747 201.217316,290.677795 
	C199.790878,285.337799 199.623764,280.002441 197.764420,275.342224 
	C194.281570,266.612885 189.818497,258.274689 185.763184,249.773773 
	C186.422272,248.734833 187.081375,247.695892 187.877594,246.379944 
	C189.153198,244.825043 190.291687,243.547165 191.779236,242.430847 
	C195.209900,248.244812 198.891525,253.661377 201.228027,259.606598 
	C204.476578,267.872406 206.716904,276.534454 209.266113,285.272552 
	C208.126801,286.688812 207.110184,287.859406 206.093567,289.030029 
z"/>
<path fill="#2DA3C6" opacity="1.000000" stroke="none" 
	d="
M185.493439,249.965576 
	C189.818497,258.274689 194.281570,266.612885 197.764420,275.342224 
	C199.623764,280.002441 199.790878,285.337799 200.873749,290.732147 
	C198.303146,291.720093 195.580551,292.344360 192.433228,292.499695 
	C190.903107,279.547516 187.091217,268.029572 179.785034,257.757904 
	C181.597916,255.224396 183.410812,252.690887 185.493439,249.965576 
z"/>
<path fill="#2DAED2" opacity="1.000000" stroke="none" 
	d="
M179.531067,257.990631 
	C187.091217,268.029572 190.903107,279.547516 192.018265,292.443237 
	C190.369461,292.547089 188.710922,292.238434 186.453918,291.636932 
	C182.554688,287.566986 179.253906,283.789825 175.953156,280.012695 
	C175.639786,276.309082 175.326431,272.605499 174.995239,268.452850 
	C176.410629,264.743652 177.843872,261.483521 179.531067,257.990631 
z"/>
<path fill="#2D5A6B" opacity="1.000000" stroke="none" 
	d="
M202.468689,224.144104 
	C205.628159,227.039413 209.399460,229.705933 211.251709,233.348328 
	C216.566544,243.799835 221.252167,254.583771 225.835281,265.385437 
	C226.877243,267.841217 226.506348,270.896454 226.466843,273.895691 
	C224.374313,271.184601 222.600693,268.253540 220.858124,264.905640 
	C220.864487,263.829041 220.960510,263.137665 220.797211,262.514221 
	C217.680939,250.617386 210.771301,240.672852 204.171021,230.591858 
	C203.580505,229.689911 201.932510,229.480316 200.775650,228.949188 
	C201.251785,227.419800 201.727921,225.890396 202.468689,224.144104 
z"/>
<path fill="#2D657A" opacity="1.000000" stroke="none" 
	d="
M200.545349,229.121216 
	C201.932510,229.480316 203.580505,229.689911 204.171021,230.591858 
	C210.771301,240.672852 217.680939,250.617386 220.797211,262.514221 
	C220.960510,263.137665 220.864487,263.829041 220.576843,264.713562 
	C218.498596,262.800903 216.732697,260.663391 214.853027,258.233185 
	C211.086319,251.816986 207.596191,245.587036 203.695847,239.625427 
	C202.250702,237.416565 199.842239,235.837952 197.873108,233.971924 
	C197.997299,233.566132 198.121506,233.160355 198.339935,232.449738 
	C199.061127,231.194366 199.688080,230.243805 200.545349,229.121216 
z"/>
<path fill="#2D758E" opacity="1.000000" stroke="none" 
	d="
M197.589157,234.147491 
	C199.842239,235.837952 202.250702,237.416565 203.695847,239.625427 
	C207.596191,245.587036 211.086319,251.816986 214.845200,258.693176 
	C214.781219,264.689667 214.611282,269.933441 214.086349,275.038513 
	C213.004929,273.670624 212.138321,272.502106 211.575546,271.202118 
	C208.624252,264.384674 206.088928,257.361389 202.727707,250.756393 
	C200.544220,246.465744 197.195786,242.767929 194.369293,238.804504 
	C195.347931,237.310699 196.326569,235.816895 197.589157,234.147491 
z"/>
<path fill="#2D7F9C" opacity="1.000000" stroke="none" 
	d="
M194.153061,238.982727 
	C197.195786,242.767929 200.544220,246.465744 202.727707,250.756393 
	C206.088928,257.361389 208.624252,264.384674 211.575546,271.202118 
	C212.138321,272.502106 213.004929,273.670624 214.024887,275.406982 
	C212.675201,278.951782 211.031998,281.989319 209.388794,285.026886 
	C206.716904,276.534454 204.476578,267.872406 201.228027,259.606598 
	C198.891525,253.661377 195.209900,248.244812 192.042084,242.245422 
	C192.616196,240.985947 193.276505,240.073456 194.153061,238.982727 
z"/>
<path fill="#3CFEF7" opacity="1.000000" stroke="none" 
	d="
M209.266113,285.272552 
	C211.031998,281.989319 212.675201,278.951782 214.379868,275.545715 
	C214.611282,269.933441 214.781219,264.689667 214.958984,258.985901 
	C216.732697,260.663391 218.498596,262.800903 220.545776,265.130432 
	C222.600693,268.253540 224.374313,271.184601 226.398071,274.363770 
	C228.305710,278.223938 229.963181,281.835999 231.839478,285.725159 
	C232.260071,286.797333 232.461853,287.592438 232.681015,288.697998 
	C224.137589,289.010834 215.576782,289.013214 206.554779,289.022766 
	C207.110184,287.859406 208.126801,286.688812 209.266113,285.272552 
z"/>
<path fill="#2D5362" opacity="1.000000" stroke="none" 
	d="
M73.108673,327.993073 
	C73.182693,328.160706 73.256714,328.328369 73.431488,328.751740 
	C73.538300,331.694489 73.544373,334.381531 73.480988,337.512421 
	C72.091049,336.229095 70.062531,334.679260 69.577522,332.742798 
	C67.843742,325.820496 66.165543,318.823547 65.311317,311.752747 
	C62.536686,288.785828 66.046623,266.726227 76.154518,245.858383 
	C77.795265,242.471039 80.319290,239.511520 82.722748,236.175232 
	C83.421349,236.605026 83.832237,237.213852 84.114906,238.428131 
	C80.567497,245.478943 76.168816,251.600998 73.914352,258.430847 
	C67.372971,278.247772 64.772934,298.604126 69.246468,319.329620 
	C69.899368,322.354370 71.790497,325.111908 73.108673,327.993073 
z"/>
<path fill="#2D657A" opacity="1.000000" stroke="none" 
	d="
M88.623184,243.902527 
	C88.949791,244.417328 89.031822,244.771835 89.000404,245.723602 
	C80.776878,258.898193 77.714417,273.172546 75.865379,287.635681 
	C75.100670,293.617218 76.561775,299.883331 77.010590,306.020020 
	C76.100441,310.440521 75.190292,314.861023 73.784935,319.507874 
	C72.549545,318.337799 71.350548,317.007660 71.137962,315.535126 
	C67.916832,293.223083 70.529823,271.614685 79.703667,250.974884 
	C81.177948,247.657944 83.992310,244.936615 86.187180,241.939941 
	C86.917656,242.540695 87.648132,243.141449 88.623184,243.902527 
z"/>
<path fill="#2D5A6B" opacity="1.000000" stroke="none" 
	d="
M86.118744,241.605347 
	C83.992310,244.936615 81.177948,247.657944 79.703667,250.974884 
	C70.529823,271.614685 67.916832,293.223083 71.137962,315.535126 
	C71.350548,317.007660 72.549545,318.337799 73.628731,319.867310 
	C73.778091,322.413300 73.588448,324.826141 73.253738,327.616028 
	C71.790497,325.111908 69.899368,322.354370 69.246468,319.329620 
	C64.772934,298.604126 67.372971,278.247772 73.914352,258.430847 
	C76.168816,251.600998 80.567497,245.478943 84.194153,238.698074 
	C84.951172,239.331970 85.500732,240.301376 86.118744,241.605347 
z"/>
<path fill="#5CFFFA" opacity="1.000000" stroke="none" 
	d="
M164.985565,306.393585 
	C182.293381,306.051147 199.703522,306.033264 217.588882,306.025330 
	C213.004562,319.319000 199.078171,326.044922 185.606888,321.722229 
	C177.102142,318.993225 170.110580,314.204376 164.985565,306.393585 
z"/>
<path fill="#4FFEF9" opacity="1.000000" stroke="none" 
	d="
M103.776001,293.963379 
	C101.981415,297.435486 100.186829,300.907623 98.274223,304.701019 
	C97.955406,305.278351 97.743088,305.524475 97.336594,305.919739 
	C91.000305,306.028198 84.846657,305.977570 78.283821,305.527344 
	C79.275772,301.418243 80.676910,297.708710 82.541122,293.999207 
	C89.928131,293.987274 96.852066,293.975342 103.776001,293.963379 
z"/>
<path fill="#45FEF9" opacity="1.000000" stroke="none" 
	d="
M175.549133,280.096191 
	C179.253906,283.789825 182.554688,287.566986 186.093338,291.597046 
	C177.220947,292.230896 168.110672,292.611816 158.539810,292.988251 
	C157.376038,288.945160 156.672867,284.906525 155.996307,280.431854 
	C162.397003,280.057068 168.771057,280.118378 175.549133,280.096191 
z"/>
<path fill="#2D758E" opacity="1.000000" stroke="none" 
	d="
M82.078033,293.999207 
	C80.676910,297.708710 79.275772,301.418243 77.798767,305.501404 
	C77.722893,305.875031 77.364555,305.936768 77.187576,305.978394 
	C76.561775,299.883331 75.100670,293.617218 75.865379,287.635681 
	C77.714417,273.172546 80.776878,258.898193 89.063477,245.990341 
	C90.770172,249.838791 92.300339,254.017746 93.475693,258.687805 
	C90.928627,264.094910 88.425201,268.904846 86.695084,273.978485 
	C85.989151,276.048706 86.959373,278.690491 87.167015,281.072235 
	C87.167015,281.072235 87.207779,281.540192 87.030266,282.074890 
	C85.261177,286.406128 83.669601,290.202667 82.078033,293.999207 
z"/>
<path fill="#45FEF9" opacity="1.000000" stroke="none" 
	d="
M82.541107,293.999207 
	C83.669601,290.202667 85.261177,286.406128 87.054306,282.308533 
	C94.250298,282.021606 101.244751,282.035736 108.729721,282.079590 
	C107.488487,285.836884 105.756729,289.564453 103.900482,293.627686 
	C96.852066,293.975342 89.928131,293.987274 82.541107,293.999207 
z"/>
<path fill="#2D7F9C" opacity="1.000000" stroke="none" 
	d="
M87.410980,280.833130 
	C86.959373,278.690491 85.989151,276.048706 86.695084,273.978485 
	C88.425201,268.904846 90.928627,264.094910 93.444359,259.076874 
	C93.355583,262.312714 92.943336,265.650513 92.441315,269.395264 
	C90.786011,273.399506 89.220482,276.996765 87.410980,280.833130 
z"/>
</svg>